G04*
G04 #@! TF.GenerationSoftware,Altium Limited,Altium Designer,21.8.1 (53)*
G04*
G04 Layer_Color=8388736*
%FSLAX44Y44*%
%MOMM*%
G71*
G04*
G04 #@! TF.SameCoordinates,C9995BEE-8401-4B8A-9B38-06C5FF24312F*
G04*
G04*
G04 #@! TF.FilePolarity,Negative*
G04*
G01*
G75*
%ADD20R,3.9000X2.1000*%
%ADD21R,1.6000X2.1000*%
%ADD22R,1.9000X1.8000*%
%ADD23R,0.7500X0.8500*%
%ADD24O,0.3500X1.0000*%
%ADD25O,0.8000X0.3000*%
%ADD26O,0.3000X0.8000*%
%ADD27R,0.7000X0.7000*%
%ADD28R,0.8500X0.7500*%
%ADD29R,0.7000X0.7000*%
%ADD30O,0.7500X1.7500*%
%ADD31O,1.4000X0.5000*%
%ADD32O,0.5000X1.4000*%
%ADD33C,3.0000*%
G04:AMPARAMS|DCode=34|XSize=0.6mm|YSize=1mm|CornerRadius=0.175mm|HoleSize=0mm|Usage=FLASHONLY|Rotation=90.000|XOffset=0mm|YOffset=0mm|HoleType=Round|Shape=RoundedRectangle|*
%AMROUNDEDRECTD34*
21,1,0.6000,0.6500,0,0,90.0*
21,1,0.2500,1.0000,0,0,90.0*
1,1,0.3500,0.3250,0.1250*
1,1,0.3500,0.3250,-0.1250*
1,1,0.3500,-0.3250,-0.1250*
1,1,0.3500,-0.3250,0.1250*
%
%ADD34ROUNDEDRECTD34*%
%ADD35R,1.0500X0.9000*%
%ADD36R,1.3470X1.1890*%
G04:AMPARAMS|DCode=37|XSize=0.5mm|YSize=1.4mm|CornerRadius=0.15mm|HoleSize=0mm|Usage=FLASHONLY|Rotation=270.000|XOffset=0mm|YOffset=0mm|HoleType=Round|Shape=RoundedRectangle|*
%AMROUNDEDRECTD37*
21,1,0.5000,1.1000,0,0,270.0*
21,1,0.2000,1.4000,0,0,270.0*
1,1,0.3000,-0.5500,-0.1000*
1,1,0.3000,-0.5500,0.1000*
1,1,0.3000,0.5500,0.1000*
1,1,0.3000,0.5500,-0.1000*
%
%ADD37ROUNDEDRECTD37*%
G04:AMPARAMS|DCode=38|XSize=0.5mm|YSize=1.4mm|CornerRadius=0.15mm|HoleSize=0mm|Usage=FLASHONLY|Rotation=180.000|XOffset=0mm|YOffset=0mm|HoleType=Round|Shape=RoundedRectangle|*
%AMROUNDEDRECTD38*
21,1,0.5000,1.1000,0,0,180.0*
21,1,0.2000,1.4000,0,0,180.0*
1,1,0.3000,-0.1000,0.5500*
1,1,0.3000,0.1000,0.5500*
1,1,0.3000,0.1000,-0.5500*
1,1,0.3000,-0.1000,-0.5500*
%
%ADD38ROUNDEDRECTD38*%
%ADD39R,1.6000X1.6000*%
%ADD40O,1.0000X0.3500*%
%ADD41R,3.2000X3.2000*%
%ADD42R,0.9000X1.4000*%
%ADD43R,1.4000X0.9000*%
%ADD44R,1.8000X1.9000*%
%ADD45R,1.7000X2.1000*%
%ADD46R,1.5500X1.2500*%
%ADD47R,1.2906X0.7628*%
%ADD48R,0.3000X0.8000*%
%ADD49R,3.2000X3.2000*%
%ADD50R,0.9500X1.1000*%
%ADD51O,1.2500X0.3000*%
%ADD52O,0.3000X1.2500*%
%ADD53R,6.8400X6.8400*%
%ADD54R,1.1000X0.9500*%
%ADD55R,1.2900X1.5700*%
%ADD56R,0.9000X1.0500*%
%ADD57R,2.9000X8.3000*%
%ADD58R,8.3000X2.9000*%
%ADD59R,2.2600X2.3600*%
%ADD60R,2.0500X2.3500*%
%ADD61R,1.4000X1.9000*%
%ADD62R,1.9000X1.4000*%
G04:AMPARAMS|DCode=63|XSize=1.0096mm|YSize=0.1925mm|CornerRadius=0.0962mm|HoleSize=0mm|Usage=FLASHONLY|Rotation=0.000|XOffset=0mm|YOffset=0mm|HoleType=Round|Shape=RoundedRectangle|*
%AMROUNDEDRECTD63*
21,1,1.0096,0.0000,0,0,0.0*
21,1,0.8172,0.1925,0,0,0.0*
1,1,0.1925,0.4086,0.0000*
1,1,0.1925,-0.4086,0.0000*
1,1,0.1925,-0.4086,0.0000*
1,1,0.1925,0.4086,0.0000*
%
%ADD63ROUNDEDRECTD63*%
%ADD64R,1.0096X0.1925*%
%ADD65R,1.3100X2.1200*%
%ADD66R,2.1000X1.6000*%
%ADD67R,2.1000X3.9000*%
%ADD68R,1.4500X0.5000*%
%ADD69R,1.6500X1.6000*%
%ADD70R,0.8000X0.3000*%
%ADD71O,0.4000X1.5500*%
%ADD72O,1.5500X0.4000*%
%ADD73R,1.5500X0.4000*%
%ADD74R,1.5000X1.2500*%
%ADD75O,0.7500X2.0000*%
%ADD76R,4.2418X3.8100*%
%ADD77C,2.1000*%
%ADD78C,2.6500*%
%ADD79C,2.3500*%
%ADD80C,1.2400*%
%ADD81R,1.2400X1.2400*%
%ADD82C,2.2000*%
%ADD83C,1.3000*%
%ADD84O,2.2000X1.3000*%
%ADD85O,1.3000X2.2000*%
%ADD86O,5.1000X2.1000*%
%ADD87O,2.1000X5.1000*%
%ADD88C,2.3000*%
%ADD89C,0.7000*%
G36*
X30245Y817909D02*
X30225Y817648D01*
X30191Y817388D01*
X30143Y817131D01*
X30082Y816876D01*
X30008Y816625D01*
X29920Y816379D01*
X29820Y816137D01*
X29707Y815900D01*
X29583Y815670D01*
X29446Y815447D01*
X29297Y815231D01*
X29138Y815024D01*
X28968Y814825D01*
X28788Y814635D01*
X28598Y814455D01*
X28399Y814285D01*
X28191Y814125D01*
X27975Y813977D01*
X27752Y813840D01*
X27522Y813715D01*
X27286Y813603D01*
X27044Y813503D01*
X26797Y813415D01*
X26546Y813341D01*
X26292Y813280D01*
X26035Y813232D01*
X25775Y813198D01*
X25514Y813177D01*
X25252Y813170D01*
X17752D01*
X17491Y813177D01*
X17230Y813198D01*
X16970Y813232D01*
X16713Y813280D01*
X16458Y813341D01*
X16207Y813415D01*
X15961Y813503D01*
X15719Y813603D01*
X15482Y813715D01*
X15252Y813840D01*
X15029Y813977D01*
X14813Y814125D01*
X14606Y814285D01*
X14407Y814455D01*
X14217Y814635D01*
X14037Y814825D01*
X13867Y815024D01*
X13707Y815231D01*
X13559Y815447D01*
X13422Y815670D01*
X13297Y815900D01*
X13185Y816137D01*
X13084Y816379D01*
X12997Y816625D01*
X12923Y816876D01*
X12862Y817131D01*
X12814Y817388D01*
X12780Y817648D01*
X12759Y817909D01*
X12752Y818170D01*
Y832170D01*
X30252D01*
Y818170D01*
X30245Y817909D01*
D02*
G37*
G36*
X12752Y876170D02*
Y890170D01*
X12759Y890432D01*
X12780Y890693D01*
X12814Y890953D01*
X12862Y891210D01*
X12923Y891464D01*
X12997Y891715D01*
X13084Y891962D01*
X13185Y892204D01*
X13297Y892440D01*
X13422Y892670D01*
X13559Y892894D01*
X13707Y893109D01*
X13867Y893317D01*
X14037Y893516D01*
X14217Y893706D01*
X14407Y893886D01*
X14606Y894056D01*
X14813Y894215D01*
X15029Y894364D01*
X15252Y894501D01*
X15482Y894625D01*
X15719Y894738D01*
X15961Y894838D01*
X16207Y894926D01*
X16458Y895000D01*
X16713Y895061D01*
X16970Y895109D01*
X17230Y895143D01*
X17491Y895163D01*
X17752Y895170D01*
X25252D01*
X25514Y895163D01*
X25775Y895143D01*
X26035Y895109D01*
X26292Y895061D01*
X26546Y895000D01*
X26797Y894926D01*
X27044Y894838D01*
X27286Y894738D01*
X27522Y894625D01*
X27752Y894501D01*
X27975Y894364D01*
X28191Y894215D01*
X28399Y894056D01*
X28598Y893886D01*
X28788Y893706D01*
X28968Y893516D01*
X29138Y893317D01*
X29297Y893109D01*
X29446Y892894D01*
X29583Y892670D01*
X29707Y892440D01*
X29820Y892204D01*
X29920Y891962D01*
X30008Y891715D01*
X30082Y891464D01*
X30143Y891210D01*
X30191Y890953D01*
X30225Y890693D01*
X30245Y890432D01*
X30252Y890170D01*
Y876170D01*
X12752D01*
D02*
G37*
D20*
X597825Y812460D02*
D03*
X687250Y812750D02*
D03*
D21*
X597825Y875460D02*
D03*
X574824D02*
D03*
X620825D02*
D03*
X710250Y875750D02*
D03*
X664250D02*
D03*
X687250D02*
D03*
D22*
X574824Y911755D02*
D03*
Y942255D02*
D03*
X964000Y251000D02*
D03*
Y220500D02*
D03*
X664236Y942255D02*
D03*
Y911755D02*
D03*
X687250Y727590D02*
D03*
Y758090D02*
D03*
X827495Y226790D02*
D03*
Y196290D02*
D03*
D23*
X696398Y264196D02*
D03*
Y251697D02*
D03*
X346109Y264326D02*
D03*
Y251827D02*
D03*
X685398Y251697D02*
D03*
Y264196D02*
D03*
X335109Y251827D02*
D03*
Y264326D02*
D03*
X473500Y81250D02*
D03*
X336230Y733000D02*
D03*
X347230D02*
D03*
X484462Y415423D02*
D03*
X495462D02*
D03*
X311000Y560750D02*
D03*
X300000D02*
D03*
X516179Y926455D02*
D03*
X527179D02*
D03*
X464323Y926455D02*
D03*
X475323D02*
D03*
X523884Y510502D02*
D03*
X534884D02*
D03*
X550685Y471213D02*
D03*
X561685D02*
D03*
X539653D02*
D03*
X528653D02*
D03*
X262000Y460503D02*
D03*
X160811Y400951D02*
D03*
Y388958D02*
D03*
X409110Y634250D02*
D03*
X420110D02*
D03*
X462500Y81250D02*
D03*
X261499Y706480D02*
D03*
X272499D02*
D03*
X149810Y400951D02*
D03*
Y388958D02*
D03*
X273000Y460503D02*
D03*
X100142Y874000D02*
D03*
X89143D02*
D03*
X129385Y707533D02*
D03*
X118385D02*
D03*
X280517Y976984D02*
D03*
X291517D02*
D03*
X191278D02*
D03*
X180278D02*
D03*
X838616Y415423D02*
D03*
X849616D02*
D03*
X742586Y552662D02*
D03*
X731586D02*
D03*
X273002Y661881D02*
D03*
X262002D02*
D03*
X336230Y637780D02*
D03*
X347230D02*
D03*
D24*
X841611Y333577D02*
D03*
X846611D02*
D03*
X487493Y333696D02*
D03*
X492493D02*
D03*
X472493D02*
D03*
X826611Y383477D02*
D03*
X831611D02*
D03*
X477493Y383596D02*
D03*
X472493D02*
D03*
X482493D02*
D03*
X487493D02*
D03*
X492493D02*
D03*
X497493D02*
D03*
X502493D02*
D03*
X507493D02*
D03*
X477493Y333696D02*
D03*
X482493D02*
D03*
X497493D02*
D03*
X502493D02*
D03*
X507493D02*
D03*
X826611Y333577D02*
D03*
X224081Y470538D02*
D03*
X219081D02*
D03*
X214081D02*
D03*
X209081D02*
D03*
X204081D02*
D03*
X199081D02*
D03*
X194081D02*
D03*
X189081D02*
D03*
Y420638D02*
D03*
X194081D02*
D03*
X199081D02*
D03*
X204081D02*
D03*
X209081D02*
D03*
X214081D02*
D03*
X219081D02*
D03*
X224081D02*
D03*
X836611Y383477D02*
D03*
X841611D02*
D03*
X846611D02*
D03*
X851611D02*
D03*
X856611D02*
D03*
X861611D02*
D03*
X831611Y333577D02*
D03*
X836611D02*
D03*
X851611D02*
D03*
X856611D02*
D03*
X861611D02*
D03*
D25*
X612013Y255448D02*
D03*
Y260448D02*
D03*
X255874Y255567D02*
D03*
Y260567D02*
D03*
X612013Y265448D02*
D03*
X255874Y265567D02*
D03*
X582013Y260448D02*
D03*
X225874Y260567D02*
D03*
X582013Y250448D02*
D03*
Y255448D02*
D03*
Y265448D02*
D03*
X612013Y250448D02*
D03*
X225874Y250567D02*
D03*
Y255567D02*
D03*
Y265567D02*
D03*
X255874Y250567D02*
D03*
D26*
X599513Y242948D02*
D03*
X604513D02*
D03*
X243374Y243067D02*
D03*
X248374D02*
D03*
X589513Y272948D02*
D03*
X594513D02*
D03*
X599513D02*
D03*
X604513D02*
D03*
X594513Y242948D02*
D03*
X589513D02*
D03*
X233374Y273067D02*
D03*
X238374D02*
D03*
X243374D02*
D03*
X248374D02*
D03*
X238374Y243067D02*
D03*
X233374D02*
D03*
D27*
X613013Y226757D02*
D03*
X257000Y226750D02*
D03*
X267000D02*
D03*
X393283Y74062D02*
D03*
X403283D02*
D03*
X384403Y301924D02*
D03*
X374403D02*
D03*
X403283Y175454D02*
D03*
X393283D02*
D03*
Y83080D02*
D03*
X403283D02*
D03*
X394936Y301924D02*
D03*
X404936D02*
D03*
X393268Y184524D02*
D03*
X403268D02*
D03*
X623013Y226757D02*
D03*
X636250Y249000D02*
D03*
X626250D02*
D03*
X271920Y248876D02*
D03*
X281920D02*
D03*
X557843Y248757D02*
D03*
X567843D02*
D03*
X211704Y248876D02*
D03*
X201704D02*
D03*
X557843Y267069D02*
D03*
X567843D02*
D03*
X211704Y267188D02*
D03*
X201704D02*
D03*
X442036Y356146D02*
D03*
X432036D02*
D03*
X759054Y301805D02*
D03*
X749054D02*
D03*
X728521D02*
D03*
X738521D02*
D03*
X419610Y594651D02*
D03*
X409610D02*
D03*
X179077Y936620D02*
D03*
X189077D02*
D03*
X130933Y829170D02*
D03*
X140933D02*
D03*
X141005Y473587D02*
D03*
X151005D02*
D03*
X151051Y441560D02*
D03*
X141051D02*
D03*
X141005Y452088D02*
D03*
X151005D02*
D03*
X154485Y510544D02*
D03*
X164485D02*
D03*
X253286Y492250D02*
D03*
X263286D02*
D03*
X272499Y441560D02*
D03*
X262499D02*
D03*
Y420323D02*
D03*
X272499D02*
D03*
X612953Y610270D02*
D03*
X622953D02*
D03*
X215485Y770878D02*
D03*
X205485D02*
D03*
X259002D02*
D03*
X269002D02*
D03*
X130934Y874921D02*
D03*
X120934D02*
D03*
X282727Y936620D02*
D03*
X292727D02*
D03*
X796154Y356027D02*
D03*
X786154D02*
D03*
X595897Y685896D02*
D03*
X585897D02*
D03*
X623226Y636560D02*
D03*
X613226D02*
D03*
D28*
X475151Y209262D02*
D03*
X532593Y261198D02*
D03*
X175491Y260567D02*
D03*
X434716Y505301D02*
D03*
Y494301D02*
D03*
X175491Y249567D02*
D03*
X532593Y272198D02*
D03*
X408345Y894977D02*
D03*
Y883977D02*
D03*
X434716Y483333D02*
D03*
Y472333D02*
D03*
X387137Y703139D02*
D03*
Y714139D02*
D03*
X236580Y503370D02*
D03*
X224580D02*
D03*
X212580Y503370D02*
D03*
X200580Y503370D02*
D03*
X188580D02*
D03*
X176580D02*
D03*
X138699Y806255D02*
D03*
Y795255D02*
D03*
X354500Y591900D02*
D03*
Y602900D02*
D03*
X300750Y606896D02*
D03*
Y595896D02*
D03*
X449751Y70762D02*
D03*
Y81762D02*
D03*
X462451Y209262D02*
D03*
Y198262D02*
D03*
X475151Y198262D02*
D03*
X212580Y514370D02*
D03*
X200580Y514370D02*
D03*
X236580D02*
D03*
X224580D02*
D03*
X188580D02*
D03*
X176580D02*
D03*
X143410Y683775D02*
D03*
Y694775D02*
D03*
X159410Y683775D02*
D03*
Y694775D02*
D03*
X175410Y683775D02*
D03*
Y694775D02*
D03*
X191409Y683775D02*
D03*
Y694775D02*
D03*
X756850Y544043D02*
D03*
Y533043D02*
D03*
X744150Y704000D02*
D03*
Y693000D02*
D03*
D29*
X633430Y287131D02*
D03*
X277291Y287250D02*
D03*
X380299Y494433D02*
D03*
Y484433D02*
D03*
X310727Y513564D02*
D03*
Y503564D02*
D03*
X277291Y297250D02*
D03*
X255874Y287406D02*
D03*
Y297406D02*
D03*
X225874Y297567D02*
D03*
Y287567D02*
D03*
X633430Y297131D02*
D03*
X612013Y287287D02*
D03*
Y297287D02*
D03*
X582013Y297448D02*
D03*
Y287448D02*
D03*
X503248Y301178D02*
D03*
Y311178D02*
D03*
X476648Y301178D02*
D03*
Y311178D02*
D03*
X450671Y301178D02*
D03*
Y311178D02*
D03*
X857366Y301059D02*
D03*
Y311059D02*
D03*
X445496Y654902D02*
D03*
Y664902D02*
D03*
X497493Y111760D02*
D03*
Y101760D02*
D03*
X437036Y546590D02*
D03*
Y556590D02*
D03*
X427155Y556590D02*
D03*
Y546590D02*
D03*
X461979Y522473D02*
D03*
Y532473D02*
D03*
X212420Y379708D02*
D03*
Y389708D02*
D03*
X191679Y379708D02*
D03*
Y389708D02*
D03*
X130933Y849170D02*
D03*
Y839170D02*
D03*
X103673Y924564D02*
D03*
Y914564D02*
D03*
X155557Y924564D02*
D03*
Y914564D02*
D03*
X227587Y936620D02*
D03*
Y946620D02*
D03*
X313502Y823920D02*
D03*
Y833920D02*
D03*
X313502Y860806D02*
D03*
Y870806D02*
D03*
X259007Y946620D02*
D03*
Y936620D02*
D03*
X830766Y311059D02*
D03*
Y301059D02*
D03*
X804789Y311059D02*
D03*
Y301059D02*
D03*
X611470Y664902D02*
D03*
Y654902D02*
D03*
X601420D02*
D03*
Y664902D02*
D03*
X773500Y544293D02*
D03*
Y534293D02*
D03*
X517916Y687700D02*
D03*
Y697700D02*
D03*
X581170Y532473D02*
D03*
Y522473D02*
D03*
X621470Y546590D02*
D03*
Y556590D02*
D03*
X611470Y546590D02*
D03*
Y556590D02*
D03*
X435231Y654902D02*
D03*
Y664902D02*
D03*
D30*
X437051Y111762D02*
D03*
X449751Y168262D02*
D03*
Y111762D02*
D03*
X462451D02*
D03*
X475151D02*
D03*
X437051Y168262D02*
D03*
X462451D02*
D03*
X475151D02*
D03*
D31*
X364559Y95577D02*
D03*
Y89077D02*
D03*
Y196969D02*
D03*
Y190469D02*
D03*
Y82577D02*
D03*
X320559Y76077D02*
D03*
Y82577D02*
D03*
Y89077D02*
D03*
Y95577D02*
D03*
X364559Y183969D02*
D03*
X320559Y177469D02*
D03*
Y183969D02*
D03*
Y190469D02*
D03*
Y196969D02*
D03*
D32*
X399421Y321899D02*
D03*
X405921D02*
D03*
Y365899D02*
D03*
X399421D02*
D03*
X392921D02*
D03*
X386421D02*
D03*
X392921Y321899D02*
D03*
X760039Y321780D02*
D03*
X753539D02*
D03*
X747039D02*
D03*
X740539Y365780D02*
D03*
X747039D02*
D03*
X753539D02*
D03*
X760039D02*
D03*
D33*
X100000Y35000D02*
D03*
Y965000D02*
D03*
X900000Y500000D02*
D03*
D34*
X338256Y494550D02*
D03*
X362256D02*
D03*
X338256Y504050D02*
D03*
Y513550D02*
D03*
X362256D02*
D03*
D35*
X121368Y272884D02*
D03*
Y285884D02*
D03*
X737726Y803500D02*
D03*
Y816500D02*
D03*
D36*
X101750Y395410D02*
D03*
X50750D02*
D03*
X101750Y441590D02*
D03*
X50750D02*
D03*
D37*
X364559Y76077D02*
D03*
Y177469D02*
D03*
D38*
X386421Y321899D02*
D03*
X740539Y321780D02*
D03*
D39*
X597013Y257948D02*
D03*
X240874Y258067D02*
D03*
D40*
X465043Y376146D02*
D03*
Y371146D02*
D03*
Y366146D02*
D03*
Y361146D02*
D03*
Y356146D02*
D03*
Y351146D02*
D03*
Y346146D02*
D03*
Y341146D02*
D03*
X514943D02*
D03*
Y346146D02*
D03*
Y351146D02*
D03*
Y356146D02*
D03*
Y361146D02*
D03*
Y366146D02*
D03*
Y371146D02*
D03*
Y376146D02*
D03*
X231531Y463088D02*
D03*
Y458088D02*
D03*
Y453088D02*
D03*
Y448088D02*
D03*
Y443088D02*
D03*
Y438088D02*
D03*
Y433088D02*
D03*
Y428088D02*
D03*
X181631Y463088D02*
D03*
Y458088D02*
D03*
Y453088D02*
D03*
Y448088D02*
D03*
Y443088D02*
D03*
Y438088D02*
D03*
Y433088D02*
D03*
Y428088D02*
D03*
X819161Y376027D02*
D03*
Y371027D02*
D03*
Y366027D02*
D03*
Y361027D02*
D03*
Y356027D02*
D03*
Y351027D02*
D03*
Y346027D02*
D03*
Y341027D02*
D03*
X869061D02*
D03*
Y346027D02*
D03*
Y351027D02*
D03*
Y356027D02*
D03*
Y361027D02*
D03*
Y366027D02*
D03*
Y371027D02*
D03*
Y376027D02*
D03*
D41*
X489993Y358646D02*
D03*
X844111Y358527D02*
D03*
D42*
X325250Y560750D02*
D03*
X339250D02*
D03*
X403791Y703224D02*
D03*
X417790D02*
D03*
X324948Y599343D02*
D03*
X338948D02*
D03*
X925599Y285750D02*
D03*
X911599D02*
D03*
X689398Y22740D02*
D03*
X703398D02*
D03*
X860737Y22971D02*
D03*
X874737D02*
D03*
X842150Y947900D02*
D03*
X828150D02*
D03*
X266022Y976984D02*
D03*
X252022D02*
D03*
X205778D02*
D03*
X219778D02*
D03*
D43*
X737726Y832500D02*
D03*
Y846500D02*
D03*
D44*
X548192Y773963D02*
D03*
X578692D02*
D03*
D45*
X450345Y860977D02*
D03*
X408345D02*
D03*
D46*
X50875Y469996D02*
D03*
Y487496D02*
D03*
D47*
X108738Y418500D02*
D03*
X43762D02*
D03*
D48*
X379773Y930321D02*
D03*
X362773D02*
D03*
X371773D02*
D03*
X387773D02*
D03*
X396773D02*
D03*
X392773Y940321D02*
D03*
X383773D02*
D03*
X375773D02*
D03*
X366773D02*
D03*
X180409Y652155D02*
D03*
X171409D02*
D03*
X163409D02*
D03*
X154409D02*
D03*
X150409Y662155D02*
D03*
X159409D02*
D03*
X175409D02*
D03*
X184409D02*
D03*
X167409D02*
D03*
D49*
X206581Y445588D02*
D03*
D50*
X101549Y887540D02*
D03*
X88049D02*
D03*
X424110Y656902D02*
D03*
X410610D02*
D03*
X149755Y496455D02*
D03*
X136255D02*
D03*
X164081Y532262D02*
D03*
X150581D02*
D03*
X260750Y406458D02*
D03*
X274250D02*
D03*
X623770Y656880D02*
D03*
X637270D02*
D03*
D51*
X470245Y640500D02*
D03*
Y636500D02*
D03*
Y632500D02*
D03*
Y628500D02*
D03*
Y624500D02*
D03*
Y620500D02*
D03*
Y616500D02*
D03*
Y612500D02*
D03*
Y608500D02*
D03*
Y604500D02*
D03*
Y600500D02*
D03*
Y596500D02*
D03*
Y592500D02*
D03*
Y588500D02*
D03*
Y584500D02*
D03*
Y580500D02*
D03*
Y576500D02*
D03*
Y572500D02*
D03*
Y568500D02*
D03*
Y564500D02*
D03*
Y560500D02*
D03*
Y556500D02*
D03*
X572245D02*
D03*
Y560500D02*
D03*
Y564500D02*
D03*
Y568500D02*
D03*
Y572500D02*
D03*
Y576500D02*
D03*
Y580500D02*
D03*
Y584500D02*
D03*
Y588500D02*
D03*
Y592500D02*
D03*
Y596500D02*
D03*
Y600500D02*
D03*
Y604500D02*
D03*
Y608500D02*
D03*
Y612500D02*
D03*
Y616500D02*
D03*
Y620500D02*
D03*
Y624500D02*
D03*
Y628500D02*
D03*
Y632500D02*
D03*
Y636500D02*
D03*
Y640500D02*
D03*
D52*
X479245Y547500D02*
D03*
X483245D02*
D03*
X487245D02*
D03*
X491245D02*
D03*
X495245D02*
D03*
X499245D02*
D03*
X503245D02*
D03*
X507245D02*
D03*
X511245D02*
D03*
X515245D02*
D03*
X519245D02*
D03*
X523245D02*
D03*
X527245D02*
D03*
X531245D02*
D03*
X551245D02*
D03*
X555245D02*
D03*
X559245D02*
D03*
X563245D02*
D03*
Y649500D02*
D03*
X559245D02*
D03*
X555245D02*
D03*
X551245D02*
D03*
X547245D02*
D03*
X543245D02*
D03*
X539245D02*
D03*
X535245D02*
D03*
X531245D02*
D03*
X527245D02*
D03*
X523245D02*
D03*
X519245D02*
D03*
X515245D02*
D03*
X511245D02*
D03*
X507245D02*
D03*
X503245D02*
D03*
X499245D02*
D03*
X495245D02*
D03*
X491245D02*
D03*
X487245D02*
D03*
X483245D02*
D03*
X479245D02*
D03*
X547245Y547500D02*
D03*
X543245D02*
D03*
X539245D02*
D03*
X535245D02*
D03*
D53*
X521245Y598500D02*
D03*
D54*
X412901Y541496D02*
D03*
Y527996D02*
D03*
X112495Y482830D02*
D03*
Y469330D02*
D03*
X21527Y781501D02*
D03*
Y795001D02*
D03*
X115227Y827688D02*
D03*
Y814188D02*
D03*
X640070Y527996D02*
D03*
Y541496D02*
D03*
D55*
X163035Y553260D02*
D03*
X145935D02*
D03*
D56*
X897543Y285746D02*
D03*
X884543D02*
D03*
X733950Y22740D02*
D03*
X720950D02*
D03*
X889875D02*
D03*
X902875D02*
D03*
X815650Y947900D02*
D03*
X802650D02*
D03*
X828875Y22493D02*
D03*
X815875D02*
D03*
D57*
X772000Y138500D02*
D03*
X713000D02*
D03*
D58*
X936061Y142095D02*
D03*
Y83095D02*
D03*
D59*
X837152Y866598D02*
D03*
X802652D02*
D03*
D60*
X802650Y912950D02*
D03*
X830150D02*
D03*
D61*
X876817Y53721D02*
D03*
X848818D02*
D03*
X716947Y55709D02*
D03*
X744948D02*
D03*
D62*
X849016Y131907D02*
D03*
Y103907D02*
D03*
X825995Y131907D02*
D03*
Y103907D02*
D03*
D63*
X814176Y70875D02*
D03*
Y66375D02*
D03*
Y61875D02*
D03*
Y57375D02*
D03*
Y52875D02*
D03*
Y48375D02*
D03*
X785151D02*
D03*
Y52875D02*
D03*
Y57375D02*
D03*
Y61875D02*
D03*
Y66375D02*
D03*
D64*
Y70875D02*
D03*
D65*
X799663Y59625D02*
D03*
D66*
X924750Y203790D02*
D03*
Y249790D02*
D03*
Y226790D02*
D03*
D67*
X861750D02*
D03*
D68*
X48502Y867170D02*
D03*
Y860670D02*
D03*
Y854170D02*
D03*
Y847670D02*
D03*
Y841170D02*
D03*
D69*
X21502Y864170D02*
D03*
Y844170D02*
D03*
D70*
X99727Y855421D02*
D03*
Y846421D02*
D03*
Y838421D02*
D03*
Y829421D02*
D03*
X89727Y825421D02*
D03*
Y834421D02*
D03*
Y850421D02*
D03*
Y859421D02*
D03*
Y842421D02*
D03*
D71*
X189002Y909670D02*
D03*
X194002D02*
D03*
X199002D02*
D03*
X204002D02*
D03*
X209002D02*
D03*
X214002D02*
D03*
X219002D02*
D03*
X224002D02*
D03*
X229002D02*
D03*
X234002D02*
D03*
X239002D02*
D03*
X244002D02*
D03*
X249002D02*
D03*
X254002D02*
D03*
X259002D02*
D03*
X264002D02*
D03*
Y795170D02*
D03*
X259002D02*
D03*
X254002D02*
D03*
X249002D02*
D03*
X244002D02*
D03*
X239002D02*
D03*
X234002D02*
D03*
X229002D02*
D03*
X224002D02*
D03*
X219002D02*
D03*
X214002D02*
D03*
X209002D02*
D03*
X204002D02*
D03*
X199002D02*
D03*
X194002D02*
D03*
X189002D02*
D03*
D72*
X283752Y889920D02*
D03*
Y884920D02*
D03*
Y879920D02*
D03*
Y874920D02*
D03*
Y869920D02*
D03*
Y864920D02*
D03*
Y859920D02*
D03*
Y854920D02*
D03*
Y849920D02*
D03*
Y844920D02*
D03*
Y839920D02*
D03*
Y834920D02*
D03*
Y829920D02*
D03*
Y824920D02*
D03*
Y819920D02*
D03*
Y814920D02*
D03*
X169252D02*
D03*
Y819920D02*
D03*
Y824920D02*
D03*
Y829920D02*
D03*
Y834920D02*
D03*
Y839920D02*
D03*
Y844920D02*
D03*
Y849920D02*
D03*
Y854920D02*
D03*
Y859920D02*
D03*
Y864920D02*
D03*
Y869920D02*
D03*
Y874920D02*
D03*
Y879920D02*
D03*
Y884920D02*
D03*
D73*
Y889920D02*
D03*
D74*
X140601Y911473D02*
D03*
X118601D02*
D03*
Y927473D02*
D03*
X140601D02*
D03*
D75*
X769550Y655000D02*
D03*
X756850D02*
D03*
X744150D02*
D03*
X731450D02*
D03*
X769550Y582000D02*
D03*
X756850D02*
D03*
X744150D02*
D03*
X731450D02*
D03*
D76*
X937877Y796000D02*
D03*
X874123D02*
D03*
D77*
X347225Y662480D02*
D03*
X296425D02*
D03*
X321825D02*
D03*
X347225Y706480D02*
D03*
X296425D02*
D03*
X321825D02*
D03*
X393000Y978750D02*
D03*
X418400D02*
D03*
X342200D02*
D03*
X367600D02*
D03*
X154817Y730832D02*
D03*
X129417D02*
D03*
X205617D02*
D03*
X180217D02*
D03*
D78*
X82300Y222667D02*
D03*
X31500D02*
D03*
Y273467D02*
D03*
X82300D02*
D03*
Y95600D02*
D03*
X31500D02*
D03*
Y146400D02*
D03*
X82300D02*
D03*
Y550150D02*
D03*
X31500D02*
D03*
Y600950D02*
D03*
X82300D02*
D03*
X569110Y82150D02*
D03*
Y31350D02*
D03*
X619910D02*
D03*
Y82150D02*
D03*
X212970D02*
D03*
Y31350D02*
D03*
X263770D02*
D03*
Y82150D02*
D03*
D79*
X56900Y248067D02*
D03*
Y121000D02*
D03*
Y575550D02*
D03*
X594510Y56750D02*
D03*
X238370D02*
D03*
D80*
X62250Y356700D02*
D03*
X11450Y331300D02*
D03*
D81*
X138450D02*
D03*
D82*
X452276Y967962D02*
D03*
X539276D02*
D03*
D83*
X515776D02*
D03*
X475776D02*
D03*
X495776D02*
D03*
X140943Y421588D02*
D03*
D84*
X21502Y889170D02*
D03*
Y819170D02*
D03*
D85*
X48502Y826070D02*
D03*
Y882270D02*
D03*
D86*
X947328Y858039D02*
D03*
Y921039D02*
D03*
D87*
X899329Y886039D02*
D03*
D88*
X939750Y673250D02*
D03*
Y723250D02*
D03*
D89*
X217581Y434588D02*
D03*
X206581D02*
D03*
X195581D02*
D03*
X217581Y445588D02*
D03*
X206581D02*
D03*
X195581D02*
D03*
X217581Y456588D02*
D03*
X206581D02*
D03*
X195581D02*
D03*
X240874Y258067D02*
D03*
X597013Y257948D02*
D03*
X500993Y369646D02*
D03*
Y358646D02*
D03*
Y347646D02*
D03*
X489993Y369646D02*
D03*
Y358646D02*
D03*
Y347646D02*
D03*
X478993Y369646D02*
D03*
Y358646D02*
D03*
Y347646D02*
D03*
X855111Y369527D02*
D03*
Y358527D02*
D03*
Y347527D02*
D03*
X844111Y369527D02*
D03*
Y358527D02*
D03*
Y347527D02*
D03*
X833111Y369527D02*
D03*
Y358527D02*
D03*
Y347527D02*
D03*
X493745Y626000D02*
D03*
X504745D02*
D03*
X515745D02*
D03*
X526745D02*
D03*
X537745D02*
D03*
X548745D02*
D03*
X493745Y615000D02*
D03*
X504745D02*
D03*
X515745D02*
D03*
X526745D02*
D03*
X537745D02*
D03*
X548745D02*
D03*
X493745Y604000D02*
D03*
X504745D02*
D03*
X515745D02*
D03*
X526745D02*
D03*
X537745D02*
D03*
X548745D02*
D03*
X493745Y593000D02*
D03*
X504745D02*
D03*
X515745D02*
D03*
X526745D02*
D03*
X537745D02*
D03*
X548745D02*
D03*
X493745Y582000D02*
D03*
X504745D02*
D03*
X515745D02*
D03*
X526745D02*
D03*
X537745D02*
D03*
X548745D02*
D03*
X493745Y571000D02*
D03*
X504745D02*
D03*
X515745D02*
D03*
X526745D02*
D03*
X537745D02*
D03*
X548745D02*
D03*
M02*
