G04*
G04 #@! TF.GenerationSoftware,Altium Limited,Altium Designer,21.8.1 (53)*
G04*
G04 Layer_Physical_Order=2*
G04 Layer_Color=32768*
%FSLAX44Y44*%
%MOMM*%
G71*
G04*
G04 #@! TF.SameCoordinates,C9995BEE-8401-4B8A-9B38-06C5FF24312F*
G04*
G04*
G04 #@! TF.FilePolarity,Negative*
G04*
G01*
G75*
%ADD80C,1.2400*%
%ADD155C,1.2000*%
%ADD162C,1.0160*%
%ADD163C,1.5000*%
G04:AMPARAMS|DCode=164|XSize=2.5mm|YSize=2.5mm|CornerRadius=0mm|HoleSize=0mm|Usage=FLASHONLY|Rotation=0.000|XOffset=0mm|YOffset=0mm|HoleType=Round|Shape=Relief|Width=0.2mm|Gap=0.2mm|Entries=4|*
%AMTHD164*
7,0,0,2.5000,2.1000,0.2000,45*
%
%ADD164THD164*%
%ADD165C,2.0000*%
G04:AMPARAMS|DCode=166|XSize=1.54mm|YSize=1.54mm|CornerRadius=0mm|HoleSize=0mm|Usage=FLASHONLY|Rotation=0.000|XOffset=0mm|YOffset=0mm|HoleType=Round|Shape=Relief|Width=0.2mm|Gap=0.2mm|Entries=4|*
%AMTHD166*
7,0,0,1.5400,1.1400,0.2000,45*
%
%ADD166THD166*%
G04:AMPARAMS|DCode=167|XSize=1.8mm|YSize=1.8mm|CornerRadius=0mm|HoleSize=0mm|Usage=FLASHONLY|Rotation=0.000|XOffset=0mm|YOffset=0mm|HoleType=Round|Shape=Relief|Width=0.2mm|Gap=0.2mm|Entries=4|*
%AMTHD167*
7,0,0,1.8000,1.4000,0.2000,45*
%
%ADD167THD167*%
%ADD168C,1.0000*%
%ADD169O,2.0000X1.1000*%
%ADD170O,1.1000X2.0000*%
%ADD171C,3.8000*%
%ADD172O,3.8000X1.5000*%
%AMTHOVALD173*
21,1,2.0000,1.8000,0,0,0.0*
1,1,1.8000,-1.0000,0.0000*
1,1,1.8000,1.0000,0.0000*
21,0,2.0000,1.4000,0,0,0.0*
1,0,1.4000,-1.0000,0.0000*
1,0,1.4000,1.0000,0.0000*
4,0,4,-0.9293,-0.0707,-1.5657,-0.7071,-1.7071,-0.5657,-1.0707,0.0707,-0.9293,-0.0707,0.0*
4,0,4,1.0707,-0.0707,1.7071,0.5657,1.5657,0.7071,0.9293,0.0707,1.0707,-0.0707,0.0*
4,0,4,-1.0707,-0.0707,-1.7071,0.5657,-1.5657,0.7071,-0.9293,0.0707,-1.0707,-0.0707,0.0*
4,0,4,0.9293,-0.0707,1.5657,-0.7071,1.7071,-0.5657,1.0707,0.0707,0.9293,-0.0707,0.0*
%
%ADD173THOVALD173*%

%AMTHOVALD174*
21,1,2.0000,1.8000,0,0,270.0*
1,1,1.8000,0.0000,1.0000*
1,1,1.8000,0.0000,-1.0000*
21,0,2.0000,1.4000,0,0,270.0*
1,0,1.4000,0.0000,1.0000*
1,0,1.4000,0.0000,-1.0000*
4,0,4,-0.0707,0.9293,-0.7071,1.5657,-0.5657,1.7071,0.0707,1.0707,-0.0707,0.9293,0.0*
4,0,4,-0.0707,-1.0707,0.5657,-1.7071,0.7071,-1.5657,0.0707,-0.9293,-0.0707,-1.0707,0.0*
4,0,4,-0.0707,1.0707,0.5657,1.7071,0.7071,1.5657,0.0707,0.9293,-0.0707,1.0707,0.0*
4,0,4,-0.0707,-0.9293,-0.7071,-1.5657,-0.5657,-1.7071,0.0707,-1.0707,-0.0707,-0.9293,0.0*
%
%ADD174THOVALD174*%

G04:AMPARAMS|DCode=175|XSize=2mm|YSize=2mm|CornerRadius=0mm|HoleSize=0mm|Usage=FLASHONLY|Rotation=0.000|XOffset=0mm|YOffset=0mm|HoleType=Round|Shape=Relief|Width=0.2mm|Gap=0.2mm|Entries=4|*
%AMTHD175*
7,0,0,2.0000,1.6000,0.2000,45*
%
%ADD175THD175*%
%ADD176C,1.7000*%
%ADD177C,0.8000*%
D80*
X62250Y356700D02*
D03*
X11450Y331300D02*
D03*
D155*
X515776Y967962D02*
D03*
X475776D02*
D03*
X495776D02*
D03*
D162*
X0Y0D02*
X1000000D01*
Y1000000D01*
X0D02*
X1000000D01*
X0Y0D02*
Y1000000D01*
D163*
X347225Y662480D02*
D03*
X296425D02*
D03*
X321825D02*
D03*
X347225Y706480D02*
D03*
X296425D02*
D03*
X321825D02*
D03*
X393000Y978750D02*
D03*
X418400D02*
D03*
X367600D02*
D03*
X154817Y730832D02*
D03*
X129417D02*
D03*
X205617D02*
D03*
X180217D02*
D03*
X799063Y224965D02*
D03*
D164*
X82300Y222667D02*
D03*
X31500D02*
D03*
Y273467D02*
D03*
X82300D02*
D03*
Y95600D02*
D03*
X31500D02*
D03*
Y146400D02*
D03*
X82300D02*
D03*
Y550150D02*
D03*
X31500D02*
D03*
Y600950D02*
D03*
X82300D02*
D03*
X569110Y82150D02*
D03*
Y31350D02*
D03*
X619910D02*
D03*
Y82150D02*
D03*
X212970D02*
D03*
Y31350D02*
D03*
X263770D02*
D03*
Y82150D02*
D03*
D165*
X56900Y248067D02*
D03*
Y121000D02*
D03*
X452276Y967962D02*
D03*
X539276D02*
D03*
X56900Y575550D02*
D03*
X594510Y56750D02*
D03*
X238370D02*
D03*
D166*
X138450Y331300D02*
D03*
D167*
X342200Y978750D02*
D03*
D168*
X140943Y421588D02*
D03*
X964000Y274460D02*
D03*
X72250Y470250D02*
D03*
X120989Y256634D02*
D03*
X516240Y111760D02*
D03*
X872869Y112120D02*
D03*
X800089Y111760D02*
D03*
X848818Y76448D02*
D03*
X744948D02*
D03*
D169*
X21502Y889170D02*
D03*
Y819170D02*
D03*
D170*
X48502Y826070D02*
D03*
Y882270D02*
D03*
D171*
X965000Y605000D02*
D03*
X35000Y965000D02*
D03*
X750000D02*
D03*
X35000Y35000D02*
D03*
X965000D02*
D03*
D172*
X947328Y858039D02*
D03*
D173*
Y921039D02*
D03*
D174*
X899329Y886039D02*
D03*
D175*
X939750Y673250D02*
D03*
D176*
Y723250D02*
D03*
D177*
X563110Y498876D02*
D03*
X576190Y132912D02*
D03*
X604294Y198670D02*
D03*
X828954Y398520D02*
D03*
X475078Y396701D02*
D03*
X212205Y319386D02*
D03*
X365387Y446963D02*
D03*
Y454213D02*
D03*
X267305Y319581D02*
D03*
X520541Y522337D02*
D03*
X521456Y531130D02*
D03*
X536779Y534150D02*
D03*
X405921Y501951D02*
D03*
X416574Y509844D02*
D03*
X380430Y508743D02*
D03*
X394936Y509428D02*
D03*
X313706Y487032D02*
D03*
X392921Y527473D02*
D03*
X420110Y472333D02*
D03*
X561685Y456502D02*
D03*
X528653Y456269D02*
D03*
X310727Y529124D02*
D03*
X288750Y560750D02*
D03*
X430199Y594651D02*
D03*
X683164Y912172D02*
D03*
X700500D02*
D03*
X727750D02*
D03*
X752500D02*
D03*
X774250D02*
D03*
X765250Y923250D02*
D03*
X689412D02*
D03*
X714497D02*
D03*
X739747D02*
D03*
X689686Y901255D02*
D03*
X766122D02*
D03*
X714553D02*
D03*
X739747D02*
D03*
X603918Y777500D02*
D03*
X642596Y754028D02*
D03*
Y768590D02*
D03*
X578692Y754789D02*
D03*
X597825Y754028D02*
D03*
X620825D02*
D03*
Y768590D02*
D03*
X626250Y812754D02*
D03*
X642596D02*
D03*
X570856Y812787D02*
D03*
X576824Y791184D02*
D03*
X597825D02*
D03*
X620825D02*
D03*
X642125D02*
D03*
X539679Y926455D02*
D03*
X713273Y812750D02*
D03*
X659863Y812754D02*
D03*
X708250Y754028D02*
D03*
X666250D02*
D03*
X687250Y777500D02*
D03*
X666250Y768590D02*
D03*
X708250D02*
D03*
Y791264D02*
D03*
X666250D02*
D03*
X687250Y791184D02*
D03*
X498750Y443750D02*
D03*
X475092D02*
D03*
X468837Y435116D02*
D03*
X500993Y435065D02*
D03*
X511250Y433500D02*
D03*
X474844Y428088D02*
D03*
X388022Y542626D02*
D03*
X377772Y540025D02*
D03*
X355639Y550431D02*
D03*
X377106Y548176D02*
D03*
X365559Y552139D02*
D03*
X365458Y543953D02*
D03*
X640070Y515491D02*
D03*
X451439Y532473D02*
D03*
X533012Y494349D02*
D03*
X525762D02*
D03*
X572366Y498465D02*
D03*
X554163Y499391D02*
D03*
X648924Y655686D02*
D03*
X585526Y676066D02*
D03*
X589147Y631861D02*
D03*
X612906Y645009D02*
D03*
X428115Y703258D02*
D03*
X387137Y725394D02*
D03*
X393283Y63712D02*
D03*
X150409Y637000D02*
D03*
X174412Y612211D02*
D03*
X349976Y581762D02*
D03*
X294081Y190792D02*
D03*
X304048Y196969D02*
D03*
X285634Y183948D02*
D03*
Y82580D02*
D03*
X294081Y89080D02*
D03*
X334400Y834000D02*
D03*
X745620Y466320D02*
D03*
X758055Y522797D02*
D03*
X527839Y717758D02*
D03*
X536518Y718046D02*
D03*
X536278Y709319D02*
D03*
X544813Y710038D02*
D03*
X544381Y701120D02*
D03*
X553108Y702031D02*
D03*
X552053Y693064D02*
D03*
X561451Y694647D02*
D03*
X560876Y685872D02*
D03*
X569795Y686495D02*
D03*
X578331Y352576D02*
D03*
X568443Y351756D02*
D03*
X559021Y360552D02*
D03*
X568715Y360681D02*
D03*
X550565Y369056D02*
D03*
X551399Y378307D02*
D03*
X542020Y376874D02*
D03*
X541747Y386266D02*
D03*
X621990Y319679D02*
D03*
X571376Y319386D02*
D03*
X798402Y371079D02*
D03*
X212000Y278750D02*
D03*
X271920Y238170D02*
D03*
X304048Y95580D02*
D03*
X393283Y165762D02*
D03*
X626250Y238158D02*
D03*
X463939Y306615D02*
D03*
X437173Y307582D02*
D03*
X800089Y22741D02*
D03*
X518250Y306615D02*
D03*
X384421Y291500D02*
D03*
X394936D02*
D03*
X300750Y584744D02*
D03*
X437000Y344000D02*
D03*
X324700Y733000D02*
D03*
X467845Y860977D02*
D03*
X248269Y770821D02*
D03*
X175002Y629320D02*
D03*
X444859Y371009D02*
D03*
X537500Y393500D02*
D03*
X531500Y399000D02*
D03*
X708273Y626053D02*
D03*
X603918Y610589D02*
D03*
X284241Y460342D02*
D03*
X130007Y553785D02*
D03*
X262499Y430978D02*
D03*
Y392088D02*
D03*
X253286Y502824D02*
D03*
X181170Y389708D02*
D03*
X201890D02*
D03*
X212580Y528653D02*
D03*
X164485Y521126D02*
D03*
X151005Y460865D02*
D03*
X151005Y483947D02*
D03*
X567843Y278750D02*
D03*
X507908Y688363D02*
D03*
X433750Y640206D02*
D03*
X182163Y637000D02*
D03*
X789957Y343250D02*
D03*
X738539Y291295D02*
D03*
X749054D02*
D03*
X324058Y860806D02*
D03*
X189077Y949950D02*
D03*
X216900Y936620D02*
D03*
X248407Y936620D02*
D03*
X282727Y949950D02*
D03*
X115227Y802319D02*
D03*
X138699Y784411D02*
D03*
X205485Y760322D02*
D03*
X74726Y887450D02*
D03*
X140933Y838207D02*
D03*
X302189Y976984D02*
D03*
X169611D02*
D03*
X567843Y238261D02*
D03*
X794296Y311059D02*
D03*
X820296D02*
D03*
X872368Y306496D02*
D03*
X786745Y544293D02*
D03*
X324698Y637845D02*
D03*
X744150Y714850D02*
D03*
X731450Y602800D02*
D03*
X211704Y238260D02*
D03*
X398848Y656902D02*
D03*
X591447Y532473D02*
D03*
M02*
