G04*
G04 #@! TF.GenerationSoftware,Altium Limited,Altium Designer,21.8.1 (53)*
G04*
G04 Layer_Physical_Order=4*
G04 Layer_Color=16711680*
%FSLAX44Y44*%
%MOMM*%
G71*
G04*
G04 #@! TF.SameCoordinates,6CD9B284-D185-4371-BAE9-4CCCACD555D3*
G04*
G04*
G04 #@! TF.FilePolarity,Positive*
G04*
G01*
G75*
%ADD13C,0.2000*%
%ADD134C,0.3000*%
%ADD136C,0.5000*%
%ADD138C,5.5000*%
%ADD139C,2.5500*%
%ADD140C,2.2500*%
%ADD141C,1.2000*%
%ADD142C,2.5000*%
%ADD143O,1.5500X1.0000*%
%ADD144O,1.0000X1.3000*%
%ADD145C,2.0000*%
%ADD146O,5.0000X2.0000*%
%ADD147O,2.0000X5.0000*%
%ADD148C,2.2000*%
%ADD149C,0.6000*%
%ADD150C,1.0000*%
D13*
X267759Y82577D02*
Y115462D01*
X275467Y114233D02*
X352482Y191248D01*
X275467Y89077D02*
Y114233D01*
X281923Y112039D02*
X357285Y187400D01*
X281923Y95365D02*
Y112039D01*
X451151Y480066D02*
X504335Y533251D01*
X752000Y417480D02*
Y468500D01*
Y417480D02*
X798402Y371079D01*
X450876Y480066D02*
X451151D01*
X444904Y371054D02*
Y563159D01*
X444859Y371009D02*
X444904Y371054D01*
X457328Y474551D02*
Y474958D01*
X508930Y526560D01*
Y526968D01*
X512655Y517754D02*
Y521104D01*
X512948Y521398D01*
X463901Y469001D02*
X512655Y517754D01*
X357285Y187400D02*
Y500356D01*
X352482Y191248D02*
Y502828D01*
X347533Y195236D02*
Y505303D01*
X267759Y115462D02*
X347533Y195236D01*
X297370Y190469D02*
Y234637D01*
X338290Y275557D02*
Y510859D01*
X297370Y234637D02*
X338290Y275557D01*
X333379Y277288D02*
Y513372D01*
X289965Y233874D02*
X333379Y277288D01*
X289965Y183969D02*
Y233874D01*
X352482Y502828D02*
X388900Y539246D01*
X347533Y505303D02*
X381564Y539335D01*
X388900Y539246D02*
Y539396D01*
X374006Y539275D02*
Y539335D01*
X366642Y539211D02*
Y539335D01*
X343072Y273216D02*
Y508341D01*
X304048Y196969D02*
Y234192D01*
X338290Y510859D02*
X366642Y539211D01*
X333379Y513372D02*
X359342Y539335D01*
X304048Y234192D02*
X343072Y273216D01*
X357285Y500356D02*
X396264Y539335D01*
X343072Y508341D02*
X374006Y539275D01*
X174707Y612506D02*
Y629025D01*
X174412Y612211D02*
X174707Y612506D01*
X538235Y534251D02*
X595009Y477477D01*
X595030D01*
X529511Y520926D02*
X583862Y466574D01*
X529204Y520926D02*
X529511D01*
X583862Y466574D02*
X584169D01*
X533840Y527968D02*
X589684Y472124D01*
X533569Y527968D02*
X533840D01*
X589684Y472124D02*
X589955D01*
X537889Y534251D02*
X538235D01*
X504335Y533251D02*
X504610D01*
X428244Y645713D02*
Y703272D01*
Y645713D02*
X433750Y640206D01*
X174707Y629025D02*
X175002Y629320D01*
X150409Y637000D02*
X182163D01*
X550734Y368601D02*
X670424Y488291D01*
X550665Y368601D02*
X550734D01*
X614849Y706377D02*
X660674Y660553D01*
X657424Y513424D02*
Y659207D01*
X537500Y393500D02*
X657424Y513424D01*
X667174Y492465D02*
Y663245D01*
X663924Y496640D02*
Y661899D01*
X654174Y521674D02*
Y657860D01*
X660674Y500815D02*
Y660553D01*
X616195Y709627D02*
X663924Y661899D01*
X543430Y376146D02*
X663924Y496640D01*
X550665Y375957D02*
X667174Y492465D01*
X617542Y712877D02*
X667174Y663245D01*
X531500Y399000D02*
X654174Y521674D01*
X620234Y719377D02*
X673674Y665937D01*
Y475575D02*
Y665937D01*
X680174Y466475D02*
Y668630D01*
X683424Y461608D02*
Y669976D01*
X567420Y361146D02*
X676924Y470650D01*
Y667284D01*
X621580Y722627D02*
X676924Y667284D01*
X559245Y361146D02*
X673674Y475575D01*
X567434Y353736D02*
X680174Y466475D01*
X622926Y725877D02*
X680174Y668630D01*
X624272Y729127D02*
X683424Y669976D01*
X567843Y346027D02*
X683424Y461608D01*
X540717Y729127D02*
X624272D01*
X528833Y717243D02*
X540717Y729127D01*
X536567Y717521D02*
X544924Y725877D01*
X622926D01*
X536697Y709803D02*
X549521Y722627D01*
X621580D01*
X554647Y719377D02*
X620234D01*
X544897Y709627D02*
X554647Y719377D01*
X564308Y712877D02*
X617542D01*
X552616Y701184D02*
X564308Y712877D01*
X568483Y709627D02*
X616195D01*
X552703Y693847D02*
X568483Y709627D01*
X543307Y376146D02*
X543430D01*
X573489Y706377D02*
X614849D01*
X560959Y693847D02*
X573489Y706377D01*
X543281Y383422D02*
X660674Y500815D01*
X578124Y703127D02*
X613503D01*
X560848Y685851D02*
X578124Y703127D01*
X613503D02*
X657424Y659207D01*
X582509Y699877D02*
X612157D01*
X568483Y685851D02*
X582509Y699877D01*
X612157D02*
X654174Y657860D01*
X544897Y701502D02*
X559522Y716127D01*
X618888D01*
X670424Y488291D02*
Y664591D01*
X618888Y716127D02*
X670424Y664591D01*
X708273Y625539D02*
X731012Y602800D01*
X708273Y625539D02*
Y626053D01*
X731012Y602800D02*
X731450D01*
D134*
X334400Y834000D02*
X334483Y834083D01*
Y898194D01*
X76936Y535187D02*
Y558886D01*
X90416Y572366D02*
X160914D01*
X76936Y558886D02*
X90416Y572366D01*
X160914Y572366D02*
X179217Y554063D01*
X140933Y838207D02*
Y901806D01*
X189077Y949950D01*
X282727D01*
X334483Y898194D01*
D136*
X516240Y111760D02*
X800089D01*
D138*
X965000Y605000D02*
D03*
X35000Y965000D02*
D03*
X750000D02*
D03*
X35000Y35000D02*
D03*
X965000D02*
D03*
D139*
X109515Y408622D02*
D03*
Y357822D02*
D03*
X58715D02*
D03*
Y408622D02*
D03*
X236315D02*
D03*
Y357822D02*
D03*
X185515D02*
D03*
Y408622D02*
D03*
X152970Y198700D02*
D03*
Y147900D02*
D03*
X203770D02*
D03*
Y198700D02*
D03*
X559910Y198585D02*
D03*
X509110D02*
D03*
Y147785D02*
D03*
X559910D02*
D03*
X274821Y593900D02*
D03*
Y543100D02*
D03*
X224021D02*
D03*
Y593900D02*
D03*
D140*
X84115Y383222D02*
D03*
X210915D02*
D03*
X178370Y173300D02*
D03*
X534510Y173185D02*
D03*
X249421Y568500D02*
D03*
D141*
X497539Y796811D02*
D03*
X477539D02*
D03*
X517539D02*
D03*
X317225Y703098D02*
D03*
X337225D02*
D03*
X357225D02*
D03*
Y662468D02*
D03*
X337225D02*
D03*
X317225D02*
D03*
X21502Y760551D02*
D03*
D142*
X541039Y796811D02*
D03*
X454039D02*
D03*
D143*
X21502Y889170D02*
D03*
Y819170D02*
D03*
D144*
X48502Y829170D02*
D03*
Y879170D02*
D03*
D145*
X154817Y730832D02*
D03*
X129417D02*
D03*
X205617D02*
D03*
X180217D02*
D03*
X257925Y725086D02*
D03*
Y750486D02*
D03*
X799063Y224965D02*
D03*
X755510Y912979D02*
D03*
D146*
X947328Y858039D02*
D03*
Y921039D02*
D03*
D147*
X899329Y886039D02*
D03*
D148*
X939750Y673250D02*
D03*
Y723250D02*
D03*
D149*
X143512Y485828D02*
D03*
X132512D02*
D03*
X121512D02*
D03*
X143512Y496828D02*
D03*
X132512D02*
D03*
X121512D02*
D03*
X143512Y507828D02*
D03*
X132512D02*
D03*
X121512D02*
D03*
X240874Y258067D02*
D03*
X597013Y257948D02*
D03*
X500993Y369646D02*
D03*
Y358646D02*
D03*
Y347646D02*
D03*
X489993Y369646D02*
D03*
Y358646D02*
D03*
Y347646D02*
D03*
X478993Y369646D02*
D03*
Y358646D02*
D03*
Y347646D02*
D03*
X855111Y369527D02*
D03*
Y358527D02*
D03*
Y347527D02*
D03*
X844111Y369527D02*
D03*
Y358527D02*
D03*
Y347527D02*
D03*
X833111Y369527D02*
D03*
Y358527D02*
D03*
Y347527D02*
D03*
X89416Y482562D02*
D03*
X493745Y626000D02*
D03*
X504745D02*
D03*
X515745D02*
D03*
X526745D02*
D03*
X537745D02*
D03*
X548745D02*
D03*
X493745Y615000D02*
D03*
X504745D02*
D03*
X515745D02*
D03*
X526745D02*
D03*
X537745D02*
D03*
X548745D02*
D03*
X493745Y604000D02*
D03*
X504745D02*
D03*
X515745D02*
D03*
X526745D02*
D03*
X537745D02*
D03*
X548745D02*
D03*
X493745Y593000D02*
D03*
X504745D02*
D03*
X515745D02*
D03*
X526745D02*
D03*
X537745D02*
D03*
X548745D02*
D03*
X493745Y582000D02*
D03*
X504745D02*
D03*
X515745D02*
D03*
X526745D02*
D03*
X537745D02*
D03*
X548745D02*
D03*
X493745Y571000D02*
D03*
X504745D02*
D03*
X515745D02*
D03*
X526745D02*
D03*
X537745D02*
D03*
X548745D02*
D03*
X798402Y371079D02*
D03*
X450876Y480066D02*
D03*
X451099Y380586D02*
D03*
X267000Y318500D02*
D03*
X255891Y307682D02*
D03*
X457328Y474551D02*
D03*
X830766Y290610D02*
D03*
X508930Y526968D02*
D03*
X513420Y520926D02*
D03*
X567420Y527473D02*
D03*
X532592Y291554D02*
D03*
X536778Y249450D02*
D03*
X212000Y278750D02*
D03*
X271920Y238170D02*
D03*
X769000Y33250D02*
D03*
X762500Y44500D02*
D03*
X762401Y53721D02*
D03*
X830766Y49547D02*
D03*
X762401Y70875D02*
D03*
X708273Y812750D02*
D03*
X654699D02*
D03*
X703250Y754028D02*
D03*
X661250D02*
D03*
X682250Y777500D02*
D03*
X661250Y768590D02*
D03*
X703250D02*
D03*
Y791264D02*
D03*
X661250D02*
D03*
X682250Y791184D02*
D03*
X618226Y867216D02*
D03*
X497281Y92175D02*
D03*
X633467Y226757D02*
D03*
X388900Y539396D02*
D03*
X267759Y82577D02*
D03*
X359342Y539335D02*
D03*
X275467Y89077D02*
D03*
X366642Y539335D02*
D03*
X281923Y95365D02*
D03*
X374006Y539335D02*
D03*
X289965Y183969D02*
D03*
X381564Y539335D02*
D03*
X297370Y190469D02*
D03*
X304048Y196969D02*
D03*
X396264Y539335D02*
D03*
X371853Y63712D02*
D03*
X393283Y165762D02*
D03*
X277325Y226750D02*
D03*
X646750Y249000D02*
D03*
X626250Y238158D02*
D03*
X293920Y248876D02*
D03*
X413768Y184524D02*
D03*
X447000Y209262D02*
D03*
X282628Y76077D02*
D03*
X392363Y74062D02*
D03*
Y84562D02*
D03*
X938750Y285750D02*
D03*
X674510Y22740D02*
D03*
X915007D02*
D03*
X947000Y167013D02*
D03*
X927250D02*
D03*
X908750Y167125D02*
D03*
X964250Y167013D02*
D03*
X655499Y318516D02*
D03*
X463939Y306615D02*
D03*
X437173Y307582D02*
D03*
X800089Y22741D02*
D03*
X174412Y612211D02*
D03*
X799663Y66375D02*
D03*
Y53721D02*
D03*
X518250Y306615D02*
D03*
X633467Y307462D02*
D03*
X611953Y307582D02*
D03*
X582013Y307204D02*
D03*
X277451Y307572D02*
D03*
X225874Y307323D02*
D03*
X690000Y299250D02*
D03*
X363840Y301924D02*
D03*
X384421Y291500D02*
D03*
X394936D02*
D03*
X415396Y301924D02*
D03*
X386421Y381556D02*
D03*
X212248Y318500D02*
D03*
X11057Y518028D02*
D03*
X21638Y538447D02*
D03*
X300750Y584744D02*
D03*
X503248Y290729D02*
D03*
X595030Y477477D02*
D03*
X740539Y381437D02*
D03*
X472867Y526363D02*
D03*
X529204Y520926D02*
D03*
X537889Y534251D02*
D03*
X533569Y527968D02*
D03*
X504610Y533251D02*
D03*
X437000Y344000D02*
D03*
X387266Y725408D02*
D03*
X375260Y725827D02*
D03*
X298382Y680771D02*
D03*
X428244Y703272D02*
D03*
X298382Y640206D02*
D03*
X334400Y834000D02*
D03*
X435500Y926750D02*
D03*
X248269Y770821D02*
D03*
X175002Y629320D02*
D03*
X176454Y286817D02*
D03*
X394769Y584972D02*
D03*
X107194Y431132D02*
D03*
X127613Y430868D02*
D03*
X304048Y177469D02*
D03*
X349976Y581762D02*
D03*
X191456Y248355D02*
D03*
X191515Y255317D02*
D03*
X547825Y255105D02*
D03*
X444859Y371009D02*
D03*
X463901Y469001D02*
D03*
X475078Y396701D02*
D03*
X444904Y563159D02*
D03*
X453035Y524065D02*
D03*
X589955Y472124D02*
D03*
X584169Y466574D02*
D03*
X528833Y717243D02*
D03*
X567843Y346027D02*
D03*
X536567Y717521D02*
D03*
X567434Y353736D02*
D03*
X536697Y709803D02*
D03*
X567420Y361146D02*
D03*
X544897Y709627D02*
D03*
X559245Y361146D02*
D03*
X552616Y701184D02*
D03*
X550665Y375957D02*
D03*
X552703Y693847D02*
D03*
X543307Y376146D02*
D03*
X560959Y693847D02*
D03*
X543281Y383422D02*
D03*
X560848Y685851D02*
D03*
X537500Y393500D02*
D03*
X568483Y685851D02*
D03*
X531500Y399000D02*
D03*
X559245Y368601D02*
D03*
X550665D02*
D03*
X878000Y334000D02*
D03*
X525750Y334500D02*
D03*
X544897Y701502D02*
D03*
X640070Y519070D02*
D03*
X708273Y626053D02*
D03*
X603918Y610589D02*
D03*
X210172Y511582D02*
D03*
X462896Y542598D02*
D03*
X55938Y605025D02*
D03*
X437036Y536211D02*
D03*
X427155Y536211D02*
D03*
X449751Y59612D02*
D03*
X437051Y187462D02*
D03*
X299750Y318500D02*
D03*
X384707Y595150D02*
D03*
X314703Y599343D02*
D03*
X21731Y415767D02*
D03*
X162511Y579892D02*
D03*
X211858Y457695D02*
D03*
X208848Y492799D02*
D03*
Y471562D02*
D03*
X199643Y543489D02*
D03*
X188430Y482218D02*
D03*
Y443327D02*
D03*
X179217Y554063D02*
D03*
X150511Y579892D02*
D03*
X102511D02*
D03*
X114511D02*
D03*
X107101Y440947D02*
D03*
X127821D02*
D03*
X62212Y583502D02*
D03*
X126511Y579892D02*
D03*
X138511D02*
D03*
X90416Y572366D02*
D03*
X76936Y512105D02*
D03*
X76936Y535187D02*
D03*
X64858Y440197D02*
D03*
Y452191D02*
D03*
X62264Y561784D02*
D03*
X56808Y505269D02*
D03*
X56481Y524826D02*
D03*
X50464Y547695D02*
D03*
X43729Y443327D02*
D03*
X38426Y548631D02*
D03*
X632363Y610185D02*
D03*
X883567Y359536D02*
D03*
X717959Y301805D02*
D03*
X328000Y299750D02*
D03*
X571264Y318618D02*
D03*
X621470Y318500D02*
D03*
X567843Y278750D02*
D03*
X476165Y291500D02*
D03*
X450671Y290729D02*
D03*
X648924Y655686D02*
D03*
X586000Y694627D02*
D03*
X828954Y398520D02*
D03*
X601420Y675470D02*
D03*
X611470D02*
D03*
X631536Y634080D02*
D03*
X390500Y867250D02*
D03*
X507908Y688363D02*
D03*
X433750Y640206D02*
D03*
X412901Y515491D02*
D03*
X611288Y536211D02*
D03*
X306940Y737686D02*
D03*
X451539Y834561D02*
D03*
X541039D02*
D03*
X447750Y640500D02*
D03*
X595872D02*
D03*
X182163Y637000D02*
D03*
X150409D02*
D03*
X789957Y343250D02*
D03*
X752000Y468500D02*
D03*
X611318Y643166D02*
D03*
X721316Y555679D02*
D03*
X621470Y536211D02*
D03*
X738539Y291295D02*
D03*
X749054D02*
D03*
X324058Y860806D02*
D03*
X189077Y949950D02*
D03*
X216900Y936620D02*
D03*
X248407Y936620D02*
D03*
X254002Y893476D02*
D03*
X264002Y884920D02*
D03*
X282727Y949950D02*
D03*
X306097Y936620D02*
D03*
X313568Y881138D02*
D03*
X103706Y707533D02*
D03*
X115227Y802319D02*
D03*
X130933Y818795D02*
D03*
X138699Y784411D02*
D03*
X167409Y672840D02*
D03*
X185647Y824920D02*
D03*
X205485Y760322D02*
D03*
X225863Y770878D02*
D03*
X229002Y811276D02*
D03*
X267502Y824920D02*
D03*
X279355Y770878D02*
D03*
X313502Y813564D02*
D03*
X67058Y841170D02*
D03*
X74726Y874000D02*
D03*
Y887450D02*
D03*
X78197Y842471D02*
D03*
X103673Y934946D02*
D03*
X113204Y874921D02*
D03*
X123308Y839170D02*
D03*
X140933Y838207D02*
D03*
X155659Y904411D02*
D03*
X165977Y936620D02*
D03*
X184897Y889920D02*
D03*
X185647Y842421D02*
D03*
Y869920D02*
D03*
X302189Y976984D02*
D03*
X169611D02*
D03*
X259007Y959950D02*
D03*
X567843Y238261D02*
D03*
X804361Y341027D02*
D03*
X794296Y311059D02*
D03*
X803861Y382027D02*
D03*
X820296Y311059D02*
D03*
X775935Y356027D02*
D03*
X857366Y290610D02*
D03*
X872368Y306496D02*
D03*
X769514Y301805D02*
D03*
X804789Y290610D02*
D03*
X786745Y544293D02*
D03*
X756850Y522100D02*
D03*
X588780Y508194D02*
D03*
X773500Y522100D02*
D03*
X227587Y959950D02*
D03*
X375260Y639653D02*
D03*
X583790Y226757D02*
D03*
X547701Y267069D02*
D03*
X731450Y676066D02*
D03*
X744150Y714850D02*
D03*
X731450Y602800D02*
D03*
X421818Y356146D02*
D03*
X450243Y341146D02*
D03*
X413783Y175454D02*
D03*
X191562Y267188D02*
D03*
X211704Y238260D02*
D03*
X227651Y226876D02*
D03*
X393848Y634250D02*
D03*
X398848Y656902D02*
D03*
X435231Y675470D02*
D03*
X445496D02*
D03*
X517911Y708245D02*
D03*
X606442Y685896D02*
D03*
X591447Y532473D02*
D03*
D150*
X800089Y111760D02*
D03*
X907267Y947899D02*
D03*
X863700D02*
D03*
Y866598D02*
D03*
Y912950D02*
D03*
X964000Y274460D02*
D03*
X682250Y708644D02*
D03*
X728500Y875500D02*
D03*
X603800Y912950D02*
D03*
X874737Y111760D02*
D03*
X516240D02*
D03*
X827495Y175000D02*
D03*
X905250Y52875D02*
D03*
X850021Y151000D02*
D03*
X827000D02*
D03*
X848818Y76448D02*
D03*
X744948D02*
D03*
X692448Y55709D02*
D03*
X964000Y194710D02*
D03*
M02*
