G04*
G04 #@! TF.GenerationSoftware,Altium Limited,Altium Designer,21.8.1 (53)*
G04*
G04 Layer_Physical_Order=1*
G04 Layer_Color=255*
%FSLAX44Y44*%
%MOMM*%
G71*
G04*
G04 #@! TF.SameCoordinates,6CD9B284-D185-4371-BAE9-4CCCACD555D3*
G04*
G04*
G04 #@! TF.FilePolarity,Positive*
G04*
G01*
G75*
%ADD13C,0.2000*%
%ADD16C,0.4000*%
G04:AMPARAMS|DCode=53|XSize=1.0096mm|YSize=0.1925mm|CornerRadius=0.0962mm|HoleSize=0mm|Usage=FLASHONLY|Rotation=0.000|XOffset=0mm|YOffset=0mm|HoleType=Round|Shape=RoundedRectangle|*
%AMROUNDEDRECTD53*
21,1,1.0096,0.0000,0,0,0.0*
21,1,0.8172,0.1925,0,0,0.0*
1,1,0.1925,0.4086,0.0000*
1,1,0.1925,-0.4086,0.0000*
1,1,0.1925,-0.4086,0.0000*
1,1,0.1925,0.4086,0.0000*
%
%ADD53ROUNDEDRECTD53*%
%ADD54R,1.0096X0.1925*%
%ADD55R,1.3100X2.1200*%
%ADD69R,4.2418X3.8100*%
%ADD81C,0.1571*%
%ADD82C,0.1571*%
%ADD83O,0.9000X0.2500*%
%ADD84O,0.2500X0.9000*%
%ADD85R,3.1000X3.1000*%
%ADD86R,1.5000X1.5000*%
%ADD87O,0.7000X0.2000*%
%ADD88O,0.2000X0.7000*%
%ADD89R,3.1000X3.1000*%
%ADD90R,0.6500X0.7500*%
%ADD91R,0.7500X0.6500*%
%ADD92R,1.8000X1.7000*%
%ADD93R,1.3000X0.8000*%
%ADD94R,0.9500X0.8000*%
%ADD95R,2.0000X1.6000*%
%ADD96R,0.6000X0.6000*%
%ADD97R,0.8500X1.0000*%
%ADD98R,0.8000X1.3000*%
%ADD99R,0.6000X0.6000*%
%ADD100O,1.1500X0.2000*%
%ADD101O,0.2000X1.1500*%
%ADD102R,6.7400X6.7400*%
%ADD103R,1.0000X0.8500*%
%ADD104R,1.1900X1.4700*%
%ADD105O,0.6500X1.6500*%
%ADD106R,0.8000X0.9500*%
%ADD107R,2.8000X8.2000*%
%ADD108R,8.2000X2.8000*%
%ADD109R,2.1600X2.2600*%
%ADD110R,1.9500X2.2500*%
%ADD111R,1.7000X1.8000*%
%ADD112R,3.8000X2.0000*%
%ADD113R,1.5000X2.0000*%
G04:AMPARAMS|DCode=114|XSize=0.4mm|YSize=1.3mm|CornerRadius=0.1mm|HoleSize=0mm|Usage=FLASHONLY|Rotation=270.000|XOffset=0mm|YOffset=0mm|HoleType=Round|Shape=RoundedRectangle|*
%AMROUNDEDRECTD114*
21,1,0.4000,1.1000,0,0,270.0*
21,1,0.2000,1.3000,0,0,270.0*
1,1,0.2000,-0.5500,-0.1000*
1,1,0.2000,-0.5500,0.1000*
1,1,0.2000,0.5500,0.1000*
1,1,0.2000,0.5500,-0.1000*
%
%ADD114ROUNDEDRECTD114*%
%ADD115O,1.3000X0.4000*%
%ADD116R,1.3000X1.8000*%
%ADD117R,1.8000X1.3000*%
%ADD118R,2.0000X1.5000*%
%ADD119R,2.0000X3.8000*%
%ADD120O,0.4000X1.3000*%
G04:AMPARAMS|DCode=121|XSize=0.4mm|YSize=1.3mm|CornerRadius=0.1mm|HoleSize=0mm|Usage=FLASHONLY|Rotation=180.000|XOffset=0mm|YOffset=0mm|HoleType=Round|Shape=RoundedRectangle|*
%AMROUNDEDRECTD121*
21,1,0.4000,1.1000,0,0,180.0*
21,1,0.2000,1.3000,0,0,180.0*
1,1,0.2000,-0.1000,0.5500*
1,1,0.2000,0.1000,0.5500*
1,1,0.2000,0.1000,-0.5500*
1,1,0.2000,-0.1000,-0.5500*
%
%ADD121ROUNDEDRECTD121*%
%ADD122R,1.4000X1.1500*%
%ADD123R,1.3500X0.4000*%
%ADD124R,1.5500X1.5000*%
%ADD125R,0.7000X0.2000*%
%ADD126R,0.2000X0.7000*%
%ADD127O,0.3000X1.4500*%
%ADD128O,1.4500X0.3000*%
%ADD129R,1.4500X0.3000*%
%ADD130O,0.6500X1.9000*%
%ADD131C,0.2100*%
%ADD132C,0.1600*%
%ADD133C,1.0000*%
%ADD134C,0.3000*%
%ADD135C,0.2248*%
%ADD136C,0.5000*%
%ADD137C,0.1250*%
%ADD138C,5.5000*%
%ADD139C,2.5500*%
%ADD140C,2.2500*%
%ADD141C,1.2000*%
%ADD142C,2.5000*%
%ADD143O,1.5500X1.0000*%
%ADD144O,1.0000X1.3000*%
%ADD145C,2.0000*%
%ADD146O,5.0000X2.0000*%
%ADD147O,2.0000X5.0000*%
%ADD148C,2.2000*%
%ADD149C,0.6000*%
%ADD150C,1.0000*%
G36*
X24514Y894164D02*
X24775Y894143D01*
X25034Y894109D01*
X25292Y894061D01*
X25546Y894000D01*
X25797Y893926D01*
X26044Y893838D01*
X26286Y893738D01*
X26522Y893625D01*
X26752Y893501D01*
X26976Y893364D01*
X27191Y893215D01*
X27399Y893056D01*
X27598Y892886D01*
X27788Y892706D01*
X27968Y892516D01*
X28138Y892317D01*
X28297Y892109D01*
X28446Y891894D01*
X28582Y891670D01*
X28707Y891440D01*
X28820Y891204D01*
X28920Y890962D01*
X29008Y890715D01*
X29082Y890464D01*
X29143Y890210D01*
X29191Y889953D01*
X29225Y889693D01*
X29246Y889432D01*
X29252Y889170D01*
Y877220D01*
X29302D01*
Y877170D01*
X13752D01*
Y889145D01*
X15752D01*
X15756Y889028D01*
X15766Y888898D01*
X15783Y888769D01*
X15807Y888641D01*
X15837Y888514D01*
X15874Y888389D01*
X15918Y888266D01*
X15967Y888146D01*
X16023Y888029D01*
X16086Y887914D01*
X16154Y887803D01*
X16227Y887696D01*
X16307Y887592D01*
X16391Y887493D01*
X16481Y887399D01*
X16575Y887309D01*
X16674Y887225D01*
X16778Y887145D01*
X16885Y887072D01*
X16996Y887004D01*
X17111Y886942D01*
X17228Y886885D01*
X17348Y886836D01*
X17471Y886792D01*
X17596Y886755D01*
X17723Y886725D01*
X17851Y886701D01*
X17980Y886684D01*
X18110Y886674D01*
X18252Y886670D01*
X24752D01*
X24883Y886674D01*
X25014Y886684D01*
X25143Y886701D01*
X25272Y886725D01*
X25399Y886756D01*
X25525Y886793D01*
X25648Y886836D01*
X25769Y886887D01*
X25887Y886943D01*
X26002Y887005D01*
X26114Y887074D01*
X26222Y887148D01*
X26326Y887227D01*
X26425Y887313D01*
X26520Y887403D01*
X26610Y887498D01*
X26695Y887597D01*
X26775Y887701D01*
X26849Y887809D01*
X26917Y887920D01*
X26980Y888035D01*
X27036Y888154D01*
X27086Y888275D01*
X27130Y888398D01*
X27167Y888523D01*
X27198Y888651D01*
X27222Y888779D01*
X27239Y888909D01*
X27249Y889040D01*
X27252Y889170D01*
X27249Y889301D01*
X27239Y889432D01*
X27222Y889561D01*
X27198Y889690D01*
X27167Y889817D01*
X27130Y889943D01*
X27086Y890066D01*
X27036Y890187D01*
X26980Y890305D01*
X26917Y890420D01*
X26849Y890532D01*
X26775Y890640D01*
X26695Y890744D01*
X26610Y890843D01*
X26520Y890938D01*
X26425Y891028D01*
X26326Y891113D01*
X26222Y891193D01*
X26114Y891267D01*
X26002Y891336D01*
X25887Y891398D01*
X25769Y891454D01*
X25648Y891504D01*
X25525Y891548D01*
X25399Y891585D01*
X25272Y891616D01*
X25143Y891640D01*
X25014Y891657D01*
X24883Y891667D01*
X24752Y891670D01*
X18252D01*
X18110Y891667D01*
X17980Y891657D01*
X17851Y891640D01*
X17723Y891616D01*
X17596Y891586D01*
X17471Y891549D01*
X17348Y891505D01*
X17228Y891455D01*
X17111Y891399D01*
X16996Y891337D01*
X16885Y891269D01*
X16778Y891195D01*
X16674Y891116D01*
X16575Y891031D01*
X16481Y890942D01*
X16391Y890847D01*
X16307Y890748D01*
X16227Y890645D01*
X16154Y890538D01*
X16086Y890427D01*
X16023Y890312D01*
X15967Y890195D01*
X15918Y890074D01*
X15874Y889952D01*
X15837Y889827D01*
X15807Y889700D01*
X15783Y889572D01*
X15766Y889443D01*
X15756Y889313D01*
X15752Y889195D01*
X13752D01*
X13759Y889444D01*
X13780Y889704D01*
X13814Y889963D01*
X13861Y890220D01*
X13922Y890474D01*
X13996Y890724D01*
X14084Y890970D01*
X14183Y891211D01*
X14296Y891447D01*
X14420Y891677D01*
X14557Y891899D01*
X14705Y892114D01*
X14864Y892322D01*
X15033Y892520D01*
X15213Y892710D01*
X15402Y892889D01*
X15601Y893059D01*
X15808Y893218D01*
X16023Y893366D01*
X16246Y893502D01*
X16476Y893627D01*
X16711Y893739D01*
X16953Y893839D01*
X17199Y893926D01*
X17449Y894000D01*
X17703Y894061D01*
X17960Y894109D01*
X18218Y894143D01*
X18479Y894164D01*
X18752Y894170D01*
X24252D01*
X24514Y894164D01*
D02*
G37*
G36*
X29252Y819195D02*
X27252D01*
X27249Y819313D01*
X27239Y819443D01*
X27222Y819572D01*
X27198Y819700D01*
X27168Y819827D01*
X27131Y819952D01*
X27087Y820074D01*
X27037Y820195D01*
X26981Y820312D01*
X26919Y820427D01*
X26851Y820538D01*
X26777Y820645D01*
X26698Y820748D01*
X26613Y820847D01*
X26524Y820942D01*
X26429Y821031D01*
X26330Y821116D01*
X26227Y821195D01*
X26120Y821269D01*
X26009Y821337D01*
X25894Y821399D01*
X25777Y821455D01*
X25656Y821505D01*
X25533Y821549D01*
X25409Y821586D01*
X25282Y821616D01*
X25154Y821640D01*
X25025Y821657D01*
X24895Y821667D01*
X24752Y821670D01*
X18252D01*
X18122Y821667D01*
X17991Y821657D01*
X17861Y821640D01*
X17733Y821616D01*
X17605Y821585D01*
X17480Y821548D01*
X17356Y821504D01*
X17235Y821454D01*
X17117Y821398D01*
X17002Y821336D01*
X16891Y821267D01*
X16783Y821193D01*
X16679Y821113D01*
X16580Y821028D01*
X16485Y820938D01*
X16394Y820843D01*
X16309Y820744D01*
X16230Y820640D01*
X16156Y820532D01*
X16087Y820420D01*
X16025Y820305D01*
X15969Y820187D01*
X15918Y820066D01*
X15875Y819943D01*
X15838Y819818D01*
X15807Y819690D01*
X15783Y819561D01*
X15766Y819432D01*
X15756Y819301D01*
X15752Y819170D01*
X15756Y819040D01*
X15766Y818909D01*
X15783Y818779D01*
X15807Y818651D01*
X15838Y818523D01*
X15875Y818398D01*
X15918Y818275D01*
X15969Y818154D01*
X16025Y818035D01*
X16087Y817920D01*
X16156Y817809D01*
X16230Y817701D01*
X16309Y817597D01*
X16394Y817498D01*
X16485Y817403D01*
X16580Y817312D01*
X16679Y817227D01*
X16783Y817148D01*
X16891Y817074D01*
X17002Y817005D01*
X17117Y816943D01*
X17235Y816887D01*
X17356Y816836D01*
X17480Y816793D01*
X17605Y816756D01*
X17733Y816725D01*
X17861Y816701D01*
X17991Y816684D01*
X18122Y816674D01*
X18252Y816670D01*
X24752D01*
X24895Y816674D01*
X25025Y816684D01*
X25154Y816701D01*
X25282Y816725D01*
X25409Y816755D01*
X25533Y816792D01*
X25656Y816836D01*
X25777Y816885D01*
X25894Y816942D01*
X26009Y817004D01*
X26120Y817072D01*
X26227Y817145D01*
X26330Y817225D01*
X26429Y817309D01*
X26524Y817399D01*
X26613Y817493D01*
X26698Y817592D01*
X26777Y817696D01*
X26851Y817803D01*
X26919Y817914D01*
X26981Y818029D01*
X27037Y818146D01*
X27087Y818267D01*
X27131Y818389D01*
X27168Y818514D01*
X27198Y818641D01*
X27222Y818769D01*
X27239Y818898D01*
X27249Y819028D01*
X27252Y819145D01*
X29252D01*
X29246Y818897D01*
X29225Y818637D01*
X29191Y818378D01*
X29143Y818121D01*
X29082Y817867D01*
X29008Y817617D01*
X28921Y817371D01*
X28821Y817129D01*
X28709Y816894D01*
X28584Y816664D01*
X28448Y816441D01*
X28300Y816226D01*
X28141Y816019D01*
X27971Y815821D01*
X27792Y815631D01*
X27602Y815452D01*
X27404Y815282D01*
X27196Y815123D01*
X26981Y814975D01*
X26759Y814839D01*
X26529Y814714D01*
X26293Y814602D01*
X26052Y814502D01*
X25806Y814415D01*
X25556Y814340D01*
X25302Y814279D01*
X25045Y814232D01*
X24786Y814198D01*
X24526Y814177D01*
X24252Y814170D01*
X18752D01*
X18491Y814177D01*
X18230Y814198D01*
X17970Y814232D01*
X17713Y814280D01*
X17458Y814341D01*
X17207Y814415D01*
X16961Y814502D01*
X16719Y814603D01*
X16482Y814715D01*
X16252Y814840D01*
X16029Y814977D01*
X15813Y815125D01*
X15606Y815285D01*
X15407Y815455D01*
X15217Y815635D01*
X15037Y815825D01*
X14867Y816024D01*
X14707Y816232D01*
X14559Y816447D01*
X14422Y816670D01*
X14297Y816900D01*
X14185Y817137D01*
X14085Y817379D01*
X13997Y817625D01*
X13923Y817876D01*
X13862Y818131D01*
X13814Y818388D01*
X13780Y818648D01*
X13759Y818909D01*
X13752Y819170D01*
Y831120D01*
X13702D01*
Y831170D01*
X29252D01*
Y819195D01*
D02*
G37*
G36*
X713750Y754028D02*
X692312Y744500D01*
X671744D01*
X648750Y753868D01*
Y828500D01*
X713750D01*
Y754028D01*
D02*
G37*
G36*
X972868Y947011D02*
X984250Y928000D01*
Y906500D01*
X976618Y892062D01*
X961250Y883500D01*
X927463Y883500D01*
X901787Y850000D01*
X898714Y850000D01*
X820516D01*
X819620Y850901D01*
X819859Y892062D01*
X816630Y895291D01*
Y929053D01*
X841096Y933348D01*
Y939400D01*
X841150D01*
Y947900D01*
Y956400D01*
X841096D01*
Y959250D01*
X953000D01*
X972868Y947011D01*
D02*
G37*
G36*
X979500Y866750D02*
Y711750D01*
X969750Y702000D01*
X969747Y702003D01*
X919247D01*
X905250Y716000D01*
X907267Y848632D01*
X926549Y874320D01*
X970853D01*
X979500Y866750D01*
D02*
G37*
G36*
X983250Y159250D02*
Y126000D01*
X975375Y118125D01*
X896375Y118125D01*
X889276Y125224D01*
Y159026D01*
X905250Y175000D01*
X967500D01*
X983250Y159250D01*
D02*
G37*
%LPC*%
G36*
X703250Y824750D02*
X683250D01*
Y813750D01*
X703250D01*
Y824750D01*
D02*
G37*
G36*
X681250D02*
X661250D01*
Y813750D01*
X681250D01*
Y824750D01*
D02*
G37*
G36*
X703250Y811750D02*
X683250D01*
Y800750D01*
X703250D01*
Y811750D01*
D02*
G37*
G36*
X681250D02*
X661250D01*
Y800750D01*
X681250D01*
Y811750D01*
D02*
G37*
G36*
X693250Y768590D02*
X683250D01*
Y759090D01*
X693250D01*
Y768590D01*
D02*
G37*
G36*
X681250D02*
X671250D01*
Y759090D01*
X681250D01*
Y768590D01*
D02*
G37*
G36*
X693250Y757090D02*
X683250D01*
Y747590D01*
X693250D01*
Y757090D01*
D02*
G37*
G36*
X681250D02*
X671250D01*
Y747590D01*
X681250D01*
Y757090D01*
D02*
G37*
G36*
X848150Y956400D02*
X843150D01*
Y948900D01*
X848150D01*
Y956400D01*
D02*
G37*
G36*
Y946900D02*
X843150D01*
Y939400D01*
X848150D01*
Y946900D01*
D02*
G37*
G36*
X962328Y933143D02*
X948078D01*
Y921789D01*
X974333D01*
X974020Y924172D01*
X972810Y927091D01*
X970887Y929598D01*
X968380Y931521D01*
X965461Y932730D01*
X962328Y933143D01*
D02*
G37*
G36*
X946579D02*
X932328D01*
X929196Y932730D01*
X926277Y931521D01*
X923770Y929598D01*
X921846Y927091D01*
X920637Y924172D01*
X920324Y921789D01*
X946579D01*
Y933143D01*
D02*
G37*
G36*
X841899Y926200D02*
X831150D01*
Y913950D01*
X841899D01*
Y926200D01*
D02*
G37*
G36*
X829150D02*
X818400D01*
Y913950D01*
X829150D01*
Y926200D01*
D02*
G37*
G36*
X974333Y920289D02*
X948078D01*
Y908936D01*
X962328D01*
X965461Y909348D01*
X968380Y910557D01*
X970887Y912481D01*
X972810Y914987D01*
X974020Y917907D01*
X974333Y920289D01*
D02*
G37*
G36*
X946579D02*
X920324D01*
X920637Y917907D01*
X921846Y914987D01*
X923770Y912481D01*
X926277Y910557D01*
X929196Y909348D01*
X932328Y908936D01*
X946579D01*
Y920289D01*
D02*
G37*
G36*
X841899Y911950D02*
X831150D01*
Y899700D01*
X841899D01*
Y911950D01*
D02*
G37*
G36*
X829150D02*
X818400D01*
Y899700D01*
X829150D01*
Y911950D01*
D02*
G37*
G36*
X900078Y913044D02*
Y886789D01*
X911432D01*
Y901039D01*
X911020Y904172D01*
X909810Y907091D01*
X907887Y909598D01*
X905380Y911521D01*
X902461Y912730D01*
X900078Y913044D01*
D02*
G37*
G36*
X898578Y913044D02*
X896196Y912730D01*
X893277Y911521D01*
X890770Y909598D01*
X888847Y907091D01*
X887637Y904172D01*
X887225Y901039D01*
Y886789D01*
X898578D01*
Y913044D01*
D02*
G37*
G36*
X849952Y879898D02*
X838152D01*
Y867598D01*
X849952D01*
Y879898D01*
D02*
G37*
G36*
X836152D02*
X824352D01*
Y867598D01*
X836152D01*
Y879898D01*
D02*
G37*
G36*
X898578Y885289D02*
X887225D01*
Y871039D01*
X887637Y867907D01*
X888847Y864987D01*
X890770Y862481D01*
X893277Y860557D01*
X896196Y859348D01*
X898578Y859035D01*
Y885289D01*
D02*
G37*
G36*
X911432D02*
X900078D01*
Y859034D01*
X902461Y859348D01*
X905380Y860557D01*
X907887Y862481D01*
X909810Y864987D01*
X911020Y867907D01*
X911432Y871039D01*
Y885289D01*
D02*
G37*
G36*
X849952Y865598D02*
X838152D01*
Y853298D01*
X849952D01*
Y865598D01*
D02*
G37*
G36*
X836152D02*
X824352D01*
Y853298D01*
X836152D01*
Y865598D01*
D02*
G37*
G36*
X962328Y870143D02*
X948079D01*
Y858789D01*
X974333D01*
X974020Y861172D01*
X972810Y864091D01*
X970887Y866598D01*
X968380Y868521D01*
X965461Y869730D01*
X962328Y870143D01*
D02*
G37*
G36*
X946579D02*
X932328D01*
X929196Y869730D01*
X926277Y868521D01*
X923770Y866598D01*
X921846Y864091D01*
X920637Y861172D01*
X920324Y858789D01*
X946579D01*
Y870143D01*
D02*
G37*
G36*
X974333Y857289D02*
X948079D01*
Y845936D01*
X962328D01*
X965461Y846348D01*
X968380Y847557D01*
X970887Y849481D01*
X972810Y851988D01*
X974020Y854907D01*
X974333Y857289D01*
D02*
G37*
G36*
X946579D02*
X920324D01*
X920637Y854907D01*
X921846Y851988D01*
X923770Y849481D01*
X926277Y847557D01*
X929196Y846348D01*
X932328Y845936D01*
X946579D01*
Y857289D01*
D02*
G37*
G36*
X961086Y817050D02*
X938877D01*
Y797000D01*
X961086D01*
Y817050D01*
D02*
G37*
G36*
X936877D02*
X914668D01*
Y797000D01*
X936877D01*
Y817050D01*
D02*
G37*
G36*
X961086Y795000D02*
X938877D01*
Y774950D01*
X961086D01*
Y795000D01*
D02*
G37*
G36*
X936877D02*
X914668D01*
Y774950D01*
X936877D01*
Y795000D01*
D02*
G37*
G36*
X941461Y736250D02*
X940500D01*
Y724000D01*
X952750D01*
Y724961D01*
X951864Y728268D01*
X950153Y731232D01*
X947732Y733653D01*
X944768Y735364D01*
X941461Y736250D01*
D02*
G37*
G36*
X939000D02*
X938038D01*
X934732Y735364D01*
X931768Y733653D01*
X929347Y731232D01*
X927636Y728268D01*
X926750Y724961D01*
Y724000D01*
X939000D01*
Y736250D01*
D02*
G37*
G36*
X952750Y722500D02*
X940500D01*
Y710250D01*
X941461D01*
X944768Y711136D01*
X947732Y712848D01*
X950153Y715268D01*
X951864Y718232D01*
X952750Y721539D01*
Y722500D01*
D02*
G37*
G36*
X939000D02*
X926750D01*
Y721539D01*
X927636Y718232D01*
X929347Y715268D01*
X931768Y712848D01*
X934732Y711136D01*
X938038Y710250D01*
X939000D01*
Y722500D01*
D02*
G37*
G36*
X979061Y158095D02*
X937061D01*
Y143095D01*
X979061D01*
Y158095D01*
D02*
G37*
G36*
X935061D02*
X893061D01*
Y143095D01*
X935061D01*
Y158095D01*
D02*
G37*
G36*
X979061Y141096D02*
X937061D01*
Y126095D01*
X979061D01*
Y141096D01*
D02*
G37*
G36*
X935061D02*
X893061D01*
Y126095D01*
X935061D01*
Y141096D01*
D02*
G37*
%LPD*%
D13*
X156511Y509327D02*
X185481D01*
X162511Y547392D02*
Y554609D01*
X145011Y529892D02*
X162511Y547392D01*
X145011Y520827D02*
Y529892D01*
X150511Y546666D02*
Y554609D01*
X140011Y536166D02*
X150511Y546666D01*
X140011Y520827D02*
Y536166D01*
X138511Y546666D02*
Y554609D01*
X135011Y543166D02*
X138511Y546666D01*
X135011Y520827D02*
Y543166D01*
X126511Y546666D02*
Y554609D01*
Y546666D02*
X130011Y543166D01*
Y520827D02*
Y543166D01*
X114511Y546666D02*
Y554609D01*
Y546666D02*
X125011Y536166D01*
Y520827D02*
Y536166D01*
X102511Y547486D02*
Y554609D01*
Y547486D02*
X120011Y529986D01*
Y520827D02*
Y529986D01*
X86741Y452191D02*
X88933Y454383D01*
X104603D01*
X115011Y464791D01*
Y472827D01*
X86741Y440197D02*
X88975Y442430D01*
X99834D01*
X120011Y462607D01*
Y472827D01*
X96181Y489327D02*
X108511D01*
X89416Y482562D02*
X96181Y489327D01*
X227651Y226876D02*
X233374Y232600D01*
Y243067D01*
X583790Y226757D02*
X589513Y232481D01*
Y242948D01*
X563245Y538110D02*
X567367Y533988D01*
X579655D02*
X581170Y532473D01*
X567367Y533988D02*
X579655D01*
X869061Y366027D02*
X876355D01*
X883033Y372705D02*
Y419352D01*
X876355Y366027D02*
X883033Y372705D01*
X886283Y370702D02*
Y420698D01*
X869061Y361027D02*
X876608D01*
X886283Y370702D01*
X810446Y312560D02*
X815951Y318065D01*
X804789Y311059D02*
X806289Y312560D01*
X810446D01*
X815951Y318065D02*
X824010D01*
X819135Y371053D02*
X819161Y371027D01*
X798402Y371079D02*
X798428Y371053D01*
X819135D01*
X535245Y538112D02*
X537889Y535469D01*
X535245Y538112D02*
Y547500D01*
X537889Y534251D02*
Y535469D01*
X532708Y528829D02*
X533569Y527968D01*
X532708Y528829D02*
Y530126D01*
X531245Y531589D02*
X532708Y530126D01*
X531245Y531589D02*
Y547500D01*
X527245Y524103D02*
X529204Y522144D01*
Y520926D02*
Y522144D01*
X527245Y524103D02*
Y547500D01*
X450662Y480066D02*
X450876D01*
X392921Y422326D02*
X450662Y480066D01*
X451303Y380586D02*
X455743Y376146D01*
X451099Y380586D02*
X451303D01*
X465043Y376146D02*
X466243D01*
X455743D02*
X465043D01*
X267000Y292500D02*
Y318500D01*
X255891Y297423D02*
Y307682D01*
X255874Y297406D02*
X255891Y297423D01*
X392921Y367649D02*
Y422326D01*
X399421Y367649D02*
Y417421D01*
X456551Y474551D01*
X457328D01*
X261906Y287406D02*
X267000Y292500D01*
X861750Y226790D02*
Y271851D01*
X875645Y285746D01*
X884543D01*
X830766Y290610D02*
Y301059D01*
X508930Y526968D02*
Y528050D01*
X513420Y520926D02*
Y522008D01*
X515245Y523834D02*
Y547500D01*
X513420Y522008D02*
X515245Y523834D01*
X508930Y528050D02*
X511245Y530366D01*
X595030Y477477D02*
X595176D01*
X645240Y416660D02*
X719533D01*
X589955Y471945D02*
Y472124D01*
Y471945D02*
X645240Y416660D01*
X595176Y477477D02*
X650824Y421829D01*
X720567D01*
X638872Y411693D02*
X718146D01*
X584169Y466395D02*
X638872Y411693D01*
X584169Y466395D02*
Y466574D01*
X559245Y535770D02*
X567420Y527595D01*
X559245Y535770D02*
Y547500D01*
X567420Y527473D02*
Y527595D01*
X563245Y538110D02*
Y547500D01*
X819161Y376027D02*
X820361D01*
X809861D02*
X819161D01*
X869061Y356027D02*
X880005D01*
X867861D02*
X869061D01*
X819161Y341027D02*
X820361D01*
X804361D02*
X819161D01*
X725336Y552657D02*
X731586D01*
X521245Y598500D02*
X548745Y626000D01*
X493745Y571000D02*
X521245Y598500D01*
X514943Y356146D02*
X546790D01*
X513743D02*
X514943D01*
X802015Y56073D02*
X805213Y52875D01*
X794113Y66375D02*
X799663Y60825D01*
X785151Y57375D02*
X797413D01*
X767137D02*
X785151D01*
X794113Y52875D02*
X799663Y58425D01*
X78197Y842471D02*
X89727D01*
X465043Y341146D02*
X466243D01*
X450243D02*
X465043D01*
X445496Y654902D02*
X450495D01*
X435231D02*
X445496D01*
X420768Y556500D02*
X470245D01*
X572245D02*
X621470D01*
X572245Y632500D02*
X611420D01*
X831515Y325570D02*
Y334681D01*
X851611Y333577D02*
Y334777D01*
Y324323D02*
Y333577D01*
X836611D02*
Y334777D01*
Y324323D02*
Y333577D01*
X819161Y356027D02*
X820361D01*
X796154D02*
X819161D01*
X497493Y333696D02*
Y334896D01*
Y324442D02*
Y333696D01*
X482493D02*
Y334896D01*
Y324442D02*
Y333696D01*
X477397Y325689D02*
Y334800D01*
X465043Y356146D02*
X466243D01*
X442036D02*
X465043D01*
X450671Y311178D02*
X455659D01*
X441851D02*
X450671D01*
X229002Y909670D02*
Y936620D01*
X391298Y183969D02*
X393283Y185954D01*
Y175454D02*
Y185954D01*
X21551Y517914D02*
X21638D01*
X188430Y443327D02*
Y471562D01*
X814176Y57375D02*
X848818D01*
X856611Y383477D02*
Y427389D01*
Y382277D02*
Y383477D01*
X861611D02*
Y426985D01*
Y382277D02*
Y383477D01*
X867956Y376123D02*
X873756D01*
X869061Y371027D02*
X875361D01*
X867861D02*
X869061D01*
Y351027D02*
X882692D01*
X867861D02*
X869061D01*
Y346027D02*
X883508D01*
X867861D02*
X869061D01*
Y341027D02*
X884265D01*
X867861D02*
X869061D01*
X856666Y327560D02*
Y334722D01*
X502493Y383596D02*
Y389896D01*
Y382396D02*
Y383596D01*
X507493D02*
Y389896D01*
Y382396D02*
Y383596D01*
X514943Y376146D02*
X535883D01*
X513743D02*
X514943D01*
Y371146D02*
X538307D01*
X513743D02*
X514943D01*
X550555Y375916D02*
Y375957D01*
X514943Y366146D02*
X540785D01*
X513743D02*
X514943D01*
Y361146D02*
X543210D01*
X513743D02*
X514943D01*
Y351146D02*
X549245D01*
X513743D02*
X514943D01*
Y346146D02*
X552420D01*
X513743D02*
X514943D01*
Y341146D02*
X554845D01*
X513743D02*
X514943D01*
X502493Y333696D02*
Y334896D01*
Y326845D02*
Y333696D01*
X341948Y602650D02*
X354500D01*
X338523Y599225D02*
X341948Y602650D01*
X219778Y976524D02*
X220238Y976984D01*
X150409Y662155D02*
Y669520D01*
Y637000D02*
Y662155D01*
X175409D02*
Y683775D01*
Y629727D02*
Y662155D01*
X337225Y703098D02*
Y708098D01*
Y695775D02*
Y703098D01*
X76936Y492322D02*
X78941Y494327D01*
X76980Y524870D02*
X77763Y524087D01*
X634068Y286493D02*
X655680D01*
X277456Y287085D02*
X313706D01*
X314541Y286250D01*
X444928Y371077D02*
X466174D01*
X756683Y543687D02*
Y582000D01*
X826611Y333577D02*
Y334777D01*
Y325558D02*
Y333577D01*
X754004Y321315D02*
X822368D01*
X826611Y383477D02*
Y396910D01*
Y382277D02*
Y383477D01*
X831611D02*
Y397267D01*
Y382277D02*
Y383477D01*
X477493Y383596D02*
Y394286D01*
Y382396D02*
Y383596D01*
X472493D02*
Y394115D01*
Y382396D02*
Y383596D01*
X375130Y703098D02*
X375325Y702903D01*
X55424Y859420D02*
X162732D01*
X55424Y855420D02*
X162732D01*
X120977Y849920D02*
X169252D01*
X873000Y22741D02*
X889874D01*
X502493Y326845D02*
X503665Y325673D01*
X547490D01*
X567843Y346027D01*
X532592Y272199D02*
Y291554D01*
Y272199D02*
X532593Y272198D01*
X536778Y249450D02*
X557150D01*
X557843Y248757D01*
X211704Y267188D02*
X212000Y267483D01*
Y278750D01*
X828875Y22493D02*
Y39395D01*
X814176Y48375D02*
X819895D01*
X828875Y39395D01*
X769000Y43750D02*
X773625Y48375D01*
X769000Y33250D02*
Y43750D01*
X762500Y44500D02*
X770875Y52875D01*
X785151D01*
X773625Y48375D02*
X785151D01*
X792942D01*
X762401Y53721D02*
X763483D01*
X767137Y57375D01*
X827437Y52875D02*
X830766Y49547D01*
X814176Y52875D02*
X827437D01*
X762401Y70875D02*
X766901Y66375D01*
X785151D01*
X774375Y70875D02*
X785151D01*
X726000Y106050D02*
X739200D01*
X774375Y70875D01*
X618226Y854250D02*
Y867216D01*
Y824250D02*
Y840250D01*
X802650Y947899D02*
X802650Y947900D01*
X623013Y226757D02*
X633467D01*
X388900Y539396D02*
Y539891D01*
X421509Y572500D01*
X267759Y82577D02*
X299138D01*
X408382Y588500D02*
X470245D01*
X359342Y539460D02*
X408382Y588500D01*
X359342Y539335D02*
Y539460D01*
X275467Y89077D02*
X299138D01*
X411747Y584500D02*
X470245D01*
X366642Y539395D02*
X411747Y584500D01*
X366642Y539335D02*
Y539395D01*
Y539238D02*
Y539335D01*
X299032Y95471D02*
X299138Y95577D01*
X282029Y95471D02*
X299032D01*
X281923Y95365D02*
X282029Y95471D01*
X374006Y539335D02*
X415171Y580500D01*
X470245D01*
X374006Y539238D02*
Y539335D01*
X289965Y183969D02*
X320559D01*
X418043Y576500D02*
X470245D01*
X381564Y540021D02*
X418043Y576500D01*
X381564Y539335D02*
Y540021D01*
X297370Y190469D02*
X320559D01*
X421509Y572500D02*
X470245D01*
X304048Y196969D02*
X320559D01*
X425429Y568500D02*
X470245D01*
X396264Y539335D02*
X425429Y568500D01*
X396264Y539193D02*
Y539335D01*
X371853Y63712D02*
Y74053D01*
X393283Y165762D02*
Y175454D01*
X364559Y183969D02*
X391298D01*
X371853Y74053D02*
X371862Y74062D01*
Y84562D01*
X369878Y82577D02*
X371862Y84562D01*
X391283Y177454D02*
X393283Y175454D01*
X267000Y226750D02*
X277325D01*
X636250Y249000D02*
X646750D01*
X612013Y250448D02*
X626250D01*
Y238158D02*
Y249000D01*
X271920Y238170D02*
Y248876D01*
X255874Y250567D02*
X270229D01*
X271920Y248876D01*
X281920D02*
X293920D01*
X403268Y184524D02*
X413768D01*
X447000Y209262D02*
X462451D01*
X381862Y84562D02*
X392363D01*
X381862Y74062D02*
X392363D01*
X360348Y76077D02*
X360363Y76062D01*
X369863D01*
X371862Y74062D01*
X343138Y76077D02*
X360348D01*
X343138Y82577D02*
X369878D01*
X282628Y76077D02*
X299138D01*
X925599Y285750D02*
X938750D01*
X897543Y285746D02*
X911595D01*
X911599Y285750D01*
X740987Y22740D02*
X744948Y26701D01*
X736250Y22740D02*
X740987D01*
X744948Y26701D02*
Y55709D01*
X674510Y22740D02*
X689398D01*
X703398D02*
X720950D01*
X852529Y22971D02*
X860737D01*
X848818Y26683D02*
X852529Y22971D01*
X848818Y26683D02*
Y53721D01*
X889874Y22741D02*
X889875Y22740D01*
X902875D02*
X915007D01*
X713000Y119050D02*
Y138500D01*
Y119050D02*
X726000Y106050D01*
X932166Y86990D02*
X936061Y83095D01*
X847490Y86990D02*
X932166D01*
X822375Y61875D02*
X847490Y86990D01*
X655499Y299563D02*
X655680Y299381D01*
X655499Y299563D02*
Y318516D01*
X468503Y311178D02*
X476648D01*
X463939Y306615D02*
X468503Y311178D01*
X438255Y307582D02*
X441851Y311178D01*
X437173Y307582D02*
X438255D01*
X844062Y98953D02*
X849016Y103907D01*
X821245Y66375D02*
X844062Y89192D01*
Y98953D01*
X825919Y76665D02*
Y103831D01*
X820130Y70875D02*
X825919Y76665D01*
X815627Y22741D02*
X815875Y22493D01*
X800089Y22741D02*
X815627D01*
X814176Y61875D02*
X822375D01*
X744948Y56375D02*
X750447Y61875D01*
X785151D01*
X174412Y612211D02*
X174701Y612500D01*
X470245D01*
X178981Y616500D02*
X470245D01*
X198663Y620500D02*
X470245D01*
X205150Y624500D02*
X470245D01*
X283752Y839920D02*
X395500D01*
X395096Y844920D02*
X414610Y825406D01*
X283752Y844920D02*
X395096D01*
X283752Y849920D02*
X394692D01*
X283752Y854920D02*
X394399D01*
X814176Y70875D02*
X820130D01*
X814176Y66375D02*
X821245D01*
X785151D02*
X794113D01*
X799663Y59625D02*
Y60825D01*
X797413Y57375D02*
X799063Y59025D01*
X805213Y52875D02*
X814176D01*
X799663Y58425D02*
Y59625D01*
X794113Y49547D02*
Y52875D01*
X792942Y48375D02*
X794113Y49547D01*
X785151Y52875D02*
X794113D01*
X513686Y311178D02*
X518250Y306615D01*
X633467Y297168D02*
Y307462D01*
X633430Y297131D02*
X633467Y297168D01*
X611953Y297348D02*
Y307582D01*
Y297348D02*
X612013Y297287D01*
X582013Y297448D02*
Y307204D01*
X277291Y297250D02*
X277451Y297410D01*
Y307572D01*
X225874Y297567D02*
Y307323D01*
X671295Y299250D02*
X690000D01*
X503248Y311178D02*
X513686D01*
X405921Y411235D02*
X463687Y469001D01*
X404936Y301924D02*
X415396D01*
X386421Y301999D02*
Y321899D01*
X392921Y301999D02*
Y321899D01*
X384421Y291500D02*
Y301905D01*
X394936Y291500D02*
Y301924D01*
X363840D02*
X374403D01*
X384403D02*
X384421Y301905D01*
X386421Y367649D02*
Y381556D01*
X405921Y365899D02*
Y411235D01*
X212000Y317710D02*
X212248Y317958D01*
X212000Y292120D02*
Y317710D01*
Y292120D02*
X216552Y287567D01*
X21729Y491079D02*
Y517937D01*
X21638Y518028D02*
X21729Y517937D01*
X21638Y517914D02*
X21639Y517916D01*
X11057Y518028D02*
X21638D01*
Y517914D02*
Y518028D01*
Y528028D02*
Y538447D01*
X21731Y441397D02*
Y475077D01*
X21729Y475079D02*
X21731Y475077D01*
X38426Y520570D02*
X41301Y517696D01*
X81356D01*
X249421Y568500D02*
X345770D01*
X300750Y606896D02*
X302354Y608500D01*
X470245D01*
X300750Y584744D02*
Y595896D01*
X503248Y290729D02*
Y301178D01*
X720567Y421829D02*
X760039Y382356D01*
X740539Y367530D02*
Y381437D01*
X581170Y515804D02*
Y522473D01*
Y515804D02*
X588780Y508194D01*
X472867Y526363D02*
X483245Y536741D01*
Y547500D01*
X504610Y534333D02*
X507245Y536968D01*
X504610Y533251D02*
Y534333D01*
X511245Y530366D02*
Y547500D01*
X49502Y859670D02*
X55174D01*
X48502Y860670D02*
X49502Y859670D01*
X162732Y859420D02*
X163232Y859920D01*
X55174Y859670D02*
X55424Y859420D01*
X163232Y854920D02*
X169252D01*
X55174Y855170D02*
X55424Y855420D01*
X49502Y855170D02*
X55174D01*
X163232Y859920D02*
X169252D01*
X48502Y854170D02*
X49502Y855170D01*
X162732Y855420D02*
X163232Y854920D01*
X102887Y864920D02*
X169252D01*
X100142Y867665D02*
X102887Y864920D01*
X442036Y356146D02*
X442036Y356146D01*
X442036Y348863D02*
Y356146D01*
X437000Y344000D02*
X437173D01*
X442036Y348863D01*
X100142Y867665D02*
Y874000D01*
X312756Y736077D02*
X414502D01*
X301364Y724686D02*
X312756Y736077D01*
X312723Y739327D02*
X415849D01*
X346319Y682478D02*
X458022D01*
X337225Y673383D02*
X346319Y682478D01*
X337225Y662468D02*
Y673383D01*
X346522Y686478D02*
X459506D01*
X337225Y695775D02*
X346522Y686478D01*
X375260Y714153D02*
Y725827D01*
X387266Y714153D02*
Y725408D01*
X387352Y703239D02*
X403919D01*
X375205Y703098D02*
X375260Y703153D01*
X357225Y703098D02*
X375130D01*
X387266Y703153D02*
X387352Y703239D01*
X375130Y703098D02*
X375205D01*
X417919Y703239D02*
X417952Y703272D01*
X428244D01*
X298437Y703057D02*
X298631Y703252D01*
X298640Y703098D02*
X317225D01*
X298585Y703153D02*
X298640Y703098D01*
X298382Y680771D02*
Y692102D01*
X189002Y780352D02*
Y795170D01*
X154817Y730832D02*
Y746167D01*
X189002Y780352D01*
X154817Y712172D02*
Y730832D01*
X169252Y785201D02*
Y814920D01*
X129417Y730832D02*
Y745365D01*
X169252Y785201D01*
X129417Y716416D02*
Y730832D01*
X180217Y745673D02*
X194002Y759458D01*
X180217Y730832D02*
Y745673D01*
X194002Y759458D02*
Y795170D01*
X199002Y754533D02*
Y795170D01*
Y754533D02*
X205617Y747918D01*
Y730832D02*
Y747918D01*
X191409Y694775D02*
Y716625D01*
X205617Y730832D01*
X258325Y724686D02*
X283425D01*
X257925Y725086D02*
X258325Y724686D01*
X258125Y750686D02*
X283425D01*
X257925Y750486D02*
X258125Y750686D01*
X298382Y640206D02*
Y651472D01*
Y662473D02*
X298386Y662468D01*
X317225D01*
X414610Y749758D02*
Y825406D01*
X418610Y750354D02*
Y826003D01*
X410610Y749162D02*
Y824810D01*
X394692Y849920D02*
X418610Y826003D01*
X395500Y839920D02*
X410610Y824810D01*
X422610Y750950D02*
Y826709D01*
X394399Y854920D02*
X422610Y826709D01*
X435500Y744500D02*
X511245Y668755D01*
X435500Y744500D02*
Y867250D01*
X497539Y689047D02*
X515245Y671342D01*
Y649500D02*
Y671342D01*
X497539Y689047D02*
Y796811D01*
X412500Y867250D02*
X435500D01*
X422610Y750950D02*
X507245Y666316D01*
X503245Y649500D02*
Y665719D01*
X499245Y649500D02*
Y665123D01*
X507245Y649500D02*
Y666316D01*
X495245Y649500D02*
Y664527D01*
X410610Y749162D02*
X495245Y664527D01*
X414610Y749758D02*
X499245Y665123D01*
X418610Y750354D02*
X503245Y665719D01*
X485717Y629857D02*
X489888D01*
X479073Y636500D02*
X485717Y629857D01*
X519245Y649500D02*
Y686371D01*
X523245Y649500D02*
Y711655D01*
X527245Y649500D02*
Y708199D01*
X511245Y649500D02*
Y668755D01*
X523245Y711655D02*
X528833Y717243D01*
X527245Y708199D02*
X536567Y717521D01*
X517916Y687700D02*
X519245Y686371D01*
X390500Y867250D02*
X401500D01*
X435500Y909250D02*
Y926750D01*
X483245Y649500D02*
Y662738D01*
X458022Y682478D02*
X479245Y661255D01*
Y649500D02*
Y661255D01*
X459506Y686478D02*
X483245Y662738D01*
X248269Y770821D02*
X258945D01*
X259002Y770878D01*
X464897Y640500D02*
X470245D01*
X450495Y654902D02*
X464897Y640500D01*
X415849Y739327D02*
X491245Y663931D01*
Y649500D02*
Y663931D01*
X414502Y736077D02*
X487245Y663335D01*
Y649500D02*
Y663335D01*
X283425Y750686D02*
X301364D01*
X312723Y739327D01*
X283425Y724686D02*
X301364D01*
X159409Y636071D02*
X178981Y616500D01*
X159409Y636071D02*
Y662155D01*
X182163Y637000D02*
X198663Y620500D01*
X175002Y629320D02*
X175409Y629727D01*
X176454Y272317D02*
Y286817D01*
X404179Y590322D02*
Y594122D01*
X399042Y585185D02*
X404179Y590322D01*
X394981Y585185D02*
X399042D01*
X394769Y584972D02*
X394981Y585185D01*
X404179Y594122D02*
X405207Y595150D01*
X412198Y547931D02*
X420768Y556500D01*
X412198Y544413D02*
Y547931D01*
X117426Y431132D02*
X117610Y430947D01*
X107194Y431132D02*
X117426D01*
X127613Y430868D02*
X138271D01*
X138351Y430947D01*
X381768Y177469D02*
X381783Y177454D01*
X391283D01*
X403283Y175454D02*
X413783D01*
X364559Y177469D02*
X381768D01*
X304048D02*
X320559D01*
X345770Y568500D02*
X377770Y600500D01*
X406557Y596500D02*
X470245D01*
X377770Y600500D02*
X470245D01*
X349976Y581762D02*
X354500Y586286D01*
Y591900D01*
X201183Y248355D02*
X201704Y248876D01*
X191456Y248355D02*
X201183D01*
X191515Y255317D02*
X191765Y255567D01*
X225874D01*
X177204Y260567D02*
X225874D01*
X176454Y261317D02*
X177204Y260567D01*
X589513Y272948D02*
Y284248D01*
X582013Y287448D02*
X582542Y286920D01*
X586842D01*
X589513Y284248D01*
X607185Y286823D02*
X611549D01*
X604513Y272948D02*
Y284152D01*
X611549Y286823D02*
X612013Y287287D01*
X604513Y284152D02*
X607185Y286823D01*
X625652Y265448D02*
X633430Y273226D01*
Y287131D01*
X547825Y255105D02*
X548169Y255448D01*
X582013D01*
X533343Y260448D02*
X582013D01*
X532593Y261198D02*
X533343Y260448D01*
X466174Y371077D02*
X466243Y371146D01*
X444859Y371009D02*
X444928Y371077D01*
X463687Y469001D02*
X463901D01*
X462896Y533757D02*
Y542598D01*
X472493Y394115D02*
X475078Y396701D01*
X477493Y394286D01*
X444904Y563159D02*
X445974D01*
X447315Y564500D01*
X470245D01*
X453035Y524065D02*
Y533618D01*
X760039Y365780D02*
Y382356D01*
X753539Y365780D02*
Y382654D01*
X719533Y416660D02*
X753539Y382654D01*
X718146Y411693D02*
X747039Y382800D01*
Y365780D02*
Y382800D01*
X554845Y341146D02*
X567434Y353736D01*
X531245Y704351D02*
X536697Y709803D01*
X531245Y649500D02*
Y704351D01*
X552420Y346146D02*
X567420Y361146D01*
X535245Y699975D02*
X544897Y709627D01*
X535245Y649500D02*
Y699975D01*
X549245Y351146D02*
X559245Y361146D01*
X543245Y691814D02*
X552616Y701184D01*
X543245Y649500D02*
Y691814D01*
X540785Y366146D02*
X550555Y375916D01*
X547245Y649500D02*
Y688389D01*
X552703Y693847D01*
X538307Y371146D02*
X543307Y376146D01*
X551245Y684134D02*
X560959Y693847D01*
X551245Y649500D02*
Y684134D01*
X543159Y383422D02*
X543281D01*
X535883Y376146D02*
X543159Y383422D01*
X507493Y389896D02*
X511097Y393500D01*
X555245Y649500D02*
Y680248D01*
X560848Y685851D01*
X511097Y393500D02*
X537500D01*
X559245Y649500D02*
Y676613D01*
X568483Y685851D01*
X502493Y389896D02*
X511597Y399000D01*
X531500D01*
X546790Y356146D02*
X559245Y368601D01*
X543210Y361146D02*
X550665Y368601D01*
X876533Y378899D02*
Y416660D01*
X873756Y376123D02*
X876533Y378899D01*
X867861Y376027D02*
X867956Y376123D01*
X899701Y347413D02*
Y425665D01*
X876288Y324000D02*
X899701Y347413D01*
X860226Y324000D02*
X876288D01*
X856666Y327560D02*
X860226Y324000D01*
X851611Y324323D02*
X857366Y318568D01*
Y311059D02*
Y318568D01*
X861842Y334000D02*
X878000D01*
X861611Y334231D02*
Y334777D01*
Y334231D02*
X861842Y334000D01*
X507724Y334500D02*
X525750D01*
X507493Y334731D02*
Y334896D01*
Y334731D02*
X507724Y334500D01*
X539245Y695850D02*
X544897Y701502D01*
X539245Y649500D02*
Y695850D01*
X640070Y519070D02*
Y531684D01*
X744150Y582000D02*
Y600100D01*
X727179Y617071D02*
X744150Y600100D01*
X599956Y617071D02*
X727179D01*
X597160Y625500D02*
X707721D01*
X572245Y620500D02*
X592160D01*
X597160Y625500D01*
X594783Y628750D02*
X698362D01*
X572245Y624500D02*
X590533D01*
X594783Y628750D01*
X595385Y612500D02*
X599956Y617071D01*
X572245Y612500D02*
X595385D01*
X593959Y616500D02*
X598262Y620803D01*
X747853D01*
X572245Y616500D02*
X593959D01*
X707721Y625500D02*
X708273Y626053D01*
X747853Y620803D02*
X769550Y642500D01*
X752000Y637650D02*
X756850Y642500D01*
X698362Y628750D02*
X707262Y637650D01*
X752000D01*
X572245Y608500D02*
X600747D01*
X602836Y610589D01*
X603918D01*
X198931Y511743D02*
X199093Y511582D01*
X210172D01*
X507245Y536968D02*
Y547500D01*
X463525Y533998D02*
X472867D01*
X479245Y540376D01*
Y547500D01*
X603918Y610589D02*
X612634D01*
X517253Y688363D02*
X517916Y687700D01*
X437036Y536211D02*
Y546590D01*
X427155Y536211D02*
Y546590D01*
X437051Y168262D02*
Y187462D01*
X462451Y81762D02*
X462451Y81762D01*
X449751Y81762D02*
X449751Y81762D01*
X449751D02*
X449751Y81762D01*
Y59612D02*
Y70762D01*
X299750Y299709D02*
Y318500D01*
X248374Y273067D02*
Y279906D01*
X255874Y287406D01*
X503248Y311178D02*
Y318687D01*
X450671Y290729D02*
Y301178D01*
X455659Y311178D02*
X463939Y319458D01*
X477397Y334800D02*
X477493Y334896D01*
X421818Y356146D02*
X432036D01*
X277291Y287250D02*
X277456Y287085D01*
X299541Y299500D02*
X299750Y299709D01*
X314481Y299500D02*
X314731Y299750D01*
X328000D01*
X497493Y324442D02*
X503248Y318687D01*
X471166Y319458D02*
X477397Y325689D01*
X463939Y319458D02*
X471166D01*
X476165Y291500D02*
Y300696D01*
X476648Y318597D02*
X482493Y324442D01*
X476165Y300696D02*
X476648Y301178D01*
Y311178D02*
Y318597D01*
X216552Y287567D02*
X225874D01*
X211704Y238380D02*
Y248876D01*
X213395Y250567D01*
X276920Y272974D02*
Y286879D01*
X225874Y287567D02*
X233374Y280067D01*
X276920Y286879D02*
X277291Y287250D01*
X255874Y287406D02*
X261906D01*
X233374Y273067D02*
Y280067D01*
X269513Y265567D02*
X276920Y272974D01*
X255874Y265567D02*
X269513D01*
X213395Y250567D02*
X225874D01*
X191562Y267188D02*
X201704D01*
X212871Y265567D02*
X225874D01*
X211704Y266734D02*
X212871Y265567D01*
X470245Y636500D02*
X479073D01*
X452235D02*
X470245D01*
X384707Y595150D02*
X395207D01*
X354500Y602900D02*
X356100Y604500D01*
X470245D01*
X184409Y645241D02*
X205150Y624500D01*
X338523Y597400D02*
Y599225D01*
X314703Y599343D02*
X324948D01*
X64995Y505269D02*
X66936Y503327D01*
X56808Y505269D02*
X64995D01*
X45035Y492384D02*
X66874D01*
X43729Y491079D02*
X45035Y492384D01*
X43729Y443327D02*
Y475079D01*
X21731Y415767D02*
Y430397D01*
X94724Y504327D02*
X108511D01*
X87220Y499327D02*
X108511D01*
X78941Y494327D02*
X108511D01*
X140011Y442607D02*
Y472827D01*
X117610Y446706D02*
X125011Y454107D01*
X117610Y440947D02*
Y446706D01*
X107101Y440947D02*
X117610D01*
X179217Y543489D02*
Y554063D01*
X178594Y542866D02*
X179217Y543489D01*
X163959Y542866D02*
X178594D01*
X179931Y471562D02*
X188430D01*
X172166Y479327D02*
X179931Y471562D01*
X156511Y494327D02*
X187761D01*
X156511Y479327D02*
X172166D01*
X162511Y565609D02*
Y579892D01*
X102511Y565609D02*
Y579892D01*
X150511Y565609D02*
Y579892D01*
X138511Y565609D02*
Y579892D01*
X126511Y565609D02*
Y579892D01*
X114511Y565609D02*
Y579892D01*
X38426Y534070D02*
Y548631D01*
X50464Y547695D02*
X62163D01*
X90649Y553877D02*
X115011Y529515D01*
X90649Y553877D02*
Y561551D01*
X81764Y547536D02*
X91593Y537707D01*
X75845Y547536D02*
X81764D01*
X75686Y547695D02*
X75845Y547536D01*
X150011Y528918D02*
X163959Y542866D01*
X150011Y520827D02*
Y528918D01*
X91593Y524156D02*
Y537707D01*
X76936Y524826D02*
Y535187D01*
X56481Y524826D02*
X66936D01*
X101422Y514327D02*
X108511D01*
X98180Y509327D02*
X108511D01*
X91593Y524156D02*
X101422Y514327D01*
X83421Y524087D02*
X98180Y509327D01*
X81356Y517696D02*
X94724Y504327D01*
X77763Y524087D02*
X83421D01*
X127821Y440947D02*
X138351D01*
X140011Y442607D01*
X83220Y503327D02*
X87220Y499327D01*
X76936Y503327D02*
X83220D01*
X76936D02*
Y512105D01*
X125011Y454107D02*
Y472827D01*
X115011Y520827D02*
Y529515D01*
X64858Y440197D02*
X75741D01*
X64858Y452191D02*
X75741D01*
X90416Y561784D02*
X90649Y561551D01*
X90416Y561784D02*
Y572366D01*
X62264Y561784D02*
X80416D01*
X189217Y543489D02*
X199643D01*
X198430Y492799D02*
X208848D01*
X200181Y457697D02*
X200184Y457695D01*
X188430Y482218D02*
Y492799D01*
X200184Y457695D02*
X211858D01*
X198430Y471562D02*
X208848D01*
X612634Y610589D02*
X612953Y610270D01*
X572245Y604500D02*
X665071D01*
X765947Y503624D01*
X622953Y610270D02*
X623038Y610185D01*
X632363D01*
X884265Y341027D02*
X896451Y353213D01*
Y424319D01*
X883508Y346027D02*
X893201Y355720D01*
Y422972D01*
X889951Y358286D02*
Y421626D01*
X882692Y351027D02*
X889951Y358286D01*
X883515Y359536D02*
X883567D01*
X880005Y356027D02*
X883515Y359536D01*
X763254Y497124D02*
X819049D01*
X810972Y477624D02*
X861611Y426985D01*
X820395Y500374D02*
X896451Y424319D01*
X761908Y493874D02*
X817703D01*
X757870Y484124D02*
X813664D01*
X812318Y480874D02*
X876533Y416660D01*
X816357Y490624D02*
X886283Y420698D01*
X809626Y474374D02*
X856611Y427389D01*
X753831Y474374D02*
X809626D01*
X765947Y503624D02*
X821741D01*
X899701Y425665D01*
X756524Y480874D02*
X812318D01*
X813664Y484124D02*
X879782Y418006D01*
X819049Y497124D02*
X893201Y422972D01*
X879782Y375449D02*
Y418006D01*
X815011Y487374D02*
X883033Y419352D01*
X760562Y490624D02*
X816357D01*
X755177Y477624D02*
X810972D01*
X759216Y487374D02*
X815011D01*
X764601Y500374D02*
X820395D01*
X817703Y493874D02*
X889951Y421626D01*
X572245Y600500D02*
X664475D01*
X764601Y500374D01*
X572245Y596500D02*
X663879D01*
X763254Y497124D01*
X572245Y592500D02*
X663283D01*
X761908Y493874D01*
X572245Y588500D02*
X662686D01*
X760562Y490624D01*
X572245Y584500D02*
X662090D01*
X759216Y487374D01*
X875361Y371027D02*
X879782Y375449D01*
X572245Y580500D02*
X661494D01*
X757870Y484124D01*
X572245Y576500D02*
X660898D01*
X756524Y480874D01*
X572245Y572500D02*
X660302D01*
X755177Y477624D01*
X572245Y568500D02*
X659706D01*
X753831Y474374D01*
X717959Y301805D02*
X728520D01*
X728521Y301805D01*
X571264Y292374D02*
X576190Y287448D01*
X571264Y292374D02*
Y318618D01*
X618013Y287287D02*
X621470Y290744D01*
Y318500D01*
X612013Y287287D02*
X618013D01*
X633430Y287131D02*
X634068Y286493D01*
X655930Y286131D02*
X670680D01*
X567843Y267069D02*
Y278750D01*
X637270Y655880D02*
X637464Y655686D01*
X648924D01*
X586000Y685998D02*
Y694627D01*
X828221Y398520D02*
X828954D01*
X585897Y685896D02*
X586000Y685998D01*
X579396Y685896D02*
X585897D01*
X563245Y669745D02*
X579396Y685896D01*
X563245Y649500D02*
Y669745D01*
X601420Y664902D02*
Y675470D01*
X611470Y664902D02*
Y675470D01*
X621288Y634080D02*
X631536D01*
X507908Y688363D02*
X517253D01*
X433750Y640206D02*
X441456Y632500D01*
X470245D01*
X433456Y628500D02*
X470245D01*
X448235Y640500D02*
X452235Y636500D01*
X447750Y640500D02*
X448235D01*
X556773Y630028D02*
X563245Y636500D01*
X552774Y630028D02*
X556773D01*
X412901Y515491D02*
Y527996D01*
X636202Y556590D02*
X640070Y552722D01*
X621470Y556590D02*
X636202D01*
X640070Y545184D02*
Y552722D01*
X611288Y536211D02*
Y546408D01*
X611470Y546590D01*
X293425Y737686D02*
X306940D01*
X477539Y796811D02*
Y834311D01*
X477289Y834561D02*
X477539Y834311D01*
X451539Y834561D02*
X466289D01*
X517539Y796811D02*
Y834561D01*
X528539D02*
X541039D01*
X591872Y636500D02*
X595872Y640500D01*
X572245Y636500D02*
X591872D01*
X184409Y645241D02*
Y662155D01*
X159409D02*
Y683775D01*
X184409Y662155D02*
Y669590D01*
X159409Y683775D02*
X159410Y683775D01*
X191409Y676590D02*
Y683775D01*
X184409Y669590D02*
X191409Y676590D01*
X220238Y976984D02*
X228000D01*
X219778D02*
X220238D01*
X228000D02*
X234002Y970982D01*
X191278Y976984D02*
X205778D01*
X169611D02*
X180278D01*
X143410Y676520D02*
X150409Y669520D01*
X143410Y676520D02*
Y683775D01*
X175409Y683775D02*
X175410Y683775D01*
X572245Y564500D02*
X656000D01*
X826611Y396910D02*
X828221Y398520D01*
X789957Y343250D02*
X796154Y349447D01*
Y356027D01*
X656000Y564500D02*
X752000Y468500D01*
X611288Y634080D02*
X611318Y634110D01*
Y643166D01*
X744150Y554226D02*
Y582000D01*
X756850Y642500D02*
Y655000D01*
X769550Y642500D02*
Y655000D01*
X721316Y555679D02*
X722314D01*
X725336Y552657D01*
X742586Y552662D02*
X744150Y554226D01*
X621470Y536211D02*
Y546590D01*
X822368Y321315D02*
X826611Y325558D01*
X824010Y318065D02*
X831515Y325570D01*
X753539Y321780D02*
X754004Y321315D01*
X831515Y334681D02*
X831611Y334777D01*
X794296Y311059D02*
X804789D01*
X738521Y291313D02*
X738539Y291295D01*
X749054D02*
Y301805D01*
X738521Y291313D02*
Y301805D01*
X140601Y927473D02*
X143510Y924564D01*
X140601Y911473D02*
X143692Y914564D01*
X143510Y924564D02*
X155557D01*
X143692Y914564D02*
X155557D01*
X140797Y879920D02*
X169252D01*
X155557Y914564D02*
X155659Y914463D01*
Y904411D02*
Y914463D01*
X143692Y884920D02*
X169252D01*
X154156Y824920D02*
X169252D01*
X140568Y811333D02*
X154156Y824920D01*
X154817Y712172D02*
X159410Y707580D01*
X48502Y841170D02*
X67058D01*
X115227Y827688D02*
Y844170D01*
X74726Y887450D02*
X74816Y887540D01*
X88049D01*
X74726Y874000D02*
X89143D01*
X103673Y924564D02*
Y934946D01*
Y914564D02*
X115510D01*
X103673Y924564D02*
X115692D01*
X101549Y887540D02*
X125408D01*
X113204Y874921D02*
X120934D01*
X115227Y844170D02*
X120977Y849920D01*
X123308Y839170D02*
X130933D01*
X130934Y874921D02*
X130934Y874920D01*
X169252D01*
X115510Y914564D02*
X118601Y911473D01*
X115692Y924564D02*
X118601Y927473D01*
Y911473D02*
X123308Y906767D01*
Y897410D02*
Y906767D01*
X125408Y887540D02*
X130934Y882014D01*
X129563Y899049D02*
Y917685D01*
X130934Y874921D02*
Y882014D01*
X123308Y897410D02*
X140797Y879920D01*
X129563Y917685D02*
X139351Y927473D01*
X129563Y899049D02*
X143692Y884920D01*
X139351Y927473D02*
X140601D01*
X143410Y694775D02*
Y701025D01*
X159410Y694775D02*
Y707580D01*
X283752Y859920D02*
X312616D01*
X313502Y860806D01*
X324058D01*
X313502Y870806D02*
X313568Y870872D01*
Y881138D01*
X292727Y936620D02*
X306097D01*
X103706Y707533D02*
X118385D01*
X115227Y802319D02*
Y814188D01*
X167409Y662155D02*
Y672840D01*
X129385Y707533D02*
Y716384D01*
X129417Y716416D01*
X129385Y707533D02*
X129431Y707580D01*
X130933Y818795D02*
Y829170D01*
X129431Y707580D02*
X136855D01*
X138699Y784411D02*
Y795255D01*
Y806255D02*
X140568Y808124D01*
X136855Y707580D02*
X143410Y701025D01*
X140568Y808124D02*
Y811333D01*
X184565Y842421D02*
X185647D01*
X182065Y844920D02*
X184565Y842421D01*
X169252Y844920D02*
X182065D01*
X169252Y869920D02*
X185647D01*
X169252Y889920D02*
X184897D01*
X175410Y694775D02*
Y707576D01*
X180217Y712383D01*
Y730832D01*
X182064Y839920D02*
X184565Y842421D01*
X169252Y819920D02*
X180647D01*
X185647Y824920D01*
X180647Y829920D02*
X185647Y824920D01*
X169252Y829920D02*
X180647D01*
X169252Y839920D02*
X182064D01*
X205485Y760322D02*
Y770878D01*
X215485Y770878D02*
X225863D01*
X204002Y772361D02*
X205485Y770878D01*
X204002Y772361D02*
Y795170D01*
X229002D02*
Y811276D01*
X165977Y936620D02*
X179077D01*
X254002Y893476D02*
Y909670D01*
X216900Y936620D02*
X227587D01*
X248407Y936620D02*
X259007D01*
X239002Y909670D02*
Y970982D01*
X234002Y909670D02*
Y970982D01*
X227587Y946620D02*
Y959950D01*
X269002Y770878D02*
X279355D01*
X259002Y770878D02*
Y795170D01*
X313502Y813564D02*
Y823920D01*
X267502Y824920D02*
X267502Y824920D01*
X283752D01*
X264002Y884920D02*
X283752D01*
X259002Y909670D02*
Y936615D01*
X259007Y936620D01*
Y946620D02*
Y959950D01*
X291517Y976984D02*
X302189D01*
X239002Y970982D02*
X244632Y976611D01*
X251649D01*
X252022Y976984D01*
X266022D02*
X280517D01*
X567843Y238261D02*
Y248757D01*
X569534Y250448D01*
X576190Y287448D02*
X582013D01*
X830766Y318478D02*
X836611Y324323D01*
X775935Y356027D02*
X786154D01*
X796154D02*
X796154Y356027D01*
X803861Y382027D02*
X809861Y376027D01*
X804789Y290610D02*
Y301059D01*
X747039Y301880D02*
Y321780D01*
X740539Y301880D02*
Y321780D01*
X820296Y311059D02*
X830766D01*
X759054Y301805D02*
X769514D01*
X830766Y311059D02*
Y318478D01*
X857366Y290610D02*
Y301059D01*
Y311059D02*
X867804D01*
X872368Y306496D01*
X773500Y544293D02*
X786745D01*
X756850Y522100D02*
Y533043D01*
X773500Y522100D02*
Y534293D01*
X375260Y651338D02*
X375325Y651403D01*
X375260Y639653D02*
Y651338D01*
X612013Y265448D02*
X625652D01*
X567843Y266615D02*
X569010Y265448D01*
X582013D01*
X569534Y250448D02*
X582013D01*
X547701Y267069D02*
X557843D01*
X769550Y555532D02*
Y582000D01*
Y555532D02*
X773500Y551582D01*
Y544293D02*
Y551582D01*
X756683Y543687D02*
X756833Y543537D01*
X731450Y655000D02*
Y676066D01*
X744150Y704000D02*
Y714850D01*
Y655000D02*
Y693000D01*
X731450Y582000D02*
Y602800D01*
X548745Y571000D02*
X552026Y567719D01*
X537745Y582000D02*
X548745Y571000D01*
X393848Y634250D02*
X409110D01*
X427706D02*
X433456Y628500D01*
X420110Y634250D02*
X427706D01*
X398848Y656902D02*
X410610D01*
X435231Y664902D02*
Y675470D01*
X445496Y664902D02*
Y675470D01*
X426110Y654902D02*
X435231D01*
X424110Y656902D02*
X426110Y654902D01*
X517911Y708245D02*
X517916Y708240D01*
Y697700D02*
Y708240D01*
X595897Y685896D02*
X606442D01*
X489888Y629857D02*
X493745Y626000D01*
X601343Y654825D02*
X601420Y654902D01*
X582267Y640500D02*
X596592Y654825D01*
X572245Y640500D02*
X582267D01*
X596592Y654825D02*
X601343D01*
X601420Y654902D02*
X611470D01*
X621793D01*
X623770Y656880D01*
X581170Y532473D02*
X591447D01*
X521245Y598500D02*
X526745Y593000D01*
X537745Y582000D01*
X478497Y560500D02*
X485717Y567720D01*
X470245Y560500D02*
X478497D01*
X490127Y567382D02*
X493745Y571000D01*
X485717Y567720D02*
X490127D01*
X563245Y636500D02*
X572245D01*
X548745Y626000D02*
X552774Y630028D01*
X556773Y567719D02*
X563992Y560500D01*
X552026Y567719D02*
X556773D01*
X563992Y560500D02*
X572245D01*
X375260Y662468D02*
X375325Y662402D01*
X357225Y662468D02*
X375260D01*
D16*
X497493Y111760D02*
X516240D01*
X475153D02*
X497493D01*
D53*
X814176Y70875D02*
D03*
Y66375D02*
D03*
Y61875D02*
D03*
Y57375D02*
D03*
Y52875D02*
D03*
Y48375D02*
D03*
X785151D02*
D03*
Y52875D02*
D03*
Y57375D02*
D03*
Y61875D02*
D03*
Y66375D02*
D03*
D54*
Y70875D02*
D03*
D55*
X799663Y59625D02*
D03*
D69*
X937877Y796000D02*
D03*
X874123D02*
D03*
D81*
X484976Y524443D02*
G03*
X484973Y524441I6095J-6095D01*
G01*
D02*
G03*
X482451Y518348I6098J-6093D01*
G01*
X479818Y504815D02*
G03*
X482451Y511171I-6356J6356D01*
G01*
X468670Y500179D02*
G03*
X479787Y504784I0J15722D01*
G01*
X484466Y528983D02*
G03*
X487460Y536211I-7229J7229D01*
G01*
X482430Y526948D02*
G03*
X478880Y518377I8571J-8571D01*
G01*
X477284Y507331D02*
G03*
X478880Y511184I-3853J3853D01*
G01*
X468639Y503750D02*
G03*
X477284Y507331I0J12226D01*
G01*
X487004Y526472D02*
G03*
X491030Y536192I-9720J9720D01*
G01*
X427927Y489398D02*
G03*
X407479Y480928I0J-28918D01*
G01*
X250099Y318499D02*
G03*
X242660Y300539I17960J-17960D01*
G01*
X247559Y321008D02*
G03*
X239089Y300561I20448J-20448D01*
G01*
X427948Y485828D02*
G03*
X409988Y478388I0J-25400D01*
G01*
X595228Y357213D02*
G03*
X587789Y375174I-25400J0D01*
G01*
X542647Y513068D02*
G03*
X542647Y513069I-282J-282D01*
G01*
X547825D02*
G03*
X547825Y513068I281J-282D01*
G01*
X548106Y513185D02*
G03*
X547825Y513069I0J-398D01*
G01*
X542084Y513302D02*
G03*
X542085Y513301I282J282D01*
G01*
X543451Y431499D02*
G03*
X551927Y411035I28939J0D01*
G01*
X548106Y513185D02*
G03*
X548387Y513301I0J398D01*
G01*
X547021Y431512D02*
G03*
X554461Y413551I25400J0D01*
G01*
X598799Y357252D02*
G03*
X590341Y377671I-28877J0D01*
G01*
X547481Y512725D02*
G03*
X547479Y512723I1111J-1111D01*
G01*
X238732Y276041D02*
G03*
X238374Y275178I863J-863D01*
G01*
X495460Y542267D02*
G03*
X495352Y542527I-366J0D01*
G01*
X495007Y519576D02*
G03*
X495465Y520685I-1113J1109D01*
G01*
X495245Y542786D02*
G03*
X495352Y542527I366J0D01*
G01*
X495005Y519574D02*
G03*
X495007Y519576I-1111J1111D01*
G01*
X494661Y519230D02*
G03*
X494661Y519231I-281J282D01*
G01*
Y513068D02*
G03*
X494380Y513185I-282J-282D01*
G01*
X495465Y511128D02*
G03*
X494661Y513068I-2743J0D01*
G01*
X494380Y519114D02*
G03*
X494661Y519230I0J398D01*
G01*
X494380Y519114D02*
G03*
X494099Y518998I0J-398D01*
G01*
Y513301D02*
G03*
X494380Y513185I281J282D01*
G01*
X494099Y518998D02*
G03*
X494098Y518997I281J-282D01*
G01*
Y513302D02*
G03*
X494099Y513301I282J282D01*
G01*
X492104Y517003D02*
G03*
X492102Y517002I854J-853D01*
G01*
D02*
G03*
X491750Y516149I855J-852D01*
G01*
X492102Y515297D02*
G03*
X492104Y515296I855J852D01*
G01*
X491750Y516149D02*
G03*
X492102Y515297I1207J0D01*
G01*
X492957Y493750D02*
G03*
X495465Y499804I-6054J6054D01*
G01*
X482451Y489398D02*
G03*
X492957Y493750I0J14858D01*
G01*
X242660Y276903D02*
G03*
X243017Y276041I1220J0D01*
G01*
X243374Y275178D02*
G03*
X243017Y276041I-1220J0D01*
G01*
X500401Y518998D02*
G03*
X500120Y519114I-281J-282D01*
G01*
X499839Y519230D02*
G03*
X500120Y519114I281J282D01*
G01*
X502398Y517002D02*
G03*
X502397Y517003I-855J-852D01*
G01*
X500402Y518997D02*
G03*
X500401Y518998I-282J-282D01*
G01*
X499493Y519576D02*
G03*
X499495Y519574I1113J1109D01*
G01*
X499839Y519231D02*
G03*
X499839Y519230I282J282D01*
G01*
X502750Y516149D02*
G03*
X502398Y517002I-1207J0D01*
G01*
Y515297D02*
G03*
X502750Y516149I-855J852D01*
G01*
X502397Y515296D02*
G03*
X502398Y515297I-854J853D01*
G01*
X500401Y513301D02*
G03*
X500402Y513302I-281J282D01*
G01*
X500120Y513185D02*
G03*
X500401Y513301I0J398D01*
G01*
X500120Y513185D02*
G03*
X499839Y513068I0J-398D01*
G01*
X499035Y520685D02*
G03*
X499493Y519576I1571J0D01*
G01*
X499839Y513068D02*
G03*
X499035Y511128I1940J-1940D01*
G01*
X499138Y542527D02*
G03*
X499030Y542267I259J-259D01*
G01*
X495491Y491234D02*
G03*
X499035Y499791I-8556J8556D01*
G01*
X482468Y485828D02*
G03*
X495470Y491213I0J18387D01*
G01*
X238732Y276041D02*
G03*
X239089Y276903I-863J863D01*
G01*
X499138Y542527D02*
G03*
X499245Y542786I-259J259D01*
G01*
X548387Y518998D02*
G03*
X548106Y519114I-281J-282D01*
G01*
X548388Y518997D02*
G03*
X548387Y518998I-282J-282D01*
G01*
X547825Y519231D02*
G03*
X547825Y519230I282J282D01*
G01*
D02*
G03*
X548106Y519114I281J282D01*
G01*
X550384Y517002D02*
G03*
X550382Y517003I-855J-852D01*
G01*
X550736Y516149D02*
G03*
X550384Y517002I-1207J0D01*
G01*
X547138Y542527D02*
G03*
X547030Y542267I259J-259D01*
G01*
X547021Y520685D02*
G03*
X547479Y519576I1571J0D01*
G01*
D02*
G03*
X547481Y519574I1113J1109D01*
G01*
X550384Y515297D02*
G03*
X550736Y516149I-855J852D01*
G01*
X550382Y515296D02*
G03*
X550384Y515297I-854J854D01*
G01*
X548387Y513301D02*
G03*
X548388Y513302I-281J282D01*
G01*
X547479Y512723D02*
G03*
X547021Y511614I1113J-1109D01*
G01*
X598799Y276784D02*
G03*
X599156Y275922I1220J0D01*
G01*
X599513Y275059D02*
G03*
X599156Y275922I-1220J0D01*
G01*
X543460Y542267D02*
G03*
X543352Y542527I-366J0D01*
G01*
X543245Y542786D02*
G03*
X543352Y542527I366J0D01*
G01*
X542993Y519576D02*
G03*
X543451Y520685I-1113J1109D01*
G01*
X542991Y519574D02*
G03*
X542993Y519576I-1111J1111D01*
G01*
X542647Y519230D02*
G03*
X542647Y519231I-281J282D01*
G01*
X542365Y519114D02*
G03*
X542647Y519230I0J398D01*
G01*
X542365Y519114D02*
G03*
X542085Y518998I0J-398D01*
G01*
D02*
G03*
X542084Y518997I281J-282D01*
G01*
X540089Y517003D02*
G03*
X540088Y517002I854J-853D01*
G01*
D02*
G03*
X539736Y516149I855J-852D01*
G01*
X540088Y515297D02*
G03*
X540089Y515296I855J852D01*
G01*
X539736Y516149D02*
G03*
X540088Y515297I1207J0D01*
G01*
X542085Y513301D02*
G03*
X542365Y513185I281J282D01*
G01*
X542647Y513069D02*
G03*
X542365Y513185I-281J-282D01*
G01*
X542993Y512723D02*
G03*
X542991Y512725I-1113J-1109D01*
G01*
X543451Y511614D02*
G03*
X542993Y512723I-1571J0D01*
G01*
X594871Y275922D02*
G03*
X594513Y275059I863J-863D01*
G01*
X547138Y542527D02*
G03*
X547245Y542786I-259J259D01*
G01*
X594871Y275922D02*
G03*
X595228Y276784I-863J863D01*
G01*
X845824Y277214D02*
G03*
X845896Y278750I-16383J1537D01*
G01*
X814647Y259732D02*
G03*
X838542Y269630I0J33793D01*
G01*
D02*
G03*
X842326Y278764I-9135J9135D01*
G01*
X816407Y256203D02*
G03*
X841086Y267124I-1761J37322D01*
G01*
X814669Y256161D02*
G03*
X816155Y256191I0J37311D01*
G01*
X841086Y267124D02*
G03*
X845803Y277017I-11679J11640D01*
G01*
X491683Y273152D02*
G03*
X491778Y274715I-12832J1563D01*
G01*
X488006Y265588D02*
G03*
X491661Y272985I-9180J9137D01*
G01*
X467355Y256341D02*
G03*
X488006Y265588I-1764J31620D01*
G01*
X465591Y259862D02*
G03*
X485461Y268093I0J28098D01*
G01*
D02*
G03*
X488208Y274726I-6635J6633D01*
G01*
X465613Y256291D02*
G03*
X467105Y256327I0J31616D01*
G01*
X492136Y329837D02*
G03*
X492493Y330700I-863J863D01*
G01*
X492136Y329837D02*
G03*
X491778Y328974I863J-863D01*
G01*
X350256Y256291D02*
G03*
X348956Y255753I0J-1838D01*
G01*
D02*
G03*
X348574Y254832I921J-921D01*
G01*
X348194Y253912D02*
G03*
X348574Y254832I-923J919D01*
G01*
X348192Y253910D02*
G03*
X348194Y253912I-921J921D01*
G01*
X487493Y330700D02*
G03*
X487850Y329837I1220J0D01*
G01*
X488208Y328974D02*
G03*
X487850Y329837I-1220J0D01*
G01*
X348956Y260401D02*
G03*
X350256Y259862I1300J1300D01*
G01*
X348574Y261322D02*
G03*
X348956Y260401I1303J0D01*
G01*
X348194Y262241D02*
G03*
X348192Y262243I-923J-919D01*
G01*
X348574Y261322D02*
G03*
X348194Y262241I-1303J0D01*
G01*
X332645Y254832D02*
G03*
X333026Y253910I1303J0D01*
G01*
X332265Y255751D02*
G03*
X332263Y255753I-923J-919D01*
G01*
X332645Y254832D02*
G03*
X332265Y255751I-1303J0D01*
G01*
X332183Y255833D02*
G03*
X331074Y256291I-1109J-1113D01*
G01*
X332185Y255831D02*
G03*
X332183Y255833I-1111J-1111D01*
G01*
X259711Y256282D02*
G03*
X258848Y255924I0J-1220D01*
G01*
X257985Y255567D02*
G03*
X258848Y255924I0J1220D01*
G01*
X333026Y262243D02*
G03*
X332645Y261322I921J-921D01*
G01*
X332265Y260402D02*
G03*
X332645Y261322I-923J919D01*
G01*
X332263Y260401D02*
G03*
X332265Y260402I-921J921D01*
G01*
X332183Y260320D02*
G03*
X332185Y260322I-1109J1113D01*
G01*
X331074Y259862D02*
G03*
X332183Y260320I0J1571D01*
G01*
X258848Y260210D02*
G03*
X259711Y259853I863J863D01*
G01*
X258848Y260210D02*
G03*
X257985Y260567I-863J-863D01*
G01*
X846254Y329718D02*
G03*
X846611Y330581I-863J863D01*
G01*
X846254Y329718D02*
G03*
X845896Y328856I863J-863D01*
G01*
X700544Y256161D02*
G03*
X699244Y255623I0J-1838D01*
G01*
D02*
G03*
X698863Y254701I921J-921D01*
G01*
X698483Y253782D02*
G03*
X698863Y254701I-923J919D01*
G01*
X698481Y253780D02*
G03*
X698483Y253782I-921J921D01*
G01*
X841611Y330581D02*
G03*
X841968Y329718I1220J0D01*
G01*
X842326Y328856D02*
G03*
X841968Y329718I-1220J0D01*
G01*
X699244Y260271D02*
G03*
X700544Y259732I1300J1300D01*
G01*
X698863Y261192D02*
G03*
X699244Y260271I1303J0D01*
G01*
X698483Y262111D02*
G03*
X698481Y262113I-923J-919D01*
G01*
X698863Y261192D02*
G03*
X698483Y262111I-1303J0D01*
G01*
X682933Y254701D02*
G03*
X683315Y253780I1303J0D01*
G01*
X682554Y255621D02*
G03*
X682552Y255623I-923J-919D01*
G01*
X682933Y254701D02*
G03*
X682554Y255621I-1303J0D01*
G01*
X682471Y255703D02*
G03*
X681363Y256161I-1109J-1113D01*
G01*
X682473Y255701D02*
G03*
X682471Y255703I-1111J-1111D01*
G01*
X615850Y256163D02*
G03*
X614987Y255805I0J-1220D01*
G01*
X614124Y255448D02*
G03*
X614987Y255805I0J1220D01*
G01*
X683315Y262113D02*
G03*
X682933Y261192I921J-921D01*
G01*
X682554Y260272D02*
G03*
X682933Y261192I-923J919D01*
G01*
X682552Y260271D02*
G03*
X682554Y260272I-921J921D01*
G01*
X682471Y260190D02*
G03*
X682473Y260192I-1109J1113D01*
G01*
X681363Y259732D02*
G03*
X682471Y260190I0J1571D01*
G01*
X614987Y260091D02*
G03*
X615849Y259734I863J863D01*
G01*
X614987Y260091D02*
G03*
X614124Y260448I-863J-863D01*
G01*
X493588Y476324D02*
G03*
X491750Y471904I4395J-4420D01*
G01*
X491051Y478837D02*
G03*
X488179Y471904I6932J-6932D01*
G01*
X519610Y502347D02*
G03*
X523030Y510603I-8256J8256D01*
G01*
X516847Y504633D02*
G03*
X519460Y510940I-6306J6306D01*
G01*
X843501Y433299D02*
G03*
X834939Y436845I-8562J-8562D01*
G01*
X841000Y430750D02*
G03*
X834905Y433275I-6095J-6095D01*
G01*
X842258Y427712D02*
G03*
X841000Y430750I-4296J0D01*
G01*
X551460Y542267D02*
G03*
X551354Y542525I-366J0D01*
G01*
X551460Y540396D02*
G03*
X559936Y519933I28939J0D01*
G01*
X551245Y542786D02*
G03*
X551351Y542528I366J0D01*
G01*
X551354Y542525D02*
G03*
X551352Y542527I-260J-258D01*
G01*
X551351Y542528D02*
G03*
X551352Y542527I260J258D01*
G01*
X638118Y441751D02*
G03*
X658581Y433275I20463J20463D01*
G01*
X845829Y427730D02*
G03*
X843537Y433262I-7824J0D01*
G01*
X555138Y542527D02*
G03*
X555245Y542786I-259J259D01*
G01*
X555030Y540409D02*
G03*
X562470Y522448I25400J0D01*
G01*
X555138Y542527D02*
G03*
X555136Y542525I259J-259D01*
G01*
D02*
G03*
X555030Y542267I260J-258D01*
G01*
X640633Y444285D02*
G03*
X658594Y436846I17960J17960D01*
G01*
X523136Y542525D02*
G03*
X523030Y542267I260J-258D01*
G01*
X519460Y542267D02*
G03*
X519354Y542525I-366J0D01*
G01*
X519245Y542786D02*
G03*
X519351Y542528I366J0D01*
G01*
X523138Y542527D02*
G03*
X523245Y542786I-259J259D01*
G01*
X523138Y542527D02*
G03*
X523136Y542525I259J-259D01*
G01*
X519354Y542525D02*
G03*
X519352Y542527I-260J-258D01*
G01*
X519351Y542528D02*
G03*
X519352Y542527I260J258D01*
G01*
X145011Y469326D02*
X145726Y468611D01*
X145011Y469326D02*
Y472827D01*
X145726Y410750D02*
Y468611D01*
X150011Y469326D02*
Y472827D01*
X149297Y468611D02*
X150011Y469326D01*
X149297Y410750D02*
Y468611D01*
X84115Y383222D02*
X118198D01*
X149297Y410750D02*
X176825Y383222D01*
X118198D02*
X145726Y410750D01*
X176825Y383222D02*
X210915D01*
X484976Y524443D02*
X487004Y526472D01*
X484973Y524441D02*
X484976Y524443D01*
X482451Y511171D02*
Y518348D01*
X479787Y504784D02*
X479818Y504815D01*
X461000Y500179D02*
X468670D01*
X482430Y526948D02*
X484466Y528983D01*
X478880Y511184D02*
Y518377D01*
X491245Y542634D02*
Y547500D01*
X491030Y542419D02*
X491245Y542634D01*
X491030Y536192D02*
Y542419D01*
X298900Y500042D02*
X448235D01*
X298900Y500042D02*
X298900Y500042D01*
X449482Y498796D02*
X452223D01*
X448235Y500042D02*
X449482Y498796D01*
X160727Y500042D02*
X298900D01*
X160013Y499327D02*
X160727Y500042D01*
X156511Y499327D02*
X160013D01*
X459616Y498796D02*
X461000Y500179D01*
X457152Y498796D02*
X459616D01*
X452223D02*
X454687Y496331D01*
X457152Y498796D01*
X487460Y536211D02*
Y542419D01*
X487245Y542634D02*
X487460Y542419D01*
X487245Y542634D02*
Y547500D01*
X461000Y503750D02*
X468639D01*
X459884Y504866D02*
X461000Y503750D01*
X454687Y507331D02*
X457152Y504866D01*
X459884D01*
X452223D02*
X454687Y507331D01*
X449489Y504866D02*
X452223D01*
X156511Y504327D02*
X160013D01*
X448235Y503613D02*
X449489Y504866D01*
X300379Y503613D02*
X300379Y503613D01*
X448235D01*
X160013Y504327D02*
X160727Y503613D01*
X300379D01*
X250099Y318499D02*
X409988Y478388D01*
X247559Y321008D02*
X407479Y480928D01*
X488179Y424689D02*
Y469224D01*
X491750Y424689D02*
Y469224D01*
X554428Y408535D02*
X583091Y379871D01*
X556953Y411059D02*
X585616Y382396D01*
X583091Y379871D02*
X587789Y375174D01*
X551927Y411035D02*
X554428Y408535D01*
X585616Y382396D02*
X590341Y377671D01*
X554461Y413551D02*
X556953Y411059D01*
X542647Y513069D02*
X542647Y513068D01*
X542991Y512725D01*
X547825Y513068D02*
X547825Y513069D01*
X238374Y273067D02*
Y275178D01*
X495460Y530042D02*
Y542267D01*
X495245Y542786D02*
Y547500D01*
X495005Y519574D02*
X495007Y519576D01*
X494661Y519231D02*
X495005Y519574D01*
X494661Y519230D02*
X494661Y519231D01*
X495465Y499804D02*
Y511128D01*
X494098Y518997D02*
X494099Y518998D01*
X492104Y517003D02*
X494098Y518997D01*
Y513302D02*
X494099Y513301D01*
X492104Y515296D02*
X494098Y513302D01*
X492102Y515297D02*
X492104Y515296D01*
X492102Y517002D02*
X492104Y517003D01*
X427927Y489398D02*
X482451D01*
X242660Y276903D02*
Y300539D01*
X243374Y273067D02*
Y275178D01*
X502397Y517003D02*
X502398Y517002D01*
X500402Y518997D02*
X502397Y517003D01*
X500401Y518998D02*
X500402Y518997D01*
X499495Y519574D02*
X499839Y519231D01*
X499493Y519576D02*
X499495Y519574D01*
X499839Y519231D02*
X499839Y519230D01*
X502397Y515296D02*
X502398Y515297D01*
X500402Y513302D02*
X502397Y515296D01*
X500401Y513301D02*
X500402Y513302D01*
X499035Y520685D02*
Y531516D01*
X499030Y531521D02*
Y542267D01*
X499035Y499791D02*
Y511128D01*
X495470Y491213D02*
X495491Y491234D01*
X427948Y485828D02*
X482468D01*
X495460Y530042D02*
X495465Y530037D01*
Y520685D02*
Y530037D01*
X499245Y542786D02*
Y547500D01*
X499030Y531521D02*
X499035Y531516D01*
X239089Y276903D02*
Y300561D01*
X548387Y518998D02*
X548388Y518997D01*
X550382Y517003D02*
X550384Y517002D01*
X548388Y518997D02*
X550382Y517003D01*
X547030Y532136D02*
Y542267D01*
X547825Y519231D02*
X547825Y519230D01*
X547481Y519574D02*
X547825Y519231D01*
X547479Y519576D02*
X547481Y519574D01*
X547021Y520685D02*
Y532127D01*
X550382Y515296D02*
X550384Y515297D01*
X548388Y513302D02*
X550382Y515296D01*
X548387Y513301D02*
X548388Y513302D01*
X547481Y512725D02*
X547825Y513068D01*
X547479Y512723D02*
X547481Y512725D01*
X547021Y431512D02*
Y511614D01*
X598799Y276784D02*
Y357252D01*
X599513Y272948D02*
Y275059D01*
X543460Y533615D02*
Y542267D01*
X543245Y542786D02*
Y547500D01*
X542991Y519574D02*
X542993Y519576D01*
X542647Y519231D02*
X542991Y519574D01*
X542647Y519230D02*
X542647Y519231D01*
X542084Y518997D02*
X542085Y518998D01*
X540089Y517003D02*
X542084Y518997D01*
X540088Y517002D02*
X540089Y517003D01*
X542084Y513302D02*
X542085Y513301D01*
X540089Y515296D02*
X542084Y513302D01*
X540088Y515297D02*
X540089Y515296D01*
X542991Y512725D02*
X542993Y512723D01*
X543451Y431499D02*
Y511614D01*
X595228Y276784D02*
Y357213D01*
X594513Y272948D02*
Y275059D01*
X547245Y542786D02*
Y547500D01*
X547021Y532127D02*
X547030Y532136D01*
X543451Y533606D02*
X543460Y533615D01*
X543451Y520685D02*
Y533606D01*
X845803Y277017D02*
X845824Y277214D01*
X700544Y259732D02*
X814631D01*
X816155Y256191D02*
X816407Y256203D01*
X700544Y256161D02*
X814652D01*
X814631Y259732D02*
X814647Y259732D01*
X814652Y256161D02*
X814669Y256161D01*
X467105Y256327D02*
X467355Y256341D01*
X350256Y256291D02*
X465597D01*
X350256Y259862D02*
X465575D01*
X465591Y259862D01*
X465597Y256291D02*
X465613Y256291D01*
X491661Y272985D02*
X491683Y273152D01*
X491778Y274715D02*
Y328974D01*
X348192Y253910D02*
X348194Y253912D01*
X346109Y251827D02*
X348192Y253910D01*
X487493Y330700D02*
Y333696D01*
X488208Y274726D02*
Y328974D01*
X348192Y262243D02*
X348194Y262241D01*
X346109Y264326D02*
X348192Y262243D01*
X492493Y330700D02*
Y333696D01*
X333026Y253910D02*
X335109Y251827D01*
X332263Y255753D02*
X332265Y255751D01*
X332185Y255831D02*
X332263Y255753D01*
X332183Y255833D02*
X332185Y255831D01*
X297282Y256291D02*
X331074D01*
X259711Y256282D02*
X297272D01*
X255874Y255567D02*
X257985D01*
X333026Y262243D02*
X335109Y264326D01*
X332263Y260401D02*
X332265Y260402D01*
X332185Y260322D02*
X332263Y260401D01*
X332183Y260320D02*
X332185Y260322D01*
X295803Y259862D02*
X331074D01*
X259711Y259853D02*
X295793D01*
X255874Y260567D02*
X257985D01*
X295793Y259853D02*
X295803Y259862D01*
X297272Y256282D02*
X297282Y256291D01*
X845896Y278750D02*
Y328856D01*
X698481Y253780D02*
X698483Y253782D01*
X696398Y251697D02*
X698481Y253780D01*
X841611Y330581D02*
Y333577D01*
X842326Y278764D02*
Y328856D01*
X698481Y262113D02*
X698483Y262111D01*
X696398Y264196D02*
X698481Y262113D01*
X846611Y330581D02*
Y333577D01*
X683315Y253780D02*
X685398Y251697D01*
X682552Y255623D02*
X682554Y255621D01*
X682473Y255701D02*
X682552Y255623D01*
X682471Y255703D02*
X682473Y255701D01*
X646921Y256161D02*
X681363D01*
X615850Y256163D02*
X646920D01*
X612013Y255448D02*
X614124D01*
X683315Y262113D02*
X685398Y264196D01*
X682552Y260271D02*
X682554Y260272D01*
X682473Y260192D02*
X682552Y260271D01*
X682471Y260190D02*
X682473Y260192D01*
X648400Y259732D02*
X681363D01*
X615849Y259734D02*
X648399D01*
X612013Y260448D02*
X614124D01*
X648399Y259734D02*
X648400Y259732D01*
X646920Y256163D02*
X646921Y256161D01*
X493602Y476339D02*
X519610Y502347D01*
X491051Y478837D02*
X516847Y504633D01*
X488179Y469224D02*
Y471904D01*
X493588Y476324D02*
X493602Y476339D01*
X491750Y469224D02*
Y471904D01*
X717959Y433275D02*
X782934D01*
X488179Y421829D02*
Y424689D01*
X491750Y421829D02*
Y424689D01*
X658581Y433275D02*
X717959D01*
Y436846D02*
X794296D01*
X704121D02*
X717959D01*
X782934Y433275D02*
X834905D01*
X658594Y436846D02*
X704121D01*
X794296D02*
X820361D01*
X834939D01*
X842258Y422884D02*
Y427712D01*
X841062Y421688D02*
X842258Y422884D01*
X838616Y415423D02*
X841080Y412958D01*
X838616Y415423D02*
X841062Y417869D01*
Y421688D01*
X842326Y386493D02*
Y408719D01*
X841080Y409964D02*
X842326Y408719D01*
X841611Y385779D02*
X842326Y386493D01*
X841080Y409964D02*
Y412958D01*
X841611Y382277D02*
Y383477D01*
Y385779D01*
X551460Y540396D02*
Y542267D01*
X559936Y519933D02*
X638118Y441751D01*
X551245Y542786D02*
Y547500D01*
X843501Y433299D02*
X843537Y433262D01*
X845829Y422703D02*
Y427730D01*
X847164Y417874D02*
Y421368D01*
X845829Y422703D02*
X847164Y421368D01*
Y417874D02*
X849616Y415423D01*
X847151Y412958D02*
X849616Y415423D01*
X845896Y408719D02*
X847151Y409974D01*
Y412958D01*
X845896Y386493D02*
X846611Y385779D01*
X845896Y386493D02*
Y408719D01*
X846611Y382277D02*
Y383477D01*
Y385779D01*
X562470Y522448D02*
X640633Y444285D01*
X555245Y542786D02*
Y547500D01*
X555030Y540409D02*
Y542267D01*
X523030Y510603D02*
Y542267D01*
X519245Y542786D02*
Y547500D01*
X519460Y510940D02*
Y542267D01*
X492997Y417887D02*
Y420582D01*
Y412958D02*
X495462Y415423D01*
X492997Y417887D02*
X495462Y415423D01*
X491750Y421829D02*
X492997Y420582D01*
Y410219D02*
Y412958D01*
X491778Y409000D02*
X492997Y410219D01*
X492493Y382396D02*
Y383596D01*
X491778Y386612D02*
X492493Y385897D01*
X491778Y386612D02*
Y409000D01*
X492493Y383596D02*
Y385897D01*
X523245Y542786D02*
Y547500D01*
X488208Y386612D02*
Y409000D01*
X486927Y420576D02*
X488179Y421829D01*
X486927Y417887D02*
Y420576D01*
X484462Y415423D02*
X486927Y417887D01*
X484462Y415423D02*
X486927Y412958D01*
Y410281D02*
X488208Y409000D01*
X487493Y385897D02*
X488208Y386612D01*
X487493Y383596D02*
Y385897D01*
X486927Y410281D02*
Y412958D01*
X487493Y382396D02*
Y383596D01*
D82*
X555138Y542527D02*
D03*
X523138D02*
D03*
D83*
X157462Y514328D02*
D03*
Y509328D02*
D03*
Y504328D02*
D03*
Y499328D02*
D03*
Y494328D02*
D03*
Y489328D02*
D03*
Y484328D02*
D03*
Y479328D02*
D03*
X107562Y514328D02*
D03*
Y509328D02*
D03*
Y504328D02*
D03*
Y499328D02*
D03*
Y494328D02*
D03*
Y489328D02*
D03*
Y484328D02*
D03*
Y479328D02*
D03*
X465043Y376146D02*
D03*
Y371146D02*
D03*
Y366146D02*
D03*
Y361146D02*
D03*
Y356146D02*
D03*
Y351146D02*
D03*
Y346146D02*
D03*
Y341146D02*
D03*
X514943D02*
D03*
Y346146D02*
D03*
Y351146D02*
D03*
Y356146D02*
D03*
Y361146D02*
D03*
Y366146D02*
D03*
Y371146D02*
D03*
Y376146D02*
D03*
X819161Y376027D02*
D03*
Y371027D02*
D03*
Y366027D02*
D03*
Y361027D02*
D03*
Y356027D02*
D03*
Y351027D02*
D03*
Y346027D02*
D03*
Y341027D02*
D03*
X869061D02*
D03*
Y346027D02*
D03*
Y351027D02*
D03*
Y356027D02*
D03*
Y361027D02*
D03*
Y366027D02*
D03*
Y371027D02*
D03*
Y376027D02*
D03*
D84*
X150012Y521778D02*
D03*
X145012D02*
D03*
X140012D02*
D03*
X135012D02*
D03*
X130012D02*
D03*
X125012D02*
D03*
X120012D02*
D03*
X115012D02*
D03*
Y471878D02*
D03*
X120012D02*
D03*
X125012D02*
D03*
X130012D02*
D03*
X135012D02*
D03*
X140012D02*
D03*
X145012D02*
D03*
X150012D02*
D03*
X472493Y383596D02*
D03*
X477493D02*
D03*
X482493D02*
D03*
X487493D02*
D03*
X492493D02*
D03*
X497493D02*
D03*
X502493D02*
D03*
X507493D02*
D03*
X472493Y333696D02*
D03*
X477493D02*
D03*
X482493D02*
D03*
X487493D02*
D03*
X492493D02*
D03*
X497493D02*
D03*
X502493D02*
D03*
X507493D02*
D03*
X826611Y383477D02*
D03*
X831611D02*
D03*
X836611D02*
D03*
X841611D02*
D03*
X846611D02*
D03*
X851611D02*
D03*
X856611D02*
D03*
X861611D02*
D03*
X826611Y333577D02*
D03*
X831611D02*
D03*
X836611D02*
D03*
X841611D02*
D03*
X846611D02*
D03*
X851611D02*
D03*
X856611D02*
D03*
X861611D02*
D03*
D85*
X132512Y496828D02*
D03*
D86*
X240874Y258067D02*
D03*
X597013Y257948D02*
D03*
D87*
X225874Y250567D02*
D03*
Y255567D02*
D03*
Y260567D02*
D03*
Y265567D02*
D03*
X255874D02*
D03*
Y260567D02*
D03*
Y255567D02*
D03*
Y250567D02*
D03*
X582013Y250448D02*
D03*
Y255448D02*
D03*
Y260448D02*
D03*
Y265448D02*
D03*
X612013D02*
D03*
Y260448D02*
D03*
Y255448D02*
D03*
Y250448D02*
D03*
D88*
X233374Y273067D02*
D03*
X238374D02*
D03*
X243374D02*
D03*
X248374D02*
D03*
Y243067D02*
D03*
X243374D02*
D03*
X238374D02*
D03*
X233374D02*
D03*
X589513Y272948D02*
D03*
X594513D02*
D03*
X599513D02*
D03*
X604513D02*
D03*
Y242948D02*
D03*
X599513D02*
D03*
X594513D02*
D03*
X589513D02*
D03*
D89*
X489993Y358646D02*
D03*
X844111Y358527D02*
D03*
D90*
X187931Y511743D02*
D03*
X86741Y452191D02*
D03*
Y440197D02*
D03*
X477289Y834561D02*
D03*
X466289D02*
D03*
X528539D02*
D03*
X517539D02*
D03*
X412500Y867250D02*
D03*
X401500D02*
D03*
X409110Y634250D02*
D03*
X420110D02*
D03*
X335109Y264326D02*
D03*
X346109D02*
D03*
X335109Y251827D02*
D03*
X346109D02*
D03*
X473500Y81250D02*
D03*
X462500D02*
D03*
X685398Y264196D02*
D03*
X696398D02*
D03*
X685398Y251697D02*
D03*
X696398D02*
D03*
X491750Y516149D02*
D03*
X502750D02*
D03*
X75741Y452191D02*
D03*
Y440197D02*
D03*
X198931Y511743D02*
D03*
X539736Y516149D02*
D03*
X550736D02*
D03*
X100142Y874000D02*
D03*
X89143D02*
D03*
X129385Y707533D02*
D03*
X118385D02*
D03*
X280517Y976984D02*
D03*
X291517D02*
D03*
X191278D02*
D03*
X180278D02*
D03*
X838616Y415423D02*
D03*
X849616D02*
D03*
X742586Y552662D02*
D03*
X731586D02*
D03*
X484462Y415423D02*
D03*
X495462D02*
D03*
D91*
X162511Y554609D02*
D03*
X150511D02*
D03*
X138511Y554609D02*
D03*
X126511Y554609D02*
D03*
X114511D02*
D03*
X102511D02*
D03*
X138699Y806255D02*
D03*
Y795255D02*
D03*
X387266Y714153D02*
D03*
Y703153D02*
D03*
X354500Y591900D02*
D03*
Y602900D02*
D03*
X300750Y606896D02*
D03*
Y595896D02*
D03*
X176454Y261317D02*
D03*
Y272317D02*
D03*
X449751Y70762D02*
D03*
Y81762D02*
D03*
X462451Y209262D02*
D03*
Y198262D02*
D03*
X475151Y209262D02*
D03*
Y198262D02*
D03*
X532593Y261198D02*
D03*
Y272198D02*
D03*
X375260Y703153D02*
D03*
Y714153D02*
D03*
X298382Y692102D02*
D03*
Y703102D02*
D03*
X21731Y441397D02*
D03*
Y430397D02*
D03*
X138511Y565609D02*
D03*
X126511Y565609D02*
D03*
X162511D02*
D03*
X150511D02*
D03*
X114511D02*
D03*
X102511D02*
D03*
X454687Y496331D02*
D03*
Y507331D02*
D03*
X143410Y683775D02*
D03*
Y694775D02*
D03*
X159410Y683775D02*
D03*
Y694775D02*
D03*
X175410Y683775D02*
D03*
Y694775D02*
D03*
X191409Y683775D02*
D03*
Y694775D02*
D03*
X756850Y544043D02*
D03*
Y533043D02*
D03*
X298382Y662473D02*
D03*
Y651472D02*
D03*
X375325Y651403D02*
D03*
Y662402D02*
D03*
X744150Y704000D02*
D03*
Y693000D02*
D03*
D92*
X682250Y758090D02*
D03*
Y727590D02*
D03*
X964000Y220500D02*
D03*
Y251000D02*
D03*
X827495Y226790D02*
D03*
Y196290D02*
D03*
D93*
X618226Y854250D02*
D03*
Y840250D02*
D03*
D94*
Y824250D02*
D03*
Y811250D02*
D03*
X670844Y286381D02*
D03*
Y299381D02*
D03*
X655680D02*
D03*
Y286381D02*
D03*
X299541Y299500D02*
D03*
Y286500D02*
D03*
X314481D02*
D03*
Y299500D02*
D03*
D95*
X435500Y867250D02*
D03*
Y909250D02*
D03*
D96*
X179077Y936620D02*
D03*
X189077D02*
D03*
X130933Y829170D02*
D03*
X140933D02*
D03*
X395207Y595150D02*
D03*
X405207D02*
D03*
X613013Y226757D02*
D03*
X623013D02*
D03*
X381862Y84562D02*
D03*
X371862D02*
D03*
X381862Y74062D02*
D03*
X371862D02*
D03*
X394936Y301924D02*
D03*
X404936D02*
D03*
X384403D02*
D03*
X374403D02*
D03*
X393268Y184524D02*
D03*
X403268D02*
D03*
X393283Y175454D02*
D03*
X403283D02*
D03*
X453035Y533618D02*
D03*
X463035D02*
D03*
X66936Y524826D02*
D03*
X76936D02*
D03*
X76982Y492799D02*
D03*
X66982D02*
D03*
X66936Y503327D02*
D03*
X76936D02*
D03*
X80416Y561784D02*
D03*
X90416D02*
D03*
X179217Y543489D02*
D03*
X189217D02*
D03*
X198430Y492799D02*
D03*
X188430D02*
D03*
Y471562D02*
D03*
X198430D02*
D03*
X612953Y610270D02*
D03*
X622953D02*
D03*
X215485Y770878D02*
D03*
X205485D02*
D03*
X259002D02*
D03*
X269002D02*
D03*
X130934Y874921D02*
D03*
X120934D02*
D03*
X282727Y936620D02*
D03*
X292727D02*
D03*
X267000Y226750D02*
D03*
X257000D02*
D03*
X796154Y356027D02*
D03*
X786154D02*
D03*
X749054Y301805D02*
D03*
X759054D02*
D03*
X738521D02*
D03*
X728521D02*
D03*
X557843Y267069D02*
D03*
X567843D02*
D03*
X557843Y248757D02*
D03*
X567843D02*
D03*
X636250Y249000D02*
D03*
X626250D02*
D03*
X442036Y356146D02*
D03*
X432036D02*
D03*
X211704Y267188D02*
D03*
X201704D02*
D03*
X211704Y248876D02*
D03*
X201704D02*
D03*
X271920D02*
D03*
X281920D02*
D03*
X595897Y685896D02*
D03*
X585897D02*
D03*
X621288Y634080D02*
D03*
X611288D02*
D03*
D97*
X101549Y887540D02*
D03*
X88049D02*
D03*
X424110Y656902D02*
D03*
X410610D02*
D03*
X75686Y547695D02*
D03*
X62186D02*
D03*
X90012Y583502D02*
D03*
X76512D02*
D03*
X186681Y457697D02*
D03*
X200181D02*
D03*
X623770Y656880D02*
D03*
X637270D02*
D03*
D98*
X417919Y703239D02*
D03*
X403919D02*
D03*
X324948Y599343D02*
D03*
X338948D02*
D03*
X925599Y285750D02*
D03*
X911599D02*
D03*
X689398Y22740D02*
D03*
X703398D02*
D03*
X860737Y22971D02*
D03*
X874737D02*
D03*
X842150Y947900D02*
D03*
X828150D02*
D03*
X266022Y976984D02*
D03*
X252022D02*
D03*
X205778D02*
D03*
X219778D02*
D03*
D99*
X445496Y654902D02*
D03*
Y664902D02*
D03*
X225874Y297567D02*
D03*
Y287567D02*
D03*
X497493Y111760D02*
D03*
Y101760D02*
D03*
X582013Y287448D02*
D03*
Y297448D02*
D03*
X21638Y518028D02*
D03*
Y528028D02*
D03*
X437036Y546590D02*
D03*
Y556590D02*
D03*
X427155Y556590D02*
D03*
Y546590D02*
D03*
X138351Y430947D02*
D03*
Y440947D02*
D03*
X117610Y430947D02*
D03*
Y440947D02*
D03*
X130933Y849170D02*
D03*
Y839170D02*
D03*
X103673Y924564D02*
D03*
Y914564D02*
D03*
X155557Y924564D02*
D03*
Y914564D02*
D03*
X227587Y936620D02*
D03*
Y946620D02*
D03*
X313502Y823920D02*
D03*
Y833920D02*
D03*
X313502Y860806D02*
D03*
Y870806D02*
D03*
X259007Y946620D02*
D03*
Y936620D02*
D03*
X857366Y311059D02*
D03*
Y301059D02*
D03*
X830766Y311059D02*
D03*
Y301059D02*
D03*
X804789Y311059D02*
D03*
Y301059D02*
D03*
X633430Y297131D02*
D03*
Y287131D02*
D03*
X612013Y297287D02*
D03*
Y287287D02*
D03*
X503248Y311178D02*
D03*
Y301178D02*
D03*
X476648Y311178D02*
D03*
Y301178D02*
D03*
X450671Y311178D02*
D03*
Y301178D02*
D03*
X255874Y287406D02*
D03*
Y297406D02*
D03*
X277291Y297250D02*
D03*
Y287250D02*
D03*
X611470Y664902D02*
D03*
Y654902D02*
D03*
X601420D02*
D03*
Y664902D02*
D03*
X773500Y544293D02*
D03*
Y534293D02*
D03*
X517916Y687700D02*
D03*
Y697700D02*
D03*
X581170Y532473D02*
D03*
Y522473D02*
D03*
X621470Y546590D02*
D03*
Y556590D02*
D03*
X611470Y546590D02*
D03*
Y556590D02*
D03*
X435231Y654902D02*
D03*
Y664902D02*
D03*
D100*
X470245Y640500D02*
D03*
Y636500D02*
D03*
Y632500D02*
D03*
Y628500D02*
D03*
Y624500D02*
D03*
Y620500D02*
D03*
Y616500D02*
D03*
Y612500D02*
D03*
Y608500D02*
D03*
Y604500D02*
D03*
Y600500D02*
D03*
Y596500D02*
D03*
Y592500D02*
D03*
Y588500D02*
D03*
Y584500D02*
D03*
Y580500D02*
D03*
Y576500D02*
D03*
Y572500D02*
D03*
Y568500D02*
D03*
Y564500D02*
D03*
Y560500D02*
D03*
Y556500D02*
D03*
X572245D02*
D03*
Y560500D02*
D03*
Y564500D02*
D03*
Y568500D02*
D03*
Y572500D02*
D03*
Y576500D02*
D03*
Y580500D02*
D03*
Y584500D02*
D03*
Y588500D02*
D03*
Y592500D02*
D03*
Y596500D02*
D03*
Y600500D02*
D03*
Y604500D02*
D03*
Y608500D02*
D03*
Y612500D02*
D03*
Y616500D02*
D03*
Y620500D02*
D03*
Y624500D02*
D03*
Y628500D02*
D03*
Y632500D02*
D03*
Y636500D02*
D03*
Y640500D02*
D03*
D101*
X479245Y547500D02*
D03*
X483245D02*
D03*
X487245D02*
D03*
X491245D02*
D03*
X495245D02*
D03*
X499245D02*
D03*
X503245D02*
D03*
X507245D02*
D03*
X511245D02*
D03*
X515245D02*
D03*
X519245D02*
D03*
X523245D02*
D03*
X527245D02*
D03*
X531245D02*
D03*
X551245D02*
D03*
X555245D02*
D03*
X559245D02*
D03*
X563245D02*
D03*
Y649500D02*
D03*
X559245D02*
D03*
X555245D02*
D03*
X551245D02*
D03*
X547245D02*
D03*
X543245D02*
D03*
X539245D02*
D03*
X535245D02*
D03*
X531245D02*
D03*
X527245D02*
D03*
X523245D02*
D03*
X519245D02*
D03*
X515245D02*
D03*
X511245D02*
D03*
X507245D02*
D03*
X503245D02*
D03*
X499245D02*
D03*
X495245D02*
D03*
X491245D02*
D03*
X487245D02*
D03*
X483245D02*
D03*
X479245D02*
D03*
X547245Y547500D02*
D03*
X543245D02*
D03*
X539245D02*
D03*
X535245D02*
D03*
D102*
X521245Y598500D02*
D03*
D103*
X412901Y541496D02*
D03*
Y527996D02*
D03*
X38426Y534070D02*
D03*
Y520570D02*
D03*
X21527Y781501D02*
D03*
Y795001D02*
D03*
X115227Y827688D02*
D03*
Y814188D02*
D03*
X640070Y531684D02*
D03*
Y545184D02*
D03*
D104*
X88966Y604500D02*
D03*
X71866D02*
D03*
D105*
X437051Y111762D02*
D03*
X449751D02*
D03*
X462451D02*
D03*
X475151D02*
D03*
X437051Y168262D02*
D03*
X449751D02*
D03*
X462451D02*
D03*
X475151D02*
D03*
D106*
X897543Y285746D02*
D03*
X884543D02*
D03*
X733950Y22740D02*
D03*
X720950D02*
D03*
X889875D02*
D03*
X902875D02*
D03*
X815650Y947900D02*
D03*
X802650D02*
D03*
X828875Y22493D02*
D03*
X815875D02*
D03*
D107*
X772000Y138500D02*
D03*
X713000D02*
D03*
D108*
X936061Y142095D02*
D03*
Y83095D02*
D03*
D109*
X837152Y866598D02*
D03*
X802652D02*
D03*
D110*
X802650Y912950D02*
D03*
X830150D02*
D03*
D111*
X659090Y912950D02*
D03*
X628590D02*
D03*
D112*
X682250Y812750D02*
D03*
D113*
Y875750D02*
D03*
X659250D02*
D03*
X705250D02*
D03*
D114*
X364559Y177469D02*
D03*
X343138Y76077D02*
D03*
D115*
X364559Y183969D02*
D03*
Y190469D02*
D03*
Y196969D02*
D03*
X320559Y177469D02*
D03*
Y183969D02*
D03*
Y190469D02*
D03*
Y196969D02*
D03*
X343138Y82577D02*
D03*
Y89077D02*
D03*
Y95577D02*
D03*
X299138Y76077D02*
D03*
Y82577D02*
D03*
Y89077D02*
D03*
Y95577D02*
D03*
D116*
X876817Y53721D02*
D03*
X848818D02*
D03*
X716947Y55709D02*
D03*
X744948D02*
D03*
D117*
X849016Y131907D02*
D03*
Y103907D02*
D03*
X825995Y131907D02*
D03*
Y103907D02*
D03*
D118*
X924750Y203790D02*
D03*
Y249790D02*
D03*
Y226790D02*
D03*
D119*
X861750D02*
D03*
D120*
X405921Y365899D02*
D03*
X399421D02*
D03*
X392921D02*
D03*
X386421D02*
D03*
X405921Y321899D02*
D03*
X399421D02*
D03*
X392921D02*
D03*
X760039Y365780D02*
D03*
X753539D02*
D03*
X747039D02*
D03*
X740539D02*
D03*
X760039Y321780D02*
D03*
X753539D02*
D03*
X747039D02*
D03*
D121*
X386421Y321899D02*
D03*
X740539Y321780D02*
D03*
D122*
X21729Y491079D02*
D03*
X43729D02*
D03*
Y475079D02*
D03*
X21729D02*
D03*
X140601Y911473D02*
D03*
X118601D02*
D03*
Y927473D02*
D03*
X140601D02*
D03*
D123*
X48502Y867170D02*
D03*
Y860670D02*
D03*
Y854170D02*
D03*
Y847670D02*
D03*
Y841170D02*
D03*
D124*
X21502Y864170D02*
D03*
Y844170D02*
D03*
D125*
X99727Y855421D02*
D03*
Y846421D02*
D03*
Y838421D02*
D03*
Y829421D02*
D03*
X89727Y825421D02*
D03*
Y834421D02*
D03*
Y850421D02*
D03*
Y859421D02*
D03*
Y842421D02*
D03*
X283425Y724686D02*
D03*
Y733686D02*
D03*
Y741686D02*
D03*
Y750686D02*
D03*
X293425Y754686D02*
D03*
Y745686D02*
D03*
Y729686D02*
D03*
Y720686D02*
D03*
Y737686D02*
D03*
D126*
X180409Y652155D02*
D03*
X171409D02*
D03*
X163409D02*
D03*
X154409D02*
D03*
X150409Y662155D02*
D03*
X159409D02*
D03*
X175409D02*
D03*
X184409D02*
D03*
X167409D02*
D03*
D127*
X189002Y909670D02*
D03*
X194002D02*
D03*
X199002D02*
D03*
X204002D02*
D03*
X209002D02*
D03*
X214002D02*
D03*
X219002D02*
D03*
X224002D02*
D03*
X229002D02*
D03*
X234002D02*
D03*
X239002D02*
D03*
X244002D02*
D03*
X249002D02*
D03*
X254002D02*
D03*
X259002D02*
D03*
X264002D02*
D03*
Y795170D02*
D03*
X259002D02*
D03*
X254002D02*
D03*
X249002D02*
D03*
X244002D02*
D03*
X239002D02*
D03*
X234002D02*
D03*
X229002D02*
D03*
X224002D02*
D03*
X219002D02*
D03*
X214002D02*
D03*
X209002D02*
D03*
X204002D02*
D03*
X199002D02*
D03*
X194002D02*
D03*
X189002D02*
D03*
D128*
X283752Y889920D02*
D03*
Y884920D02*
D03*
Y879920D02*
D03*
Y874920D02*
D03*
Y869920D02*
D03*
Y864920D02*
D03*
Y859920D02*
D03*
Y854920D02*
D03*
Y849920D02*
D03*
Y844920D02*
D03*
Y839920D02*
D03*
Y834920D02*
D03*
Y829920D02*
D03*
Y824920D02*
D03*
Y819920D02*
D03*
Y814920D02*
D03*
X169252D02*
D03*
Y819920D02*
D03*
Y824920D02*
D03*
Y829920D02*
D03*
Y834920D02*
D03*
Y839920D02*
D03*
Y844920D02*
D03*
Y849920D02*
D03*
Y854920D02*
D03*
Y859920D02*
D03*
Y864920D02*
D03*
Y869920D02*
D03*
Y874920D02*
D03*
Y879920D02*
D03*
Y884920D02*
D03*
D129*
Y889920D02*
D03*
D130*
X769550Y655000D02*
D03*
X756850D02*
D03*
X744150D02*
D03*
X731450D02*
D03*
X769550Y582000D02*
D03*
X756850D02*
D03*
X744150D02*
D03*
X731450D02*
D03*
D131*
X594513Y196826D02*
Y242945D01*
X570873Y173185D02*
X594513Y196826D01*
X534510Y173185D02*
X570873D01*
X178370Y173300D02*
X214807D01*
X238374Y196867D02*
Y243063D01*
X214807Y173300D02*
X238374Y196867D01*
X599513Y130724D02*
Y242948D01*
X473750Y81500D02*
X550290D01*
X599513Y130724D01*
X343138Y95577D02*
X432209D01*
X238372Y243065D02*
X238374Y243063D01*
X594512Y242946D02*
X594513Y242945D01*
X238372Y243065D02*
X238374Y243067D01*
X594512Y242946D02*
X594513Y242948D01*
X437051Y100419D02*
Y111762D01*
X432209Y95577D02*
X437051Y100419D01*
X343138Y89077D02*
Y95577D01*
X449751Y81762D02*
Y111762D01*
X449751Y81762D02*
X462451D01*
X462451Y81762D02*
Y111762D01*
X473500Y81250D02*
X473750Y81500D01*
X599513Y242948D02*
X604513D01*
X612955Y226815D02*
X613013Y226757D01*
X607308Y226815D02*
X612955D01*
X604513Y229610D02*
X607308Y226815D01*
X604513Y229610D02*
Y242948D01*
X364559Y190469D02*
Y196969D01*
X438413D02*
X449751Y185631D01*
X364559Y196969D02*
X438413D01*
X449751Y168262D02*
Y185631D01*
X462451Y198262D02*
X475151D01*
Y168262D02*
Y198262D01*
X462451Y168262D02*
Y198262D01*
X248374Y229626D02*
X251058Y226942D01*
X475151Y209262D02*
Y215146D01*
X251058Y226942D02*
X256299D01*
X248374Y229626D02*
Y243067D01*
X470151Y220146D02*
X475151Y215146D01*
X243374Y243067D02*
X248374D01*
X243374Y226126D02*
Y243067D01*
Y226126D02*
X249354Y220146D01*
X470151D01*
D132*
X185481Y508808D02*
X187931Y511258D01*
Y511743D01*
D133*
X799063Y224965D02*
X825669D01*
X682250Y812750D02*
Y875750D01*
X925355Y250395D02*
X963395D01*
X924750Y249790D02*
X925355Y250395D01*
X963395D02*
X964000Y251000D01*
X924750Y172250D02*
Y203790D01*
X755510Y912979D02*
X802620D01*
X659119D02*
X755510D01*
X802649Y912950D02*
X802650Y912950D01*
X803125Y828875D02*
X836000Y796000D01*
X802651Y866599D02*
X802652Y866598D01*
X802650Y912950D02*
X802651Y912949D01*
Y866599D02*
Y912949D01*
X803125Y828875D02*
Y863498D01*
X659250Y875750D02*
Y912790D01*
X829320Y224965D02*
X859925D01*
X861750Y226790D02*
X924750D01*
X836000Y796000D02*
X874123D01*
D134*
X88966Y604500D02*
X90012Y603454D01*
Y583502D02*
Y603454D01*
X618226Y811250D02*
X648924D01*
X842150Y947900D02*
X842150Y947899D01*
X863700D01*
X815650Y947900D02*
X828150D01*
X802650Y912950D02*
Y947899D01*
X475151Y111762D02*
X475153Y111760D01*
X497387Y101654D02*
X497493Y101760D01*
X497387Y92281D02*
Y101654D01*
X497281Y92175D02*
X497387Y92281D01*
X744948Y55709D02*
Y56375D01*
X334360Y833960D02*
X334400Y834000D01*
X313542Y833960D02*
X334360D01*
X313502Y833920D02*
X313542Y833960D01*
X55938Y605025D02*
X71341D01*
X71866Y604500D01*
X90214Y572568D02*
Y583300D01*
Y572568D02*
X90416Y572366D01*
X90012Y583502D02*
X90214Y583300D01*
X62212Y583502D02*
X76512D01*
X655680Y286381D02*
X655930Y286131D01*
X567843Y267069D02*
X567843Y267069D01*
X567843Y278750D02*
X567843Y278750D01*
X140933Y829170D02*
Y838207D01*
Y829170D02*
X148927D01*
X154677Y834920D01*
X169252D01*
X189002Y909670D02*
Y936546D01*
X189077Y936620D01*
Y949950D01*
X283752Y834920D02*
X313502D01*
X264002Y909670D02*
Y927995D01*
X272628Y936620D01*
X282727D01*
Y949950D01*
D135*
X472493Y333696D02*
Y334896D01*
Y327617D02*
Y333696D01*
X399421Y323649D02*
X468525D01*
X472493Y327617D01*
D136*
X802620Y912979D02*
X802649Y912950D01*
X659090Y912950D02*
X659119Y912979D01*
X772000Y123260D02*
Y138500D01*
Y123260D02*
X783500Y111760D01*
X800089D01*
X837152Y866598D02*
X863700D01*
X830150Y912950D02*
X863700D01*
X964000Y251000D02*
Y274460D01*
X705500Y875500D02*
X728500D01*
X705250Y875750D02*
X705500Y875500D01*
X682250Y708644D02*
Y727590D01*
X603800Y912950D02*
X628590D01*
X659090D02*
X659250Y912790D01*
X865531Y103907D02*
X873384Y111760D01*
X874737D01*
X849016Y103907D02*
X865531D01*
X825914Y103988D02*
X825995Y103907D01*
X801442Y111760D02*
X809371Y103831D01*
X825919D01*
X800089Y111760D02*
X801442D01*
X827495Y175000D02*
Y196290D01*
X825669Y224965D02*
X827495Y226790D01*
X829320Y224965D01*
X859925D02*
X861750Y226790D01*
X848818Y57375D02*
Y76448D01*
Y53721D02*
Y57375D01*
X876817Y53721D02*
X877663Y52875D01*
X905250D01*
X825995Y131907D02*
X827000Y132912D01*
X849016Y131907D02*
X850021Y132912D01*
X827000D02*
Y151000D01*
X850021Y132912D02*
Y151000D01*
X744948Y56375D02*
Y76448D01*
X692448Y55709D02*
X716947D01*
X964000Y194710D02*
Y220500D01*
X21502Y760551D02*
Y781476D01*
Y819170D02*
X21515Y819158D01*
X21502Y781476D02*
X21527Y781501D01*
X21515Y795013D02*
Y819158D01*
Y795013D02*
X21527Y795001D01*
X21502Y819170D02*
X41346D01*
X48502Y826326D01*
X21502Y819170D02*
Y844170D01*
Y864170D01*
X48502Y826326D02*
Y829170D01*
X21502Y864170D02*
Y889170D01*
X41346D01*
X48502Y882014D01*
Y879170D02*
Y882014D01*
D137*
X462451Y198262D02*
X462451Y198262D01*
X462451D02*
X462451Y198262D01*
D138*
X965000Y605000D02*
D03*
X35000Y965000D02*
D03*
X750000D02*
D03*
X35000Y35000D02*
D03*
X965000D02*
D03*
D139*
X109515Y408622D02*
D03*
Y357822D02*
D03*
X58715D02*
D03*
Y408622D02*
D03*
X236315D02*
D03*
Y357822D02*
D03*
X185515D02*
D03*
Y408622D02*
D03*
X152970Y198700D02*
D03*
Y147900D02*
D03*
X203770D02*
D03*
Y198700D02*
D03*
X559910Y198585D02*
D03*
X509110D02*
D03*
Y147785D02*
D03*
X559910D02*
D03*
X274821Y593900D02*
D03*
Y543100D02*
D03*
X224021D02*
D03*
Y593900D02*
D03*
D140*
X84115Y383222D02*
D03*
X210915D02*
D03*
X178370Y173300D02*
D03*
X534510Y173185D02*
D03*
X249421Y568500D02*
D03*
D141*
X497539Y796811D02*
D03*
X477539D02*
D03*
X517539D02*
D03*
X317225Y703098D02*
D03*
X337225D02*
D03*
X357225D02*
D03*
Y662468D02*
D03*
X337225D02*
D03*
X317225D02*
D03*
X21502Y760551D02*
D03*
D142*
X541039Y796811D02*
D03*
X454039D02*
D03*
D143*
X21502Y889170D02*
D03*
Y819170D02*
D03*
D144*
X48502Y829170D02*
D03*
Y879170D02*
D03*
D145*
X154817Y730832D02*
D03*
X129417D02*
D03*
X205617D02*
D03*
X180217D02*
D03*
X257925Y725086D02*
D03*
Y750486D02*
D03*
X799063Y224965D02*
D03*
X755510Y912979D02*
D03*
D146*
X947328Y858039D02*
D03*
Y921039D02*
D03*
D147*
X899329Y886039D02*
D03*
D148*
X939750Y673250D02*
D03*
Y723250D02*
D03*
D149*
X143512Y485828D02*
D03*
X132512D02*
D03*
X121512D02*
D03*
X143512Y496828D02*
D03*
X132512D02*
D03*
X121512D02*
D03*
X143512Y507828D02*
D03*
X132512D02*
D03*
X121512D02*
D03*
X240874Y258067D02*
D03*
X597013Y257948D02*
D03*
X500993Y369646D02*
D03*
Y358646D02*
D03*
Y347646D02*
D03*
X489993Y369646D02*
D03*
Y358646D02*
D03*
Y347646D02*
D03*
X478993Y369646D02*
D03*
Y358646D02*
D03*
Y347646D02*
D03*
X855111Y369527D02*
D03*
Y358527D02*
D03*
Y347527D02*
D03*
X844111Y369527D02*
D03*
Y358527D02*
D03*
Y347527D02*
D03*
X833111Y369527D02*
D03*
Y358527D02*
D03*
Y347527D02*
D03*
X89416Y482562D02*
D03*
X493745Y626000D02*
D03*
X504745D02*
D03*
X515745D02*
D03*
X526745D02*
D03*
X537745D02*
D03*
X548745D02*
D03*
X493745Y615000D02*
D03*
X504745D02*
D03*
X515745D02*
D03*
X526745D02*
D03*
X537745D02*
D03*
X548745D02*
D03*
X493745Y604000D02*
D03*
X504745D02*
D03*
X515745D02*
D03*
X526745D02*
D03*
X537745D02*
D03*
X548745D02*
D03*
X493745Y593000D02*
D03*
X504745D02*
D03*
X515745D02*
D03*
X526745D02*
D03*
X537745D02*
D03*
X548745D02*
D03*
X493745Y582000D02*
D03*
X504745D02*
D03*
X515745D02*
D03*
X526745D02*
D03*
X537745D02*
D03*
X548745D02*
D03*
X493745Y571000D02*
D03*
X504745D02*
D03*
X515745D02*
D03*
X526745D02*
D03*
X537745D02*
D03*
X548745D02*
D03*
X798402Y371079D02*
D03*
X450876Y480066D02*
D03*
X451099Y380586D02*
D03*
X267000Y318500D02*
D03*
X255891Y307682D02*
D03*
X457328Y474551D02*
D03*
X830766Y290610D02*
D03*
X508930Y526968D02*
D03*
X513420Y520926D02*
D03*
X567420Y527473D02*
D03*
X532592Y291554D02*
D03*
X536778Y249450D02*
D03*
X212000Y278750D02*
D03*
X271920Y238170D02*
D03*
X769000Y33250D02*
D03*
X762500Y44500D02*
D03*
X762401Y53721D02*
D03*
X830766Y49547D02*
D03*
X762401Y70875D02*
D03*
X708273Y812750D02*
D03*
X654699D02*
D03*
X703250Y754028D02*
D03*
X661250D02*
D03*
X682250Y777500D02*
D03*
X661250Y768590D02*
D03*
X703250D02*
D03*
Y791264D02*
D03*
X661250D02*
D03*
X682250Y791184D02*
D03*
X618226Y867216D02*
D03*
X497281Y92175D02*
D03*
X633467Y226757D02*
D03*
X388900Y539396D02*
D03*
X267759Y82577D02*
D03*
X359342Y539335D02*
D03*
X275467Y89077D02*
D03*
X366642Y539335D02*
D03*
X281923Y95365D02*
D03*
X374006Y539335D02*
D03*
X289965Y183969D02*
D03*
X381564Y539335D02*
D03*
X297370Y190469D02*
D03*
X304048Y196969D02*
D03*
X396264Y539335D02*
D03*
X371853Y63712D02*
D03*
X393283Y165762D02*
D03*
X277325Y226750D02*
D03*
X646750Y249000D02*
D03*
X626250Y238158D02*
D03*
X293920Y248876D02*
D03*
X413768Y184524D02*
D03*
X447000Y209262D02*
D03*
X282628Y76077D02*
D03*
X392363Y74062D02*
D03*
Y84562D02*
D03*
X938750Y285750D02*
D03*
X674510Y22740D02*
D03*
X915007D02*
D03*
X947000Y167013D02*
D03*
X927250D02*
D03*
X908750Y167125D02*
D03*
X964250Y167013D02*
D03*
X655499Y318516D02*
D03*
X463939Y306615D02*
D03*
X437173Y307582D02*
D03*
X800089Y22741D02*
D03*
X174412Y612211D02*
D03*
X799663Y66375D02*
D03*
Y53721D02*
D03*
X518250Y306615D02*
D03*
X633467Y307462D02*
D03*
X611953Y307582D02*
D03*
X582013Y307204D02*
D03*
X277451Y307572D02*
D03*
X225874Y307323D02*
D03*
X690000Y299250D02*
D03*
X363840Y301924D02*
D03*
X384421Y291500D02*
D03*
X394936D02*
D03*
X415396Y301924D02*
D03*
X386421Y381556D02*
D03*
X212248Y318500D02*
D03*
X11057Y518028D02*
D03*
X21638Y538447D02*
D03*
X300750Y584744D02*
D03*
X503248Y290729D02*
D03*
X595030Y477477D02*
D03*
X740539Y381437D02*
D03*
X472867Y526363D02*
D03*
X529204Y520926D02*
D03*
X537889Y534251D02*
D03*
X533569Y527968D02*
D03*
X504610Y533251D02*
D03*
X437000Y344000D02*
D03*
X387266Y725408D02*
D03*
X375260Y725827D02*
D03*
X298382Y680771D02*
D03*
X428244Y703272D02*
D03*
X298382Y640206D02*
D03*
X334400Y834000D02*
D03*
X435500Y926750D02*
D03*
X248269Y770821D02*
D03*
X175002Y629320D02*
D03*
X176454Y286817D02*
D03*
X394769Y584972D02*
D03*
X107194Y431132D02*
D03*
X127613Y430868D02*
D03*
X304048Y177469D02*
D03*
X349976Y581762D02*
D03*
X191456Y248355D02*
D03*
X191515Y255317D02*
D03*
X547825Y255105D02*
D03*
X444859Y371009D02*
D03*
X463901Y469001D02*
D03*
X475078Y396701D02*
D03*
X444904Y563159D02*
D03*
X453035Y524065D02*
D03*
X589955Y472124D02*
D03*
X584169Y466574D02*
D03*
X528833Y717243D02*
D03*
X567843Y346027D02*
D03*
X536567Y717521D02*
D03*
X567434Y353736D02*
D03*
X536697Y709803D02*
D03*
X567420Y361146D02*
D03*
X544897Y709627D02*
D03*
X559245Y361146D02*
D03*
X552616Y701184D02*
D03*
X550665Y375957D02*
D03*
X552703Y693847D02*
D03*
X543307Y376146D02*
D03*
X560959Y693847D02*
D03*
X543281Y383422D02*
D03*
X560848Y685851D02*
D03*
X537500Y393500D02*
D03*
X568483Y685851D02*
D03*
X531500Y399000D02*
D03*
X559245Y368601D02*
D03*
X550665D02*
D03*
X878000Y334000D02*
D03*
X525750Y334500D02*
D03*
X544897Y701502D02*
D03*
X640070Y519070D02*
D03*
X708273Y626053D02*
D03*
X603918Y610589D02*
D03*
X210172Y511582D02*
D03*
X462896Y542598D02*
D03*
X55938Y605025D02*
D03*
X437036Y536211D02*
D03*
X427155Y536211D02*
D03*
X449751Y59612D02*
D03*
X437051Y187462D02*
D03*
X299750Y318500D02*
D03*
X384707Y595150D02*
D03*
X314703Y599343D02*
D03*
X21731Y415767D02*
D03*
X162511Y579892D02*
D03*
X211858Y457695D02*
D03*
X208848Y492799D02*
D03*
Y471562D02*
D03*
X199643Y543489D02*
D03*
X188430Y482218D02*
D03*
Y443327D02*
D03*
X179217Y554063D02*
D03*
X150511Y579892D02*
D03*
X102511D02*
D03*
X114511D02*
D03*
X107101Y440947D02*
D03*
X127821D02*
D03*
X62212Y583502D02*
D03*
X126511Y579892D02*
D03*
X138511D02*
D03*
X90416Y572366D02*
D03*
X76936Y512105D02*
D03*
X76936Y535187D02*
D03*
X64858Y440197D02*
D03*
Y452191D02*
D03*
X62264Y561784D02*
D03*
X56808Y505269D02*
D03*
X56481Y524826D02*
D03*
X50464Y547695D02*
D03*
X43729Y443327D02*
D03*
X38426Y548631D02*
D03*
X632363Y610185D02*
D03*
X883567Y359536D02*
D03*
X717959Y301805D02*
D03*
X328000Y299750D02*
D03*
X571264Y318618D02*
D03*
X621470Y318500D02*
D03*
X567843Y278750D02*
D03*
X476165Y291500D02*
D03*
X450671Y290729D02*
D03*
X648924Y655686D02*
D03*
X586000Y694627D02*
D03*
X828954Y398520D02*
D03*
X601420Y675470D02*
D03*
X611470D02*
D03*
X631536Y634080D02*
D03*
X390500Y867250D02*
D03*
X507908Y688363D02*
D03*
X433750Y640206D02*
D03*
X412901Y515491D02*
D03*
X611288Y536211D02*
D03*
X306940Y737686D02*
D03*
X451539Y834561D02*
D03*
X541039D02*
D03*
X447750Y640500D02*
D03*
X595872D02*
D03*
X182163Y637000D02*
D03*
X150409D02*
D03*
X789957Y343250D02*
D03*
X752000Y468500D02*
D03*
X611318Y643166D02*
D03*
X721316Y555679D02*
D03*
X621470Y536211D02*
D03*
X738539Y291295D02*
D03*
X749054D02*
D03*
X324058Y860806D02*
D03*
X189077Y949950D02*
D03*
X216900Y936620D02*
D03*
X248407Y936620D02*
D03*
X254002Y893476D02*
D03*
X264002Y884920D02*
D03*
X282727Y949950D02*
D03*
X306097Y936620D02*
D03*
X313568Y881138D02*
D03*
X103706Y707533D02*
D03*
X115227Y802319D02*
D03*
X130933Y818795D02*
D03*
X138699Y784411D02*
D03*
X167409Y672840D02*
D03*
X185647Y824920D02*
D03*
X205485Y760322D02*
D03*
X225863Y770878D02*
D03*
X229002Y811276D02*
D03*
X267502Y824920D02*
D03*
X279355Y770878D02*
D03*
X313502Y813564D02*
D03*
X67058Y841170D02*
D03*
X74726Y874000D02*
D03*
Y887450D02*
D03*
X78197Y842471D02*
D03*
X103673Y934946D02*
D03*
X113204Y874921D02*
D03*
X123308Y839170D02*
D03*
X140933Y838207D02*
D03*
X155659Y904411D02*
D03*
X165977Y936620D02*
D03*
X184897Y889920D02*
D03*
X185647Y842421D02*
D03*
Y869920D02*
D03*
X302189Y976984D02*
D03*
X169611D02*
D03*
X259007Y959950D02*
D03*
X567843Y238261D02*
D03*
X804361Y341027D02*
D03*
X794296Y311059D02*
D03*
X803861Y382027D02*
D03*
X820296Y311059D02*
D03*
X775935Y356027D02*
D03*
X857366Y290610D02*
D03*
X872368Y306496D02*
D03*
X769514Y301805D02*
D03*
X804789Y290610D02*
D03*
X786745Y544293D02*
D03*
X756850Y522100D02*
D03*
X588780Y508194D02*
D03*
X773500Y522100D02*
D03*
X227587Y959950D02*
D03*
X375260Y639653D02*
D03*
X583790Y226757D02*
D03*
X547701Y267069D02*
D03*
X731450Y676066D02*
D03*
X744150Y714850D02*
D03*
X731450Y602800D02*
D03*
X421818Y356146D02*
D03*
X450243Y341146D02*
D03*
X413783Y175454D02*
D03*
X191562Y267188D02*
D03*
X211704Y238260D02*
D03*
X227651Y226876D02*
D03*
X393848Y634250D02*
D03*
X398848Y656902D02*
D03*
X435231Y675470D02*
D03*
X445496D02*
D03*
X517911Y708245D02*
D03*
X606442Y685896D02*
D03*
X591447Y532473D02*
D03*
D150*
X800089Y111760D02*
D03*
X907267Y947899D02*
D03*
X863700D02*
D03*
Y866598D02*
D03*
Y912950D02*
D03*
X964000Y274460D02*
D03*
X682250Y708644D02*
D03*
X728500Y875500D02*
D03*
X603800Y912950D02*
D03*
X874737Y111760D02*
D03*
X516240D02*
D03*
X827495Y175000D02*
D03*
X905250Y52875D02*
D03*
X850021Y151000D02*
D03*
X827000D02*
D03*
X848818Y76448D02*
D03*
X744948D02*
D03*
X692448Y55709D02*
D03*
X964000Y194710D02*
D03*
M02*
