G04*
G04 #@! TF.GenerationSoftware,Altium Limited,Altium Designer,21.8.1 (53)*
G04*
G04 Layer_Physical_Order=4*
G04 Layer_Color=16711680*
%FSLAX44Y44*%
%MOMM*%
G71*
G04*
G04 #@! TF.SameCoordinates,52D87A49-8CD5-49E7-940E-534FF739D0A8*
G04*
G04*
G04 #@! TF.FilePolarity,Positive*
G04*
G01*
G75*
%ADD13C,0.2000*%
%ADD134C,0.3000*%
%ADD136C,0.5000*%
%ADD138C,5.5000*%
%ADD139C,2.5500*%
%ADD140C,2.2500*%
%ADD141C,1.2000*%
%ADD142C,2.5000*%
%ADD143O,1.5500X1.0000*%
%ADD144O,1.0000X1.3000*%
%ADD145C,2.0000*%
%ADD146O,5.0000X2.0000*%
%ADD147O,2.0000X5.0000*%
%ADD148C,2.2000*%
%ADD149C,0.6000*%
%ADD150C,1.0000*%
G36*
X997451Y2549D02*
X2549D01*
Y997451D01*
X997451D01*
Y2549D01*
D02*
G37*
%LPC*%
G36*
X303184Y981984D02*
X301195D01*
X299357Y981223D01*
X297950Y979817D01*
X297189Y977979D01*
Y975990D01*
X297950Y974152D01*
X299357Y972746D01*
X301195Y971984D01*
X303184D01*
X305022Y972746D01*
X306428Y974152D01*
X307189Y975990D01*
Y977979D01*
X306428Y979817D01*
X305022Y981223D01*
X303184Y981984D01*
D02*
G37*
G36*
X170605D02*
X168616D01*
X166778Y981223D01*
X165372Y979817D01*
X164611Y977979D01*
Y975990D01*
X165372Y974152D01*
X166778Y972746D01*
X168616Y971984D01*
X170605D01*
X172443Y972746D01*
X173850Y974152D01*
X174611Y975990D01*
Y977979D01*
X173850Y979817D01*
X172443Y981223D01*
X170605Y981984D01*
D02*
G37*
G36*
X283722Y954950D02*
X281733D01*
X279895Y954189D01*
X279225Y953519D01*
X192579D01*
X191909Y954189D01*
X190072Y954950D01*
X188083D01*
X186245Y954189D01*
X184838Y952782D01*
X184077Y950945D01*
Y949997D01*
X138410Y904330D01*
X137636Y903172D01*
X137365Y901806D01*
Y841709D01*
X136695Y841039D01*
X135933Y839201D01*
Y837212D01*
X136695Y835375D01*
X138101Y833968D01*
X139939Y833207D01*
X141928D01*
X143766Y833968D01*
X145172Y835375D01*
X145933Y837212D01*
Y839201D01*
X145172Y841039D01*
X144502Y841709D01*
Y900328D01*
X189124Y944950D01*
X190072D01*
X191909Y945711D01*
X192579Y946382D01*
X279225D01*
X279895Y945711D01*
X281733Y944950D01*
X282681D01*
X330914Y896716D01*
Y862147D01*
X329058Y861801D01*
X328297Y863639D01*
X326890Y865045D01*
X325052Y865806D01*
X323063D01*
X321225Y865045D01*
X319819Y863639D01*
X319058Y861801D01*
Y859812D01*
X319819Y857974D01*
X321225Y856568D01*
X323063Y855806D01*
X325052D01*
X326890Y856568D01*
X328297Y857974D01*
X329058Y859812D01*
X330914Y859466D01*
Y837586D01*
X330161Y836832D01*
X329400Y834995D01*
Y833005D01*
X330161Y831168D01*
X331568Y829761D01*
X333405Y829000D01*
X335395D01*
X337232Y829761D01*
X338639Y831168D01*
X339400Y833005D01*
Y834995D01*
X338639Y836832D01*
X338052Y837420D01*
Y898194D01*
X337780Y899560D01*
X337006Y900718D01*
X287727Y949997D01*
Y950945D01*
X286966Y952782D01*
X285560Y954189D01*
X283722Y954950D01*
D02*
G37*
G36*
X752322Y994500D02*
X747678D01*
X743092Y993774D01*
X738676Y992339D01*
X734539Y990231D01*
X730782Y987501D01*
X727499Y984218D01*
X724769Y980461D01*
X722661Y976324D01*
X721226Y971908D01*
X720500Y967322D01*
Y962678D01*
X721226Y958092D01*
X722661Y953676D01*
X724769Y949539D01*
X727499Y945782D01*
X730782Y942499D01*
X734539Y939769D01*
X738676Y937661D01*
X743092Y936226D01*
X747678Y935500D01*
X752322D01*
X756908Y936226D01*
X761324Y937661D01*
X765461Y939769D01*
X769218Y942499D01*
X772501Y945782D01*
X775231Y949539D01*
X777339Y953676D01*
X778774Y958092D01*
X779500Y962678D01*
Y967322D01*
X778774Y971908D01*
X777339Y976324D01*
X775231Y980461D01*
X772501Y984218D01*
X769218Y987501D01*
X765461Y990231D01*
X761324Y992339D01*
X756908Y993774D01*
X752322Y994500D01*
D02*
G37*
G36*
X37322D02*
X32678D01*
X28092Y993774D01*
X23676Y992339D01*
X19539Y990231D01*
X15782Y987501D01*
X12499Y984218D01*
X9769Y980461D01*
X7661Y976324D01*
X6226Y971908D01*
X5500Y967322D01*
Y962678D01*
X6226Y958092D01*
X7661Y953676D01*
X9769Y949539D01*
X12499Y945782D01*
X15782Y942499D01*
X19539Y939769D01*
X23676Y937661D01*
X28092Y936226D01*
X32678Y935500D01*
X37322D01*
X41908Y936226D01*
X46324Y937661D01*
X50461Y939769D01*
X54218Y942499D01*
X57501Y945782D01*
X60231Y949539D01*
X62339Y953676D01*
X63774Y958092D01*
X64500Y962678D01*
Y967322D01*
X63774Y971908D01*
X62339Y976324D01*
X60231Y980461D01*
X57501Y984218D01*
X54218Y987501D01*
X50461Y990231D01*
X46324Y992339D01*
X41908Y993774D01*
X37322Y994500D01*
D02*
G37*
G36*
X249401Y941620D02*
X247412D01*
X245575Y940859D01*
X244168Y939453D01*
X243407Y937615D01*
Y935626D01*
X244168Y933788D01*
X245575Y932382D01*
X247412Y931620D01*
X249401D01*
X251239Y932382D01*
X252646Y933788D01*
X253407Y935626D01*
Y937615D01*
X252646Y939453D01*
X251239Y940859D01*
X249401Y941620D01*
D02*
G37*
G36*
X217895Y941620D02*
X215905D01*
X214068Y940859D01*
X212661Y939453D01*
X211900Y937615D01*
Y935626D01*
X212661Y933788D01*
X214068Y932382D01*
X215905Y931620D01*
X217895D01*
X219732Y932382D01*
X221139Y933788D01*
X221900Y935626D01*
Y937615D01*
X221139Y939453D01*
X219732Y940859D01*
X217895Y941620D01*
D02*
G37*
G36*
X962328Y933143D02*
X948078D01*
Y921789D01*
X974333D01*
X974020Y924172D01*
X972810Y927091D01*
X970887Y929598D01*
X968380Y931521D01*
X965461Y932730D01*
X962328Y933143D01*
D02*
G37*
G36*
X946579D02*
X932328D01*
X929196Y932730D01*
X926277Y931521D01*
X923770Y929598D01*
X921846Y927091D01*
X920637Y924172D01*
X920324Y921789D01*
X946579D01*
Y933143D01*
D02*
G37*
G36*
X436494Y931750D02*
X434505D01*
X432668Y930989D01*
X431261Y929582D01*
X430500Y927745D01*
Y925755D01*
X431261Y923918D01*
X432668Y922511D01*
X434505Y921750D01*
X436494D01*
X438332Y922511D01*
X439739Y923918D01*
X440500Y925755D01*
Y927745D01*
X439739Y929582D01*
X438332Y930989D01*
X436494Y931750D01*
D02*
G37*
G36*
X974333Y920289D02*
X948078D01*
Y908936D01*
X962328D01*
X965461Y909348D01*
X968380Y910557D01*
X970887Y912481D01*
X972810Y914987D01*
X974020Y917907D01*
X974333Y920289D01*
D02*
G37*
G36*
X946579D02*
X920324D01*
X920637Y917907D01*
X921846Y914987D01*
X923770Y912481D01*
X926277Y910557D01*
X929196Y909348D01*
X932328Y908936D01*
X946579D01*
Y920289D01*
D02*
G37*
G36*
X757090Y924979D02*
X753930D01*
X750878Y924161D01*
X748142Y922581D01*
X745908Y920347D01*
X744328Y917611D01*
X743510Y914559D01*
Y911399D01*
X744328Y908347D01*
X745908Y905611D01*
X748142Y903377D01*
X750878Y901797D01*
X753930Y900979D01*
X757090D01*
X760142Y901797D01*
X762878Y903377D01*
X765112Y905611D01*
X766692Y908347D01*
X767510Y911399D01*
Y914559D01*
X766692Y917611D01*
X765112Y920347D01*
X762878Y922581D01*
X760142Y924161D01*
X757090Y924979D01*
D02*
G37*
G36*
X900078Y913044D02*
Y886789D01*
X911432D01*
Y901039D01*
X911020Y904172D01*
X909810Y907091D01*
X907887Y909598D01*
X905380Y911521D01*
X902461Y912730D01*
X900078Y913044D01*
D02*
G37*
G36*
X898578Y913044D02*
X896196Y912730D01*
X893277Y911521D01*
X890770Y909598D01*
X888847Y907091D01*
X887637Y904172D01*
X887225Y901039D01*
Y886789D01*
X898578D01*
Y913044D01*
D02*
G37*
G36*
X75721Y892450D02*
X73732D01*
X71894Y891689D01*
X70487Y890282D01*
X69726Y888445D01*
Y886456D01*
X70487Y884618D01*
X71894Y883211D01*
X73732Y882450D01*
X75721D01*
X77558Y883211D01*
X78965Y884618D01*
X79726Y886456D01*
Y888445D01*
X78965Y890282D01*
X77558Y891689D01*
X75721Y892450D01*
D02*
G37*
G36*
X24252Y896231D02*
X18752D01*
X16925Y895990D01*
X15222Y895285D01*
X13760Y894163D01*
X12638Y892701D01*
X11932Y890998D01*
X11692Y889170D01*
X11932Y887343D01*
X12638Y885640D01*
X13760Y884178D01*
X15222Y883056D01*
X16925Y882351D01*
X18752Y882110D01*
X24252D01*
X26080Y882351D01*
X27782Y883056D01*
X29245Y884178D01*
X30367Y885640D01*
X31072Y887343D01*
X31313Y889170D01*
X31072Y890998D01*
X30367Y892701D01*
X29245Y894163D01*
X27782Y895285D01*
X26080Y895990D01*
X24252Y896231D01*
D02*
G37*
G36*
X48502Y887731D02*
X46675Y887490D01*
X44972Y886785D01*
X43510Y885663D01*
X42388Y884201D01*
X41683Y882498D01*
X41442Y880670D01*
Y877670D01*
X41683Y875843D01*
X42388Y874140D01*
X43510Y872678D01*
X44972Y871556D01*
X46675Y870851D01*
X48502Y870610D01*
X50330Y870851D01*
X52032Y871556D01*
X53495Y872678D01*
X54617Y874140D01*
X55322Y875843D01*
X55563Y877670D01*
Y880670D01*
X55322Y882498D01*
X54617Y884201D01*
X53495Y885663D01*
X52032Y886785D01*
X50330Y887490D01*
X48502Y887731D01*
D02*
G37*
G36*
X898578Y885289D02*
X887225D01*
Y871039D01*
X887637Y867907D01*
X888847Y864987D01*
X890770Y862481D01*
X893277Y860557D01*
X896196Y859348D01*
X898578Y859035D01*
Y885289D01*
D02*
G37*
G36*
X911432D02*
X900078D01*
Y859034D01*
X902461Y859348D01*
X905380Y860557D01*
X907887Y862481D01*
X909810Y864987D01*
X911020Y867907D01*
X911432Y871039D01*
Y885289D01*
D02*
G37*
G36*
X962328Y870143D02*
X932328D01*
X929196Y869730D01*
X926277Y868521D01*
X923770Y866598D01*
X921846Y864091D01*
X920637Y861172D01*
X920225Y858039D01*
X920637Y854907D01*
X921846Y851988D01*
X923770Y849481D01*
X926277Y847557D01*
X929196Y846348D01*
X932328Y845936D01*
X962328D01*
X965461Y846348D01*
X968380Y847557D01*
X970887Y849481D01*
X972810Y851988D01*
X974020Y854907D01*
X974432Y858039D01*
X974020Y861172D01*
X972810Y864091D01*
X970887Y866598D01*
X968380Y868521D01*
X965461Y869730D01*
X962328Y870143D01*
D02*
G37*
G36*
X542034Y839561D02*
X540045D01*
X538207Y838800D01*
X536800Y837393D01*
X536039Y835555D01*
Y833566D01*
X536800Y831729D01*
X538207Y830322D01*
X540045Y829561D01*
X542034D01*
X543871Y830322D01*
X545278Y831729D01*
X546039Y833566D01*
Y835555D01*
X545278Y837393D01*
X543871Y838800D01*
X542034Y839561D01*
D02*
G37*
G36*
X48502Y837731D02*
X46675Y837490D01*
X44972Y836785D01*
X43510Y835663D01*
X42388Y834201D01*
X41683Y832498D01*
X41442Y830670D01*
Y827670D01*
X41683Y825843D01*
X42388Y824140D01*
X43510Y822678D01*
X44972Y821556D01*
X46675Y820851D01*
X48502Y820610D01*
X50330Y820851D01*
X52032Y821556D01*
X53495Y822678D01*
X54617Y824140D01*
X55322Y825843D01*
X55563Y827670D01*
Y830670D01*
X55322Y832498D01*
X54617Y834201D01*
X53495Y835663D01*
X52032Y836785D01*
X50330Y837490D01*
X48502Y837731D01*
D02*
G37*
G36*
X24252Y826231D02*
X18752D01*
X16925Y825990D01*
X15222Y825285D01*
X13760Y824163D01*
X12638Y822701D01*
X11932Y820998D01*
X11692Y819170D01*
X11932Y817343D01*
X12638Y815640D01*
X13760Y814178D01*
X15222Y813056D01*
X16925Y812351D01*
X18752Y812110D01*
X24252D01*
X26080Y812351D01*
X27782Y813056D01*
X29245Y814178D01*
X30367Y815640D01*
X31072Y817343D01*
X31313Y819170D01*
X31072Y820998D01*
X30367Y822701D01*
X29245Y824163D01*
X27782Y825285D01*
X26080Y825990D01*
X24252Y826231D01*
D02*
G37*
G36*
X709268Y817750D02*
X707279D01*
X705441Y816989D01*
X704035Y815582D01*
X703273Y813745D01*
Y811755D01*
X704035Y809918D01*
X705441Y808511D01*
X707279Y807750D01*
X709268D01*
X711106Y808511D01*
X712512Y809918D01*
X713273Y811755D01*
Y813745D01*
X712512Y815582D01*
X711106Y816989D01*
X709268Y817750D01*
D02*
G37*
G36*
X655693D02*
X653704D01*
X651867Y816989D01*
X650460Y815582D01*
X649699Y813745D01*
Y811755D01*
X650460Y809918D01*
X651867Y808511D01*
X653704Y807750D01*
X655693D01*
X657531Y808511D01*
X658938Y809918D01*
X659699Y811755D01*
Y813745D01*
X658938Y815582D01*
X657531Y816989D01*
X655693Y817750D01*
D02*
G37*
G36*
X542948Y811311D02*
X539130D01*
X535443Y810323D01*
X532136Y808414D01*
X529436Y805714D01*
X527527Y802408D01*
X526960Y800290D01*
X525717Y800043D01*
X524851Y800147D01*
X523941Y801723D01*
X522451Y803213D01*
X520627Y804266D01*
X518592Y804811D01*
X516486D01*
X514451Y804266D01*
X512627Y803213D01*
X511138Y801723D01*
X510084Y799899D01*
X509539Y797864D01*
Y795758D01*
X510084Y793723D01*
X511138Y791899D01*
X512627Y790409D01*
X514451Y789356D01*
X516486Y788811D01*
X518592D01*
X520627Y789356D01*
X522451Y790409D01*
X523941Y791899D01*
X524851Y793475D01*
X525717Y793579D01*
X526960Y793332D01*
X527527Y791214D01*
X529436Y787908D01*
X532136Y785208D01*
X535443Y783299D01*
X539130Y782311D01*
X542948D01*
X546636Y783299D01*
X549943Y785208D01*
X552642Y787908D01*
X554551Y791214D01*
X555539Y794902D01*
Y798720D01*
X554551Y802408D01*
X552642Y805714D01*
X549943Y808414D01*
X546636Y810323D01*
X542948Y811311D01*
D02*
G37*
G36*
X116222Y807319D02*
X114233D01*
X112395Y806557D01*
X110989Y805151D01*
X110227Y803313D01*
Y801324D01*
X110989Y799486D01*
X112395Y798080D01*
X114233Y797319D01*
X116222D01*
X118060Y798080D01*
X119466Y799486D01*
X120227Y801324D01*
Y803313D01*
X119466Y805151D01*
X118060Y806557D01*
X116222Y807319D01*
D02*
G37*
G36*
X498592Y804811D02*
X496486D01*
X494451Y804266D01*
X492627Y803213D01*
X491138Y801723D01*
X490084Y799899D01*
X489539Y797864D01*
Y795758D01*
X490084Y793723D01*
X491138Y791899D01*
X492627Y790409D01*
X494451Y789356D01*
X496486Y788811D01*
X498592D01*
X500627Y789356D01*
X502451Y790409D01*
X503941Y791899D01*
X504994Y793723D01*
X505539Y795758D01*
Y797864D01*
X504994Y799899D01*
X503941Y801723D01*
X502451Y803213D01*
X500627Y804266D01*
X498592Y804811D01*
D02*
G37*
G36*
X455948Y811311D02*
X452130D01*
X448442Y810323D01*
X445136Y808414D01*
X442436Y805714D01*
X440527Y802408D01*
X439539Y798720D01*
Y794902D01*
X440527Y791214D01*
X442436Y787908D01*
X445136Y785208D01*
X448442Y783299D01*
X452130Y782311D01*
X455948D01*
X459636Y783299D01*
X462943Y785208D01*
X465642Y787908D01*
X467551Y791214D01*
X468119Y793332D01*
X469362Y793579D01*
X470228Y793475D01*
X471138Y791899D01*
X472627Y790409D01*
X474451Y789356D01*
X476486Y788811D01*
X478592D01*
X480627Y789356D01*
X482451Y790409D01*
X483941Y791899D01*
X484994Y793723D01*
X485539Y795758D01*
Y797864D01*
X484994Y799899D01*
X483941Y801723D01*
X482451Y803213D01*
X480627Y804266D01*
X478592Y804811D01*
X476486D01*
X474451Y804266D01*
X472627Y803213D01*
X471138Y801723D01*
X470228Y800147D01*
X469362Y800043D01*
X468119Y800290D01*
X467551Y802408D01*
X465642Y805714D01*
X462943Y808414D01*
X459636Y810323D01*
X455948Y811311D01*
D02*
G37*
G36*
X704245Y796264D02*
X702255D01*
X700418Y795503D01*
X699011Y794096D01*
X698250Y792258D01*
Y790269D01*
X699011Y788432D01*
X700418Y787025D01*
X702255Y786264D01*
X704245D01*
X706082Y787025D01*
X707489Y788432D01*
X708250Y790269D01*
Y792258D01*
X707489Y794096D01*
X706082Y795503D01*
X704245Y796264D01*
D02*
G37*
G36*
X662244D02*
X660255D01*
X658418Y795503D01*
X657011Y794096D01*
X656250Y792258D01*
Y790269D01*
X657011Y788432D01*
X658418Y787025D01*
X660255Y786264D01*
X662244D01*
X664082Y787025D01*
X665489Y788432D01*
X666250Y790269D01*
Y792258D01*
X665489Y794096D01*
X664082Y795503D01*
X662244Y796264D01*
D02*
G37*
G36*
X683245Y796184D02*
X681255D01*
X679418Y795423D01*
X678011Y794016D01*
X677250Y792179D01*
Y790189D01*
X678011Y788352D01*
X679418Y786945D01*
X681255Y786184D01*
X683245D01*
X685082Y786945D01*
X686489Y788352D01*
X687250Y790189D01*
Y792179D01*
X686489Y794016D01*
X685082Y795423D01*
X683245Y796184D01*
D02*
G37*
G36*
X139694Y789411D02*
X137705D01*
X135867Y788650D01*
X134460Y787243D01*
X133699Y785405D01*
Y783416D01*
X134460Y781579D01*
X135867Y780172D01*
X137705Y779411D01*
X139694D01*
X141532Y780172D01*
X142938Y781579D01*
X143699Y783416D01*
Y785405D01*
X142938Y787243D01*
X141532Y788650D01*
X139694Y789411D01*
D02*
G37*
G36*
X683245Y782500D02*
X681255D01*
X679418Y781739D01*
X678011Y780332D01*
X677250Y778495D01*
Y776505D01*
X678011Y774668D01*
X679418Y773261D01*
X681255Y772500D01*
X683245D01*
X685082Y773261D01*
X686489Y774668D01*
X687250Y776505D01*
Y778495D01*
X686489Y780332D01*
X685082Y781739D01*
X683245Y782500D01*
D02*
G37*
G36*
X249263Y775821D02*
X247274D01*
X245436Y775060D01*
X244030Y773653D01*
X243269Y771816D01*
Y769826D01*
X244030Y767989D01*
X245436Y766582D01*
X247274Y765821D01*
X249263D01*
X251101Y766582D01*
X252507Y767989D01*
X253269Y769826D01*
Y771816D01*
X252507Y773653D01*
X251101Y775060D01*
X249263Y775821D01*
D02*
G37*
G36*
X704245Y773590D02*
X702255D01*
X700418Y772829D01*
X699011Y771422D01*
X698250Y769585D01*
Y767595D01*
X699011Y765758D01*
X700418Y764351D01*
X702255Y763590D01*
X704245D01*
X706082Y764351D01*
X707489Y765758D01*
X708250Y767595D01*
Y769585D01*
X707489Y771422D01*
X706082Y772829D01*
X704245Y773590D01*
D02*
G37*
G36*
X662244D02*
X660255D01*
X658418Y772829D01*
X657011Y771422D01*
X656250Y769585D01*
Y767595D01*
X657011Y765758D01*
X658418Y764351D01*
X660255Y763590D01*
X662244D01*
X664082Y764351D01*
X665489Y765758D01*
X666250Y767595D01*
Y769585D01*
X665489Y771422D01*
X664082Y772829D01*
X662244Y773590D01*
D02*
G37*
G36*
X206480Y765322D02*
X204491D01*
X202653Y764561D01*
X201247Y763154D01*
X200485Y761316D01*
Y759327D01*
X201247Y757489D01*
X202653Y756083D01*
X204491Y755322D01*
X206480D01*
X208318Y756083D01*
X209724Y757489D01*
X210485Y759327D01*
Y761316D01*
X209724Y763154D01*
X208318Y764561D01*
X206480Y765322D01*
D02*
G37*
G36*
X704245Y759028D02*
X702255D01*
X700418Y758267D01*
X699011Y756860D01*
X698250Y755022D01*
Y753033D01*
X699011Y751196D01*
X700418Y749789D01*
X702255Y749028D01*
X704245D01*
X706082Y749789D01*
X707489Y751196D01*
X708250Y753033D01*
Y755022D01*
X707489Y756860D01*
X706082Y758267D01*
X704245Y759028D01*
D02*
G37*
G36*
X662244D02*
X660255D01*
X658418Y758267D01*
X657011Y756860D01*
X656250Y755022D01*
Y753033D01*
X657011Y751196D01*
X658418Y749789D01*
X660255Y749028D01*
X662244D01*
X664082Y749789D01*
X665489Y751196D01*
X666250Y753033D01*
Y755022D01*
X665489Y756860D01*
X664082Y758267D01*
X662244Y759028D01*
D02*
G37*
G36*
X207197Y742832D02*
X204037D01*
X200985Y742014D01*
X198249Y740434D01*
X196014Y738200D01*
X194435Y735464D01*
X193952Y733663D01*
X191882D01*
X191399Y735464D01*
X189819Y738200D01*
X187585Y740434D01*
X184849Y742014D01*
X181797Y742832D01*
X178637D01*
X175585Y742014D01*
X172848Y740434D01*
X170614Y738200D01*
X169035Y735464D01*
X168552Y733663D01*
X166481D01*
X165999Y735464D01*
X164419Y738200D01*
X162185Y740434D01*
X159449Y742014D01*
X156397Y742832D01*
X153237D01*
X150185Y742014D01*
X147449Y740434D01*
X145214Y738200D01*
X143635Y735464D01*
X143152Y733663D01*
X141081D01*
X140599Y735464D01*
X139019Y738200D01*
X136785Y740434D01*
X134049Y742014D01*
X130997Y742832D01*
X127837D01*
X124785Y742014D01*
X122049Y740434D01*
X119814Y738200D01*
X118235Y735464D01*
X117417Y732412D01*
Y729252D01*
X118235Y726200D01*
X119814Y723464D01*
X122049Y721229D01*
X124785Y719650D01*
X127837Y718832D01*
X130997D01*
X134049Y719650D01*
X136785Y721229D01*
X139019Y723464D01*
X140599Y726200D01*
X141081Y728001D01*
X143152D01*
X143635Y726200D01*
X145214Y723464D01*
X147449Y721229D01*
X150185Y719650D01*
X153237Y718832D01*
X156397D01*
X159449Y719650D01*
X162185Y721229D01*
X164419Y723464D01*
X165999Y726200D01*
X166481Y728001D01*
X168552D01*
X169035Y726200D01*
X170614Y723464D01*
X172848Y721229D01*
X175585Y719650D01*
X178637Y718832D01*
X181797D01*
X184849Y719650D01*
X187585Y721229D01*
X189819Y723464D01*
X191399Y726200D01*
X191882Y728001D01*
X193952D01*
X194435Y726200D01*
X196014Y723464D01*
X198249Y721229D01*
X200985Y719650D01*
X204037Y718832D01*
X207197D01*
X210249Y719650D01*
X212985Y721229D01*
X215219Y723464D01*
X216799Y726200D01*
X217617Y729252D01*
Y732412D01*
X216799Y735464D01*
X215219Y738200D01*
X212985Y740434D01*
X210249Y742014D01*
X207197Y742832D01*
D02*
G37*
G36*
X376255Y730827D02*
X374265D01*
X372428Y730066D01*
X371021Y728660D01*
X370260Y726822D01*
Y724833D01*
X371021Y722995D01*
X372428Y721588D01*
X374265Y720827D01*
X376255D01*
X378092Y721588D01*
X379499Y722995D01*
X380260Y724833D01*
Y726822D01*
X379499Y728660D01*
X378092Y730066D01*
X376255Y730827D01*
D02*
G37*
G36*
X388260Y730408D02*
X386271D01*
X384433Y729647D01*
X383027Y728240D01*
X382266Y726402D01*
Y724413D01*
X383027Y722575D01*
X384433Y721169D01*
X386271Y720408D01*
X388260D01*
X390098Y721169D01*
X391505Y722575D01*
X392266Y724413D01*
Y726402D01*
X391505Y728240D01*
X390098Y729647D01*
X388260Y730408D01*
D02*
G37*
G36*
X259505Y762486D02*
X256345D01*
X253293Y761668D01*
X250557Y760088D01*
X248322Y757854D01*
X246743Y755118D01*
X245925Y752066D01*
Y748906D01*
X246743Y745854D01*
X248322Y743118D01*
X250557Y740884D01*
X253293Y739304D01*
X255094Y738821D01*
Y736751D01*
X253293Y736268D01*
X250557Y734688D01*
X248322Y732454D01*
X246743Y729718D01*
X245925Y726666D01*
Y723506D01*
X246743Y720454D01*
X248322Y717718D01*
X250557Y715484D01*
X253293Y713904D01*
X256345Y713086D01*
X259505D01*
X262557Y713904D01*
X265293Y715484D01*
X267527Y717718D01*
X269107Y720454D01*
X269925Y723506D01*
Y726666D01*
X269107Y729718D01*
X267527Y732454D01*
X265293Y734688D01*
X262557Y736268D01*
X260756Y736751D01*
Y738821D01*
X262557Y739304D01*
X265293Y740884D01*
X267527Y743118D01*
X269107Y745854D01*
X269925Y748906D01*
Y752066D01*
X269107Y755118D01*
X267527Y757854D01*
X265293Y760088D01*
X262557Y761668D01*
X259505Y762486D01*
D02*
G37*
G36*
X941461Y736250D02*
X938038D01*
X934732Y735364D01*
X931768Y733653D01*
X929347Y731232D01*
X927636Y728268D01*
X926750Y724961D01*
Y721539D01*
X927636Y718232D01*
X929347Y715268D01*
X931768Y712848D01*
X934732Y711136D01*
X938038Y710250D01*
X941461D01*
X944768Y711136D01*
X947732Y712848D01*
X950153Y715268D01*
X951864Y718232D01*
X952750Y721539D01*
Y724961D01*
X951864Y728268D01*
X950153Y731232D01*
X947732Y733653D01*
X944768Y735364D01*
X941461Y736250D01*
D02*
G37*
G36*
X745145Y719850D02*
X743155D01*
X741318Y719089D01*
X739911Y717682D01*
X739150Y715845D01*
Y713856D01*
X739911Y712018D01*
X741318Y710611D01*
X743155Y709850D01*
X745145D01*
X746982Y710611D01*
X748389Y712018D01*
X749150Y713856D01*
Y715845D01*
X748389Y717682D01*
X746982Y719089D01*
X745145Y719850D01*
D02*
G37*
G36*
X358278Y711098D02*
X356172D01*
X354137Y710552D01*
X352313Y709499D01*
X350823Y708010D01*
X349770Y706186D01*
X349225Y704151D01*
Y702044D01*
X349770Y700010D01*
X350823Y698186D01*
X352313Y696696D01*
X354137Y695643D01*
X356172Y695098D01*
X358278D01*
X360313Y695643D01*
X362137Y696696D01*
X363627Y698186D01*
X364680Y700010D01*
X365225Y702044D01*
Y704151D01*
X364680Y706186D01*
X363627Y708010D01*
X362137Y709499D01*
X360313Y710552D01*
X358278Y711098D01*
D02*
G37*
G36*
X338278D02*
X336172D01*
X334137Y710552D01*
X332313Y709499D01*
X330823Y708010D01*
X329770Y706186D01*
X329225Y704151D01*
Y702044D01*
X329770Y700010D01*
X330823Y698186D01*
X332313Y696696D01*
X334137Y695643D01*
X336172Y695098D01*
X338278D01*
X340313Y695643D01*
X342137Y696696D01*
X343627Y698186D01*
X344680Y700010D01*
X345225Y702044D01*
Y704151D01*
X344680Y706186D01*
X343627Y708010D01*
X342137Y709499D01*
X340313Y710552D01*
X338278Y711098D01*
D02*
G37*
G36*
X318278D02*
X316172D01*
X314137Y710552D01*
X312313Y709499D01*
X310823Y708010D01*
X309770Y706186D01*
X309225Y704151D01*
Y702044D01*
X309770Y700010D01*
X310823Y698186D01*
X312313Y696696D01*
X314137Y695643D01*
X316172Y695098D01*
X318278D01*
X320313Y695643D01*
X322137Y696696D01*
X323627Y698186D01*
X324680Y700010D01*
X325225Y702044D01*
Y704151D01*
X324680Y706186D01*
X323627Y708010D01*
X322137Y709499D01*
X320313Y710552D01*
X318278Y711098D01*
D02*
G37*
G36*
X508903Y693363D02*
X506913D01*
X505076Y692602D01*
X503669Y691195D01*
X502908Y689358D01*
Y687368D01*
X503669Y685531D01*
X505076Y684124D01*
X506913Y683363D01*
X508903D01*
X510740Y684124D01*
X512147Y685531D01*
X512908Y687368D01*
Y689358D01*
X512147Y691195D01*
X510740Y692602D01*
X508903Y693363D01*
D02*
G37*
G36*
X941461Y686250D02*
X940500D01*
Y674000D01*
X952750D01*
Y674961D01*
X951864Y678268D01*
X950153Y681232D01*
X947732Y683653D01*
X944768Y685364D01*
X941461Y686250D01*
D02*
G37*
G36*
X939000D02*
X938038D01*
X934732Y685364D01*
X931768Y683653D01*
X929347Y681232D01*
X927636Y678268D01*
X926750Y674961D01*
Y674000D01*
X939000D01*
Y686250D01*
D02*
G37*
G36*
X952750Y672500D02*
X940500D01*
Y660250D01*
X941461D01*
X944768Y661136D01*
X947732Y662848D01*
X950153Y665268D01*
X951864Y668232D01*
X952750Y671539D01*
Y672500D01*
D02*
G37*
G36*
X939000D02*
X926750D01*
Y671539D01*
X927636Y668232D01*
X929347Y665268D01*
X931768Y662848D01*
X934732Y661136D01*
X938038Y660250D01*
X939000D01*
Y672500D01*
D02*
G37*
G36*
X358278Y670468D02*
X356172D01*
X354137Y669922D01*
X352313Y668869D01*
X350823Y667380D01*
X349770Y665555D01*
X349225Y663521D01*
Y661414D01*
X349770Y659380D01*
X350823Y657555D01*
X352313Y656066D01*
X354137Y655013D01*
X356172Y654468D01*
X358278D01*
X360313Y655013D01*
X362137Y656066D01*
X363627Y657555D01*
X364680Y659380D01*
X365225Y661414D01*
Y663521D01*
X364680Y665555D01*
X363627Y667380D01*
X362137Y668869D01*
X360313Y669922D01*
X358278Y670468D01*
D02*
G37*
G36*
X338278D02*
X336172D01*
X334137Y669922D01*
X332313Y668869D01*
X330823Y667380D01*
X329770Y665555D01*
X329225Y663521D01*
Y661414D01*
X329770Y659380D01*
X330823Y657555D01*
X332313Y656066D01*
X334137Y655013D01*
X336172Y654468D01*
X338278D01*
X340313Y655013D01*
X342137Y656066D01*
X343627Y657555D01*
X344680Y659380D01*
X345225Y661414D01*
Y663521D01*
X344680Y665555D01*
X343627Y667380D01*
X342137Y668869D01*
X340313Y669922D01*
X338278Y670468D01*
D02*
G37*
G36*
X318278D02*
X316172D01*
X314137Y669922D01*
X312313Y668869D01*
X310823Y667380D01*
X309770Y665555D01*
X309225Y663521D01*
Y661414D01*
X309770Y659380D01*
X310823Y657555D01*
X312313Y656066D01*
X314137Y655013D01*
X316172Y654468D01*
X318278D01*
X320313Y655013D01*
X322137Y656066D01*
X323627Y657555D01*
X324680Y659380D01*
X325225Y661414D01*
Y663521D01*
X324680Y665555D01*
X323627Y667380D01*
X322137Y668869D01*
X320313Y669922D01*
X318278Y670468D01*
D02*
G37*
G36*
X399842Y661902D02*
X397853D01*
X396015Y661141D01*
X394609Y659735D01*
X393848Y657897D01*
Y655908D01*
X394609Y654070D01*
X396015Y652664D01*
X397853Y651902D01*
X399842D01*
X401680Y652664D01*
X403086Y654070D01*
X403848Y655908D01*
Y657897D01*
X403086Y659735D01*
X401680Y661141D01*
X399842Y661902D01*
D02*
G37*
G36*
X183158Y642000D02*
X181169D01*
X179331Y641239D01*
X178151Y640059D01*
X154422D01*
X153242Y641239D01*
X151404Y642000D01*
X149415D01*
X147577Y641239D01*
X146171Y639832D01*
X145409Y637995D01*
Y636005D01*
X146171Y634168D01*
X147577Y632761D01*
X149415Y632000D01*
X151404D01*
X153242Y632761D01*
X154422Y633941D01*
X169724D01*
X170312Y632930D01*
X170676Y631941D01*
X170002Y630315D01*
Y628326D01*
X170764Y626488D01*
X171649Y625603D01*
Y616478D01*
X171580Y616450D01*
X170173Y615043D01*
X169412Y613205D01*
Y611216D01*
X170173Y609379D01*
X171580Y607972D01*
X173417Y607211D01*
X175406D01*
X177244Y607972D01*
X178651Y609379D01*
X179412Y611216D01*
Y613205D01*
X178651Y615043D01*
X177766Y615928D01*
Y625053D01*
X177835Y625082D01*
X179241Y626488D01*
X180002Y628326D01*
Y630315D01*
X180001Y630319D01*
X180575Y631145D01*
X181469Y632000D01*
X183158D01*
X184996Y632761D01*
X186402Y634168D01*
X187163Y636005D01*
Y637995D01*
X186402Y639832D01*
X184996Y641239D01*
X183158Y642000D01*
D02*
G37*
G36*
X612313Y648166D02*
X610324D01*
X608486Y647404D01*
X607080Y645998D01*
X606318Y644160D01*
Y642171D01*
X607080Y640333D01*
X608486Y638927D01*
X610324Y638166D01*
X612313D01*
X614151Y638927D01*
X615557Y640333D01*
X616318Y642171D01*
Y644160D01*
X615557Y645998D01*
X614151Y647404D01*
X612313Y648166D01*
D02*
G37*
G36*
X429238Y708272D02*
X427249D01*
X425411Y707511D01*
X424005Y706104D01*
X423244Y704266D01*
Y702277D01*
X424005Y700440D01*
X425185Y699259D01*
Y645713D01*
X425185Y645713D01*
X425418Y644542D01*
X426081Y643550D01*
X428750Y640881D01*
Y639212D01*
X429511Y637374D01*
X430918Y635968D01*
X432755Y635206D01*
X434745D01*
X436582Y635968D01*
X437989Y637374D01*
X438750Y639212D01*
Y641201D01*
X437989Y643039D01*
X436582Y644445D01*
X434745Y645206D01*
X433076D01*
X431302Y646980D01*
Y699259D01*
X432482Y700440D01*
X433244Y702277D01*
Y704266D01*
X432482Y706104D01*
X431076Y707511D01*
X429238Y708272D01*
D02*
G37*
G36*
X376255Y644653D02*
X374265D01*
X372428Y643891D01*
X371021Y642485D01*
X370260Y640647D01*
Y638658D01*
X371021Y636820D01*
X372428Y635414D01*
X374265Y634653D01*
X376255D01*
X378092Y635414D01*
X379499Y636820D01*
X380260Y638658D01*
Y640647D01*
X379499Y642485D01*
X378092Y643891D01*
X376255Y644653D01*
D02*
G37*
G36*
X604913Y615589D02*
X602924D01*
X601086Y614828D01*
X599679Y613422D01*
X598918Y611584D01*
Y609595D01*
X599679Y607757D01*
X601086Y606351D01*
X602924Y605589D01*
X604913D01*
X606751Y606351D01*
X608157Y607757D01*
X608918Y609595D01*
Y611584D01*
X608157Y613422D01*
X606751Y614828D01*
X604913Y615589D01*
D02*
G37*
G36*
X56932Y610025D02*
X54943D01*
X53106Y609264D01*
X51699Y607857D01*
X50938Y606019D01*
Y604030D01*
X51699Y602193D01*
X53106Y600786D01*
X54943Y600025D01*
X56932D01*
X58770Y600786D01*
X60177Y602193D01*
X60938Y604030D01*
Y606019D01*
X60177Y607857D01*
X58770Y609264D01*
X56932Y610025D01*
D02*
G37*
G36*
X709268Y631053D02*
X707279D01*
X705441Y630292D01*
X704035Y628885D01*
X703273Y627048D01*
Y625058D01*
X704035Y623221D01*
X705441Y621814D01*
X707279Y621053D01*
X708434D01*
X726450Y603036D01*
Y601805D01*
X727211Y599968D01*
X728618Y598561D01*
X730455Y597800D01*
X732445D01*
X734282Y598561D01*
X735689Y599968D01*
X736450Y601805D01*
Y603795D01*
X735689Y605632D01*
X734282Y607039D01*
X732445Y607800D01*
X730455D01*
X730372Y607766D01*
X713217Y624921D01*
X713273Y625058D01*
Y627048D01*
X712512Y628885D01*
X711106Y630292D01*
X709268Y631053D01*
D02*
G37*
G36*
X276274Y608650D02*
X275571D01*
Y594650D01*
X289571D01*
Y595353D01*
X289004Y598202D01*
X287892Y600887D01*
X286278Y603303D01*
X284224Y605357D01*
X281808Y606971D01*
X279123Y608083D01*
X276274Y608650D01*
D02*
G37*
G36*
X225474D02*
X224771D01*
Y594650D01*
X238771D01*
Y595353D01*
X238204Y598202D01*
X237092Y600887D01*
X235478Y603303D01*
X233424Y605357D01*
X231008Y606971D01*
X228323Y608083D01*
X225474Y608650D01*
D02*
G37*
G36*
X274071D02*
X273368D01*
X270519Y608083D01*
X267834Y606971D01*
X265418Y605357D01*
X263364Y603303D01*
X261750Y600887D01*
X260638Y598202D01*
X260071Y595353D01*
Y594650D01*
X274071D01*
Y608650D01*
D02*
G37*
G36*
X223271D02*
X222568D01*
X219719Y608083D01*
X217034Y606971D01*
X214618Y605357D01*
X212564Y603303D01*
X210950Y600887D01*
X209838Y598202D01*
X209271Y595353D01*
Y594650D01*
X223271D01*
Y608650D01*
D02*
G37*
G36*
X395764Y589972D02*
X393775D01*
X391937Y589211D01*
X390530Y587804D01*
X389769Y585967D01*
Y583978D01*
X390530Y582140D01*
X391937Y580733D01*
X393775Y579972D01*
X395764D01*
X397602Y580733D01*
X399008Y582140D01*
X399769Y583978D01*
Y585967D01*
X399008Y587804D01*
X397602Y589211D01*
X395764Y589972D01*
D02*
G37*
G36*
X301744Y589744D02*
X299755D01*
X297918Y588983D01*
X296511Y587577D01*
X295750Y585739D01*
Y583750D01*
X296511Y581912D01*
X297918Y580506D01*
X299755Y579744D01*
X301744D01*
X303582Y580506D01*
X304989Y581912D01*
X305750Y583750D01*
Y585739D01*
X304989Y587577D01*
X303582Y588983D01*
X301744Y589744D01*
D02*
G37*
G36*
X289571Y593150D02*
X275571D01*
Y579150D01*
X276274D01*
X279123Y579717D01*
X281808Y580829D01*
X284224Y582443D01*
X286278Y584497D01*
X287892Y586913D01*
X289004Y589598D01*
X289571Y592447D01*
Y593150D01*
D02*
G37*
G36*
X274071D02*
X260071D01*
Y592447D01*
X260638Y589598D01*
X261750Y586913D01*
X263364Y584497D01*
X265418Y582443D01*
X267834Y580829D01*
X270519Y579717D01*
X273368Y579150D01*
X274071D01*
Y593150D01*
D02*
G37*
G36*
X238771D02*
X224771D01*
Y579150D01*
X225474D01*
X228323Y579717D01*
X231008Y580829D01*
X233424Y582443D01*
X235478Y584497D01*
X237092Y586913D01*
X238204Y589598D01*
X238771Y592447D01*
Y593150D01*
D02*
G37*
G36*
X223271D02*
X209271D01*
Y592447D01*
X209838Y589598D01*
X210950Y586913D01*
X212564Y584497D01*
X214618Y582443D01*
X217034Y580829D01*
X219719Y579717D01*
X222568Y579150D01*
X223271D01*
Y593150D01*
D02*
G37*
G36*
X163506Y584892D02*
X161517D01*
X159679Y584131D01*
X158272Y582725D01*
X157511Y580887D01*
Y578898D01*
X156541Y578032D01*
X155511Y579487D01*
Y580887D01*
X154750Y582725D01*
X153343Y584131D01*
X151506Y584892D01*
X149517D01*
X147679Y584131D01*
X146272Y582725D01*
X145511Y580887D01*
Y578898D01*
X144541Y578032D01*
X143511Y579487D01*
Y580887D01*
X142750Y582725D01*
X141343Y584131D01*
X139506Y584892D01*
X137517D01*
X135679Y584131D01*
X134272Y582725D01*
X133511Y580887D01*
Y578898D01*
X132541Y578032D01*
X131511Y579487D01*
Y580887D01*
X130750Y582725D01*
X129344Y584131D01*
X127506Y584892D01*
X125517D01*
X123679Y584131D01*
X122272Y582725D01*
X121511Y580887D01*
Y578898D01*
X120541Y578032D01*
X119511Y579487D01*
Y580887D01*
X118750Y582725D01*
X117344Y584131D01*
X115506Y584892D01*
X113517D01*
X111679Y584131D01*
X110272Y582725D01*
X109511Y580887D01*
Y578898D01*
X108541Y578032D01*
X107511Y579487D01*
Y580887D01*
X106750Y582725D01*
X105344Y584131D01*
X103506Y584892D01*
X101517D01*
X99679Y584131D01*
X98272Y582725D01*
X97511Y580887D01*
Y578898D01*
X97910Y577935D01*
X96785Y575934D01*
X93919D01*
X93248Y576605D01*
X91411Y577366D01*
X89422D01*
X87584Y576605D01*
X86177Y575198D01*
X85416Y573360D01*
Y572413D01*
X74413Y561409D01*
X73639Y560252D01*
X73368Y558886D01*
Y538690D01*
X72697Y538019D01*
X71936Y536182D01*
Y534193D01*
X72697Y532355D01*
X74104Y530948D01*
X75942Y530187D01*
X77931D01*
X79768Y530948D01*
X81175Y532355D01*
X81936Y534193D01*
Y536182D01*
X81175Y538019D01*
X80505Y538690D01*
Y557408D01*
X90463Y567366D01*
X91411D01*
X93248Y568127D01*
X93919Y568797D01*
X159436D01*
X174217Y554017D01*
Y553069D01*
X174978Y551231D01*
X176385Y549824D01*
X178223Y549063D01*
X180212D01*
X182049Y549824D01*
X183456Y551231D01*
X184217Y553069D01*
Y555058D01*
X183456Y556896D01*
X182049Y558302D01*
X180212Y559063D01*
X179264D01*
X164986Y573341D01*
X165343Y575654D01*
X166750Y577060D01*
X167511Y578898D01*
Y580887D01*
X166750Y582725D01*
X165343Y584131D01*
X163506Y584892D01*
D02*
G37*
G36*
X350971Y586762D02*
X348982D01*
X347144Y586001D01*
X345737Y584594D01*
X344976Y582757D01*
Y580768D01*
X345737Y578930D01*
X347144Y577523D01*
X348982Y576762D01*
X350971D01*
X352808Y577523D01*
X354215Y578930D01*
X354976Y580768D01*
Y582757D01*
X354215Y584594D01*
X352808Y586001D01*
X350971Y586762D01*
D02*
G37*
G36*
X967322Y634500D02*
X962678D01*
X958092Y633774D01*
X953676Y632339D01*
X949539Y630231D01*
X945782Y627501D01*
X942499Y624218D01*
X939769Y620461D01*
X937661Y616324D01*
X936226Y611908D01*
X935500Y607322D01*
Y602678D01*
X936226Y598092D01*
X937661Y593676D01*
X939769Y589539D01*
X942499Y585782D01*
X945782Y582499D01*
X949539Y579769D01*
X953676Y577661D01*
X958092Y576226D01*
X962678Y575500D01*
X967322D01*
X971908Y576226D01*
X976324Y577661D01*
X980461Y579769D01*
X984218Y582499D01*
X987501Y585782D01*
X990231Y589539D01*
X992339Y593676D01*
X993774Y598092D01*
X994500Y602678D01*
Y607322D01*
X993774Y611908D01*
X992339Y616324D01*
X990231Y620461D01*
X987501Y624218D01*
X984218Y627501D01*
X980461Y630231D01*
X976324Y632339D01*
X971908Y633774D01*
X967322Y634500D01*
D02*
G37*
G36*
X251165Y581750D02*
X247677D01*
X244307Y580847D01*
X241285Y579103D01*
X238818Y576636D01*
X237074Y573614D01*
X236171Y570244D01*
Y566756D01*
X237074Y563386D01*
X238818Y560364D01*
X241285Y557897D01*
X244307Y556153D01*
X247677Y555250D01*
X251165D01*
X254535Y556153D01*
X257557Y557897D01*
X260024Y560364D01*
X261768Y563386D01*
X262671Y566756D01*
Y570244D01*
X261768Y573614D01*
X260024Y576636D01*
X257557Y579103D01*
X254535Y580847D01*
X251165Y581750D01*
D02*
G37*
G36*
X276274Y557850D02*
X275571D01*
Y543850D01*
X289571D01*
Y544553D01*
X289004Y547402D01*
X287892Y550087D01*
X286278Y552503D01*
X284224Y554557D01*
X281808Y556171D01*
X279123Y557283D01*
X276274Y557850D01*
D02*
G37*
G36*
X225474D02*
X224771D01*
Y543850D01*
X238771D01*
Y544553D01*
X238204Y547402D01*
X237092Y550087D01*
X235478Y552503D01*
X233424Y554557D01*
X231008Y556171D01*
X228323Y557283D01*
X225474Y557850D01*
D02*
G37*
G36*
X274071D02*
X273368D01*
X270519Y557283D01*
X267834Y556171D01*
X265418Y554557D01*
X263364Y552503D01*
X261750Y550087D01*
X260638Y547402D01*
X260071Y544553D01*
Y543850D01*
X274071D01*
Y557850D01*
D02*
G37*
G36*
X223271D02*
X222568D01*
X219719Y557283D01*
X217034Y556171D01*
X214618Y554557D01*
X212564Y552503D01*
X210950Y550087D01*
X209838Y547402D01*
X209271Y544553D01*
Y543850D01*
X223271D01*
Y557850D01*
D02*
G37*
G36*
X389895Y544396D02*
X387906D01*
X386068Y543635D01*
X385202Y542769D01*
X384397Y543574D01*
X382559Y544335D01*
X380570D01*
X378732Y543574D01*
X377785Y542627D01*
X376839Y543574D01*
X375001Y544335D01*
X373012D01*
X371174Y543574D01*
X370324Y542724D01*
X369474Y543574D01*
X367636Y544335D01*
X365647D01*
X363810Y543574D01*
X362992Y542756D01*
X362174Y543574D01*
X360336Y544335D01*
X358347D01*
X356510Y543574D01*
X355103Y542167D01*
X354342Y540330D01*
Y538661D01*
X331216Y515535D01*
X330553Y514543D01*
X330320Y513372D01*
X330320Y513372D01*
Y278555D01*
X287802Y236037D01*
X287139Y235045D01*
X286907Y233874D01*
X286907Y233874D01*
Y187981D01*
X285727Y186801D01*
X284965Y184963D01*
Y182974D01*
X285727Y181136D01*
X287133Y179730D01*
X288971Y178969D01*
X290960D01*
X292798Y179730D01*
X294204Y181136D01*
X294965Y182974D01*
Y183888D01*
X296235Y185310D01*
X296813Y185469D01*
X298365D01*
X300203Y186230D01*
X301609Y187636D01*
X302370Y189474D01*
Y190121D01*
X302923Y191614D01*
X304218Y191969D01*
X305043D01*
X306881Y192730D01*
X308287Y194136D01*
X309048Y195974D01*
Y197963D01*
X308287Y199801D01*
X307107Y200981D01*
Y232925D01*
X342626Y268444D01*
X344474Y267679D01*
Y196503D01*
X265596Y117624D01*
X264933Y116632D01*
X264700Y115462D01*
X264700Y115461D01*
Y86589D01*
X263520Y85409D01*
X262759Y83571D01*
Y81582D01*
X263520Y79745D01*
X264926Y78338D01*
X266764Y77577D01*
X268753D01*
X270591Y78338D01*
X271997Y79745D01*
X272759Y81582D01*
Y82622D01*
X274409Y84023D01*
X274606Y84077D01*
X276462D01*
X278300Y84838D01*
X279706Y86244D01*
X280467Y88082D01*
Y88517D01*
X280872Y90135D01*
X282315Y90365D01*
X282918D01*
X284756Y91126D01*
X286162Y92532D01*
X286923Y94370D01*
Y96359D01*
X286162Y98197D01*
X284982Y99377D01*
Y110772D01*
X359448Y185238D01*
X359448Y185238D01*
X360111Y186230D01*
X360344Y187400D01*
X360344Y187401D01*
Y499089D01*
X395590Y534335D01*
X397258D01*
X399096Y535096D01*
X400503Y536503D01*
X401264Y538341D01*
Y540330D01*
X400503Y542167D01*
X399096Y543574D01*
X397258Y544335D01*
X395269D01*
X393432Y543574D01*
X392613Y542755D01*
X391733Y543635D01*
X389895Y544396D01*
D02*
G37*
G36*
X787739Y549293D02*
X785750D01*
X783912Y548531D01*
X782506Y547125D01*
X781745Y545287D01*
Y543298D01*
X782506Y541460D01*
X783912Y540054D01*
X785750Y539293D01*
X787739D01*
X789577Y540054D01*
X790983Y541460D01*
X791745Y543298D01*
Y545287D01*
X790983Y547125D01*
X789577Y548531D01*
X787739Y549293D01*
D02*
G37*
G36*
X463891Y547598D02*
X461902D01*
X460064Y546837D01*
X458657Y545431D01*
X457896Y543593D01*
Y541604D01*
X458657Y539766D01*
X460064Y538360D01*
X461902Y537598D01*
X463891D01*
X465728Y538360D01*
X467135Y539766D01*
X467896Y541604D01*
Y543593D01*
X467135Y545431D01*
X465728Y546837D01*
X463891Y547598D01*
D02*
G37*
G36*
X289571Y542350D02*
X275571D01*
Y528350D01*
X276274D01*
X279123Y528917D01*
X281808Y530029D01*
X284224Y531643D01*
X286278Y533697D01*
X287892Y536113D01*
X289004Y538798D01*
X289571Y541647D01*
Y542350D01*
D02*
G37*
G36*
X274071D02*
X260071D01*
Y541647D01*
X260638Y538798D01*
X261750Y536113D01*
X263364Y533697D01*
X265418Y531643D01*
X267834Y530029D01*
X270519Y528917D01*
X273368Y528350D01*
X274071D01*
Y542350D01*
D02*
G37*
G36*
X238771D02*
X224771D01*
Y528350D01*
X225474D01*
X228323Y528917D01*
X231008Y530029D01*
X233424Y531643D01*
X235478Y533697D01*
X237092Y536113D01*
X238204Y538798D01*
X238771Y541647D01*
Y542350D01*
D02*
G37*
G36*
X223271D02*
X209271D01*
Y541647D01*
X209838Y538798D01*
X210950Y536113D01*
X212564Y533697D01*
X214618Y531643D01*
X217034Y530029D01*
X219719Y528917D01*
X222568Y528350D01*
X223271D01*
Y542350D01*
D02*
G37*
G36*
X592442Y537473D02*
X590453D01*
X588615Y536711D01*
X587209Y535305D01*
X586447Y533467D01*
Y531478D01*
X587209Y529640D01*
X588615Y528234D01*
X590453Y527473D01*
X592442D01*
X594280Y528234D01*
X595686Y529640D01*
X596447Y531478D01*
Y533467D01*
X595686Y535305D01*
X594280Y536711D01*
X592442Y537473D01*
D02*
G37*
G36*
X624272Y732186D02*
X624272Y732186D01*
X540717D01*
X539547Y731953D01*
X538554Y731290D01*
X538554Y731290D01*
X529507Y722243D01*
X527838D01*
X526001Y721482D01*
X524594Y720075D01*
X523833Y718237D01*
Y716248D01*
X524594Y714411D01*
X526001Y713004D01*
X527838Y712243D01*
X529827D01*
X530194Y712395D01*
X531725Y710864D01*
X531697Y710798D01*
Y708809D01*
X532458Y706971D01*
X533865Y705564D01*
X535703Y704803D01*
X537692D01*
X539093Y705384D01*
X539102Y705378D01*
X540478Y703900D01*
X539897Y702497D01*
Y700508D01*
X540658Y698670D01*
X542065Y697263D01*
X543902Y696502D01*
X545892D01*
X546295Y696669D01*
X547826Y695139D01*
X547703Y694842D01*
Y692853D01*
X548464Y691015D01*
X549871Y689608D01*
X551708Y688847D01*
X553698D01*
X554681Y689255D01*
X556212Y687724D01*
X555848Y686846D01*
Y684857D01*
X556609Y683019D01*
X558016Y681612D01*
X559854Y680851D01*
X561843D01*
X563680Y681612D01*
X564666Y682598D01*
X565651Y681612D01*
X567489Y680851D01*
X569478D01*
X571315Y681612D01*
X572722Y683019D01*
X573483Y684857D01*
Y686526D01*
X579349Y692392D01*
X581708Y691923D01*
X581761Y691795D01*
X583168Y690388D01*
X585005Y689627D01*
X586995D01*
X588832Y690388D01*
X590239Y691795D01*
X591000Y693633D01*
Y695622D01*
X591800Y696818D01*
X610890D01*
X645874Y661834D01*
X645523Y659357D01*
X644685Y658518D01*
X643924Y656680D01*
Y654691D01*
X644685Y652853D01*
X646092Y651447D01*
X647929Y650686D01*
X649918D01*
X651115Y649886D01*
Y522941D01*
X647070Y518896D01*
X645070Y519724D01*
Y520065D01*
X644309Y521902D01*
X642902Y523309D01*
X641065Y524070D01*
X639075D01*
X637238Y523309D01*
X635831Y521902D01*
X635070Y520065D01*
Y518075D01*
X635831Y516238D01*
X637238Y514831D01*
X639075Y514070D01*
X639416D01*
X640244Y512070D01*
X532174Y404000D01*
X530505D01*
X528668Y403239D01*
X527261Y401832D01*
X526500Y399995D01*
Y398005D01*
X527261Y396168D01*
X528668Y394761D01*
X530505Y394000D01*
X530527D01*
X532500Y392505D01*
X532646Y392152D01*
Y392152D01*
X532722Y391970D01*
X533261Y390668D01*
X534668Y389261D01*
X536505Y388500D01*
X538460D01*
X538558Y388398D01*
X539568Y386780D01*
X539043Y386254D01*
X538281Y384417D01*
Y382427D01*
X539043Y380590D01*
X539861Y379771D01*
X539069Y378978D01*
X538307Y377141D01*
Y375151D01*
X539069Y373314D01*
X540475Y371907D01*
X542313Y371146D01*
X544302D01*
X545665Y369596D01*
Y367607D01*
X546426Y365769D01*
X547833Y364362D01*
X549670Y363601D01*
X551660D01*
X552898Y364114D01*
X554497Y362749D01*
X554245Y362141D01*
Y360151D01*
X555006Y358314D01*
X556413Y356907D01*
X558251Y356146D01*
X560240D01*
X560984Y356454D01*
X562514Y354923D01*
X562434Y354730D01*
Y352741D01*
X563195Y350903D01*
X564422Y349677D01*
X563604Y348859D01*
X562843Y347021D01*
Y345032D01*
X563604Y343195D01*
X565011Y341788D01*
X566849Y341027D01*
X568838D01*
X570676Y341788D01*
X572082Y343195D01*
X572843Y345032D01*
Y346701D01*
X685587Y459445D01*
X686250Y460437D01*
X686483Y461608D01*
X686483Y461608D01*
Y669976D01*
X686483Y669976D01*
X686250Y671146D01*
X685587Y672139D01*
X626435Y731290D01*
X625443Y731953D01*
X624272Y732186D01*
D02*
G37*
G36*
X757845Y527100D02*
X755855D01*
X754018Y526339D01*
X752611Y524933D01*
X751850Y523095D01*
Y521106D01*
X752611Y519268D01*
X754018Y517862D01*
X755855Y517100D01*
X757845D01*
X759682Y517862D01*
X761089Y519268D01*
X761850Y521106D01*
Y523095D01*
X761089Y524933D01*
X759682Y526339D01*
X757845Y527100D01*
D02*
G37*
G36*
X12051Y523028D02*
X10062D01*
X8224Y522267D01*
X6818Y520860D01*
X6057Y519023D01*
Y517034D01*
X6818Y515196D01*
X8224Y513789D01*
X10062Y513028D01*
X12051D01*
X13889Y513789D01*
X15295Y515196D01*
X16057Y517034D01*
Y519023D01*
X15295Y520860D01*
X13889Y522267D01*
X12051Y523028D01*
D02*
G37*
G36*
X413896Y520491D02*
X411907D01*
X410069Y519730D01*
X408662Y518324D01*
X407901Y516486D01*
Y514497D01*
X408662Y512659D01*
X410069Y511253D01*
X411907Y510491D01*
X413896D01*
X415733Y511253D01*
X417140Y512659D01*
X417901Y514497D01*
Y516486D01*
X417140Y518324D01*
X415733Y519730D01*
X413896Y520491D01*
D02*
G37*
G36*
X77931Y517105D02*
X75942D01*
X74104Y516344D01*
X72697Y514937D01*
X71936Y513100D01*
Y511110D01*
X72697Y509273D01*
X74104Y507866D01*
X75942Y507105D01*
X77931D01*
X79768Y507866D01*
X81175Y509273D01*
X81936Y511110D01*
Y513100D01*
X81175Y514937D01*
X79768Y516344D01*
X77931Y517105D01*
D02*
G37*
G36*
X211166Y516582D02*
X209177D01*
X207339Y515821D01*
X205933Y514414D01*
X205172Y512576D01*
Y510587D01*
X205933Y508749D01*
X207339Y507343D01*
X209177Y506582D01*
X211166D01*
X213004Y507343D01*
X214410Y508749D01*
X215172Y510587D01*
Y512576D01*
X214410Y514414D01*
X213004Y515821D01*
X211166Y516582D01*
D02*
G37*
G36*
X189424Y487218D02*
X187435D01*
X185598Y486457D01*
X184191Y485050D01*
X183430Y483212D01*
Y481223D01*
X184191Y479386D01*
X185598Y477979D01*
X187435Y477218D01*
X189424D01*
X191262Y477979D01*
X192669Y479386D01*
X193430Y481223D01*
Y483212D01*
X192669Y485050D01*
X191262Y486457D01*
X189424Y487218D01*
D02*
G37*
G36*
X445899Y568159D02*
X443909D01*
X442072Y567397D01*
X440665Y565991D01*
X439904Y564153D01*
Y562164D01*
X440665Y560326D01*
X441845Y559146D01*
Y375066D01*
X440620Y373841D01*
X439859Y372003D01*
Y370014D01*
X440620Y368176D01*
X442027Y366770D01*
X443864Y366009D01*
X445854D01*
X447691Y366770D01*
X449098Y368176D01*
X449859Y370014D01*
Y372003D01*
X449098Y373841D01*
X447963Y374976D01*
Y473697D01*
X449882Y475066D01*
X451871D01*
X452328Y473651D01*
Y473556D01*
X453089Y471718D01*
X454496Y470312D01*
X456334Y469551D01*
X458323D01*
X458901Y469164D01*
Y468006D01*
X459663Y466169D01*
X461069Y464762D01*
X462907Y464001D01*
X464896D01*
X466734Y464762D01*
X468140Y466169D01*
X468901Y468006D01*
Y469675D01*
X514818Y515591D01*
X514818Y515591D01*
X515281Y516285D01*
X516252Y516687D01*
X517659Y518094D01*
X518420Y519931D01*
Y521921D01*
X517659Y523758D01*
X516252Y525165D01*
X514415Y525926D01*
X513962D01*
X513930Y525974D01*
Y527963D01*
X513169Y529800D01*
X511762Y531207D01*
X509925Y531968D01*
X509803D01*
X509610Y532257D01*
Y534246D01*
X508849Y536083D01*
X507442Y537490D01*
X505605Y538251D01*
X503615D01*
X501778Y537490D01*
X500371Y536083D01*
X499610Y534246D01*
Y532851D01*
X451825Y485066D01*
X449882D01*
X447963Y486436D01*
Y559146D01*
X449143Y560326D01*
X449904Y562164D01*
Y564153D01*
X449143Y565991D01*
X447736Y567397D01*
X445899Y568159D01*
D02*
G37*
G36*
X538883Y539251D02*
X536894D01*
X535056Y538490D01*
X533650Y537083D01*
X532889Y535246D01*
Y533256D01*
X532696Y532968D01*
X532574D01*
X530737Y532207D01*
X529330Y530800D01*
X528569Y528963D01*
Y526974D01*
X528699Y526659D01*
X528209Y525926D01*
X526372Y525165D01*
X524965Y523758D01*
X524204Y521921D01*
Y519931D01*
X524965Y518094D01*
X526372Y516687D01*
X528209Y515926D01*
X530185D01*
X579170Y466942D01*
Y465580D01*
X579931Y463742D01*
X581337Y462336D01*
X583175Y461574D01*
X585164D01*
X587002Y462336D01*
X588408Y463742D01*
X589169Y465580D01*
Y467124D01*
X590950D01*
X592788Y467885D01*
X594194Y469292D01*
X594955Y471129D01*
Y472477D01*
X596024D01*
X597862Y473238D01*
X599268Y474645D01*
X600030Y476482D01*
Y478471D01*
X599268Y480309D01*
X597862Y481716D01*
X596024Y482477D01*
X594335D01*
X542889Y533923D01*
Y535246D01*
X542127Y537083D01*
X540721Y538490D01*
X538883Y539251D01*
D02*
G37*
G36*
X189424Y448327D02*
X187435D01*
X185598Y447566D01*
X184191Y446160D01*
X183430Y444322D01*
Y442333D01*
X184191Y440495D01*
X185598Y439089D01*
X187435Y438327D01*
X189424D01*
X191262Y439089D01*
X192669Y440495D01*
X193430Y442333D01*
Y444322D01*
X192669Y446160D01*
X191262Y447566D01*
X189424Y448327D01*
D02*
G37*
G36*
X128815Y445947D02*
X126826D01*
X124988Y445186D01*
X123582Y443780D01*
X122821Y441942D01*
Y439953D01*
X123582Y438115D01*
X124988Y436709D01*
X126826Y435947D01*
X128815D01*
X130653Y436709D01*
X132059Y438115D01*
X132821Y439953D01*
Y441942D01*
X132059Y443780D01*
X130653Y445186D01*
X128815Y445947D01*
D02*
G37*
G36*
X108096D02*
X106107D01*
X104269Y445186D01*
X102862Y443780D01*
X102101Y441942D01*
Y439953D01*
X102862Y438115D01*
X104269Y436709D01*
X106107Y435947D01*
X108096D01*
X109934Y436709D01*
X111340Y438115D01*
X112101Y439953D01*
Y441942D01*
X111340Y443780D01*
X109934Y445186D01*
X108096Y445947D01*
D02*
G37*
G36*
X65852Y457191D02*
X63863D01*
X62025Y456430D01*
X60619Y455023D01*
X59858Y453186D01*
Y451197D01*
X60619Y449359D01*
X62025Y447952D01*
X63863Y447191D01*
Y445197D01*
X62025Y444436D01*
X60619Y443030D01*
X59858Y441192D01*
Y439203D01*
X60619Y437365D01*
X62025Y435959D01*
X63863Y435197D01*
X65852D01*
X67690Y435959D01*
X69096Y437365D01*
X69858Y439203D01*
Y441192D01*
X69096Y443030D01*
X67690Y444436D01*
X65852Y445197D01*
Y447191D01*
X67690Y447952D01*
X69096Y449359D01*
X69858Y451197D01*
Y453186D01*
X69096Y455023D01*
X67690Y456430D01*
X65852Y457191D01*
D02*
G37*
G36*
X22726Y420767D02*
X20737D01*
X18899Y420006D01*
X17492Y418600D01*
X16731Y416762D01*
Y414773D01*
X17492Y412935D01*
X18899Y411529D01*
X20737Y410767D01*
X22726D01*
X24564Y411529D01*
X25970Y412935D01*
X26731Y414773D01*
Y416762D01*
X25970Y418600D01*
X24564Y420006D01*
X22726Y420767D01*
D02*
G37*
G36*
X237768Y423372D02*
X237065D01*
Y409372D01*
X251065D01*
Y410075D01*
X250498Y412924D01*
X249386Y415609D01*
X247772Y418024D01*
X245718Y420079D01*
X243302Y421693D01*
X240618Y422805D01*
X237768Y423372D01*
D02*
G37*
G36*
X186968D02*
X186265D01*
Y409372D01*
X200265D01*
Y410075D01*
X199698Y412924D01*
X198586Y415609D01*
X196972Y418024D01*
X194918Y420079D01*
X192502Y421693D01*
X189818Y422805D01*
X186968Y423372D01*
D02*
G37*
G36*
X235565D02*
X234862D01*
X232013Y422805D01*
X229328Y421693D01*
X226913Y420079D01*
X224858Y418024D01*
X223244Y415609D01*
X222132Y412924D01*
X221565Y410075D01*
Y409372D01*
X235565D01*
Y423372D01*
D02*
G37*
G36*
X184765D02*
X184062D01*
X181213Y422805D01*
X178528Y421693D01*
X176113Y420079D01*
X174058Y418024D01*
X172444Y415609D01*
X171332Y412924D01*
X170765Y410075D01*
Y409372D01*
X184765D01*
Y423372D01*
D02*
G37*
G36*
X110968D02*
X110265D01*
Y409372D01*
X124265D01*
Y410075D01*
X123698Y412924D01*
X122586Y415609D01*
X120972Y418024D01*
X118918Y420079D01*
X116502Y421693D01*
X113818Y422805D01*
X110968Y423372D01*
D02*
G37*
G36*
X60168D02*
X59465D01*
Y409372D01*
X73465D01*
Y410075D01*
X72898Y412924D01*
X71786Y415609D01*
X70172Y418024D01*
X68118Y420079D01*
X65702Y421693D01*
X63018Y422805D01*
X60168Y423372D01*
D02*
G37*
G36*
X108765D02*
X108062D01*
X105213Y422805D01*
X102528Y421693D01*
X100113Y420079D01*
X98058Y418024D01*
X96444Y415609D01*
X95332Y412924D01*
X94765Y410075D01*
Y409372D01*
X108765D01*
Y423372D01*
D02*
G37*
G36*
X57965D02*
X57262D01*
X54413Y422805D01*
X51728Y421693D01*
X49313Y420079D01*
X47258Y418024D01*
X45644Y415609D01*
X44532Y412924D01*
X43965Y410075D01*
Y409372D01*
X57965D01*
Y423372D01*
D02*
G37*
G36*
X251065Y407872D02*
X237065D01*
Y393872D01*
X237768D01*
X240618Y394439D01*
X243302Y395551D01*
X245718Y397165D01*
X247772Y399219D01*
X249386Y401635D01*
X250498Y404319D01*
X251065Y407169D01*
Y407872D01*
D02*
G37*
G36*
X235565D02*
X221565D01*
Y407169D01*
X222132Y404319D01*
X223244Y401635D01*
X224858Y399219D01*
X226913Y397165D01*
X229328Y395551D01*
X232013Y394439D01*
X234862Y393872D01*
X235565D01*
Y407872D01*
D02*
G37*
G36*
X200265D02*
X186265D01*
Y393872D01*
X186968D01*
X189818Y394439D01*
X192502Y395551D01*
X194918Y397165D01*
X196972Y399219D01*
X198586Y401635D01*
X199698Y404319D01*
X200265Y407169D01*
Y407872D01*
D02*
G37*
G36*
X184765D02*
X170765D01*
Y407169D01*
X171332Y404319D01*
X172444Y401635D01*
X174058Y399219D01*
X176113Y397165D01*
X178528Y395551D01*
X181213Y394439D01*
X184062Y393872D01*
X184765D01*
Y407872D01*
D02*
G37*
G36*
X124265Y407872D02*
X110265D01*
Y393872D01*
X110968D01*
X113818Y394439D01*
X116502Y395551D01*
X118918Y397165D01*
X120972Y399219D01*
X122586Y401635D01*
X123698Y404319D01*
X124265Y407169D01*
Y407872D01*
D02*
G37*
G36*
X108765D02*
X94765D01*
Y407169D01*
X95332Y404319D01*
X96444Y401635D01*
X98058Y399219D01*
X100113Y397165D01*
X102528Y395551D01*
X105213Y394439D01*
X108062Y393872D01*
X108765D01*
Y407872D01*
D02*
G37*
G36*
X73465D02*
X59465D01*
Y393872D01*
X60168D01*
X63018Y394439D01*
X65702Y395551D01*
X68118Y397165D01*
X70172Y399219D01*
X71786Y401635D01*
X72898Y404319D01*
X73465Y407169D01*
Y407872D01*
D02*
G37*
G36*
X57965D02*
X43965D01*
Y407169D01*
X44532Y404319D01*
X45644Y401635D01*
X47258Y399219D01*
X49313Y397165D01*
X51728Y395551D01*
X54413Y394439D01*
X57262Y393872D01*
X57965D01*
Y407872D01*
D02*
G37*
G36*
X829949Y403520D02*
X827959D01*
X826122Y402759D01*
X824715Y401352D01*
X823954Y399514D01*
Y397525D01*
X824715Y395687D01*
X826122Y394281D01*
X827959Y393520D01*
X829949D01*
X831786Y394281D01*
X833193Y395687D01*
X833954Y397525D01*
Y399514D01*
X833193Y401352D01*
X831786Y402759D01*
X829949Y403520D01*
D02*
G37*
G36*
X476073Y401701D02*
X474084D01*
X472246Y400939D01*
X470840Y399533D01*
X470078Y397695D01*
Y395706D01*
X470840Y393868D01*
X472246Y392462D01*
X474084Y391701D01*
X476073D01*
X477911Y392462D01*
X479317Y393868D01*
X480078Y395706D01*
Y397695D01*
X479317Y399533D01*
X477911Y400939D01*
X476073Y401701D01*
D02*
G37*
G36*
X501987Y374646D02*
X499998D01*
X498161Y373885D01*
X496754Y372478D01*
X496575Y372047D01*
X494411D01*
X494232Y372478D01*
X492825Y373885D01*
X490988Y374646D01*
X488998D01*
X487161Y373885D01*
X485754Y372478D01*
X485575Y372047D01*
X483411D01*
X483232Y372478D01*
X481825Y373885D01*
X479987Y374646D01*
X477998D01*
X476161Y373885D01*
X474754Y372478D01*
X473993Y370640D01*
Y368651D01*
X474754Y366814D01*
X476161Y365407D01*
X476592Y365228D01*
Y363064D01*
X476161Y362885D01*
X474754Y361478D01*
X473993Y359641D01*
Y357651D01*
X474754Y355814D01*
X476161Y354407D01*
X476592Y354228D01*
Y352064D01*
X476161Y351885D01*
X474754Y350478D01*
X473993Y348641D01*
Y346651D01*
X474754Y344814D01*
X476161Y343407D01*
X477998Y342646D01*
X479987D01*
X481825Y343407D01*
X483232Y344814D01*
X483411Y345245D01*
X485575D01*
X485754Y344814D01*
X487161Y343407D01*
X488998Y342646D01*
X490988D01*
X492825Y343407D01*
X494232Y344814D01*
X494411Y345245D01*
X496575D01*
X496754Y344814D01*
X498161Y343407D01*
X499998Y342646D01*
X501987D01*
X503825Y343407D01*
X505232Y344814D01*
X505993Y346651D01*
Y348641D01*
X505232Y350478D01*
X503825Y351885D01*
X503394Y352064D01*
Y354228D01*
X503825Y354407D01*
X505232Y355814D01*
X505993Y357651D01*
Y359641D01*
X505232Y361478D01*
X503825Y362885D01*
X503394Y363064D01*
Y365228D01*
X503825Y365407D01*
X505232Y366814D01*
X505993Y368651D01*
Y370640D01*
X505232Y372478D01*
X503825Y373885D01*
X501987Y374646D01*
D02*
G37*
G36*
X856105Y374527D02*
X854116D01*
X852279Y373766D01*
X850872Y372359D01*
X850693Y371928D01*
X848529D01*
X848350Y372359D01*
X846943Y373766D01*
X845105Y374527D01*
X843116D01*
X841279Y373766D01*
X839872Y372359D01*
X839693Y371927D01*
X837529D01*
X837350Y372359D01*
X835943Y373766D01*
X834105Y374527D01*
X832116D01*
X830279Y373766D01*
X828872Y372359D01*
X828111Y370522D01*
Y368532D01*
X828872Y366695D01*
X830279Y365288D01*
X830710Y365109D01*
Y362945D01*
X830279Y362766D01*
X828872Y361359D01*
X828111Y359521D01*
Y357532D01*
X828872Y355695D01*
X830279Y354288D01*
X830710Y354109D01*
Y351945D01*
X830279Y351766D01*
X828872Y350359D01*
X828111Y348521D01*
Y346532D01*
X828872Y344695D01*
X830279Y343288D01*
X832116Y342527D01*
X834105D01*
X835943Y343288D01*
X837350Y344695D01*
X837529Y345126D01*
X839693D01*
X839872Y344695D01*
X841279Y343288D01*
X843116Y342527D01*
X845105D01*
X846943Y343288D01*
X848350Y344695D01*
X848529Y345126D01*
X850693D01*
X850872Y344695D01*
X852279Y343288D01*
X854116Y342527D01*
X856105D01*
X857943Y343288D01*
X859350Y344695D01*
X860111Y346532D01*
Y348521D01*
X859350Y350359D01*
X857943Y351766D01*
X857511Y351945D01*
Y354109D01*
X857943Y354288D01*
X859350Y355695D01*
X860111Y357532D01*
Y359521D01*
X859350Y361359D01*
X857943Y362766D01*
X857512Y362945D01*
Y365109D01*
X857943Y365288D01*
X859350Y366695D01*
X860111Y368532D01*
Y370522D01*
X859350Y372359D01*
X857943Y373766D01*
X856105Y374527D01*
D02*
G37*
G36*
X212659Y396472D02*
X209171D01*
X205801Y395569D01*
X202780Y393825D01*
X200312Y391358D01*
X198568Y388336D01*
X197665Y384966D01*
Y381478D01*
X198568Y378108D01*
X200312Y375086D01*
X202780Y372619D01*
X205801Y370875D01*
X209171Y369972D01*
X212659D01*
X216029Y370875D01*
X219051Y372619D01*
X221518Y375086D01*
X223262Y378108D01*
X224165Y381478D01*
Y384966D01*
X223262Y388336D01*
X221518Y391358D01*
X219051Y393825D01*
X216029Y395569D01*
X212659Y396472D01*
D02*
G37*
G36*
X85859D02*
X82371D01*
X79001Y395569D01*
X75979Y393825D01*
X73513Y391358D01*
X71768Y388336D01*
X70865Y384966D01*
Y381478D01*
X71768Y378108D01*
X73513Y375086D01*
X75979Y372619D01*
X79001Y370875D01*
X82371Y369972D01*
X85859D01*
X89229Y370875D01*
X92251Y372619D01*
X94718Y375086D01*
X96462Y378108D01*
X97365Y381478D01*
Y384966D01*
X96462Y388336D01*
X94718Y391358D01*
X92251Y393825D01*
X89229Y395569D01*
X85859Y396472D01*
D02*
G37*
G36*
X752995Y473500D02*
X751005D01*
X749168Y472739D01*
X747761Y471332D01*
X747000Y469495D01*
Y467505D01*
X747761Y465668D01*
X748941Y464488D01*
Y417481D01*
X748941Y417480D01*
X749174Y416310D01*
X749837Y415317D01*
X793402Y371753D01*
Y370084D01*
X794163Y368246D01*
X795569Y366840D01*
X797407Y366079D01*
X799396D01*
X801234Y366840D01*
X802640Y368246D01*
X803402Y370084D01*
Y372073D01*
X802640Y373911D01*
X801234Y375317D01*
X799396Y376079D01*
X797727D01*
X755059Y418747D01*
Y464488D01*
X756239Y465668D01*
X757000Y467505D01*
Y469495D01*
X756239Y471332D01*
X754832Y472739D01*
X752995Y473500D01*
D02*
G37*
G36*
X237768Y372572D02*
X237065D01*
Y358572D01*
X251065D01*
Y359275D01*
X250498Y362124D01*
X249386Y364809D01*
X247772Y367225D01*
X245718Y369279D01*
X243302Y370893D01*
X240618Y372005D01*
X237768Y372572D01*
D02*
G37*
G36*
X186968D02*
X186265D01*
Y358572D01*
X200265D01*
Y359275D01*
X199698Y362124D01*
X198586Y364809D01*
X196972Y367225D01*
X194918Y369279D01*
X192502Y370893D01*
X189818Y372005D01*
X186968Y372572D01*
D02*
G37*
G36*
X235565D02*
X234862D01*
X232013Y372005D01*
X229328Y370893D01*
X226913Y369279D01*
X224858Y367225D01*
X223244Y364809D01*
X222132Y362124D01*
X221565Y359275D01*
Y358572D01*
X235565D01*
Y372572D01*
D02*
G37*
G36*
X184765D02*
X184062D01*
X181213Y372005D01*
X178528Y370893D01*
X176113Y369279D01*
X174058Y367225D01*
X172444Y364809D01*
X171332Y362124D01*
X170765Y359275D01*
Y358572D01*
X184765D01*
Y372572D01*
D02*
G37*
G36*
X110968D02*
X110265D01*
Y358572D01*
X124265D01*
Y359275D01*
X123698Y362124D01*
X122586Y364809D01*
X120972Y367225D01*
X118918Y369279D01*
X116502Y370893D01*
X113818Y372005D01*
X110968Y372572D01*
D02*
G37*
G36*
X60168D02*
X59465D01*
Y358572D01*
X73465D01*
Y359275D01*
X72898Y362124D01*
X71786Y364809D01*
X70172Y367225D01*
X68118Y369279D01*
X65702Y370893D01*
X63018Y372005D01*
X60168Y372572D01*
D02*
G37*
G36*
X108765D02*
X108062D01*
X105213Y372005D01*
X102528Y370893D01*
X100113Y369279D01*
X98058Y367225D01*
X96444Y364809D01*
X95332Y362124D01*
X94765Y359275D01*
Y358572D01*
X108765D01*
Y372572D01*
D02*
G37*
G36*
X57965D02*
X57262D01*
X54413Y372005D01*
X51728Y370893D01*
X49313Y369279D01*
X47258Y367225D01*
X45644Y364809D01*
X44532Y362124D01*
X43965Y359275D01*
Y358572D01*
X57965D01*
Y372572D01*
D02*
G37*
G36*
X251065Y357072D02*
X237065D01*
Y343072D01*
X237768D01*
X240618Y343639D01*
X243302Y344751D01*
X245718Y346365D01*
X247772Y348419D01*
X249386Y350835D01*
X250498Y353520D01*
X251065Y356369D01*
Y357072D01*
D02*
G37*
G36*
X235565D02*
X221565D01*
Y356369D01*
X222132Y353520D01*
X223244Y350835D01*
X224858Y348419D01*
X226913Y346365D01*
X229328Y344751D01*
X232013Y343639D01*
X234862Y343072D01*
X235565D01*
Y357072D01*
D02*
G37*
G36*
X200265D02*
X186265D01*
Y343072D01*
X186968D01*
X189818Y343639D01*
X192502Y344751D01*
X194918Y346365D01*
X196972Y348419D01*
X198586Y350835D01*
X199698Y353520D01*
X200265Y356369D01*
Y357072D01*
D02*
G37*
G36*
X184765D02*
X170765D01*
Y356369D01*
X171332Y353520D01*
X172444Y350835D01*
X174058Y348419D01*
X176113Y346365D01*
X178528Y344751D01*
X181213Y343639D01*
X184062Y343072D01*
X184765D01*
Y357072D01*
D02*
G37*
G36*
X124265Y357072D02*
X110265D01*
Y343072D01*
X110968D01*
X113818Y343639D01*
X116502Y344751D01*
X118918Y346365D01*
X120972Y348419D01*
X122586Y350835D01*
X123698Y353520D01*
X124265Y356369D01*
Y357072D01*
D02*
G37*
G36*
X108765D02*
X94765D01*
Y356369D01*
X95332Y353520D01*
X96444Y350835D01*
X98058Y348419D01*
X100113Y346365D01*
X102528Y344751D01*
X105213Y343639D01*
X108062Y343072D01*
X108765D01*
Y357072D01*
D02*
G37*
G36*
X73465D02*
X59465D01*
Y343072D01*
X60168D01*
X63018Y343639D01*
X65702Y344751D01*
X68118Y346365D01*
X70172Y348419D01*
X71786Y350835D01*
X72898Y353520D01*
X73465Y356369D01*
Y357072D01*
D02*
G37*
G36*
X57965D02*
X43965D01*
Y356369D01*
X44532Y353520D01*
X45644Y350835D01*
X47258Y348419D01*
X49313Y346365D01*
X51728Y344751D01*
X54413Y343639D01*
X57262Y343072D01*
X57965D01*
Y357072D01*
D02*
G37*
G36*
X437995Y349000D02*
X436005D01*
X434168Y348239D01*
X432761Y346832D01*
X432000Y344995D01*
Y343005D01*
X432761Y341168D01*
X434168Y339761D01*
X436005Y339000D01*
X437995D01*
X439832Y339761D01*
X441239Y341168D01*
X442000Y343005D01*
Y344995D01*
X441239Y346832D01*
X439832Y348239D01*
X437995Y349000D01*
D02*
G37*
G36*
X790951Y348250D02*
X788962D01*
X787124Y347489D01*
X785718Y346082D01*
X784957Y344245D01*
Y342255D01*
X785718Y340418D01*
X787124Y339011D01*
X788962Y338250D01*
X790951D01*
X792789Y339011D01*
X794195Y340418D01*
X794957Y342255D01*
Y344245D01*
X794195Y346082D01*
X792789Y347489D01*
X790951Y348250D01*
D02*
G37*
G36*
X572259Y323618D02*
X570270D01*
X568432Y322857D01*
X567025Y321450D01*
X566264Y319612D01*
Y317623D01*
X567025Y315786D01*
X568432Y314379D01*
X570270Y313618D01*
X572259D01*
X574096Y314379D01*
X575503Y315786D01*
X576264Y317623D01*
Y319612D01*
X575503Y321450D01*
X574096Y322857D01*
X572259Y323618D01*
D02*
G37*
G36*
X656493Y323516D02*
X654504D01*
X652666Y322755D01*
X651260Y321348D01*
X650499Y319510D01*
Y317521D01*
X651260Y315684D01*
X652666Y314277D01*
X654504Y313516D01*
X656493D01*
X658331Y314277D01*
X659737Y315684D01*
X660499Y317521D01*
Y319510D01*
X659737Y321348D01*
X658331Y322755D01*
X656493Y323516D01*
D02*
G37*
G36*
X622465Y323500D02*
X620476D01*
X618638Y322739D01*
X617231Y321332D01*
X616470Y319495D01*
Y317505D01*
X617231Y315668D01*
X618638Y314261D01*
X620476Y313500D01*
X622465D01*
X624302Y314261D01*
X625709Y315668D01*
X626470Y317505D01*
Y319495D01*
X625709Y321332D01*
X624302Y322739D01*
X622465Y323500D01*
D02*
G37*
G36*
X300745D02*
X298755D01*
X296918Y322739D01*
X295511Y321332D01*
X294750Y319495D01*
Y317505D01*
X295511Y315668D01*
X296918Y314261D01*
X298755Y313500D01*
X300745D01*
X302582Y314261D01*
X303989Y315668D01*
X304750Y317505D01*
Y319495D01*
X303989Y321332D01*
X302582Y322739D01*
X300745Y323500D01*
D02*
G37*
G36*
X267995D02*
X266005D01*
X264168Y322739D01*
X262761Y321332D01*
X262000Y319495D01*
Y317505D01*
X262761Y315668D01*
X264168Y314261D01*
X266005Y313500D01*
X267995D01*
X269832Y314261D01*
X271239Y315668D01*
X272000Y317505D01*
Y319495D01*
X271239Y321332D01*
X269832Y322739D01*
X267995Y323500D01*
D02*
G37*
G36*
X213242D02*
X211253D01*
X209416Y322739D01*
X208009Y321332D01*
X207248Y319495D01*
Y317505D01*
X208009Y315668D01*
X209416Y314261D01*
X211253Y313500D01*
X213242D01*
X215080Y314261D01*
X216487Y315668D01*
X217248Y317505D01*
Y319495D01*
X216487Y321332D01*
X215080Y322739D01*
X213242Y323500D01*
D02*
G37*
G36*
X821291Y316059D02*
X819302D01*
X817464Y315298D01*
X816058Y313892D01*
X815296Y312054D01*
Y310065D01*
X816058Y308227D01*
X817464Y306821D01*
X819302Y306059D01*
X821291D01*
X823129Y306821D01*
X824535Y308227D01*
X825296Y310065D01*
Y312054D01*
X824535Y313892D01*
X823129Y315298D01*
X821291Y316059D01*
D02*
G37*
G36*
X795291D02*
X793302D01*
X791464Y315298D01*
X790058Y313892D01*
X789296Y312054D01*
Y310065D01*
X790058Y308227D01*
X791464Y306821D01*
X793302Y306059D01*
X795291D01*
X797129Y306821D01*
X798535Y308227D01*
X799296Y310065D01*
Y312054D01*
X798535Y313892D01*
X797129Y315298D01*
X795291Y316059D01*
D02*
G37*
G36*
X438167Y312582D02*
X436178D01*
X434340Y311821D01*
X432934Y310415D01*
X432173Y308577D01*
Y306588D01*
X432934Y304750D01*
X434340Y303344D01*
X436178Y302583D01*
X438167D01*
X440005Y303344D01*
X441411Y304750D01*
X442173Y306588D01*
Y308577D01*
X441411Y310415D01*
X440005Y311821D01*
X438167Y312582D01*
D02*
G37*
G36*
X519244Y311615D02*
X517255D01*
X515417Y310854D01*
X514011Y309447D01*
X513250Y307610D01*
Y305620D01*
X514011Y303783D01*
X515417Y302376D01*
X517255Y301615D01*
X519244D01*
X521082Y302376D01*
X522489Y303783D01*
X523250Y305620D01*
Y307610D01*
X522489Y309447D01*
X521082Y310854D01*
X519244Y311615D01*
D02*
G37*
G36*
X464934D02*
X462944D01*
X461107Y310854D01*
X459700Y309447D01*
X458939Y307610D01*
Y305620D01*
X459700Y303783D01*
X461107Y302376D01*
X462944Y301615D01*
X464934D01*
X466771Y302376D01*
X468178Y303783D01*
X468939Y305620D01*
Y307610D01*
X468178Y309447D01*
X466771Y310854D01*
X464934Y311615D01*
D02*
G37*
G36*
X873362Y311496D02*
X871373D01*
X869535Y310735D01*
X868129Y309328D01*
X867368Y307491D01*
Y305501D01*
X868129Y303664D01*
X869535Y302257D01*
X871373Y301496D01*
X873362D01*
X875200Y302257D01*
X876606Y303664D01*
X877368Y305501D01*
Y307491D01*
X876606Y309328D01*
X875200Y310735D01*
X873362Y311496D01*
D02*
G37*
G36*
X395930Y296500D02*
X393941D01*
X392103Y295739D01*
X390697Y294332D01*
X388660D01*
X387253Y295739D01*
X385416Y296500D01*
X383427D01*
X381589Y295739D01*
X380182Y294332D01*
X379421Y292495D01*
Y290506D01*
X380182Y288668D01*
X381589Y287261D01*
X383427Y286500D01*
X385416D01*
X387253Y287261D01*
X388660Y288668D01*
X390697D01*
X392103Y287261D01*
X393941Y286500D01*
X395930D01*
X397768Y287261D01*
X399174Y288668D01*
X399936Y290506D01*
Y292495D01*
X399174Y294332D01*
X397768Y295739D01*
X395930Y296500D01*
D02*
G37*
G36*
X750048Y296295D02*
X748059D01*
X746221Y295534D01*
X744815Y294127D01*
X742778D01*
X741371Y295534D01*
X739533Y296295D01*
X737544D01*
X735707Y295534D01*
X734300Y294127D01*
X733539Y292289D01*
Y290300D01*
X734300Y288463D01*
X735707Y287056D01*
X737544Y286295D01*
X739533D01*
X741371Y287056D01*
X742778Y288463D01*
X744815D01*
X746221Y287056D01*
X748059Y286295D01*
X750048D01*
X751886Y287056D01*
X753292Y288463D01*
X754054Y290300D01*
Y292289D01*
X753292Y294127D01*
X751886Y295534D01*
X750048Y296295D01*
D02*
G37*
G36*
X568838Y283750D02*
X566849D01*
X565011Y282989D01*
X563604Y281582D01*
X562843Y279745D01*
Y277756D01*
X563604Y275918D01*
X565011Y274511D01*
X566849Y273750D01*
X568838D01*
X570676Y274511D01*
X572082Y275918D01*
X572843Y277756D01*
Y279745D01*
X572082Y281582D01*
X570676Y282989D01*
X568838Y283750D01*
D02*
G37*
G36*
X212995D02*
X211005D01*
X209168Y282989D01*
X207761Y281582D01*
X207000Y279745D01*
Y277756D01*
X207761Y275918D01*
X209168Y274511D01*
X211005Y273750D01*
X212995D01*
X214832Y274511D01*
X216239Y275918D01*
X217000Y277756D01*
Y279745D01*
X216239Y281582D01*
X214832Y282989D01*
X212995Y283750D01*
D02*
G37*
G36*
X964922Y281460D02*
X963078D01*
X961298Y280983D01*
X959702Y280061D01*
X958399Y278758D01*
X957477Y277162D01*
X957000Y275382D01*
Y273538D01*
X957477Y271758D01*
X958399Y270162D01*
X959702Y268859D01*
X961298Y267937D01*
X963078Y267460D01*
X964922D01*
X966702Y267937D01*
X968298Y268859D01*
X969601Y270162D01*
X970523Y271758D01*
X971000Y273538D01*
Y275382D01*
X970523Y277162D01*
X969601Y278758D01*
X968298Y280061D01*
X966702Y280983D01*
X964922Y281460D01*
D02*
G37*
G36*
X568838Y243261D02*
X566849D01*
X565011Y242500D01*
X563604Y241093D01*
X562843Y239255D01*
Y237266D01*
X563604Y235429D01*
X565011Y234022D01*
X566849Y233261D01*
X568838D01*
X570676Y234022D01*
X572082Y235429D01*
X572843Y237266D01*
Y239255D01*
X572082Y241093D01*
X570676Y242500D01*
X568838Y243261D01*
D02*
G37*
G36*
X212699Y243260D02*
X210710D01*
X208872Y242499D01*
X207465Y241092D01*
X206704Y239255D01*
Y237265D01*
X207465Y235428D01*
X208872Y234021D01*
X210710Y233260D01*
X212699D01*
X214537Y234021D01*
X215943Y235428D01*
X216704Y237265D01*
Y239255D01*
X215943Y241092D01*
X214537Y242499D01*
X212699Y243260D01*
D02*
G37*
G36*
X272915Y243170D02*
X270926D01*
X269088Y242409D01*
X267681Y241002D01*
X266920Y239165D01*
Y237176D01*
X267681Y235338D01*
X269088Y233931D01*
X270926Y233170D01*
X272915D01*
X274752Y233931D01*
X276159Y235338D01*
X276920Y237176D01*
Y239165D01*
X276159Y241002D01*
X274752Y242409D01*
X272915Y243170D01*
D02*
G37*
G36*
X627245Y243158D02*
X625255D01*
X623418Y242397D01*
X622011Y240991D01*
X621250Y239153D01*
Y237164D01*
X622011Y235326D01*
X623418Y233919D01*
X625255Y233158D01*
X627245D01*
X629082Y233919D01*
X630489Y235326D01*
X631250Y237164D01*
Y239153D01*
X630489Y240991D01*
X629082Y242397D01*
X627245Y243158D01*
D02*
G37*
G36*
X800643Y236965D02*
X797483D01*
X794431Y236147D01*
X791695Y234567D01*
X789461Y232333D01*
X787881Y229597D01*
X787063Y226545D01*
Y223385D01*
X787881Y220333D01*
X789461Y217597D01*
X791695Y215362D01*
X794431Y213783D01*
X797483Y212965D01*
X800643D01*
X803695Y213783D01*
X806431Y215362D01*
X808666Y217597D01*
X810245Y220333D01*
X811063Y223385D01*
Y226545D01*
X810245Y229597D01*
X808666Y232333D01*
X806431Y234567D01*
X803695Y236147D01*
X800643Y236965D01*
D02*
G37*
G36*
X205223Y213450D02*
X204520D01*
Y199450D01*
X218520D01*
Y200153D01*
X217953Y203002D01*
X216841Y205687D01*
X215227Y208103D01*
X213173Y210157D01*
X210757Y211771D01*
X208072Y212883D01*
X205223Y213450D01*
D02*
G37*
G36*
X154423D02*
X153720D01*
Y199450D01*
X167720D01*
Y200153D01*
X167153Y203002D01*
X166041Y205687D01*
X164427Y208103D01*
X162373Y210157D01*
X159957Y211771D01*
X157272Y212883D01*
X154423Y213450D01*
D02*
G37*
G36*
X203020D02*
X202317D01*
X199468Y212883D01*
X196783Y211771D01*
X194368Y210157D01*
X192313Y208103D01*
X190699Y205687D01*
X189587Y203002D01*
X189020Y200153D01*
Y199450D01*
X203020D01*
Y213450D01*
D02*
G37*
G36*
X152220D02*
X151517D01*
X148668Y212883D01*
X145983Y211771D01*
X143567Y210157D01*
X141513Y208103D01*
X139899Y205687D01*
X138787Y203002D01*
X138220Y200153D01*
Y199450D01*
X152220D01*
Y213450D01*
D02*
G37*
G36*
X561363Y213335D02*
X560660D01*
Y199335D01*
X574660D01*
Y200038D01*
X574093Y202887D01*
X572981Y205572D01*
X571367Y207987D01*
X569313Y210042D01*
X566897Y211656D01*
X564212Y212768D01*
X561363Y213335D01*
D02*
G37*
G36*
X510563D02*
X509860D01*
Y199335D01*
X523860D01*
Y200038D01*
X523293Y202887D01*
X522181Y205572D01*
X520567Y207987D01*
X518513Y210042D01*
X516097Y211656D01*
X513412Y212768D01*
X510563Y213335D01*
D02*
G37*
G36*
X559160D02*
X558457D01*
X555608Y212768D01*
X552923Y211656D01*
X550507Y210042D01*
X548453Y207987D01*
X546839Y205572D01*
X545727Y202887D01*
X545160Y200038D01*
Y199335D01*
X559160D01*
Y213335D01*
D02*
G37*
G36*
X508360D02*
X507657D01*
X504808Y212768D01*
X502123Y211656D01*
X499707Y210042D01*
X497653Y207987D01*
X496039Y205572D01*
X494927Y202887D01*
X494360Y200038D01*
Y199335D01*
X508360D01*
Y213335D01*
D02*
G37*
G36*
X218520Y197950D02*
X204520D01*
Y183950D01*
X205223D01*
X208072Y184517D01*
X210757Y185629D01*
X213173Y187243D01*
X215227Y189297D01*
X216841Y191713D01*
X217953Y194398D01*
X218520Y197247D01*
Y197950D01*
D02*
G37*
G36*
X203020D02*
X189020D01*
Y197247D01*
X189587Y194398D01*
X190699Y191713D01*
X192313Y189297D01*
X194368Y187243D01*
X196783Y185629D01*
X199468Y184517D01*
X202317Y183950D01*
X203020D01*
Y197950D01*
D02*
G37*
G36*
X167720D02*
X153720D01*
Y183950D01*
X154423D01*
X157272Y184517D01*
X159957Y185629D01*
X162373Y187243D01*
X164427Y189297D01*
X166041Y191713D01*
X167153Y194398D01*
X167720Y197247D01*
Y197950D01*
D02*
G37*
G36*
X152220D02*
X138220D01*
Y197247D01*
X138787Y194398D01*
X139899Y191713D01*
X141513Y189297D01*
X143567Y187243D01*
X145983Y185629D01*
X148668Y184517D01*
X151517Y183950D01*
X152220D01*
Y197950D01*
D02*
G37*
G36*
X574660Y197835D02*
X560660D01*
Y183835D01*
X561363D01*
X564212Y184402D01*
X566897Y185514D01*
X569313Y187128D01*
X571367Y189182D01*
X572981Y191598D01*
X574093Y194282D01*
X574660Y197132D01*
Y197835D01*
D02*
G37*
G36*
X559160D02*
X545160D01*
Y197132D01*
X545727Y194282D01*
X546839Y191598D01*
X548453Y189182D01*
X550507Y187128D01*
X552923Y185514D01*
X555608Y184402D01*
X558457Y183835D01*
X559160D01*
Y197835D01*
D02*
G37*
G36*
X523860D02*
X509860D01*
Y183835D01*
X510563D01*
X513412Y184402D01*
X516097Y185514D01*
X518513Y187128D01*
X520567Y189182D01*
X522181Y191598D01*
X523293Y194282D01*
X523860Y197132D01*
Y197835D01*
D02*
G37*
G36*
X508360D02*
X494360D01*
Y197132D01*
X494927Y194282D01*
X496039Y191598D01*
X497653Y189182D01*
X499707Y187128D01*
X502123Y185514D01*
X504808Y184402D01*
X507657Y183835D01*
X508360D01*
Y197835D01*
D02*
G37*
G36*
X394278Y170762D02*
X392289D01*
X390451Y170001D01*
X389045Y168594D01*
X388283Y166757D01*
Y164767D01*
X389045Y162930D01*
X390451Y161523D01*
X392289Y160762D01*
X394278D01*
X396116Y161523D01*
X397522Y162930D01*
X398283Y164767D01*
Y166757D01*
X397522Y168594D01*
X396116Y170001D01*
X394278Y170762D01*
D02*
G37*
G36*
X180114Y186550D02*
X176626D01*
X173256Y185647D01*
X170234Y183903D01*
X167767Y181436D01*
X166023Y178414D01*
X165120Y175044D01*
Y171556D01*
X166023Y168186D01*
X167767Y165164D01*
X170234Y162697D01*
X173256Y160953D01*
X176626Y160050D01*
X180114D01*
X183484Y160953D01*
X186506Y162697D01*
X188973Y165164D01*
X190717Y168186D01*
X191620Y171556D01*
Y175044D01*
X190717Y178414D01*
X188973Y181436D01*
X186506Y183903D01*
X183484Y185647D01*
X180114Y186550D01*
D02*
G37*
G36*
X536254Y186435D02*
X532766D01*
X529396Y185532D01*
X526374Y183787D01*
X523907Y181321D01*
X522163Y178299D01*
X521260Y174929D01*
Y171441D01*
X522163Y168071D01*
X523907Y165049D01*
X526374Y162582D01*
X529396Y160838D01*
X532766Y159935D01*
X536254D01*
X539624Y160838D01*
X542646Y162582D01*
X545113Y165049D01*
X546857Y168071D01*
X547760Y171441D01*
Y174929D01*
X546857Y178299D01*
X545113Y181321D01*
X542646Y183787D01*
X539624Y185532D01*
X536254Y186435D01*
D02*
G37*
G36*
X205223Y162650D02*
X204520D01*
Y148650D01*
X218520D01*
Y149353D01*
X217953Y152202D01*
X216841Y154887D01*
X215227Y157303D01*
X213173Y159357D01*
X210757Y160971D01*
X208072Y162083D01*
X205223Y162650D01*
D02*
G37*
G36*
X154423D02*
X153720D01*
Y148650D01*
X167720D01*
Y149353D01*
X167153Y152202D01*
X166041Y154887D01*
X164427Y157303D01*
X162373Y159357D01*
X159957Y160971D01*
X157272Y162083D01*
X154423Y162650D01*
D02*
G37*
G36*
X203020D02*
X202317D01*
X199468Y162083D01*
X196783Y160971D01*
X194368Y159357D01*
X192313Y157303D01*
X190699Y154887D01*
X189587Y152202D01*
X189020Y149353D01*
Y148650D01*
X203020D01*
Y162650D01*
D02*
G37*
G36*
X152220D02*
X151517D01*
X148668Y162083D01*
X145983Y160971D01*
X143567Y159357D01*
X141513Y157303D01*
X139899Y154887D01*
X138787Y152202D01*
X138220Y149353D01*
Y148650D01*
X152220D01*
Y162650D01*
D02*
G37*
G36*
X561363Y162535D02*
X560660D01*
Y148535D01*
X574660D01*
Y149238D01*
X574093Y152087D01*
X572981Y154772D01*
X571367Y157188D01*
X569313Y159242D01*
X566897Y160856D01*
X564212Y161968D01*
X561363Y162535D01*
D02*
G37*
G36*
X510563D02*
X509860D01*
Y148535D01*
X523860D01*
Y149238D01*
X523293Y152087D01*
X522181Y154772D01*
X520567Y157188D01*
X518513Y159242D01*
X516097Y160856D01*
X513412Y161968D01*
X510563Y162535D01*
D02*
G37*
G36*
X559160D02*
X558457D01*
X555608Y161968D01*
X552923Y160856D01*
X550507Y159242D01*
X548453Y157188D01*
X546839Y154772D01*
X545727Y152087D01*
X545160Y149238D01*
Y148535D01*
X559160D01*
Y162535D01*
D02*
G37*
G36*
X508360D02*
X507657D01*
X504808Y161968D01*
X502123Y160856D01*
X499707Y159242D01*
X497653Y157188D01*
X496039Y154772D01*
X494927Y152087D01*
X494360Y149238D01*
Y148535D01*
X508360D01*
Y162535D01*
D02*
G37*
G36*
X218520Y147150D02*
X204520D01*
Y133150D01*
X205223D01*
X208072Y133717D01*
X210757Y134829D01*
X213173Y136443D01*
X215227Y138497D01*
X216841Y140913D01*
X217953Y143598D01*
X218520Y146447D01*
Y147150D01*
D02*
G37*
G36*
X203020D02*
X189020D01*
Y146447D01*
X189587Y143598D01*
X190699Y140913D01*
X192313Y138497D01*
X194368Y136443D01*
X196783Y134829D01*
X199468Y133717D01*
X202317Y133150D01*
X203020D01*
Y147150D01*
D02*
G37*
G36*
X167720D02*
X153720D01*
Y133150D01*
X154423D01*
X157272Y133717D01*
X159957Y134829D01*
X162373Y136443D01*
X164427Y138497D01*
X166041Y140913D01*
X167153Y143598D01*
X167720Y146447D01*
Y147150D01*
D02*
G37*
G36*
X152220D02*
X138220D01*
Y146447D01*
X138787Y143598D01*
X139899Y140913D01*
X141513Y138497D01*
X143567Y136443D01*
X145983Y134829D01*
X148668Y133717D01*
X151517Y133150D01*
X152220D01*
Y147150D01*
D02*
G37*
G36*
X574660Y147035D02*
X560660D01*
Y133035D01*
X561363D01*
X564212Y133602D01*
X566897Y134714D01*
X569313Y136328D01*
X571367Y138382D01*
X572981Y140798D01*
X574093Y143483D01*
X574660Y146332D01*
Y147035D01*
D02*
G37*
G36*
X559160D02*
X545160D01*
Y146332D01*
X545727Y143483D01*
X546839Y140798D01*
X548453Y138382D01*
X550507Y136328D01*
X552923Y134714D01*
X555608Y133602D01*
X558457Y133035D01*
X559160D01*
Y147035D01*
D02*
G37*
G36*
X523860D02*
X509860D01*
Y133035D01*
X510563D01*
X513412Y133602D01*
X516097Y134714D01*
X518513Y136328D01*
X520567Y138382D01*
X522181Y140798D01*
X523293Y143483D01*
X523860Y146332D01*
Y147035D01*
D02*
G37*
G36*
X508360D02*
X494360D01*
Y146332D01*
X494927Y143483D01*
X496039Y140798D01*
X497653Y138382D01*
X499707Y136328D01*
X502123Y134714D01*
X504808Y133602D01*
X507657Y133035D01*
X508360D01*
Y147035D01*
D02*
G37*
G36*
X801011Y118760D02*
X799168D01*
X797387Y118283D01*
X795791Y117361D01*
X794778Y116348D01*
X521551D01*
X520538Y117361D01*
X518942Y118283D01*
X517162Y118760D01*
X515318D01*
X513538Y118283D01*
X511942Y117361D01*
X510639Y116058D01*
X509717Y114462D01*
X509240Y112682D01*
Y110838D01*
X509717Y109058D01*
X510639Y107462D01*
X511942Y106159D01*
X513538Y105237D01*
X515318Y104760D01*
X517162D01*
X518942Y105237D01*
X520538Y106159D01*
X521551Y107172D01*
X794778D01*
X795791Y106159D01*
X797387Y105237D01*
X799168Y104760D01*
X801011D01*
X802791Y105237D01*
X804387Y106159D01*
X805691Y107462D01*
X806612Y109058D01*
X807089Y110838D01*
Y112682D01*
X806612Y114462D01*
X805691Y116058D01*
X804387Y117361D01*
X802791Y118283D01*
X801011Y118760D01*
D02*
G37*
G36*
X875659D02*
X873816D01*
X872035Y118283D01*
X870439Y117361D01*
X869136Y116058D01*
X868214Y114462D01*
X867737Y112682D01*
Y110838D01*
X868214Y109058D01*
X869136Y107462D01*
X870439Y106159D01*
X872035Y105237D01*
X873816Y104760D01*
X875659D01*
X877439Y105237D01*
X879035Y106159D01*
X880339Y107462D01*
X881260Y109058D01*
X881737Y110838D01*
Y112682D01*
X881260Y114462D01*
X880339Y116058D01*
X879035Y117361D01*
X877439Y118283D01*
X875659Y118760D01*
D02*
G37*
G36*
X849739Y83448D02*
X847896D01*
X846116Y82971D01*
X844519Y82049D01*
X843216Y80746D01*
X842294Y79149D01*
X841817Y77369D01*
Y75526D01*
X842294Y73746D01*
X843216Y72149D01*
X844519Y70846D01*
X846116Y69925D01*
X847896Y69447D01*
X849739D01*
X851519Y69925D01*
X853116Y70846D01*
X854419Y72149D01*
X855340Y73746D01*
X855817Y75526D01*
Y77369D01*
X855340Y79149D01*
X854419Y80746D01*
X853116Y82049D01*
X851519Y82971D01*
X849739Y83448D01*
D02*
G37*
G36*
X745869D02*
X744026D01*
X742246Y82971D01*
X740649Y82049D01*
X739346Y80746D01*
X738425Y79149D01*
X737947Y77369D01*
Y75526D01*
X738425Y73746D01*
X739346Y72149D01*
X740649Y70846D01*
X742246Y69925D01*
X744026Y69447D01*
X745869D01*
X747649Y69925D01*
X749246Y70846D01*
X750549Y72149D01*
X751470Y73746D01*
X751947Y75526D01*
Y77369D01*
X751470Y79149D01*
X750549Y80746D01*
X749246Y82049D01*
X747649Y82971D01*
X745869Y83448D01*
D02*
G37*
G36*
X372848Y68712D02*
X370859D01*
X369021Y67951D01*
X367615Y66544D01*
X366853Y64707D01*
Y62717D01*
X367615Y60880D01*
X369021Y59473D01*
X370859Y58712D01*
X372848D01*
X374686Y59473D01*
X376092Y60880D01*
X376853Y62717D01*
Y64707D01*
X376092Y66544D01*
X374686Y67951D01*
X372848Y68712D01*
D02*
G37*
G36*
X801084Y27741D02*
X799095D01*
X797257Y26979D01*
X795851Y25573D01*
X795089Y23735D01*
Y21746D01*
X795851Y19908D01*
X797257Y18502D01*
X799095Y17741D01*
X801084D01*
X802922Y18502D01*
X804328Y19908D01*
X805089Y21746D01*
Y23735D01*
X804328Y25573D01*
X802922Y26979D01*
X801084Y27741D01*
D02*
G37*
G36*
X967322Y64500D02*
X962678D01*
X958092Y63774D01*
X953676Y62339D01*
X949539Y60231D01*
X945782Y57501D01*
X942499Y54218D01*
X939769Y50461D01*
X937661Y46324D01*
X936226Y41908D01*
X935500Y37322D01*
Y32678D01*
X936226Y28092D01*
X937661Y23676D01*
X939769Y19539D01*
X942499Y15782D01*
X945782Y12499D01*
X949539Y9769D01*
X953676Y7661D01*
X958092Y6226D01*
X962678Y5500D01*
X967322D01*
X971908Y6226D01*
X976324Y7661D01*
X980461Y9769D01*
X984218Y12499D01*
X987501Y15782D01*
X990231Y19539D01*
X992339Y23676D01*
X993774Y28092D01*
X994500Y32678D01*
Y37322D01*
X993774Y41908D01*
X992339Y46324D01*
X990231Y50461D01*
X987501Y54218D01*
X984218Y57501D01*
X980461Y60231D01*
X976324Y62339D01*
X971908Y63774D01*
X967322Y64500D01*
D02*
G37*
G36*
X37322D02*
X32678D01*
X28092Y63774D01*
X23676Y62339D01*
X19539Y60231D01*
X15782Y57501D01*
X12499Y54218D01*
X9769Y50461D01*
X7661Y46324D01*
X6226Y41908D01*
X5500Y37322D01*
Y32678D01*
X6226Y28092D01*
X7661Y23676D01*
X9769Y19539D01*
X12499Y15782D01*
X15782Y12499D01*
X19539Y9769D01*
X23676Y7661D01*
X28092Y6226D01*
X32678Y5500D01*
X37322D01*
X41908Y6226D01*
X46324Y7661D01*
X50461Y9769D01*
X54218Y12499D01*
X57501Y15782D01*
X60231Y19539D01*
X62339Y23676D01*
X63774Y28092D01*
X64500Y32678D01*
Y37322D01*
X63774Y41908D01*
X62339Y46324D01*
X60231Y50461D01*
X57501Y54218D01*
X54218Y57501D01*
X50461Y60231D01*
X46324Y62339D01*
X41908Y63774D01*
X37322Y64500D01*
D02*
G37*
%LPD*%
D13*
X267759Y82577D02*
Y115462D01*
X275467Y114233D02*
X352482Y191248D01*
X275467Y89077D02*
Y114233D01*
X281923Y112039D02*
X357285Y187400D01*
X281923Y95365D02*
Y112039D01*
X451151Y480066D02*
X504335Y533251D01*
X752000Y417480D02*
Y468500D01*
Y417480D02*
X798402Y371079D01*
X450876Y480066D02*
X451151D01*
X444904Y371054D02*
Y563159D01*
X444859Y371009D02*
X444904Y371054D01*
X457328Y474551D02*
Y474958D01*
X508930Y526560D01*
Y526968D01*
X512655Y517754D02*
Y521104D01*
X512948Y521398D01*
X463901Y469001D02*
X512655Y517754D01*
X357285Y187400D02*
Y500356D01*
X352482Y191248D02*
Y502828D01*
X347533Y195236D02*
Y505303D01*
X267759Y115462D02*
X347533Y195236D01*
X297370Y190469D02*
Y234637D01*
X338290Y275557D02*
Y510859D01*
X297370Y234637D02*
X338290Y275557D01*
X333379Y277288D02*
Y513372D01*
X289965Y233874D02*
X333379Y277288D01*
X289965Y183969D02*
Y233874D01*
X352482Y502828D02*
X388900Y539246D01*
X347533Y505303D02*
X381564Y539335D01*
X388900Y539246D02*
Y539396D01*
X374006Y539275D02*
Y539335D01*
X366642Y539211D02*
Y539335D01*
X343072Y273216D02*
Y508341D01*
X304048Y196969D02*
Y234192D01*
X338290Y510859D02*
X366642Y539211D01*
X333379Y513372D02*
X359342Y539335D01*
X304048Y234192D02*
X343072Y273216D01*
X357285Y500356D02*
X396264Y539335D01*
X343072Y508341D02*
X374006Y539275D01*
X174707Y612506D02*
Y629025D01*
X174412Y612211D02*
X174707Y612506D01*
X538235Y534251D02*
X595009Y477477D01*
X595030D01*
X529511Y520926D02*
X583862Y466574D01*
X529204Y520926D02*
X529511D01*
X583862Y466574D02*
X584169D01*
X533840Y527968D02*
X589684Y472124D01*
X533569Y527968D02*
X533840D01*
X589684Y472124D02*
X589955D01*
X537889Y534251D02*
X538235D01*
X504335Y533251D02*
X504610D01*
X428244Y645713D02*
Y703272D01*
Y645713D02*
X433750Y640206D01*
X174707Y629025D02*
X175002Y629320D01*
X150409Y637000D02*
X182163D01*
X550734Y368601D02*
X670424Y488291D01*
X550665Y368601D02*
X550734D01*
X614849Y706377D02*
X660674Y660553D01*
X657424Y513424D02*
Y659207D01*
X537500Y393500D02*
X657424Y513424D01*
X667174Y492465D02*
Y663245D01*
X663924Y496640D02*
Y661899D01*
X654174Y521674D02*
Y657860D01*
X660674Y500815D02*
Y660553D01*
X616195Y709627D02*
X663924Y661899D01*
X543430Y376146D02*
X663924Y496640D01*
X550665Y375957D02*
X667174Y492465D01*
X617542Y712877D02*
X667174Y663245D01*
X531500Y399000D02*
X654174Y521674D01*
X620234Y719377D02*
X673674Y665937D01*
Y475575D02*
Y665937D01*
X680174Y466475D02*
Y668630D01*
X683424Y461608D02*
Y669976D01*
X567420Y361146D02*
X676924Y470650D01*
Y667284D01*
X621580Y722627D02*
X676924Y667284D01*
X559245Y361146D02*
X673674Y475575D01*
X567434Y353736D02*
X680174Y466475D01*
X622926Y725877D02*
X680174Y668630D01*
X624272Y729127D02*
X683424Y669976D01*
X567843Y346027D02*
X683424Y461608D01*
X540717Y729127D02*
X624272D01*
X528833Y717243D02*
X540717Y729127D01*
X536567Y717521D02*
X544924Y725877D01*
X622926D01*
X536697Y709803D02*
X549521Y722627D01*
X621580D01*
X554647Y719377D02*
X620234D01*
X544897Y709627D02*
X554647Y719377D01*
X564308Y712877D02*
X617542D01*
X552616Y701184D02*
X564308Y712877D01*
X568483Y709627D02*
X616195D01*
X552703Y693847D02*
X568483Y709627D01*
X543307Y376146D02*
X543430D01*
X573489Y706377D02*
X614849D01*
X560959Y693847D02*
X573489Y706377D01*
X543281Y383422D02*
X660674Y500815D01*
X578124Y703127D02*
X613503D01*
X560848Y685851D02*
X578124Y703127D01*
X613503D02*
X657424Y659207D01*
X582509Y699877D02*
X612157D01*
X568483Y685851D02*
X582509Y699877D01*
X612157D02*
X654174Y657860D01*
X544897Y701502D02*
X559522Y716127D01*
X618888D01*
X670424Y488291D02*
Y664591D01*
X618888Y716127D02*
X670424Y664591D01*
X708273Y625539D02*
X731012Y602800D01*
X708273Y625539D02*
Y626053D01*
X731012Y602800D02*
X731450D01*
D134*
X334400Y834000D02*
X334483Y834083D01*
Y898194D01*
X76936Y535187D02*
Y558886D01*
X90416Y572366D02*
X160914D01*
X76936Y558886D02*
X90416Y572366D01*
X160914Y572366D02*
X179217Y554063D01*
X140933Y838207D02*
Y901806D01*
X189077Y949950D01*
X282727D01*
X334483Y898194D01*
D136*
X516240Y111760D02*
X800089D01*
D138*
X965000Y605000D02*
D03*
X35000Y965000D02*
D03*
X750000D02*
D03*
X35000Y35000D02*
D03*
X965000D02*
D03*
D139*
X109515Y408622D02*
D03*
Y357822D02*
D03*
X58715D02*
D03*
Y408622D02*
D03*
X236315D02*
D03*
Y357822D02*
D03*
X185515D02*
D03*
Y408622D02*
D03*
X152970Y198700D02*
D03*
Y147900D02*
D03*
X203770D02*
D03*
Y198700D02*
D03*
X559910Y198585D02*
D03*
X509110D02*
D03*
Y147785D02*
D03*
X559910D02*
D03*
X274821Y593900D02*
D03*
Y543100D02*
D03*
X224021D02*
D03*
Y593900D02*
D03*
D140*
X84115Y383222D02*
D03*
X210915D02*
D03*
X178370Y173300D02*
D03*
X534510Y173185D02*
D03*
X249421Y568500D02*
D03*
D141*
X497539Y796811D02*
D03*
X477539D02*
D03*
X517539D02*
D03*
X317225Y703098D02*
D03*
X337225D02*
D03*
X357225D02*
D03*
Y662468D02*
D03*
X337225D02*
D03*
X317225D02*
D03*
X21502Y760551D02*
D03*
D142*
X541039Y796811D02*
D03*
X454039D02*
D03*
D143*
X21502Y889170D02*
D03*
Y819170D02*
D03*
D144*
X48502Y829170D02*
D03*
Y879170D02*
D03*
D145*
X154817Y730832D02*
D03*
X129417D02*
D03*
X205617D02*
D03*
X180217D02*
D03*
X257925Y725086D02*
D03*
Y750486D02*
D03*
X799063Y224965D02*
D03*
X755510Y912979D02*
D03*
D146*
X947328Y858039D02*
D03*
Y921039D02*
D03*
D147*
X899329Y886039D02*
D03*
D148*
X939750Y673250D02*
D03*
Y723250D02*
D03*
D149*
X143512Y485828D02*
D03*
X132512D02*
D03*
X121512D02*
D03*
X143512Y496828D02*
D03*
X132512D02*
D03*
X121512D02*
D03*
X143512Y507828D02*
D03*
X132512D02*
D03*
X121512D02*
D03*
X240874Y258067D02*
D03*
X597013Y257948D02*
D03*
X500993Y369646D02*
D03*
Y358646D02*
D03*
Y347646D02*
D03*
X489993Y369646D02*
D03*
Y358646D02*
D03*
Y347646D02*
D03*
X478993Y369646D02*
D03*
Y358646D02*
D03*
Y347646D02*
D03*
X855111Y369527D02*
D03*
Y358527D02*
D03*
Y347527D02*
D03*
X844111Y369527D02*
D03*
Y358527D02*
D03*
Y347527D02*
D03*
X833111Y369527D02*
D03*
Y358527D02*
D03*
Y347527D02*
D03*
X89416Y482562D02*
D03*
X493745Y626000D02*
D03*
X504745D02*
D03*
X515745D02*
D03*
X526745D02*
D03*
X537745D02*
D03*
X548745D02*
D03*
X493745Y615000D02*
D03*
X504745D02*
D03*
X515745D02*
D03*
X526745D02*
D03*
X537745D02*
D03*
X548745D02*
D03*
X493745Y604000D02*
D03*
X504745D02*
D03*
X515745D02*
D03*
X526745D02*
D03*
X537745D02*
D03*
X548745D02*
D03*
X493745Y593000D02*
D03*
X504745D02*
D03*
X515745D02*
D03*
X526745D02*
D03*
X537745D02*
D03*
X548745D02*
D03*
X493745Y582000D02*
D03*
X504745D02*
D03*
X515745D02*
D03*
X526745D02*
D03*
X537745D02*
D03*
X548745D02*
D03*
X493745Y571000D02*
D03*
X504745D02*
D03*
X515745D02*
D03*
X526745D02*
D03*
X537745D02*
D03*
X548745D02*
D03*
X798402Y371079D02*
D03*
X450876Y480066D02*
D03*
X451099Y380586D02*
D03*
X267000Y318500D02*
D03*
X255891Y307682D02*
D03*
X457328Y474551D02*
D03*
X830766Y290610D02*
D03*
X508930Y526968D02*
D03*
X513420Y520926D02*
D03*
X567420Y527473D02*
D03*
X532592Y291554D02*
D03*
X536778Y249450D02*
D03*
X212000Y278750D02*
D03*
X271920Y238170D02*
D03*
X769000Y33250D02*
D03*
X762500Y44500D02*
D03*
X762401Y53721D02*
D03*
X830766Y49547D02*
D03*
X762401Y70875D02*
D03*
X708273Y812750D02*
D03*
X654699D02*
D03*
X703250Y754028D02*
D03*
X661250D02*
D03*
X682250Y777500D02*
D03*
X661250Y768590D02*
D03*
X703250D02*
D03*
Y791264D02*
D03*
X661250D02*
D03*
X682250Y791184D02*
D03*
X618226Y867216D02*
D03*
X497281Y92175D02*
D03*
X633467Y226757D02*
D03*
X388900Y539396D02*
D03*
X267759Y82577D02*
D03*
X359342Y539335D02*
D03*
X275467Y89077D02*
D03*
X366642Y539335D02*
D03*
X281923Y95365D02*
D03*
X374006Y539335D02*
D03*
X289965Y183969D02*
D03*
X381564Y539335D02*
D03*
X297370Y190469D02*
D03*
X304048Y196969D02*
D03*
X396264Y539335D02*
D03*
X371853Y63712D02*
D03*
X393283Y165762D02*
D03*
X277325Y226750D02*
D03*
X646750Y249000D02*
D03*
X626250Y238158D02*
D03*
X293920Y248876D02*
D03*
X413768Y184524D02*
D03*
X447000Y209262D02*
D03*
X282628Y76077D02*
D03*
X392363Y74062D02*
D03*
Y84562D02*
D03*
X938750Y285750D02*
D03*
X674510Y22740D02*
D03*
X915007D02*
D03*
X947000Y167013D02*
D03*
X927250D02*
D03*
X908750Y167125D02*
D03*
X964250Y167013D02*
D03*
X655499Y318516D02*
D03*
X463939Y306615D02*
D03*
X437173Y307582D02*
D03*
X800089Y22741D02*
D03*
X174412Y612211D02*
D03*
X799663Y66375D02*
D03*
Y53721D02*
D03*
X518250Y306615D02*
D03*
X633467Y307462D02*
D03*
X611953Y307582D02*
D03*
X582013Y307204D02*
D03*
X277451Y307572D02*
D03*
X225874Y307323D02*
D03*
X690000Y299250D02*
D03*
X363840Y301924D02*
D03*
X384421Y291500D02*
D03*
X394936D02*
D03*
X415396Y301924D02*
D03*
X386421Y381556D02*
D03*
X212248Y318500D02*
D03*
X11057Y518028D02*
D03*
X21638Y538447D02*
D03*
X300750Y584744D02*
D03*
X503248Y290729D02*
D03*
X595030Y477477D02*
D03*
X740539Y381437D02*
D03*
X472867Y526363D02*
D03*
X529204Y520926D02*
D03*
X537889Y534251D02*
D03*
X533569Y527968D02*
D03*
X504610Y533251D02*
D03*
X437000Y344000D02*
D03*
X387266Y725408D02*
D03*
X375260Y725827D02*
D03*
X298382Y680771D02*
D03*
X428244Y703272D02*
D03*
X298382Y640206D02*
D03*
X334400Y834000D02*
D03*
X435500Y926750D02*
D03*
X248269Y770821D02*
D03*
X175002Y629320D02*
D03*
X176454Y286817D02*
D03*
X394769Y584972D02*
D03*
X107194Y431132D02*
D03*
X127613Y430868D02*
D03*
X304048Y177469D02*
D03*
X349976Y581762D02*
D03*
X191456Y248355D02*
D03*
X191515Y255317D02*
D03*
X547825Y255105D02*
D03*
X444859Y371009D02*
D03*
X463901Y469001D02*
D03*
X475078Y396701D02*
D03*
X444904Y563159D02*
D03*
X453035Y524065D02*
D03*
X589955Y472124D02*
D03*
X584169Y466574D02*
D03*
X528833Y717243D02*
D03*
X567843Y346027D02*
D03*
X536567Y717521D02*
D03*
X567434Y353736D02*
D03*
X536697Y709803D02*
D03*
X567420Y361146D02*
D03*
X544897Y709627D02*
D03*
X559245Y361146D02*
D03*
X552616Y701184D02*
D03*
X550665Y375957D02*
D03*
X552703Y693847D02*
D03*
X543307Y376146D02*
D03*
X560959Y693847D02*
D03*
X543281Y383422D02*
D03*
X560848Y685851D02*
D03*
X537500Y393500D02*
D03*
X568483Y685851D02*
D03*
X531500Y399000D02*
D03*
X559245Y368601D02*
D03*
X550665D02*
D03*
X878000Y334000D02*
D03*
X525750Y334500D02*
D03*
X544897Y701502D02*
D03*
X640070Y519070D02*
D03*
X708273Y626053D02*
D03*
X603918Y610589D02*
D03*
X210172Y511582D02*
D03*
X462896Y542598D02*
D03*
X55938Y605025D02*
D03*
X437036Y536211D02*
D03*
X427155Y536211D02*
D03*
X449751Y59612D02*
D03*
X437051Y187462D02*
D03*
X299750Y318500D02*
D03*
X384707Y595150D02*
D03*
X314703Y599343D02*
D03*
X21731Y415767D02*
D03*
X162511Y579892D02*
D03*
X211858Y457695D02*
D03*
X208848Y492799D02*
D03*
Y471562D02*
D03*
X199643Y543489D02*
D03*
X188430Y482218D02*
D03*
Y443327D02*
D03*
X179217Y554063D02*
D03*
X150511Y579892D02*
D03*
X102511D02*
D03*
X114511D02*
D03*
X107101Y440947D02*
D03*
X127821D02*
D03*
X62212Y583502D02*
D03*
X126511Y579892D02*
D03*
X138511D02*
D03*
X90416Y572366D02*
D03*
X76936Y512105D02*
D03*
X76936Y535187D02*
D03*
X64858Y440197D02*
D03*
Y452191D02*
D03*
X62264Y561784D02*
D03*
X56808Y505269D02*
D03*
X56481Y524826D02*
D03*
X50464Y547695D02*
D03*
X43729Y443327D02*
D03*
X38426Y548631D02*
D03*
X632363Y610185D02*
D03*
X883567Y359536D02*
D03*
X717959Y301805D02*
D03*
X328000Y299750D02*
D03*
X571264Y318618D02*
D03*
X621470Y318500D02*
D03*
X567843Y278750D02*
D03*
X476165Y291500D02*
D03*
X450671Y290729D02*
D03*
X648924Y655686D02*
D03*
X586000Y694627D02*
D03*
X828954Y398520D02*
D03*
X601420Y675470D02*
D03*
X611470D02*
D03*
X631536Y634080D02*
D03*
X390500Y867250D02*
D03*
X507908Y688363D02*
D03*
X433750Y640206D02*
D03*
X412901Y515491D02*
D03*
X611288Y536211D02*
D03*
X306940Y737686D02*
D03*
X451539Y834561D02*
D03*
X541039D02*
D03*
X447750Y640500D02*
D03*
X595872D02*
D03*
X182163Y637000D02*
D03*
X150409D02*
D03*
X789957Y343250D02*
D03*
X752000Y468500D02*
D03*
X611318Y643166D02*
D03*
X721316Y555679D02*
D03*
X621470Y536211D02*
D03*
X738539Y291295D02*
D03*
X749054D02*
D03*
X324058Y860806D02*
D03*
X189077Y949950D02*
D03*
X216900Y936620D02*
D03*
X248407Y936620D02*
D03*
X254002Y893476D02*
D03*
X264002Y884920D02*
D03*
X282727Y949950D02*
D03*
X306097Y936620D02*
D03*
X313568Y881138D02*
D03*
X103706Y707533D02*
D03*
X115227Y802319D02*
D03*
X130933Y818795D02*
D03*
X138699Y784411D02*
D03*
X167409Y672840D02*
D03*
X185647Y824920D02*
D03*
X205485Y760322D02*
D03*
X225863Y770878D02*
D03*
X229002Y811276D02*
D03*
X267502Y824920D02*
D03*
X279355Y770878D02*
D03*
X313502Y813564D02*
D03*
X67058Y841170D02*
D03*
X74726Y874000D02*
D03*
Y887450D02*
D03*
X78197Y842471D02*
D03*
X103673Y934946D02*
D03*
X113204Y874921D02*
D03*
X123308Y839170D02*
D03*
X140933Y838207D02*
D03*
X155659Y904411D02*
D03*
X165977Y936620D02*
D03*
X184897Y889920D02*
D03*
X185647Y842421D02*
D03*
Y869920D02*
D03*
X302189Y976984D02*
D03*
X169611D02*
D03*
X259007Y959950D02*
D03*
X567843Y238261D02*
D03*
X804361Y341027D02*
D03*
X794296Y311059D02*
D03*
X803861Y382027D02*
D03*
X820296Y311059D02*
D03*
X775935Y356027D02*
D03*
X857366Y290610D02*
D03*
X872368Y306496D02*
D03*
X769514Y301805D02*
D03*
X804789Y290610D02*
D03*
X786745Y544293D02*
D03*
X756850Y522100D02*
D03*
X588780Y508194D02*
D03*
X773500Y522100D02*
D03*
X227587Y959950D02*
D03*
X375260Y639653D02*
D03*
X583790Y226757D02*
D03*
X547701Y267069D02*
D03*
X731450Y676066D02*
D03*
X744150Y714850D02*
D03*
X731450Y602800D02*
D03*
X421818Y356146D02*
D03*
X450243Y341146D02*
D03*
X413783Y175454D02*
D03*
X191562Y267188D02*
D03*
X211704Y238260D02*
D03*
X227651Y226876D02*
D03*
X393848Y634250D02*
D03*
X398848Y656902D02*
D03*
X435231Y675470D02*
D03*
X445496D02*
D03*
X517911Y708245D02*
D03*
X606442Y685896D02*
D03*
X591447Y532473D02*
D03*
D150*
X800089Y111760D02*
D03*
X907267Y947899D02*
D03*
X863700D02*
D03*
Y866598D02*
D03*
Y912950D02*
D03*
X964000Y274460D02*
D03*
X682250Y708644D02*
D03*
X728500Y875500D02*
D03*
X603800Y912950D02*
D03*
X874737Y111760D02*
D03*
X516240D02*
D03*
X827495Y175000D02*
D03*
X905250Y52875D02*
D03*
X850021Y151000D02*
D03*
X827000D02*
D03*
X848818Y76448D02*
D03*
X744948D02*
D03*
X692448Y55709D02*
D03*
X964000Y194710D02*
D03*
M02*
