G04*
G04 #@! TF.GenerationSoftware,Altium Limited,Altium Designer,21.8.1 (53)*
G04*
G04 Layer_Color=16711935*
%FSLAX44Y44*%
%MOMM*%
G71*
G04*
G04 #@! TF.SameCoordinates,91F2FAFC-B6E2-4CFA-B9BC-05D97406F0FC*
G04*
G04*
G04 #@! TF.FilePolarity,Negative*
G04*
G01*
G75*
%ADD70C,2.6500*%
%ADD71C,2.3500*%
%ADD72C,1.3000*%
%ADD73C,2.2000*%
%ADD74O,1.6500X1.1000*%
%ADD75O,1.1000X1.4000*%
%ADD76C,2.1000*%
%ADD77O,5.1000X2.1000*%
%ADD78O,2.1000X5.1000*%
%ADD79C,2.3000*%
%ADD80C,0.7000*%
D70*
X559910Y147785D02*
D03*
X509110D02*
D03*
Y198585D02*
D03*
X559910D02*
D03*
X203770Y198700D02*
D03*
Y147900D02*
D03*
X152970D02*
D03*
Y198700D02*
D03*
X109515Y408622D02*
D03*
Y357822D02*
D03*
X58715D02*
D03*
Y408622D02*
D03*
X236315D02*
D03*
Y357822D02*
D03*
X185515D02*
D03*
Y408622D02*
D03*
X274821Y593900D02*
D03*
Y543100D02*
D03*
X224021D02*
D03*
Y593900D02*
D03*
D71*
X534510Y173185D02*
D03*
X178370Y173300D02*
D03*
X84115Y383222D02*
D03*
X210915D02*
D03*
X249421Y568500D02*
D03*
D72*
X497539Y796811D02*
D03*
X477539D02*
D03*
X517539D02*
D03*
X317225Y703098D02*
D03*
X337225D02*
D03*
X357225D02*
D03*
Y662468D02*
D03*
X337225D02*
D03*
X317225D02*
D03*
D73*
X541039Y796811D02*
D03*
X454039D02*
D03*
D74*
X21502Y889170D02*
D03*
Y819170D02*
D03*
D75*
X48502Y829170D02*
D03*
Y879170D02*
D03*
D76*
X154817Y730832D02*
D03*
X129417D02*
D03*
X205617D02*
D03*
X180217D02*
D03*
X257925Y725086D02*
D03*
Y750486D02*
D03*
D77*
X947328Y858039D02*
D03*
Y921039D02*
D03*
D78*
X899329Y886039D02*
D03*
D79*
X939750Y673250D02*
D03*
Y723250D02*
D03*
D80*
X143512Y485828D02*
D03*
X132512D02*
D03*
X121512D02*
D03*
X143512Y496828D02*
D03*
X132512D02*
D03*
X121512D02*
D03*
X143512Y507828D02*
D03*
X132512D02*
D03*
X121512D02*
D03*
X240874Y258067D02*
D03*
X597013Y257948D02*
D03*
X500993Y369646D02*
D03*
Y358646D02*
D03*
Y347646D02*
D03*
X489993Y369646D02*
D03*
Y358646D02*
D03*
Y347646D02*
D03*
X478993Y369646D02*
D03*
Y358646D02*
D03*
Y347646D02*
D03*
X855111Y369527D02*
D03*
Y358527D02*
D03*
Y347527D02*
D03*
X844111Y369527D02*
D03*
Y358527D02*
D03*
Y347527D02*
D03*
X833111Y369527D02*
D03*
Y358527D02*
D03*
Y347527D02*
D03*
X493745Y626000D02*
D03*
X504745D02*
D03*
X515745D02*
D03*
X526745D02*
D03*
X537745D02*
D03*
X548745D02*
D03*
X493745Y615000D02*
D03*
X504745D02*
D03*
X515745D02*
D03*
X526745D02*
D03*
X537745D02*
D03*
X548745D02*
D03*
X493745Y604000D02*
D03*
X504745D02*
D03*
X515745D02*
D03*
X526745D02*
D03*
X537745D02*
D03*
X548745D02*
D03*
X493745Y593000D02*
D03*
X504745D02*
D03*
X515745D02*
D03*
X526745D02*
D03*
X537745D02*
D03*
X548745D02*
D03*
X493745Y582000D02*
D03*
X504745D02*
D03*
X515745D02*
D03*
X526745D02*
D03*
X537745D02*
D03*
X548745D02*
D03*
X493745Y571000D02*
D03*
X504745D02*
D03*
X515745D02*
D03*
X526745D02*
D03*
X537745D02*
D03*
X548745D02*
D03*
M02*
