M48
;Layer_Color=9474304
;FILE_FORMAT=4:4
METRIC,LZ
;TYPE=PLATED
T1F00S00C0.3000
T2F00S00C0.5000
T3F00S00C0.6000
T5F00S00C0.7000
T6F00S00C0.7400
T7F00S00C0.8000
T8F00S00C1.0000
T10F00S00C1.2000
T11F00S00C1.5000
T12F00S00C1.7000
T13F00S00C3.3000
%
T01
X00285634Y0008258
X00294081Y0008908
X00304048Y0009558
Y00076077
X00393283Y00063712
X00413768Y00074062
Y0008308
X00449751Y00059612
X00497281Y00092175
X0067451Y0002274
X00769Y0003325
X007625Y000445
X00762401Y00053721
Y00070875
X008Y0005925
X00800089Y00022741
X00830766Y00049547
X00915007Y0002274
X0090875Y00167125
X0092725Y00167013
X00947
X0096425
X0093875Y0028575
X00857366Y0029061
X00830766
X00804789
X00794296Y00311059
X00820296
X00804361Y00341027
X00789957Y0034325
X00775935Y00356027
X00798402Y00371079
X00803861Y00382027
X00828954Y0039852
X00833111Y00369527
Y00358527
X00844111
X00855111
Y00369527
X00844111
Y00347527
X00855111
X00833111
X00878Y00334
X00883567Y00359536
X00872368Y00306496
X00769514Y00301805
X00749054Y00291295
X00738539
X00717959Y00301805
X0069Y0029925
X00740539Y00381437
X0074562Y0046632
X0064007Y00515491
X00586743Y0051096
X00572366Y00498465
X0056311Y00498876
X00554163Y00499391
X00533012Y00494349
X00525762
X00528653Y00460494
X00561685
X0056168Y00424349
X00573787Y00435116
X0052865Y00423439
X005315Y00399
X005375Y003935
X00541747Y00386266
X0054202Y00376874
X00551399Y00378307
X00550565Y00369056
X00559249Y00369422
X00559021Y00360552
X00568715Y00360681
X00568443Y00351756
X00578331Y00352576
X00571376Y00319386
X00582013Y00307204
X00611953Y00307582
X00633467Y00307462
X0062199Y00319679
X00655342Y00317924
X0064675Y00249
X0062625Y00238158
X00633467Y00226757
X0058379
X00567843Y00238261
X00547825Y00255105
X00547701Y00267069
X00536778Y0024945
X00532592Y00291554
X0051825Y00306615
X00503248Y00290729
X00476165Y002915
X00450671Y00290729
X00463939Y00306615
X00437173Y00307582
X00415396Y00301924
X00394936Y002915
X00384421
X0036384Y00301924
X0032674Y00299614
X00300072Y00319386
X00267305Y00319581
X00277451Y00307572
X0027192Y0023817
X00277325Y0022675
X0029392Y00248876
X00294081Y00190792
X00285634Y00183948
X00304048Y00177469
Y00196969
X00393283Y00165762
X00413783Y00175454
X00413768Y00184524
X00437051Y00187462
X00447Y00209262
X00450243Y00341146
X00437Y00344
X00421818Y00356146
X00444859Y00371009
X00451099Y00380586
X00478993Y00369646
Y00358646
X00489993
X00500993
Y00369646
X00489993
Y00347646
X00500993
X00478993
X00475078Y00396701
X00474844Y00428088
X00468837Y00435116
X00475092Y0044375
X0049875
X00500993Y00435065
X0051125Y004335
X0052575Y003345
X00567843Y0027875
X00597013Y00257948
X00604294Y0019867
X0057619Y00132912
X00386421Y00381556
X00365387Y00446963
Y00454213
X00417364Y00462489
X00406641Y00474031
X0043037Y00487303
X00456301Y00513237
X00273712Y0049225
X00284241Y00460342
X00282917Y0044156
Y00420323
X00285927Y00406455
X00262499Y00392088
Y00430978
X00217581Y00434588
X00206581
Y00445588
X00217581
Y00456588
X00206581
X00195581
Y00445588
Y00434588
X0015882Y00433088
X00151005Y00460865
X00151005Y00483947
X0013055Y00473587
X00130877Y00454029
X00124533Y00496455
X00112495Y00497391
X00136334Y00510544
X00138927Y00400951
Y00388958
X0018117Y00389708
X00181263Y00379892
X00201682Y00379628
X0020189Y00389708
X00212205Y00319386
X00225874Y00307323
X00255891Y00307682
X00240874Y00258067
X00227651Y00226876
X00211704Y0023826
X00191515Y00255317
X00191562Y00267188
X00179931Y00248876
X00176454Y00286817
X00212Y0027875
X0010175Y003775
X00253286Y00502824
X0023658Y00528653
X0022458
X0021258
X0020058
X0018858
X0017658
X00164485Y00521126
X00136281Y00532262
X00130007Y00553785
X00174412Y00612211
X00175002Y0062932
X00182163Y00637
X00150409
X00167409Y0067284
X00103706Y00707533
X00115227Y00802319
X00130933Y00818795
X00123308Y0083917
X00140933Y00838207
X00185647Y00842421
Y0082492
Y0086992
X00184897Y0088992
X00155659Y00904411
X00113204Y00874921
X00074726Y00874
Y0088745
X00078197Y00842471
X00067058Y0084117
X00138699Y00784411
X00205485Y00760322
X00225863Y00770878
X00248269Y00770821
X00229002Y00811276
X00254002Y00893476
X00264002Y0088492
X00313568Y00881138
X00324058Y00860806
X003344Y00834
X00313502Y00813564
X00267502Y0082492
X00279355Y00770878
X00298382Y00680771
Y00640206
X00314703Y00599343
X0030075Y00584744
X0028875Y0056075
X00355639Y00550431
X00365559Y00552139
X00365458Y00543953
X00377106Y00548176
X00377772Y00540025
X00388022Y00542626
X00393927Y00530521
X00384707Y0052037
X0043037
X00427155Y00536211
X00437036Y00536211
X00451439Y00532473
X00475092Y00527851
X00520949Y00529439
X00520272Y00521265
X00537395Y00532444
X0056742Y00527473
X00591447Y00532473
X00611288Y00536211
X0062147
X00632363Y00610185
X00603918Y00610589
X00589147Y00631861
X00595931Y00645189
X00612906Y00645009
X0061147Y0067547
X0060142
X00606442Y00685896
X00585526Y00676066
X00569795Y00686495
X00560876Y00685872
X00561451Y00694647
X00552053Y00693064
X00553108Y00702031
X00544381Y0070112
X00544813Y00710038
X00536278Y00709319
X00536518Y00718046
X00527839Y00717758
X00517911Y00708245
X00507908Y00688363
X00504745Y00626
X00493745
Y00615
X00504745
X00515745
Y00626
X00526745
X00537745
X00548745
Y00615
X00537745
X00526745
Y00604
X00515745
X00504745
X00493745
Y00593
X00504745
X00515745
X00526745
X00537745
Y00604
X00548745
Y00593
Y00582
X00537745
X00526745
X00515745
X00504745
X00493745
Y00571
X00504745
X00515745
X00526745
X00537745
X00548745
X00430199Y00594651
X0039911
X00393848Y0063425
X0037526Y00639653
X00398848Y00656902
X0043375Y00640206
X0044775Y006405
X00445496Y0067547
X00435231
X00428115Y00703258
X00387137Y00725394
X0037526Y00725827
X00349976Y00581762
X0064375Y006365
X00648924Y00655686
X00642596Y00754028
Y0076859
X00620825
Y00754028
X00597825
X00578692Y00754789
X00576824Y00791184
X00597825
X00603918Y007775
X00620825Y00791184
X00642125
X00642596Y00812754
X0062625
X00570856Y00812787
X00467845Y00860977
X00408345Y00905977
X00683164Y00912172
X007005
X00689686Y00901255
X00714553
X0072775Y00912172
X00739747Y00901255
X007525Y00912172
X0077425
X00766122Y00901255
X00737726Y00859466
X00713273Y0081275
X0070825Y00791264
X0068725Y00791184
Y007775
X0070825Y0076859
Y00754028
X0066625
Y0076859
Y00791264
X00659863Y00812754
X0074415Y0071485
X0073145Y00676066
X00708273Y00626053
X0073145Y006028
X00720368Y00559843
X00758055Y00522797
X0077457Y00522613
X00786745Y00544293
X0076525Y0092325
X00739747
X00714497
X00689412
X00539679Y00926455
X00449573Y00926455
X00379773Y00916806
X00306097Y0093662
X00282727Y0094995
X00259007Y0095995
X00302189Y00976984
X00227587Y0095995
X002169Y0093662
X00248407Y0093662
X00189077Y0094995
X00165977Y0093662
X00169611Y00976984
X00103673Y00934946
T02
X0051624Y0011176
X00692448Y00055709
X00744948Y00076448
X00800089Y0011176
X00872869Y0011212
X00848818Y00076448
X0090525Y00052875
X00850021Y00151
X00827
X00827495Y00175
X00964Y0019471
Y0027446
X00138071Y0027225
X00140943Y00421588
X0007225Y0047025
X00050875Y00507521
X00524537Y00773963
X00640254Y0087546
X007335Y008755
X008637Y00866598
Y0091295
X00713273Y00726795
X00664236Y00967045
X008637Y00947899
X00907267
X00574824Y00967045
T03
X00021502Y00760551
T05
X00475776Y00967962
X00495776
X00515776
T06
X0001145Y003313
X0006225Y003567
X0013845Y003313
T07
X00317225Y00662468
X00337225
X00357225
Y00703098
X00337225
X00317225
T08
X00799063Y00224965
X00205617Y00730832
X00180217
X00154817
X00129417
X003422Y0097875
X003676
X00393
X004184
T10
X0093975Y0067325
Y0072325
T11
X0023837Y0005675
X0059451
X000569Y00131
Y00258067
Y0057555
X00452276Y00967962
X00539276
T12
X000315Y001056
X000823
X0021297Y0008215
Y0003135
X0026377
Y0008215
X0056911
Y0003135
X0061991
Y0008215
X000823Y001564
X000315
Y00232667
Y00283467
X000823
Y00232667
Y0055015
X000315
Y0060095
X000823
T13
X00035Y00035
X00965
Y00605
X0075Y00965
X00035
M30
