G04*
G04 #@! TF.GenerationSoftware,Altium Limited,Altium Designer,21.8.1 (53)*
G04*
G04 Layer_Physical_Order=3*
G04 Layer_Color=128*
%FSLAX44Y44*%
%MOMM*%
G71*
G04*
G04 #@! TF.SameCoordinates,745E15D5-9FCC-4B19-B3C1-DDDE3A1CE5A2*
G04*
G04*
G04 #@! TF.FilePolarity,Negative*
G04*
G01*
G75*
%ADD15C,0.2000*%
%ADD76C,1.2400*%
%ADD78C,1.3000*%
%ADD148C,1.2000*%
%ADD159C,1.0160*%
%ADD161C,2.0000*%
%ADD162C,1.5000*%
G04:AMPARAMS|DCode=163|XSize=1.8mm|YSize=1.8mm|CornerRadius=0mm|HoleSize=0mm|Usage=FLASHONLY|Rotation=0.000|XOffset=0mm|YOffset=0mm|HoleType=Round|Shape=Relief|Width=0.2mm|Gap=0.2mm|Entries=4|*
%AMTHD163*
7,0,0,1.8000,1.4000,0.2000,45*
%
%ADD163THD163*%
%ADD165C,1.0000*%
%ADD166O,2.0000X1.1000*%
%ADD167O,1.1000X2.0000*%
%ADD168C,3.8000*%
%ADD169O,3.8000X1.5000*%
%ADD173C,1.7000*%
%ADD174C,0.8000*%
%ADD175C,2.2000*%
%ADD176O,3.5000X1.5000*%
%ADD177O,1.5000X3.5000*%
%ADD178C,1.1000*%
D15*
X949451Y249223D02*
Y261745D01*
X868341Y168113D02*
X949451Y249223D01*
X977352Y248351D02*
Y262041D01*
Y539353D01*
X884472Y109722D02*
Y155472D01*
X878500Y103750D02*
X884472Y109722D01*
Y155472D02*
X977352Y248351D01*
X863582Y120838D02*
X868341Y125597D01*
X792500Y120838D02*
X863582D01*
X868341Y125597D02*
Y168113D01*
X770750Y931250D02*
X773000Y929000D01*
X684250Y931250D02*
X770750D01*
X773000Y929000D02*
X779709Y922291D01*
Y736995D02*
Y922291D01*
X746221Y726624D02*
Y881236D01*
X735236Y892222D02*
X746221Y881236D01*
X686189Y892222D02*
X735236D01*
X677814Y924814D02*
X684250Y931250D01*
X677814Y900596D02*
Y924814D01*
Y900596D02*
X686189Y892222D01*
X202500Y325684D02*
X210203D01*
X655777D02*
X666144D01*
X655745Y325653D02*
X655777Y325684D01*
X210203D02*
X655777D01*
X884472Y109722D02*
Y111760D01*
X796000Y103750D02*
X878500D01*
X792500Y107250D02*
X796000Y103750D01*
X792500Y107250D02*
Y120838D01*
X203770Y232216D02*
X640543D01*
X641123Y231637D01*
X202500Y313511D02*
X219750D01*
X202500D02*
Y325684D01*
X666144Y312497D02*
Y325684D01*
X219750Y313511D02*
X641074D01*
X648531Y306055D01*
X742085Y212500D01*
X666144Y312497D02*
X740483Y238158D01*
X715250Y199000D02*
X715490Y198760D01*
X205970Y272605D02*
X639382Y272605D01*
X702801Y209186D01*
X203770Y232216D02*
Y244220D01*
X648531D01*
X650369Y158405D02*
Y222390D01*
X641123Y231637D02*
X650369Y222390D01*
X740744Y68029D02*
X747866D01*
X650369Y158405D02*
X740744Y68029D01*
X754030Y74194D02*
Y79378D01*
X747866Y68029D02*
X754030Y74194D01*
X779709Y736995D02*
X977352Y539353D01*
X811500Y212500D02*
Y226610D01*
Y238158D01*
X803760Y85773D02*
X842590D01*
X715490Y174042D02*
X803760Y85773D01*
X205970Y272605D02*
Y285047D01*
X746221Y726624D02*
X949451Y523394D01*
Y261745D02*
Y523394D01*
X855613Y68675D02*
X857366Y70427D01*
Y82843D01*
X854436Y85773D02*
X857366Y82843D01*
X842590Y85773D02*
X854436D01*
X715490Y174042D02*
Y198760D01*
X801706Y68675D02*
X855613D01*
X702801Y167580D02*
X801706Y68675D01*
X702801Y167580D02*
Y209186D01*
X715250Y199000D02*
Y217275D01*
X664369Y169040D02*
X754030Y79378D01*
X664369Y169040D02*
Y228381D01*
X648531Y244220D02*
X664369Y228381D01*
X647478Y285047D02*
X715250Y217275D01*
X205970Y285047D02*
X647478Y285047D01*
X742085Y212500D02*
X811500D01*
X740483Y238158D02*
X811500D01*
D76*
X138450Y331300D02*
D03*
X11450D02*
D03*
X62250Y356700D02*
D03*
D78*
X317225Y703098D02*
D03*
X337225D02*
D03*
X357225D02*
D03*
Y662468D02*
D03*
X337225D02*
D03*
X317225D02*
D03*
D148*
X515776Y967962D02*
D03*
X475776D02*
D03*
X495776D02*
D03*
D159*
X0Y0D02*
X1000000D01*
Y1000000D01*
X0D02*
X1000000D01*
X0Y0D02*
Y1000000D01*
D161*
X452276Y967962D02*
D03*
X539276D02*
D03*
X56900Y575550D02*
D03*
X594510Y56750D02*
D03*
X238370D02*
D03*
X56900Y131000D02*
D03*
Y258067D02*
D03*
D162*
X393000Y978750D02*
D03*
X342200D02*
D03*
X367600D02*
D03*
X154817Y730832D02*
D03*
X129417D02*
D03*
X205617D02*
D03*
X180217D02*
D03*
D163*
X418400Y978750D02*
D03*
D165*
X140943Y421588D02*
D03*
X964000Y194710D02*
D03*
X640254Y875460D02*
D03*
X524537Y773963D02*
D03*
X574824Y967045D02*
D03*
X664236D02*
D03*
X733500Y875500D02*
D03*
X713273Y726795D02*
D03*
X50875Y507521D02*
D03*
X516240Y111760D02*
D03*
X907267Y947899D02*
D03*
X863700D02*
D03*
Y866598D02*
D03*
Y912950D02*
D03*
X827495Y175000D02*
D03*
X905250Y52875D02*
D03*
X850021Y151000D02*
D03*
X827000D02*
D03*
X692448Y55709D02*
D03*
D166*
X21502Y889170D02*
D03*
Y819170D02*
D03*
D167*
X48502Y826070D02*
D03*
Y882270D02*
D03*
D168*
X965000Y605000D02*
D03*
X35000Y965000D02*
D03*
X750000D02*
D03*
X35000Y35000D02*
D03*
X965000D02*
D03*
D169*
X947328Y858039D02*
D03*
D173*
X939750Y673250D02*
D03*
Y723250D02*
D03*
D174*
X101750Y377500D02*
D03*
X604294Y198670D02*
D03*
X576190Y132912D02*
D03*
X828954Y398520D02*
D03*
X475078Y396701D02*
D03*
X399110Y594651D02*
D03*
X365387Y446963D02*
D03*
Y454213D02*
D03*
X449573Y926455D02*
D03*
X737726Y859466D02*
D03*
X408345Y905977D02*
D03*
X406641Y474031D02*
D03*
X417364Y462489D02*
D03*
X573787Y435116D02*
D03*
X498750Y443750D02*
D03*
X475092D02*
D03*
X468837Y435116D02*
D03*
X500993Y435065D02*
D03*
X511250Y433500D02*
D03*
X474844Y428088D02*
D03*
X561685Y460494D02*
D03*
X528653D02*
D03*
X388022Y542626D02*
D03*
X377772Y540025D02*
D03*
X355639Y550431D02*
D03*
X377106Y548176D02*
D03*
X365559Y552139D02*
D03*
X365458Y543953D02*
D03*
X430370Y487303D02*
D03*
X456301Y513237D02*
D03*
X586743Y510960D02*
D03*
X475092Y527851D02*
D03*
X533012Y494349D02*
D03*
X525762D02*
D03*
X561680Y424349D02*
D03*
X572366Y498465D02*
D03*
X563110Y498876D02*
D03*
X537395Y532444D02*
D03*
X554163Y499391D02*
D03*
X520272Y521265D02*
D03*
X520949Y529439D02*
D03*
X643750Y636500D02*
D03*
X589147Y631861D02*
D03*
X595931Y645189D02*
D03*
X428115Y703258D02*
D03*
X430370Y520370D02*
D03*
X191562Y267188D02*
D03*
X176454Y286817D02*
D03*
X158820Y433088D02*
D03*
X800000Y59250D02*
D03*
X150409Y637000D02*
D03*
X174412Y612211D02*
D03*
X294081Y190792D02*
D03*
X304048Y196969D02*
D03*
X285634Y183948D02*
D03*
Y82580D02*
D03*
X294081Y89080D02*
D03*
X740539Y381437D02*
D03*
X334400Y834000D02*
D03*
X379773Y916806D02*
D03*
X883567Y359536D02*
D03*
X745620Y466320D02*
D03*
X720368Y559843D02*
D03*
X774570Y522613D02*
D03*
X326740Y299614D02*
D03*
X527839Y717758D02*
D03*
X536518Y718046D02*
D03*
X536278Y709319D02*
D03*
X544813Y710038D02*
D03*
X544381Y701120D02*
D03*
X553108Y702031D02*
D03*
X552053Y693064D02*
D03*
X561451Y694647D02*
D03*
X560876Y685872D02*
D03*
X569795Y686495D02*
D03*
X578331Y352576D02*
D03*
X568443Y351756D02*
D03*
X559021Y360552D02*
D03*
X568715Y360681D02*
D03*
X559249Y369422D02*
D03*
X550565Y369056D02*
D03*
X551399Y378307D02*
D03*
X542020Y376874D02*
D03*
X541747Y386266D02*
D03*
X179931Y248876D02*
D03*
X217581Y434588D02*
D03*
X206581D02*
D03*
X195581D02*
D03*
X217581Y445588D02*
D03*
X206581D02*
D03*
X195581D02*
D03*
X217581Y456588D02*
D03*
X206581D02*
D03*
X195581D02*
D03*
X240874Y258067D02*
D03*
X597013Y257948D02*
D03*
X500993Y369646D02*
D03*
Y358646D02*
D03*
Y347646D02*
D03*
X489993Y369646D02*
D03*
Y358646D02*
D03*
Y347646D02*
D03*
X478993Y369646D02*
D03*
Y358646D02*
D03*
Y347646D02*
D03*
X855111Y369527D02*
D03*
Y358527D02*
D03*
Y347527D02*
D03*
X844111Y369527D02*
D03*
Y358527D02*
D03*
Y347527D02*
D03*
X833111Y369527D02*
D03*
Y358527D02*
D03*
Y347527D02*
D03*
X493745Y626000D02*
D03*
X504745D02*
D03*
X515745D02*
D03*
X526745D02*
D03*
X537745D02*
D03*
X548745D02*
D03*
X493745Y615000D02*
D03*
X504745D02*
D03*
X515745D02*
D03*
X526745D02*
D03*
X537745D02*
D03*
X548745D02*
D03*
X493745Y604000D02*
D03*
X504745D02*
D03*
X515745D02*
D03*
X526745D02*
D03*
X537745D02*
D03*
X548745D02*
D03*
X493745Y593000D02*
D03*
X504745D02*
D03*
X515745D02*
D03*
X526745D02*
D03*
X537745D02*
D03*
X548745D02*
D03*
X493745Y582000D02*
D03*
X504745D02*
D03*
X515745D02*
D03*
X526745D02*
D03*
X537745D02*
D03*
X548745D02*
D03*
X493745Y571000D02*
D03*
X504745D02*
D03*
X515745D02*
D03*
X526745D02*
D03*
X537745D02*
D03*
X548745D02*
D03*
X798402Y371079D02*
D03*
X451099Y380586D02*
D03*
X255891Y307682D02*
D03*
X830766Y290610D02*
D03*
X567420Y527473D02*
D03*
X532592Y291554D02*
D03*
X536778Y249450D02*
D03*
X769000Y33250D02*
D03*
X762500Y44500D02*
D03*
X762401Y53721D02*
D03*
X830766Y49547D02*
D03*
X762401Y70875D02*
D03*
X497281Y92175D02*
D03*
X633467Y226757D02*
D03*
X304048Y95580D02*
D03*
X277325Y226750D02*
D03*
X646750Y249000D02*
D03*
X293920Y248876D02*
D03*
X413768Y184524D02*
D03*
X447000Y209262D02*
D03*
X304048Y76077D02*
D03*
X413768Y74062D02*
D03*
Y83080D02*
D03*
X938750Y285750D02*
D03*
X674510Y22740D02*
D03*
X915007D02*
D03*
X947000Y167013D02*
D03*
X927250D02*
D03*
X908750Y167125D02*
D03*
X964250Y167013D02*
D03*
X633467Y307462D02*
D03*
X611953Y307582D02*
D03*
X582013Y307204D02*
D03*
X277451Y307572D02*
D03*
X225874Y307323D02*
D03*
X690000Y299250D02*
D03*
X363840Y301924D02*
D03*
X415396D02*
D03*
X386421Y381556D02*
D03*
X503248Y290729D02*
D03*
X298382Y680771D02*
D03*
Y640206D02*
D03*
X175002Y629320D02*
D03*
X181263Y379892D02*
D03*
X201682Y379628D02*
D03*
X304048Y177469D02*
D03*
X191515Y255317D02*
D03*
X547825Y255105D02*
D03*
X444859Y371009D02*
D03*
X537500Y393500D02*
D03*
X531500Y399000D02*
D03*
X878000Y334000D02*
D03*
X525750Y334500D02*
D03*
X708273Y626053D02*
D03*
X437036Y536211D02*
D03*
X427155Y536211D02*
D03*
X449751Y59612D02*
D03*
X437051Y187462D02*
D03*
X314703Y599343D02*
D03*
X236580Y528653D02*
D03*
X285927Y406455D02*
D03*
X282917Y441560D02*
D03*
Y420323D02*
D03*
X273712Y492250D02*
D03*
X253286Y502824D02*
D03*
X224580Y528653D02*
D03*
X176580D02*
D03*
X188580D02*
D03*
X136281Y532262D02*
D03*
X200580Y528653D02*
D03*
X164485Y521126D02*
D03*
X151005Y483947D02*
D03*
X138927Y388958D02*
D03*
Y400951D02*
D03*
X136334Y510544D02*
D03*
X130877Y454029D02*
D03*
X130550Y473587D02*
D03*
X124533Y496455D02*
D03*
X112495Y497391D02*
D03*
X632363Y610185D02*
D03*
X717959Y301805D02*
D03*
X476165Y291500D02*
D03*
X450671Y290729D02*
D03*
X601420Y675470D02*
D03*
X611470D02*
D03*
X433750Y640206D02*
D03*
X611288Y536211D02*
D03*
X447750Y640500D02*
D03*
X182163Y637000D02*
D03*
X621470Y536211D02*
D03*
X189077Y949950D02*
D03*
X254002Y893476D02*
D03*
X264002Y884920D02*
D03*
X282727Y949950D02*
D03*
X306097Y936620D02*
D03*
X313568Y881138D02*
D03*
X103706Y707533D02*
D03*
X130933Y818795D02*
D03*
X167409Y672840D02*
D03*
X185647Y824920D02*
D03*
X225863Y770878D02*
D03*
X229002Y811276D02*
D03*
X267502Y824920D02*
D03*
X279355Y770878D02*
D03*
X313502Y813564D02*
D03*
X67058Y841170D02*
D03*
X74726Y874000D02*
D03*
X78197Y842471D02*
D03*
X103673Y934946D02*
D03*
X113204Y874921D02*
D03*
X123308Y839170D02*
D03*
X140933Y838207D02*
D03*
X155659Y904411D02*
D03*
X165977Y936620D02*
D03*
X184897Y889920D02*
D03*
X185647Y842421D02*
D03*
Y869920D02*
D03*
X259007Y959950D02*
D03*
X804361Y341027D02*
D03*
X803861Y382027D02*
D03*
X775935Y356027D02*
D03*
X857366Y290610D02*
D03*
X769514Y301805D02*
D03*
X804789Y290610D02*
D03*
X227587Y959950D02*
D03*
X583790Y226757D02*
D03*
X547701Y267069D02*
D03*
X731450Y676066D02*
D03*
Y602800D02*
D03*
X421818Y356146D02*
D03*
X450243Y341146D02*
D03*
X413783Y175454D02*
D03*
X227651Y226876D02*
D03*
X393848Y634250D02*
D03*
X435231Y675470D02*
D03*
X445496D02*
D03*
X517911Y708245D02*
D03*
X606442Y685896D02*
D03*
D175*
X82300Y550150D02*
D03*
X31500D02*
D03*
Y600950D02*
D03*
X82300D02*
D03*
X569110Y82150D02*
D03*
Y31350D02*
D03*
X619910D02*
D03*
Y82150D02*
D03*
X212970D02*
D03*
Y31350D02*
D03*
X263770D02*
D03*
Y82150D02*
D03*
X82300Y156400D02*
D03*
X31500D02*
D03*
Y105600D02*
D03*
X82300D02*
D03*
Y283467D02*
D03*
X31500D02*
D03*
Y232667D02*
D03*
X82300D02*
D03*
D176*
X947328Y921039D02*
D03*
D177*
X899329Y886039D02*
D03*
D178*
X21502Y760551D02*
D03*
M02*
