G04*
G04 #@! TF.GenerationSoftware,Altium Limited,Altium Designer,21.8.1 (53)*
G04*
G04 Layer_Physical_Order=2*
G04 Layer_Color=32768*
%FSLAX44Y44*%
%MOMM*%
G71*
G04*
G04 #@! TF.SameCoordinates,91F2FAFC-B6E2-4CFA-B9BC-05D97406F0FC*
G04*
G04*
G04 #@! TF.FilePolarity,Negative*
G04*
G01*
G75*
%ADD72C,1.3000*%
%ADD140C,1.2000*%
%ADD149C,1.0160*%
G04:AMPARAMS|DCode=150|XSize=2.5mm|YSize=2.5mm|CornerRadius=0mm|HoleSize=0mm|Usage=FLASHONLY|Rotation=0.000|XOffset=0mm|YOffset=0mm|HoleType=Round|Shape=Relief|Width=0.2mm|Gap=0.2mm|Entries=4|*
%AMTHD150*
7,0,0,2.5000,2.1000,0.2000,45*
%
%ADD150THD150*%
%ADD151C,2.0000*%
%ADD152C,3.8000*%
%ADD153O,1.6500X1.0000*%
%ADD154O,1.0500X1.3500*%
%ADD155C,1.5000*%
%ADD156O,3.8000X1.5000*%
%AMTHOVALD157*
21,1,2.0000,1.8000,0,0,0.0*
1,1,1.8000,-1.0000,0.0000*
1,1,1.8000,1.0000,0.0000*
21,0,2.0000,1.4000,0,0,0.0*
1,0,1.4000,-1.0000,0.0000*
1,0,1.4000,1.0000,0.0000*
4,0,4,-0.9293,-0.0707,-1.5657,-0.7071,-1.7071,-0.5657,-1.0707,0.0707,-0.9293,-0.0707,0.0*
4,0,4,1.0707,-0.0707,1.7071,0.5657,1.5657,0.7071,0.9293,0.0707,1.0707,-0.0707,0.0*
4,0,4,-1.0707,-0.0707,-1.7071,0.5657,-1.5657,0.7071,-0.9293,0.0707,-1.0707,-0.0707,0.0*
4,0,4,0.9293,-0.0707,1.5657,-0.7071,1.7071,-0.5657,1.0707,0.0707,0.9293,-0.0707,0.0*
%
%ADD157THOVALD157*%

%AMTHOVALD158*
21,1,2.0000,1.8000,0,0,270.0*
1,1,1.8000,0.0000,1.0000*
1,1,1.8000,0.0000,-1.0000*
21,0,2.0000,1.4000,0,0,270.0*
1,0,1.4000,0.0000,1.0000*
1,0,1.4000,0.0000,-1.0000*
4,0,4,-0.0707,0.9293,-0.7071,1.5657,-0.5657,1.7071,0.0707,1.0707,-0.0707,0.9293,0.0*
4,0,4,-0.0707,-1.0707,0.5657,-1.7071,0.7071,-1.5657,0.0707,-0.9293,-0.0707,-1.0707,0.0*
4,0,4,-0.0707,1.0707,0.5657,1.7071,0.7071,1.5657,0.0707,0.9293,-0.0707,1.0707,0.0*
4,0,4,-0.0707,-0.9293,-0.7071,-1.5657,-0.5657,-1.7071,0.0707,-1.0707,-0.0707,-0.9293,0.0*
%
%ADD158THOVALD158*%

G04:AMPARAMS|DCode=159|XSize=2mm|YSize=2mm|CornerRadius=0mm|HoleSize=0mm|Usage=FLASHONLY|Rotation=0.000|XOffset=0mm|YOffset=0mm|HoleType=Round|Shape=Relief|Width=0.2mm|Gap=0.2mm|Entries=4|*
%AMTHD159*
7,0,0,2.0000,1.6000,0.2000,45*
%
%ADD159THD159*%
%ADD160C,1.7000*%
%ADD161C,1.0000*%
%ADD162C,0.8000*%
D72*
X317225Y703098D02*
D03*
X337225D02*
D03*
X357225D02*
D03*
Y662468D02*
D03*
X337225D02*
D03*
X317225D02*
D03*
D140*
X497539Y796811D02*
D03*
X477539D02*
D03*
X517539D02*
D03*
D149*
X0Y0D02*
X1000000D01*
Y1000000D01*
X0D02*
X1000000D01*
X0Y0D02*
Y1000000D01*
D150*
X559910Y147785D02*
D03*
X509110D02*
D03*
Y198585D02*
D03*
X559910D02*
D03*
X203770Y198700D02*
D03*
Y147900D02*
D03*
X152970D02*
D03*
Y198700D02*
D03*
X109515Y408622D02*
D03*
Y357822D02*
D03*
X58715D02*
D03*
Y408622D02*
D03*
X236315D02*
D03*
Y357822D02*
D03*
X185515D02*
D03*
Y408622D02*
D03*
X274821Y593900D02*
D03*
Y543100D02*
D03*
X224021D02*
D03*
Y593900D02*
D03*
D151*
X534510Y173185D02*
D03*
X178370Y173300D02*
D03*
X541039Y796811D02*
D03*
X454039D02*
D03*
X84115Y383222D02*
D03*
X210915D02*
D03*
X249421Y568500D02*
D03*
D152*
X965000Y605000D02*
D03*
X35000Y965000D02*
D03*
X750000D02*
D03*
X35000Y35000D02*
D03*
X965000D02*
D03*
D153*
X21502Y889170D02*
D03*
Y819170D02*
D03*
D154*
X48502Y829170D02*
D03*
Y879170D02*
D03*
D155*
X154817Y730832D02*
D03*
X129417D02*
D03*
X205617D02*
D03*
X180217D02*
D03*
X257925Y725086D02*
D03*
Y750486D02*
D03*
X755510Y912979D02*
D03*
X799063Y224965D02*
D03*
D156*
X947328Y858039D02*
D03*
D157*
Y921039D02*
D03*
D158*
X899329Y886039D02*
D03*
D159*
X939750Y673250D02*
D03*
D160*
Y723250D02*
D03*
D161*
X516240Y111760D02*
D03*
X872869Y112120D02*
D03*
X800089Y111760D02*
D03*
X964000Y274460D02*
D03*
X848818Y76448D02*
D03*
X744948D02*
D03*
D162*
X745620Y466320D02*
D03*
X758055Y522797D02*
D03*
X457807Y475670D02*
D03*
X464394Y471145D02*
D03*
X450876Y480066D02*
D03*
X640127Y521158D02*
D03*
X304048Y196969D02*
D03*
X372538Y538022D02*
D03*
X513339Y521183D02*
D03*
X508506Y527235D02*
D03*
X504367Y534072D02*
D03*
X533343Y527674D02*
D03*
X583220Y465407D02*
D03*
X589223Y470903D02*
D03*
X595145Y476075D02*
D03*
X384186Y542245D02*
D03*
X384852Y534094D02*
D03*
X362719Y544500D02*
D03*
X372639Y546208D02*
D03*
X396472Y586330D02*
D03*
X395102Y536695D02*
D03*
X276020Y89084D02*
D03*
X648924Y655686D02*
D03*
X586576Y694478D02*
D03*
X527839Y717758D02*
D03*
X536518Y718046D02*
D03*
X536278Y709319D02*
D03*
X544813Y710038D02*
D03*
X544381Y701120D02*
D03*
X553108Y702031D02*
D03*
X552053Y693064D02*
D03*
X561451Y694647D02*
D03*
X560876Y685872D02*
D03*
X569795Y686495D02*
D03*
X578331Y352576D02*
D03*
X568443Y351756D02*
D03*
X559021Y360552D02*
D03*
X568715Y360681D02*
D03*
X550565Y369056D02*
D03*
X551399Y378307D02*
D03*
X542020Y376874D02*
D03*
X541747Y386266D02*
D03*
X655342Y317924D02*
D03*
X621990Y319679D02*
D03*
X571376Y319386D02*
D03*
X300072Y319386D02*
D03*
X267305Y319581D02*
D03*
X212205Y319386D02*
D03*
X500993Y369646D02*
D03*
Y358646D02*
D03*
Y347646D02*
D03*
X489993Y369646D02*
D03*
Y358646D02*
D03*
Y347646D02*
D03*
X478993Y369646D02*
D03*
Y358646D02*
D03*
Y347646D02*
D03*
X855111Y369527D02*
D03*
Y358527D02*
D03*
Y347527D02*
D03*
X844111Y369527D02*
D03*
Y358527D02*
D03*
Y347527D02*
D03*
X833111Y369527D02*
D03*
Y358527D02*
D03*
Y347527D02*
D03*
X798402Y371079D02*
D03*
X212000Y278750D02*
D03*
X271920Y238170D02*
D03*
X708273Y812750D02*
D03*
X654699D02*
D03*
X703250Y754028D02*
D03*
X661250D02*
D03*
X682250Y777500D02*
D03*
X661250Y768590D02*
D03*
X703250D02*
D03*
Y791264D02*
D03*
X661250D02*
D03*
X682250Y791184D02*
D03*
X267759Y82577D02*
D03*
X281923Y95365D02*
D03*
X289965Y183969D02*
D03*
X297370Y190469D02*
D03*
X371853Y63712D02*
D03*
X393283Y165762D02*
D03*
X626250Y238158D02*
D03*
X463939Y306615D02*
D03*
X437173Y307582D02*
D03*
X800089Y22741D02*
D03*
X174412Y612211D02*
D03*
X518250Y306615D02*
D03*
X384421Y291500D02*
D03*
X394936D02*
D03*
X11057Y518028D02*
D03*
X300750Y584744D02*
D03*
X529204Y520926D02*
D03*
X537889Y534251D02*
D03*
X437000Y344000D02*
D03*
X387266Y725408D02*
D03*
X375260Y725827D02*
D03*
X428244Y703272D02*
D03*
X334400Y834000D02*
D03*
X435500Y926750D02*
D03*
X248269Y770821D02*
D03*
X175002Y629320D02*
D03*
X349976Y581762D02*
D03*
X444859Y371009D02*
D03*
X475078Y396701D02*
D03*
X444904Y563159D02*
D03*
X537500Y393500D02*
D03*
X531500Y399000D02*
D03*
X708273Y626053D02*
D03*
X603918Y610589D02*
D03*
X210172Y511582D02*
D03*
X462896Y542598D02*
D03*
X55938Y605025D02*
D03*
X21731Y415767D02*
D03*
X162511Y579892D02*
D03*
X188430Y482218D02*
D03*
Y443327D02*
D03*
X179217Y554063D02*
D03*
X150511Y579892D02*
D03*
X102511D02*
D03*
X114511D02*
D03*
X107101Y440947D02*
D03*
X127821D02*
D03*
X126511Y579892D02*
D03*
X138511D02*
D03*
X90416Y572366D02*
D03*
X76936Y512105D02*
D03*
X76936Y535187D02*
D03*
X64858Y440197D02*
D03*
Y452191D02*
D03*
X567843Y278750D02*
D03*
X828954Y398520D02*
D03*
X507908Y688363D02*
D03*
X433750Y640206D02*
D03*
X412901Y515491D02*
D03*
X541039Y834561D02*
D03*
X182163Y637000D02*
D03*
X150409D02*
D03*
X789957Y343250D02*
D03*
X611318Y643166D02*
D03*
X738539Y291295D02*
D03*
X749054D02*
D03*
X324058Y860806D02*
D03*
X189077Y949950D02*
D03*
X216900Y936620D02*
D03*
X248407Y936620D02*
D03*
X282727Y949950D02*
D03*
X115227Y802319D02*
D03*
X138699Y784411D02*
D03*
X205485Y760322D02*
D03*
X74726Y887450D02*
D03*
X140933Y838207D02*
D03*
X302189Y976984D02*
D03*
X169611D02*
D03*
X567843Y238261D02*
D03*
X794296Y311059D02*
D03*
X820296D02*
D03*
X872368Y306496D02*
D03*
X786745Y544293D02*
D03*
X375260Y639653D02*
D03*
X744150Y714850D02*
D03*
X731450Y602800D02*
D03*
X211704Y238260D02*
D03*
X398848Y656902D02*
D03*
X591447Y532473D02*
D03*
M02*
