G04*
G04 #@! TF.GenerationSoftware,Altium Limited,Altium Designer,21.8.1 (53)*
G04*
G04 Layer_Color=32896*
%FSLAX44Y44*%
%MOMM*%
G71*
G04*
G04 #@! TF.SameCoordinates,745E15D5-9FCC-4B19-B3C1-DDDE3A1CE5A2*
G04*
G04*
G04 #@! TF.FilePolarity,Positive*
G04*
G01*
G75*
%ADD15C,0.2000*%
G36*
X412753Y541002D02*
X412820Y540968D01*
X412876Y540924D01*
X412909Y540868D01*
X412931Y540813D01*
X412942Y540769D01*
Y540735D01*
Y540724D01*
Y533465D01*
X412931Y533376D01*
X412898Y533310D01*
X412876Y533265D01*
X412864Y533254D01*
X412776Y533221D01*
X412709Y533210D01*
X412676Y533199D01*
X412665D01*
X412587Y533210D01*
X412520Y533232D01*
X412476Y533243D01*
X412465Y533254D01*
X412421Y533321D01*
X412398Y533387D01*
X412387Y533443D01*
Y533465D01*
Y536551D01*
X411433D01*
X409546Y533332D01*
X409512Y533287D01*
X409479Y533243D01*
X409457Y533232D01*
X409446Y533221D01*
X409368Y533199D01*
X409324D01*
X409246Y533210D01*
X409179Y533232D01*
X409135Y533254D01*
X409124Y533265D01*
X409068Y533343D01*
X409035Y533398D01*
X409024Y533443D01*
Y533465D01*
X409035Y533520D01*
X409046Y533565D01*
X409057Y533598D01*
X409068Y533609D01*
X410778Y536551D01*
X410711D01*
X410578Y536562D01*
X410456Y536573D01*
X410234Y536628D01*
X410023Y536706D01*
X409856Y536795D01*
X409712Y536884D01*
X409612Y536961D01*
X409546Y537017D01*
X409523Y537039D01*
X409435Y537128D01*
X409357Y537228D01*
X409235Y537427D01*
X409146Y537627D01*
X409090Y537816D01*
X409046Y537971D01*
X409035Y538105D01*
X409024Y538149D01*
Y538182D01*
Y538204D01*
Y538216D01*
Y539337D01*
Y539459D01*
X409046Y539581D01*
X409102Y539814D01*
X409179Y540014D01*
X409268Y540180D01*
X409368Y540325D01*
X409446Y540424D01*
X409501Y540491D01*
X409512Y540513D01*
X409523D01*
X409623Y540602D01*
X409712Y540680D01*
X409923Y540802D01*
X410123Y540891D01*
X410300Y540946D01*
X410467Y540991D01*
X410600Y541002D01*
X410644Y541013D01*
X412665D01*
X412753Y541002D01*
D02*
G37*
G36*
X407725D02*
X407792Y540968D01*
X407847Y540924D01*
X407881Y540868D01*
X407903Y540813D01*
X407914Y540769D01*
Y540735D01*
Y540724D01*
Y537372D01*
X407903Y537283D01*
X407870Y537217D01*
X407825Y537161D01*
X407770Y537128D01*
X407725Y537106D01*
X407681Y537094D01*
X406238D01*
X406071Y537083D01*
X405916Y537039D01*
X405783Y536995D01*
X405672Y536928D01*
X405572Y536872D01*
X405505Y536817D01*
X405461Y536773D01*
X405450Y536762D01*
X405339Y536639D01*
X405261Y536506D01*
X405195Y536373D01*
X405161Y536251D01*
X405139Y536151D01*
X405117Y536062D01*
Y536007D01*
Y535985D01*
Y534864D01*
X405128Y534697D01*
X405172Y534542D01*
X405217Y534408D01*
X405283Y534297D01*
X405339Y534198D01*
X405394Y534131D01*
X405439Y534086D01*
X405450Y534075D01*
X405572Y533964D01*
X405705Y533887D01*
X405838Y533831D01*
X405960Y533798D01*
X406071Y533776D01*
X406160Y533754D01*
X407636D01*
X407725Y533731D01*
X407792Y533698D01*
X407836Y533665D01*
X407847Y533643D01*
X407881Y533565D01*
X407903Y533520D01*
X407914Y533487D01*
Y533476D01*
X407903Y533398D01*
X407881Y533332D01*
X407859Y533287D01*
X407847Y533276D01*
X407781Y533232D01*
X407714Y533210D01*
X407659Y533199D01*
X406238D01*
X406116Y533210D01*
X405994Y533221D01*
X405761Y533276D01*
X405561Y533354D01*
X405394Y533443D01*
X405250Y533531D01*
X405150Y533609D01*
X405084Y533665D01*
X405061Y533687D01*
X404972Y533776D01*
X404895Y533876D01*
X404773Y534075D01*
X404684Y534275D01*
X404628Y534464D01*
X404584Y534619D01*
X404573Y534753D01*
X404562Y534797D01*
Y534830D01*
Y534852D01*
Y534864D01*
Y535974D01*
Y536096D01*
X404584Y536218D01*
X404640Y536451D01*
X404717Y536651D01*
X404806Y536817D01*
X404906Y536961D01*
X404984Y537061D01*
X405039Y537128D01*
X405050Y537150D01*
X405061D01*
X405150Y537239D01*
X405250Y537317D01*
X405450Y537439D01*
X405650Y537527D01*
X405827Y537583D01*
X405994Y537627D01*
X406127Y537638D01*
X406171Y537649D01*
X407359D01*
Y540458D01*
X404850D01*
X404762Y540469D01*
X404695Y540502D01*
X404651Y540536D01*
X404640Y540547D01*
X404595Y540613D01*
X404573Y540680D01*
X404562Y540724D01*
Y540735D01*
X404573Y540802D01*
X404606Y540868D01*
X404651Y540913D01*
X404662Y540924D01*
X404728Y540979D01*
X404784Y541002D01*
X404828Y541013D01*
X407636D01*
X407725Y541002D01*
D02*
G37*
G36*
X401043Y540979D02*
X401254Y540891D01*
X401454Y540780D01*
X401643Y540669D01*
X401820Y540558D01*
X401987Y540436D01*
X402131Y540302D01*
X402264Y540180D01*
X402386Y540058D01*
X402497Y539947D01*
X402597Y539836D01*
X402675Y539736D01*
X402742Y539647D01*
X402797Y539581D01*
X402830Y539525D01*
X402853Y539492D01*
X402864Y539481D01*
X402963Y539292D01*
X403052Y539115D01*
X403141Y538926D01*
X403208Y538737D01*
X403307Y538382D01*
X403352Y538204D01*
X403374Y538049D01*
X403407Y537905D01*
X403419Y537772D01*
X403430Y537649D01*
X403441Y537550D01*
X403452Y537461D01*
Y537405D01*
Y537361D01*
Y537350D01*
Y534864D01*
X403441Y534730D01*
X403430Y534608D01*
X403374Y534386D01*
X403285Y534175D01*
X403197Y534009D01*
X403108Y533865D01*
X403019Y533765D01*
X402963Y533698D01*
X402941Y533687D01*
Y533676D01*
X402841Y533587D01*
X402742Y533520D01*
X402542Y533398D01*
X402342Y533321D01*
X402164Y533254D01*
X402009Y533221D01*
X401898Y533210D01*
X401853Y533199D01*
X401221D01*
X401088Y533210D01*
X400965Y533221D01*
X400743Y533276D01*
X400533Y533354D01*
X400366Y533443D01*
X400222Y533520D01*
X400122Y533598D01*
X400055Y533654D01*
X400033Y533676D01*
X399944Y533765D01*
X399867Y533865D01*
X399756Y534064D01*
X399667Y534264D01*
X399600Y534453D01*
X399567Y534619D01*
X399556Y534753D01*
X399545Y534797D01*
Y534830D01*
Y534852D01*
Y534864D01*
Y535985D01*
Y536118D01*
X399567Y536240D01*
X399622Y536462D01*
X399700Y536673D01*
X399789Y536839D01*
X399878Y536983D01*
X399955Y537083D01*
X400011Y537150D01*
X400022Y537172D01*
X400033D01*
X400122Y537261D01*
X400222Y537339D01*
X400422Y537450D01*
X400621Y537538D01*
X400810Y537605D01*
X400977Y537638D01*
X401054Y537649D01*
X401110D01*
X401165Y537661D01*
X402897D01*
X402886Y537794D01*
X402875Y537927D01*
X402853Y538060D01*
X402819Y538182D01*
X402797Y538282D01*
X402775Y538360D01*
X402764Y538404D01*
X402753Y538427D01*
X402697Y538582D01*
X402631Y538726D01*
X402575Y538848D01*
X402519Y538959D01*
X402464Y539059D01*
X402431Y539126D01*
X402408Y539170D01*
X402397Y539181D01*
X402275Y539359D01*
X402153Y539503D01*
X402042Y539636D01*
X401942Y539747D01*
X401853Y539836D01*
X401787Y539892D01*
X401743Y539936D01*
X401731Y539947D01*
X401576Y540069D01*
X401443Y540158D01*
X401387Y540191D01*
X401343Y540225D01*
X401321Y540236D01*
X401310Y540247D01*
X401077Y540369D01*
X400954Y540424D01*
X400843Y540458D01*
X400777Y540502D01*
X400743Y540547D01*
X400721Y540569D01*
X400710Y540580D01*
X400688Y540624D01*
X400666Y540669D01*
Y540702D01*
Y540713D01*
X400677Y540791D01*
X400699Y540857D01*
X400732Y540902D01*
X400743Y540913D01*
X400810Y540968D01*
X400866Y541002D01*
X400910Y541013D01*
X400932D01*
X401043Y540979D01*
D02*
G37*
G36*
X414439Y495028D02*
X414506Y494994D01*
X414561Y494950D01*
X414594Y494894D01*
X414617Y494839D01*
X414628Y494795D01*
Y494761D01*
Y494750D01*
Y493929D01*
X414617Y493840D01*
X414583Y493773D01*
X414561Y493729D01*
X414550Y493718D01*
X414461Y493685D01*
X414395Y493662D01*
X414361Y493651D01*
X414350D01*
X414273Y493662D01*
X414206Y493685D01*
X414162Y493707D01*
X414151Y493718D01*
X414106Y493784D01*
X414084Y493851D01*
X414073Y493907D01*
Y493929D01*
Y494484D01*
X411342D01*
X412952Y487557D01*
X412963Y487491D01*
X412952Y487402D01*
X412919Y487347D01*
X412885Y487302D01*
X412874Y487291D01*
X412796Y487258D01*
X412741Y487236D01*
X412696Y487225D01*
X412674D01*
X412508Y487280D01*
X412452Y487358D01*
X412419Y487402D01*
X412408Y487424D01*
Y487435D01*
X410721Y494695D01*
X410710Y494784D01*
X410721Y494861D01*
X410743Y494917D01*
X410776Y494950D01*
X410787Y494961D01*
X410854Y495005D01*
X410920Y495028D01*
X410976Y495039D01*
X414350D01*
X414439Y495028D01*
D02*
G37*
G36*
X423929D02*
X423996Y494994D01*
X424052Y494950D01*
X424085Y494894D01*
X424107Y494839D01*
X424118Y494795D01*
Y494761D01*
Y494750D01*
Y487491D01*
X424107Y487402D01*
X424074Y487336D01*
X424052Y487291D01*
X424040Y487280D01*
X423952Y487247D01*
X423885Y487236D01*
X423852Y487225D01*
X423841D01*
X423763Y487236D01*
X423696Y487258D01*
X423652Y487269D01*
X423641Y487280D01*
X423596Y487347D01*
X423574Y487413D01*
X423563Y487469D01*
Y487491D01*
Y490577D01*
X422609D01*
X420722Y487358D01*
X420688Y487313D01*
X420655Y487269D01*
X420633Y487258D01*
X420622Y487247D01*
X420544Y487225D01*
X420500D01*
X420422Y487236D01*
X420355Y487258D01*
X420311Y487280D01*
X420300Y487291D01*
X420244Y487369D01*
X420211Y487424D01*
X420200Y487469D01*
Y487491D01*
X420211Y487546D01*
X420222Y487591D01*
X420233Y487624D01*
X420244Y487635D01*
X421954Y490577D01*
X421887D01*
X421754Y490588D01*
X421632Y490599D01*
X421410Y490654D01*
X421199Y490732D01*
X421032Y490821D01*
X420888Y490910D01*
X420788Y490987D01*
X420722Y491043D01*
X420699Y491065D01*
X420611Y491154D01*
X420533Y491254D01*
X420411Y491454D01*
X420322Y491653D01*
X420266Y491842D01*
X420222Y491997D01*
X420211Y492131D01*
X420200Y492175D01*
Y492208D01*
Y492230D01*
Y492242D01*
Y493363D01*
Y493485D01*
X420222Y493607D01*
X420278Y493840D01*
X420355Y494040D01*
X420444Y494206D01*
X420544Y494351D01*
X420622Y494450D01*
X420677Y494517D01*
X420688Y494539D01*
X420699D01*
X420799Y494628D01*
X420888Y494706D01*
X421099Y494828D01*
X421299Y494917D01*
X421476Y494972D01*
X421643Y495017D01*
X421776Y495028D01*
X421820Y495039D01*
X423841D01*
X423929Y495028D01*
D02*
G37*
G36*
X418901D02*
X418968Y494994D01*
X419023Y494950D01*
X419057Y494894D01*
X419079Y494839D01*
X419090Y494795D01*
Y494761D01*
Y494750D01*
Y491398D01*
X419079Y491309D01*
X419046Y491243D01*
X419001Y491187D01*
X418946Y491154D01*
X418901Y491132D01*
X418857Y491120D01*
X417414D01*
X417247Y491109D01*
X417092Y491065D01*
X416959Y491021D01*
X416848Y490954D01*
X416748Y490899D01*
X416681Y490843D01*
X416637Y490799D01*
X416626Y490788D01*
X416515Y490665D01*
X416437Y490532D01*
X416371Y490399D01*
X416337Y490277D01*
X416315Y490177D01*
X416293Y490088D01*
Y490033D01*
Y490011D01*
Y488890D01*
X416304Y488723D01*
X416348Y488568D01*
X416393Y488434D01*
X416459Y488323D01*
X416515Y488223D01*
X416570Y488157D01*
X416615Y488112D01*
X416626Y488101D01*
X416748Y487990D01*
X416881Y487913D01*
X417014Y487857D01*
X417136Y487824D01*
X417247Y487802D01*
X417336Y487780D01*
X418812D01*
X418901Y487757D01*
X418968Y487724D01*
X419012Y487691D01*
X419023Y487668D01*
X419057Y487591D01*
X419079Y487546D01*
X419090Y487513D01*
Y487502D01*
X419079Y487424D01*
X419057Y487358D01*
X419035Y487313D01*
X419023Y487302D01*
X418957Y487258D01*
X418890Y487236D01*
X418835Y487225D01*
X417414D01*
X417292Y487236D01*
X417170Y487247D01*
X416937Y487302D01*
X416737Y487380D01*
X416570Y487469D01*
X416426Y487557D01*
X416326Y487635D01*
X416259Y487691D01*
X416237Y487713D01*
X416148Y487802D01*
X416071Y487902D01*
X415949Y488101D01*
X415860Y488301D01*
X415804Y488490D01*
X415760Y488645D01*
X415749Y488778D01*
X415738Y488823D01*
Y488856D01*
Y488878D01*
Y488890D01*
Y490000D01*
Y490121D01*
X415760Y490244D01*
X415816Y490477D01*
X415893Y490676D01*
X415982Y490843D01*
X416082Y490987D01*
X416160Y491087D01*
X416215Y491154D01*
X416226Y491176D01*
X416237D01*
X416326Y491265D01*
X416426Y491343D01*
X416626Y491465D01*
X416826Y491553D01*
X417003Y491609D01*
X417170Y491653D01*
X417303Y491664D01*
X417347Y491675D01*
X418535D01*
Y494484D01*
X416026D01*
X415938Y494495D01*
X415871Y494528D01*
X415827Y494562D01*
X415816Y494573D01*
X415771Y494639D01*
X415749Y494706D01*
X415738Y494750D01*
Y494761D01*
X415749Y494828D01*
X415782Y494894D01*
X415827Y494939D01*
X415838Y494950D01*
X415904Y495005D01*
X415960Y495028D01*
X416004Y495039D01*
X418812D01*
X418901Y495028D01*
D02*
G37*
G36*
X516937Y446177D02*
X517104Y446144D01*
X517248Y446099D01*
X517381Y446055D01*
X517492Y446011D01*
X517581Y445966D01*
X517626Y445933D01*
X517648Y445922D01*
X517792Y445822D01*
X517925Y445711D01*
X518025Y445611D01*
X518114Y445511D01*
X518181Y445422D01*
X518225Y445356D01*
X518247Y445311D01*
X518258Y445289D01*
X518358Y445400D01*
X518469Y445489D01*
X518558Y445578D01*
X518647Y445644D01*
X518725Y445689D01*
X518780Y445722D01*
X518824Y445744D01*
X518835Y445755D01*
X518958Y445811D01*
X519058Y445844D01*
X519102Y445855D01*
X519135Y445866D01*
X519146D01*
X519157D01*
X519268Y445911D01*
X519379D01*
X519557D01*
X520123D01*
X520256D01*
X520378Y445888D01*
X520600Y445833D01*
X520811Y445755D01*
X520978Y445666D01*
X521122Y445578D01*
X521222Y445500D01*
X521288Y445444D01*
X521311Y445433D01*
Y445422D01*
X521399Y445334D01*
X521477Y445234D01*
X521588Y445034D01*
X521677Y444834D01*
X521744Y444645D01*
X521777Y444479D01*
X521788Y444357D01*
X521799Y444301D01*
Y443114D01*
X521777Y443025D01*
X521744Y442958D01*
X521710Y442914D01*
X521688Y442903D01*
X521610Y442869D01*
X521566Y442847D01*
X521533Y442836D01*
X521522D01*
X521444Y442847D01*
X521377Y442869D01*
X521333Y442892D01*
X521322Y442903D01*
X521277Y442969D01*
X521255Y443036D01*
X521244Y443091D01*
Y444235D01*
X521233Y444401D01*
X521189Y444557D01*
X521144Y444690D01*
X521078Y444801D01*
X521022Y444901D01*
X520967Y444967D01*
X520922Y445012D01*
X520911Y445023D01*
X520789Y445134D01*
X520656Y445211D01*
X520523Y445278D01*
X520401Y445311D01*
X520290Y445334D01*
X520201Y445356D01*
X520145D01*
X520123D01*
X519557D01*
X519390Y445345D01*
X519235Y445300D01*
X519102Y445256D01*
X518991Y445189D01*
X518891Y445134D01*
X518824Y445078D01*
X518780Y445034D01*
X518769Y445023D01*
X518658Y444901D01*
X518580Y444767D01*
X518525Y444634D01*
X518491Y444512D01*
X518469Y444401D01*
X518447Y444312D01*
Y444235D01*
X518425Y444146D01*
X518391Y444079D01*
X518358Y444035D01*
X518336Y444024D01*
X518258Y443990D01*
X518214Y443968D01*
X518181Y443957D01*
X518170D01*
X518092Y443968D01*
X518025Y443990D01*
X517981Y444013D01*
X517970Y444024D01*
X517925Y444090D01*
X517903Y444157D01*
X517892Y444212D01*
Y444512D01*
X517881Y444679D01*
X517836Y444834D01*
X517792Y444978D01*
X517725Y445089D01*
X517670Y445189D01*
X517615Y445256D01*
X517570Y445300D01*
X517559Y445311D01*
X517437Y445422D01*
X517304Y445500D01*
X517170Y445555D01*
X517048Y445589D01*
X516937Y445622D01*
X516849Y445633D01*
X516793D01*
X516771D01*
X515650D01*
X515483Y445622D01*
X515328Y445578D01*
X515195Y445533D01*
X515084Y445467D01*
X514984Y445411D01*
X514917Y445356D01*
X514873Y445311D01*
X514862Y445300D01*
X514751Y445178D01*
X514673Y445045D01*
X514618Y444912D01*
X514584Y444790D01*
X514562Y444679D01*
X514540Y444590D01*
Y443114D01*
X514518Y443025D01*
X514484Y442958D01*
X514451Y442914D01*
X514429Y442903D01*
X514351Y442869D01*
X514307Y442847D01*
X514273Y442836D01*
X514262D01*
X514185Y442847D01*
X514118Y442869D01*
X514074Y442892D01*
X514063Y442903D01*
X514018Y442969D01*
X513996Y443036D01*
X513985Y443091D01*
Y444512D01*
X513996Y444634D01*
X514007Y444756D01*
X514063Y444989D01*
X514140Y445189D01*
X514229Y445356D01*
X514307Y445500D01*
X514384Y445600D01*
X514440Y445666D01*
X514462Y445689D01*
X514551Y445777D01*
X514651Y445855D01*
X514851Y445977D01*
X515051Y446066D01*
X515239Y446121D01*
X515406Y446166D01*
X515539Y446177D01*
X515583Y446188D01*
X515616D01*
X515639D01*
X515650D01*
X516771D01*
X516937Y446177D01*
D02*
G37*
G36*
X520367Y441704D02*
X520600Y441648D01*
X520800Y441571D01*
X520967Y441482D01*
X521111Y441382D01*
X521211Y441304D01*
X521277Y441249D01*
X521300Y441238D01*
Y441227D01*
X521388Y441127D01*
X521466Y441038D01*
X521588Y440827D01*
X521677Y440627D01*
X521732Y440449D01*
X521777Y440283D01*
X521788Y440150D01*
X521799Y440105D01*
Y438085D01*
X521788Y437996D01*
X521755Y437930D01*
X521710Y437874D01*
X521655Y437841D01*
X521599Y437819D01*
X521555Y437808D01*
X521522D01*
X521511D01*
X514251D01*
X514162Y437819D01*
X514096Y437852D01*
X514052Y437874D01*
X514040Y437886D01*
X514007Y437974D01*
X513996Y438041D01*
X513985Y438074D01*
Y438085D01*
X513996Y438163D01*
X514018Y438230D01*
X514029Y438274D01*
X514040Y438285D01*
X514107Y438330D01*
X514174Y438352D01*
X514229Y438363D01*
X514251D01*
X517337D01*
Y439317D01*
X514118Y441204D01*
X514074Y441238D01*
X514029Y441271D01*
X514018Y441293D01*
X514007Y441304D01*
X513985Y441382D01*
Y441426D01*
X513996Y441504D01*
X514018Y441571D01*
X514040Y441615D01*
X514052Y441626D01*
X514129Y441682D01*
X514185Y441715D01*
X514229Y441726D01*
X514251D01*
X514307Y441715D01*
X514351Y441704D01*
X514384Y441693D01*
X514396Y441682D01*
X517337Y439972D01*
Y440039D01*
X517348Y440172D01*
X517359Y440294D01*
X517415Y440516D01*
X517492Y440727D01*
X517581Y440894D01*
X517670Y441038D01*
X517748Y441138D01*
X517803Y441204D01*
X517825Y441227D01*
X517914Y441315D01*
X518014Y441393D01*
X518214Y441515D01*
X518414Y441604D01*
X518602Y441659D01*
X518758Y441704D01*
X518891Y441715D01*
X518935Y441726D01*
X518969D01*
X518991D01*
X519002D01*
X520123D01*
X520245D01*
X520367Y441704D01*
D02*
G37*
G36*
X576167Y447518D02*
X576234Y447484D01*
X576278Y447462D01*
X576290Y447451D01*
X576323Y447362D01*
X576334Y447295D01*
X576345Y447262D01*
Y447251D01*
X576334Y447173D01*
X576312Y447107D01*
X576301Y447062D01*
X576290Y447051D01*
X576223Y447007D01*
X576156Y446985D01*
X576101Y446974D01*
X576079D01*
X572993D01*
Y446019D01*
X576212Y444132D01*
X576256Y444099D01*
X576301Y444065D01*
X576312Y444043D01*
X576323Y444032D01*
X576345Y443954D01*
Y443910D01*
X576334Y443832D01*
X576312Y443766D01*
X576290Y443721D01*
X576278Y443710D01*
X576201Y443655D01*
X576145Y443621D01*
X576101Y443610D01*
X576079D01*
X576023Y443621D01*
X575979Y443633D01*
X575946Y443644D01*
X575934Y443655D01*
X572993Y445364D01*
Y445298D01*
X572982Y445164D01*
X572971Y445042D01*
X572915Y444820D01*
X572838Y444609D01*
X572749Y444443D01*
X572660Y444299D01*
X572582Y444199D01*
X572527Y444132D01*
X572505Y444110D01*
X572416Y444021D01*
X572316Y443943D01*
X572116Y443821D01*
X571916Y443732D01*
X571728Y443677D01*
X571572Y443633D01*
X571439Y443621D01*
X571395Y443610D01*
X571361D01*
X571339D01*
X571328D01*
X570207D01*
X570085D01*
X569963Y443633D01*
X569730Y443688D01*
X569530Y443766D01*
X569363Y443854D01*
X569219Y443954D01*
X569119Y444032D01*
X569053Y444088D01*
X569030Y444099D01*
Y444110D01*
X568942Y444210D01*
X568864Y444299D01*
X568742Y444509D01*
X568653Y444709D01*
X568597Y444887D01*
X568553Y445053D01*
X568542Y445187D01*
X568531Y445231D01*
Y447251D01*
X568542Y447340D01*
X568575Y447407D01*
X568620Y447462D01*
X568675Y447495D01*
X568731Y447518D01*
X568775Y447529D01*
X568808D01*
X568820D01*
X576079D01*
X576167Y447518D01*
D02*
G37*
G36*
X574813Y442489D02*
X574935Y442478D01*
X575157Y442423D01*
X575368Y442334D01*
X575535Y442245D01*
X575679Y442156D01*
X575779Y442067D01*
X575846Y442012D01*
X575857Y441990D01*
X575868D01*
X575957Y441890D01*
X576023Y441790D01*
X576145Y441590D01*
X576223Y441390D01*
X576290Y441213D01*
X576323Y441057D01*
X576334Y440946D01*
X576345Y440902D01*
Y440269D01*
X576334Y440136D01*
X576323Y440014D01*
X576267Y439792D01*
X576190Y439581D01*
X576101Y439415D01*
X576023Y439270D01*
X575946Y439170D01*
X575890Y439104D01*
X575868Y439082D01*
X575779Y438993D01*
X575679Y438915D01*
X575479Y438804D01*
X575280Y438715D01*
X575091Y438649D01*
X574924Y438615D01*
X574791Y438604D01*
X574747Y438593D01*
X574714D01*
X574691D01*
X574680D01*
X573559D01*
X573426D01*
X573304Y438615D01*
X573082Y438671D01*
X572871Y438749D01*
X572704Y438837D01*
X572560Y438926D01*
X572460Y439004D01*
X572394Y439059D01*
X572371Y439071D01*
Y439082D01*
X572283Y439170D01*
X572205Y439270D01*
X572094Y439470D01*
X572005Y439670D01*
X571939Y439859D01*
X571905Y440025D01*
X571894Y440103D01*
Y440158D01*
X571883Y440214D01*
Y441945D01*
X571750Y441934D01*
X571617Y441923D01*
X571483Y441901D01*
X571361Y441868D01*
X571261Y441846D01*
X571184Y441823D01*
X571139Y441812D01*
X571117Y441801D01*
X570962Y441746D01*
X570817Y441679D01*
X570695Y441623D01*
X570584Y441568D01*
X570484Y441512D01*
X570418Y441479D01*
X570373Y441457D01*
X570362Y441446D01*
X570185Y441324D01*
X570040Y441202D01*
X569907Y441091D01*
X569796Y440991D01*
X569707Y440902D01*
X569652Y440835D01*
X569608Y440791D01*
X569596Y440780D01*
X569474Y440625D01*
X569386Y440491D01*
X569352Y440436D01*
X569319Y440391D01*
X569308Y440369D01*
X569297Y440358D01*
X569175Y440125D01*
X569119Y440003D01*
X569086Y439892D01*
X569041Y439825D01*
X568997Y439792D01*
X568975Y439770D01*
X568964Y439759D01*
X568919Y439737D01*
X568875Y439714D01*
X568842D01*
X568831D01*
X568753Y439725D01*
X568686Y439748D01*
X568642Y439781D01*
X568631Y439792D01*
X568575Y439859D01*
X568542Y439914D01*
X568531Y439958D01*
Y439981D01*
X568564Y440092D01*
X568653Y440303D01*
X568764Y440502D01*
X568875Y440691D01*
X568986Y440869D01*
X569108Y441035D01*
X569241Y441180D01*
X569363Y441313D01*
X569485Y441435D01*
X569596Y441546D01*
X569707Y441646D01*
X569807Y441723D01*
X569896Y441790D01*
X569963Y441846D01*
X570018Y441879D01*
X570051Y441901D01*
X570063Y441912D01*
X570251Y442012D01*
X570429Y442101D01*
X570618Y442190D01*
X570806Y442256D01*
X571161Y442356D01*
X571339Y442401D01*
X571494Y442423D01*
X571639Y442456D01*
X571772Y442467D01*
X571894Y442478D01*
X571994Y442489D01*
X572083Y442500D01*
X572138D01*
X572183D01*
X572194D01*
X574680D01*
X574813Y442489D01*
D02*
G37*
%LPC*%
G36*
X412387Y540458D02*
X410711D01*
X410545Y540447D01*
X410389Y540402D01*
X410256Y540358D01*
X410134Y540291D01*
X410045Y540236D01*
X409967Y540180D01*
X409923Y540136D01*
X409912Y540125D01*
X409801Y539992D01*
X409723Y539858D01*
X409657Y539725D01*
X409623Y539603D01*
X409601Y539503D01*
X409579Y539414D01*
Y539359D01*
Y539337D01*
Y538216D01*
X409590Y538049D01*
X409634Y537894D01*
X409690Y537749D01*
X409745Y537638D01*
X409812Y537538D01*
X409868Y537472D01*
X409912Y537427D01*
X409923Y537416D01*
X410056Y537317D01*
X410189Y537239D01*
X410323Y537183D01*
X410445Y537150D01*
X410545Y537128D01*
X410633Y537106D01*
X412387D01*
Y540458D01*
D02*
G37*
G36*
X402897Y537106D02*
X401221D01*
X401054Y537094D01*
X400899Y537050D01*
X400755Y537006D01*
X400644Y536939D01*
X400544Y536884D01*
X400477Y536828D01*
X400433Y536784D01*
X400422Y536773D01*
X400311Y536651D01*
X400233Y536517D01*
X400177Y536384D01*
X400144Y536262D01*
X400111Y536151D01*
X400100Y536062D01*
Y536007D01*
Y535985D01*
Y534864D01*
X400111Y534697D01*
X400155Y534542D01*
X400200Y534408D01*
X400266Y534297D01*
X400322Y534198D01*
X400377Y534131D01*
X400422Y534086D01*
X400433Y534075D01*
X400555Y533964D01*
X400688Y533887D01*
X400821Y533831D01*
X400943Y533798D01*
X401054Y533776D01*
X401143Y533754D01*
X401787D01*
X401942Y533765D01*
X402098Y533809D01*
X402231Y533853D01*
X402342Y533920D01*
X402431Y533975D01*
X402508Y534031D01*
X402553Y534064D01*
X402564Y534075D01*
X402675Y534209D01*
X402753Y534342D01*
X402819Y534475D01*
X402853Y534597D01*
X402875Y534697D01*
X402886Y534786D01*
X402897Y534841D01*
Y534864D01*
Y537106D01*
D02*
G37*
G36*
X423563Y494484D02*
X421887D01*
X421721Y494473D01*
X421565Y494428D01*
X421432Y494384D01*
X421310Y494317D01*
X421221Y494262D01*
X421143Y494206D01*
X421099Y494162D01*
X421088Y494151D01*
X420977Y494018D01*
X420899Y493884D01*
X420833Y493751D01*
X420799Y493629D01*
X420777Y493529D01*
X420755Y493440D01*
Y493385D01*
Y493363D01*
Y492242D01*
X420766Y492075D01*
X420810Y491920D01*
X420866Y491775D01*
X420921Y491664D01*
X420988Y491564D01*
X421044Y491498D01*
X421088Y491454D01*
X421099Y491442D01*
X421232Y491343D01*
X421365Y491265D01*
X421499Y491209D01*
X421621Y491176D01*
X421721Y491154D01*
X421809Y491132D01*
X423563D01*
Y494484D01*
D02*
G37*
G36*
X520201Y441171D02*
X520145D01*
X520123D01*
X519002D01*
X518835Y441160D01*
X518680Y441115D01*
X518536Y441060D01*
X518425Y441004D01*
X518325Y440938D01*
X518258Y440882D01*
X518214Y440838D01*
X518203Y440827D01*
X518103Y440694D01*
X518025Y440560D01*
X517970Y440427D01*
X517936Y440305D01*
X517914Y440205D01*
X517892Y440117D01*
Y438363D01*
X521244D01*
Y440039D01*
X521233Y440205D01*
X521189Y440361D01*
X521144Y440494D01*
X521078Y440616D01*
X521022Y440705D01*
X520967Y440783D01*
X520922Y440827D01*
X520911Y440838D01*
X520778Y440949D01*
X520645Y441027D01*
X520512Y441093D01*
X520390Y441127D01*
X520290Y441149D01*
X520201Y441171D01*
D02*
G37*
G36*
X572438Y446974D02*
X569086D01*
Y445298D01*
X569097Y445131D01*
X569141Y444976D01*
X569186Y444842D01*
X569252Y444720D01*
X569308Y444632D01*
X569363Y444554D01*
X569408Y444509D01*
X569419Y444498D01*
X569552Y444387D01*
X569685Y444310D01*
X569818Y444243D01*
X569940Y444210D01*
X570040Y444188D01*
X570129Y444165D01*
X570185D01*
X570207D01*
X571328D01*
X571494Y444176D01*
X571650Y444221D01*
X571794Y444276D01*
X571905Y444332D01*
X572005Y444398D01*
X572072Y444454D01*
X572116Y444498D01*
X572127Y444509D01*
X572227Y444643D01*
X572305Y444776D01*
X572360Y444909D01*
X572394Y445031D01*
X572416Y445131D01*
X572438Y445220D01*
Y446974D01*
D02*
G37*
G36*
X574702Y441945D02*
X574680D01*
X572438D01*
Y440269D01*
X572449Y440103D01*
X572494Y439947D01*
X572538Y439803D01*
X572604Y439692D01*
X572660Y439592D01*
X572715Y439526D01*
X572760Y439481D01*
X572771Y439470D01*
X572893Y439359D01*
X573026Y439281D01*
X573159Y439226D01*
X573282Y439193D01*
X573393Y439159D01*
X573481Y439148D01*
X573537D01*
X573559D01*
X574680D01*
X574847Y439159D01*
X575002Y439204D01*
X575135Y439248D01*
X575246Y439315D01*
X575346Y439370D01*
X575413Y439426D01*
X575457Y439470D01*
X575468Y439481D01*
X575579Y439603D01*
X575657Y439737D01*
X575712Y439870D01*
X575746Y439992D01*
X575768Y440103D01*
X575790Y440192D01*
Y440835D01*
X575779Y440991D01*
X575735Y441146D01*
X575690Y441279D01*
X575624Y441390D01*
X575568Y441479D01*
X575513Y441557D01*
X575479Y441601D01*
X575468Y441612D01*
X575335Y441723D01*
X575202Y441801D01*
X575069Y441868D01*
X574947Y441901D01*
X574847Y441923D01*
X574758Y441934D01*
X574702Y441945D01*
D02*
G37*
%LPD*%
D15*
X412901Y525120D02*
Y525370D01*
Y515370D02*
Y515620D01*
X423864Y469331D02*
Y469581D01*
Y479081D02*
Y479331D01*
X523650Y441565D02*
X523900D01*
X533400D02*
X533650D01*
X566430Y441616D02*
X566680D01*
X556680D02*
X556930D01*
M02*
