G04*
G04 #@! TF.GenerationSoftware,Altium Limited,Altium Designer,21.8.1 (53)*
G04*
G04 Layer_Color=16711935*
%FSLAX44Y44*%
%MOMM*%
G71*
G04*
G04 #@! TF.SameCoordinates,745E15D5-9FCC-4B19-B3C1-DDDE3A1CE5A2*
G04*
G04*
G04 #@! TF.FilePolarity,Negative*
G04*
G01*
G75*
%ADD20R,1.0500X0.9000*%
%ADD54R,0.9000X1.0500*%
%ADD75R,1.2400X1.2400*%
%ADD76C,1.2400*%
%ADD77C,2.2000*%
%ADD78C,1.3000*%
%ADD79C,2.1000*%
%ADD80C,2.6500*%
%ADD81C,2.3500*%
%ADD82O,2.2000X1.3000*%
%ADD83O,1.3000X2.2000*%
%ADD84O,5.1000X2.1000*%
%ADD85O,2.1000X5.1000*%
%ADD86C,2.3000*%
%ADD87C,0.7000*%
D20*
X528650Y435065D02*
D03*
Y448065D02*
D03*
X561680Y448116D02*
D03*
Y435116D02*
D03*
D54*
X406401Y520370D02*
D03*
X419401D02*
D03*
X430364Y474331D02*
D03*
X417364D02*
D03*
D75*
X138450Y331300D02*
D03*
D76*
X11450D02*
D03*
X62250Y356700D02*
D03*
D77*
X452276Y967962D02*
D03*
X539276D02*
D03*
D78*
X515776D02*
D03*
X475776D02*
D03*
X495776D02*
D03*
X140943Y421588D02*
D03*
X317225Y703098D02*
D03*
X337225D02*
D03*
X357225D02*
D03*
Y662468D02*
D03*
X337225D02*
D03*
X317225D02*
D03*
D79*
X393000Y978750D02*
D03*
X418400D02*
D03*
X342200D02*
D03*
X367600D02*
D03*
X154817Y730832D02*
D03*
X129417D02*
D03*
X205617D02*
D03*
X180217D02*
D03*
D80*
X82300Y550150D02*
D03*
X31500D02*
D03*
Y600950D02*
D03*
X82300D02*
D03*
X569110Y82150D02*
D03*
Y31350D02*
D03*
X619910D02*
D03*
Y82150D02*
D03*
X212970D02*
D03*
Y31350D02*
D03*
X263770D02*
D03*
Y82150D02*
D03*
X82300Y156400D02*
D03*
X31500D02*
D03*
Y105600D02*
D03*
X82300D02*
D03*
Y283467D02*
D03*
X31500D02*
D03*
Y232667D02*
D03*
X82300D02*
D03*
D81*
X56900Y575550D02*
D03*
X594510Y56750D02*
D03*
X238370D02*
D03*
X56900Y131000D02*
D03*
Y258067D02*
D03*
D82*
X21502Y889170D02*
D03*
Y819170D02*
D03*
D83*
X48502Y826070D02*
D03*
Y882270D02*
D03*
D84*
X947328Y858039D02*
D03*
Y921039D02*
D03*
D85*
X899329Y886039D02*
D03*
D86*
X939750Y673250D02*
D03*
Y723250D02*
D03*
D87*
X217581Y434588D02*
D03*
X206581D02*
D03*
X195581D02*
D03*
X217581Y445588D02*
D03*
X206581D02*
D03*
X195581D02*
D03*
X217581Y456588D02*
D03*
X206581D02*
D03*
X195581D02*
D03*
X240874Y258067D02*
D03*
X597013Y257948D02*
D03*
X500993Y369646D02*
D03*
Y358646D02*
D03*
Y347646D02*
D03*
X489993Y369646D02*
D03*
Y358646D02*
D03*
Y347646D02*
D03*
X478993Y369646D02*
D03*
Y358646D02*
D03*
Y347646D02*
D03*
X855111Y369527D02*
D03*
Y358527D02*
D03*
Y347527D02*
D03*
X844111Y369527D02*
D03*
Y358527D02*
D03*
Y347527D02*
D03*
X833111Y369527D02*
D03*
Y358527D02*
D03*
Y347527D02*
D03*
X493745Y626000D02*
D03*
X504745D02*
D03*
X515745D02*
D03*
X526745D02*
D03*
X537745D02*
D03*
X548745D02*
D03*
X493745Y615000D02*
D03*
X504745D02*
D03*
X515745D02*
D03*
X526745D02*
D03*
X537745D02*
D03*
X548745D02*
D03*
X493745Y604000D02*
D03*
X504745D02*
D03*
X515745D02*
D03*
X526745D02*
D03*
X537745D02*
D03*
X548745D02*
D03*
X493745Y593000D02*
D03*
X504745D02*
D03*
X515745D02*
D03*
X526745D02*
D03*
X537745D02*
D03*
X548745D02*
D03*
X493745Y582000D02*
D03*
X504745D02*
D03*
X515745D02*
D03*
X526745D02*
D03*
X537745D02*
D03*
X548745D02*
D03*
X493745Y571000D02*
D03*
X504745D02*
D03*
X515745D02*
D03*
X526745D02*
D03*
X537745D02*
D03*
X548745D02*
D03*
M02*
