G04*
G04 #@! TF.GenerationSoftware,Altium Limited,Altium Designer,21.8.1 (53)*
G04*
G04 Layer_Physical_Order=4*
G04 Layer_Color=16711680*
%FSLAX44Y44*%
%MOMM*%
G71*
G04*
G04 #@! TF.SameCoordinates,745E15D5-9FCC-4B19-B3C1-DDDE3A1CE5A2*
G04*
G04*
G04 #@! TF.FilePolarity,Positive*
G04*
G01*
G75*
%ADD15C,0.2000*%
%ADD77C,2.2000*%
%ADD79C,2.1000*%
%ADD88C,0.2100*%
%ADD89C,0.1571*%
%ADD91R,0.9500X0.8000*%
%ADD123R,0.8000X0.9500*%
%ADD140C,0.5000*%
%ADD141C,0.3000*%
%ADD146R,1.1400X1.1400*%
%ADD147C,1.1400*%
%ADD148C,1.2000*%
%ADD149C,2.0000*%
%ADD150C,2.5500*%
%ADD151C,2.2500*%
%ADD152O,2.1000X1.2000*%
%ADD153O,1.2000X2.1000*%
%ADD154C,5.5000*%
%ADD155O,5.0000X2.0000*%
%ADD156O,2.0000X5.0000*%
%ADD157C,0.6000*%
%ADD158C,1.0000*%
G36*
X997451Y2549D02*
X2549D01*
Y326317D01*
X5049Y326987D01*
X5289Y326572D01*
X6722Y325139D01*
X8478Y324125D01*
X10436Y323600D01*
X10700D01*
Y331300D01*
Y339000D01*
X10436D01*
X8478Y338475D01*
X6722Y337462D01*
X5289Y336028D01*
X5049Y335613D01*
X2549Y336283D01*
Y997451D01*
X997451D01*
Y2549D01*
D02*
G37*
%LPC*%
G36*
X341450Y990750D02*
X340620D01*
X337568Y989932D01*
X334832Y988352D01*
X332598Y986118D01*
X331018Y983382D01*
X330200Y980330D01*
Y979500D01*
X341450D01*
Y990750D01*
D02*
G37*
G36*
X303182Y981974D02*
X301197D01*
X299363Y981215D01*
X297959Y979811D01*
X297199Y977977D01*
Y975992D01*
X297959Y974158D01*
X299363Y972754D01*
X301197Y971994D01*
X303182D01*
X305016Y972754D01*
X306420Y974158D01*
X307179Y975992D01*
Y977977D01*
X306420Y979811D01*
X305016Y981215D01*
X303182Y981974D01*
D02*
G37*
G36*
X170603D02*
X168618D01*
X166784Y981215D01*
X165380Y979811D01*
X164621Y977977D01*
Y975992D01*
X165380Y974158D01*
X166784Y972754D01*
X168618Y971994D01*
X170603D01*
X172437Y972754D01*
X173841Y974158D01*
X174601Y975992D01*
Y977977D01*
X173841Y979811D01*
X172437Y981215D01*
X170603Y981974D01*
D02*
G37*
G36*
X343780Y990750D02*
X342950D01*
Y978750D01*
Y966750D01*
X343780D01*
X346832Y967568D01*
X349568Y969148D01*
X351802Y971382D01*
X353382Y974118D01*
X353611Y974972D01*
X356199D01*
X356427Y974122D01*
X358006Y971388D01*
X360238Y969156D01*
X362972Y967577D01*
X366021Y966760D01*
X369179D01*
X372228Y967577D01*
X374962Y969156D01*
X377194Y971388D01*
X378773Y974122D01*
X379006Y974992D01*
X381594D01*
X381827Y974122D01*
X383406Y971388D01*
X385638Y969156D01*
X388372Y967577D01*
X391422Y966760D01*
X394579D01*
X397628Y967577D01*
X400362Y969156D01*
X402594Y971388D01*
X404173Y974122D01*
X404406Y974992D01*
X406994D01*
X407227Y974122D01*
X408806Y971388D01*
X411038Y969156D01*
X413772Y967577D01*
X416822Y966760D01*
X419978D01*
X423028Y967577D01*
X425762Y969156D01*
X427994Y971388D01*
X429573Y974122D01*
X430390Y977171D01*
Y980329D01*
X429573Y983378D01*
X427994Y986112D01*
X425762Y988344D01*
X423028Y989923D01*
X419978Y990740D01*
X416822D01*
X413772Y989923D01*
X411038Y988344D01*
X408806Y986112D01*
X407227Y983378D01*
X406994Y982508D01*
X404406D01*
X404173Y983378D01*
X402594Y986112D01*
X400362Y988344D01*
X397628Y989923D01*
X394579Y990740D01*
X391422D01*
X388372Y989923D01*
X385638Y988344D01*
X383406Y986112D01*
X381827Y983378D01*
X381594Y982508D01*
X379006D01*
X378773Y983378D01*
X377194Y986112D01*
X374962Y988344D01*
X372228Y989923D01*
X369179Y990740D01*
X366021D01*
X362972Y989923D01*
X360238Y988344D01*
X358006Y986112D01*
X356427Y983378D01*
X356199Y982528D01*
X353611D01*
X353382Y983382D01*
X351802Y986118D01*
X349568Y988352D01*
X346832Y989932D01*
X343780Y990750D01*
D02*
G37*
G36*
X341450Y978000D02*
X330200D01*
Y977170D01*
X331018Y974118D01*
X332598Y971382D01*
X334832Y969148D01*
X337568Y967568D01*
X340620Y966750D01*
X341450D01*
Y978000D01*
D02*
G37*
G36*
X516828Y975952D02*
X514724D01*
X512692Y975407D01*
X510870Y974355D01*
X509382Y972868D01*
X508330Y971046D01*
X507786Y969014D01*
Y966910D01*
X508330Y964878D01*
X509382Y963056D01*
X510870Y961568D01*
X512692Y960517D01*
X514724Y959972D01*
X516828D01*
X518860Y960517D01*
X520682Y961568D01*
X522169Y963056D01*
X523221Y964878D01*
X523766Y966910D01*
Y969014D01*
X523221Y971046D01*
X522169Y972868D01*
X520682Y974355D01*
X518860Y975407D01*
X516828Y975952D01*
D02*
G37*
G36*
X496828D02*
X494724D01*
X492692Y975407D01*
X490870Y974355D01*
X489382Y972868D01*
X488330Y971046D01*
X487786Y969014D01*
Y966910D01*
X488330Y964878D01*
X489382Y963056D01*
X490870Y961568D01*
X492692Y960517D01*
X494724Y959972D01*
X496828D01*
X498860Y960517D01*
X500681Y961568D01*
X502169Y963056D01*
X503221Y964878D01*
X503766Y966910D01*
Y969014D01*
X503221Y971046D01*
X502169Y972868D01*
X500681Y974355D01*
X498860Y975407D01*
X496828Y975952D01*
D02*
G37*
G36*
X476828D02*
X474724D01*
X472692Y975407D01*
X470870Y974355D01*
X469382Y972868D01*
X468330Y971046D01*
X467786Y969014D01*
Y966910D01*
X468330Y964878D01*
X469382Y963056D01*
X470870Y961568D01*
X472692Y960517D01*
X474724Y959972D01*
X476828D01*
X478860Y960517D01*
X480681Y961568D01*
X482169Y963056D01*
X483221Y964878D01*
X483766Y966910D01*
Y969014D01*
X483221Y971046D01*
X482169Y972868D01*
X480681Y974355D01*
X478860Y975407D01*
X476828Y975952D01*
D02*
G37*
G36*
X540920Y980452D02*
X537631D01*
X534455Y979601D01*
X531607Y977956D01*
X529281Y975631D01*
X527637Y972783D01*
X526786Y969606D01*
Y966318D01*
X527637Y963141D01*
X529281Y960293D01*
X531607Y957968D01*
X534455Y956323D01*
X537631Y955472D01*
X540920D01*
X544096Y956323D01*
X546945Y957968D01*
X549270Y960293D01*
X550914Y963141D01*
X551766Y966318D01*
Y969606D01*
X550914Y972783D01*
X549270Y975631D01*
X546945Y977956D01*
X544096Y979601D01*
X540920Y980452D01*
D02*
G37*
G36*
X453920D02*
X450631D01*
X447455Y979601D01*
X444607Y977956D01*
X442281Y975631D01*
X440637Y972783D01*
X439786Y969606D01*
Y966318D01*
X440637Y963141D01*
X442281Y960293D01*
X444607Y957968D01*
X447455Y956323D01*
X450631Y955472D01*
X453920D01*
X457096Y956323D01*
X459945Y957968D01*
X462270Y960293D01*
X463914Y963141D01*
X464766Y966318D01*
Y969606D01*
X463914Y972783D01*
X462270Y975631D01*
X459945Y977956D01*
X457096Y979601D01*
X453920Y980452D01*
D02*
G37*
G36*
X283720Y954940D02*
X281735D01*
X279901Y954180D01*
X279229Y953508D01*
X192576D01*
X191904Y954180D01*
X190070Y954940D01*
X188084D01*
X186250Y954180D01*
X184847Y952777D01*
X184087Y950943D01*
Y949992D01*
X138417Y904323D01*
X137646Y903168D01*
X137375Y901806D01*
Y841705D01*
X136703Y841033D01*
X135943Y839199D01*
Y837214D01*
X136703Y835380D01*
X138107Y833977D01*
X139941Y833217D01*
X141926D01*
X143760Y833977D01*
X145164Y835380D01*
X145923Y837214D01*
Y839199D01*
X145164Y841033D01*
X144492Y841705D01*
Y900332D01*
X189119Y944960D01*
X190070D01*
X191904Y945720D01*
X192576Y946392D01*
X279229D01*
X279901Y945720D01*
X281735Y944960D01*
X282685D01*
X330925Y896720D01*
Y863800D01*
X328425Y863303D01*
X328288Y863633D01*
X326884Y865037D01*
X325050Y865796D01*
X323065D01*
X321231Y865037D01*
X319827Y863633D01*
X319068Y861799D01*
Y859814D01*
X319827Y857980D01*
X321231Y856576D01*
X323065Y855816D01*
X325050D01*
X326884Y856576D01*
X328288Y857980D01*
X328425Y858310D01*
X330925Y857812D01*
Y837582D01*
X330170Y836827D01*
X329410Y834993D01*
Y833007D01*
X330170Y831173D01*
X331573Y829770D01*
X333407Y829010D01*
X335393D01*
X337227Y829770D01*
X338630Y831173D01*
X339390Y833007D01*
Y834993D01*
X338630Y836827D01*
X338041Y837415D01*
Y898194D01*
X337771Y899556D01*
X336999Y900711D01*
X336999Y900711D01*
X287717Y949992D01*
Y950943D01*
X286958Y952777D01*
X285554Y954180D01*
X283720Y954940D01*
D02*
G37*
G36*
X752321Y994490D02*
X747679D01*
X743094Y993764D01*
X738680Y992329D01*
X734544Y990222D01*
X730789Y987494D01*
X727506Y984211D01*
X724778Y980456D01*
X722671Y976320D01*
X721236Y971906D01*
X720510Y967321D01*
Y962679D01*
X721236Y958094D01*
X722671Y953680D01*
X724778Y949544D01*
X727506Y945789D01*
X730789Y942506D01*
X734544Y939778D01*
X738680Y937671D01*
X743094Y936236D01*
X747679Y935510D01*
X752321D01*
X756906Y936236D01*
X761320Y937671D01*
X765456Y939778D01*
X769211Y942506D01*
X772494Y945789D01*
X775222Y949544D01*
X777329Y953680D01*
X778764Y958094D01*
X779490Y962679D01*
Y967321D01*
X778764Y971906D01*
X777329Y976320D01*
X775222Y980456D01*
X772494Y984211D01*
X769211Y987494D01*
X765456Y990222D01*
X761320Y992329D01*
X756906Y993764D01*
X752321Y994490D01*
D02*
G37*
G36*
X37321D02*
X32679D01*
X28094Y993764D01*
X23680Y992329D01*
X19544Y990222D01*
X15789Y987494D01*
X12506Y984211D01*
X9778Y980456D01*
X7671Y976320D01*
X6236Y971906D01*
X5510Y967321D01*
Y962679D01*
X6236Y958094D01*
X7671Y953680D01*
X9778Y949544D01*
X12506Y945789D01*
X15789Y942506D01*
X19544Y939778D01*
X23680Y937671D01*
X28094Y936236D01*
X32679Y935510D01*
X37321D01*
X41906Y936236D01*
X46320Y937671D01*
X50456Y939778D01*
X54211Y942506D01*
X57494Y945789D01*
X60222Y949544D01*
X62329Y953680D01*
X63764Y958094D01*
X64490Y962679D01*
Y967321D01*
X63764Y971906D01*
X62329Y976320D01*
X60222Y980456D01*
X57494Y984211D01*
X54211Y987494D01*
X50456Y990222D01*
X46320Y992329D01*
X41906Y993764D01*
X37321Y994490D01*
D02*
G37*
G36*
X249400Y941610D02*
X247414D01*
X245580Y940851D01*
X244177Y939447D01*
X243417Y937613D01*
Y935628D01*
X244177Y933794D01*
X245580Y932390D01*
X247414Y931630D01*
X249400D01*
X251234Y932390D01*
X252637Y933794D01*
X253397Y935628D01*
Y937613D01*
X252637Y939447D01*
X251234Y940851D01*
X249400Y941610D01*
D02*
G37*
G36*
X217893Y941610D02*
X215907D01*
X214074Y940851D01*
X212670Y939447D01*
X211910Y937613D01*
Y935628D01*
X212670Y933794D01*
X214074Y932390D01*
X215907Y931630D01*
X217893D01*
X219727Y932390D01*
X221130Y933794D01*
X221890Y935628D01*
Y937613D01*
X221130Y939447D01*
X219727Y940851D01*
X217893Y941610D01*
D02*
G37*
G36*
X962328Y933143D02*
X948078D01*
Y921789D01*
X974333D01*
X974020Y924172D01*
X972810Y927091D01*
X970887Y929598D01*
X968380Y931521D01*
X965461Y932730D01*
X962328Y933143D01*
D02*
G37*
G36*
X946579D02*
X932328D01*
X929196Y932730D01*
X926277Y931521D01*
X923770Y929598D01*
X921846Y927091D01*
X920637Y924172D01*
X920324Y921789D01*
X946579D01*
Y933143D01*
D02*
G37*
G36*
X540672Y931445D02*
X538687D01*
X536853Y930685D01*
X535449Y929281D01*
X534689Y927447D01*
Y925462D01*
X535449Y923628D01*
X536853Y922224D01*
X538687Y921465D01*
X540672D01*
X542506Y922224D01*
X543910Y923628D01*
X544669Y925462D01*
Y927447D01*
X543910Y929281D01*
X542506Y930685D01*
X540672Y931445D01*
D02*
G37*
G36*
X766243Y928240D02*
X764257D01*
X762423Y927480D01*
X761020Y926077D01*
X760260Y924243D01*
Y922257D01*
X761020Y920423D01*
X762423Y919020D01*
X764257Y918260D01*
X766243D01*
X768077Y919020D01*
X769480Y920423D01*
X770240Y922257D01*
Y924243D01*
X769480Y926077D01*
X768077Y927480D01*
X766243Y928240D01*
D02*
G37*
G36*
X740740D02*
X738755D01*
X736921Y927480D01*
X735517Y926077D01*
X734757Y924243D01*
Y922257D01*
X735517Y920423D01*
X736921Y919020D01*
X738755Y918260D01*
X740740D01*
X742574Y919020D01*
X743978Y920423D01*
X744737Y922257D01*
Y924243D01*
X743978Y926077D01*
X742574Y927480D01*
X740740Y928240D01*
D02*
G37*
G36*
X715490D02*
X713505D01*
X711671Y927480D01*
X710267Y926077D01*
X709507Y924243D01*
Y922257D01*
X710267Y920423D01*
X711671Y919020D01*
X713505Y918260D01*
X715490D01*
X717324Y919020D01*
X718728Y920423D01*
X719487Y922257D01*
Y924243D01*
X718728Y926077D01*
X717324Y927480D01*
X715490Y928240D01*
D02*
G37*
G36*
X690404D02*
X688419D01*
X686585Y927480D01*
X685181Y926077D01*
X684422Y924243D01*
Y922257D01*
X685181Y920423D01*
X686585Y919020D01*
X688419Y918260D01*
X690404D01*
X692238Y919020D01*
X693642Y920423D01*
X694402Y922257D01*
Y924243D01*
X693642Y926077D01*
X692238Y927480D01*
X690404Y928240D01*
D02*
G37*
G36*
X974333Y920289D02*
X948078D01*
Y908936D01*
X962328D01*
X965461Y909348D01*
X968380Y910557D01*
X970887Y912481D01*
X972810Y914987D01*
X974020Y917907D01*
X974333Y920289D01*
D02*
G37*
G36*
X946579D02*
X920324D01*
X920637Y917907D01*
X921846Y914987D01*
X923770Y912481D01*
X926277Y910557D01*
X929196Y909348D01*
X932328Y908936D01*
X946579D01*
Y920289D01*
D02*
G37*
G36*
X775243Y917162D02*
X773257D01*
X771423Y916403D01*
X770020Y914999D01*
X769260Y913165D01*
Y911180D01*
X770020Y909346D01*
X771423Y907942D01*
X773257Y907182D01*
X775243D01*
X777077Y907942D01*
X778480Y909346D01*
X779240Y911180D01*
Y913165D01*
X778480Y914999D01*
X777077Y916403D01*
X775243Y917162D01*
D02*
G37*
G36*
X753493D02*
X751507D01*
X749673Y916403D01*
X748270Y914999D01*
X747510Y913165D01*
Y911180D01*
X748270Y909346D01*
X749673Y907942D01*
X751507Y907182D01*
X753493D01*
X755327Y907942D01*
X756730Y909346D01*
X757490Y911180D01*
Y913165D01*
X756730Y914999D01*
X755327Y916403D01*
X753493Y917162D01*
D02*
G37*
G36*
X728743D02*
X726757D01*
X724923Y916403D01*
X723520Y914999D01*
X722760Y913165D01*
Y911180D01*
X723520Y909346D01*
X724923Y907942D01*
X726757Y907182D01*
X728743D01*
X730577Y907942D01*
X731980Y909346D01*
X732740Y911180D01*
Y913165D01*
X731980Y914999D01*
X730577Y916403D01*
X728743Y917162D01*
D02*
G37*
G36*
X701493D02*
X699507D01*
X697673Y916403D01*
X696270Y914999D01*
X695510Y913165D01*
Y911180D01*
X696270Y909346D01*
X697673Y907942D01*
X699507Y907182D01*
X701493D01*
X703327Y907942D01*
X704730Y909346D01*
X705490Y911180D01*
Y913165D01*
X704730Y914999D01*
X703327Y916403D01*
X701493Y917162D01*
D02*
G37*
G36*
X684157D02*
X682172D01*
X680338Y916403D01*
X678934Y914999D01*
X678174Y913165D01*
Y911180D01*
X678934Y909346D01*
X680338Y907942D01*
X682172Y907182D01*
X684157D01*
X685991Y907942D01*
X687395Y909346D01*
X688154Y911180D01*
Y913165D01*
X687395Y914999D01*
X685991Y916403D01*
X684157Y917162D01*
D02*
G37*
G36*
X767115Y906245D02*
X765130D01*
X763296Y905486D01*
X761892Y904082D01*
X761132Y902248D01*
Y900263D01*
X761892Y898429D01*
X763296Y897025D01*
X765130Y896265D01*
X767115D01*
X768949Y897025D01*
X770353Y898429D01*
X771112Y900263D01*
Y902248D01*
X770353Y904082D01*
X768949Y905486D01*
X767115Y906245D01*
D02*
G37*
G36*
X740740D02*
X738755D01*
X736921Y905486D01*
X735517Y904082D01*
X734757Y902248D01*
Y900263D01*
X735517Y898429D01*
X736921Y897025D01*
X738755Y896265D01*
X740740D01*
X742574Y897025D01*
X743978Y898429D01*
X744737Y900263D01*
Y902248D01*
X743978Y904082D01*
X742574Y905486D01*
X740740Y906245D01*
D02*
G37*
G36*
X715546D02*
X713561D01*
X711727Y905486D01*
X710323Y904082D01*
X709563Y902248D01*
Y900263D01*
X710323Y898429D01*
X711727Y897025D01*
X713561Y896265D01*
X715546D01*
X717380Y897025D01*
X718784Y898429D01*
X719543Y900263D01*
Y902248D01*
X718784Y904082D01*
X717380Y905486D01*
X715546Y906245D01*
D02*
G37*
G36*
X690679D02*
X688694D01*
X686860Y905486D01*
X685456Y904082D01*
X684696Y902248D01*
Y900263D01*
X685456Y898429D01*
X686860Y897025D01*
X688694Y896265D01*
X690679D01*
X692513Y897025D01*
X693917Y898429D01*
X694676Y900263D01*
Y902248D01*
X693917Y904082D01*
X692513Y905486D01*
X690679Y906245D01*
D02*
G37*
G36*
X900078Y913044D02*
Y886789D01*
X911432D01*
Y901039D01*
X911020Y904172D01*
X909810Y907091D01*
X907887Y909598D01*
X905380Y911521D01*
X902461Y912730D01*
X900078Y913044D01*
D02*
G37*
G36*
X898578Y913044D02*
X896196Y912730D01*
X893277Y911521D01*
X890770Y909598D01*
X888847Y907091D01*
X887637Y904172D01*
X887225Y901039D01*
Y886789D01*
X898578D01*
Y913044D01*
D02*
G37*
G36*
X75719Y892440D02*
X73734D01*
X71900Y891680D01*
X70496Y890277D01*
X69736Y888443D01*
Y886458D01*
X70496Y884623D01*
X71900Y883220D01*
X73734Y882460D01*
X75719D01*
X77553Y883220D01*
X78956Y884623D01*
X79716Y886458D01*
Y888443D01*
X78956Y890277D01*
X77553Y891680D01*
X75719Y892440D01*
D02*
G37*
G36*
X26002Y897229D02*
X17002D01*
X14916Y896955D01*
X12973Y896150D01*
X11304Y894869D01*
X10023Y893200D01*
X9218Y891256D01*
X8943Y889170D01*
X9218Y887085D01*
X10023Y885141D01*
X11304Y883472D01*
X12973Y882191D01*
X14916Y881386D01*
X17002Y881112D01*
X26002D01*
X28088Y881386D01*
X30032Y882191D01*
X31701Y883472D01*
X32982Y885141D01*
X33787Y887085D01*
X34061Y889170D01*
X33787Y891256D01*
X32982Y893200D01*
X31701Y894869D01*
X30032Y896150D01*
X28088Y896955D01*
X26002Y897229D01*
D02*
G37*
G36*
X48502Y894829D02*
X46417Y894554D01*
X44473Y893749D01*
X42804Y892468D01*
X41523Y890799D01*
X40718Y888856D01*
X40443Y886770D01*
Y877770D01*
X40718Y875684D01*
X41523Y873740D01*
X42804Y872072D01*
X44473Y870791D01*
X46417Y869986D01*
X48502Y869711D01*
X50588Y869986D01*
X52532Y870791D01*
X54201Y872072D01*
X55482Y873740D01*
X56287Y875684D01*
X56561Y877770D01*
Y886770D01*
X56287Y888856D01*
X55482Y890799D01*
X54201Y892468D01*
X52532Y893749D01*
X50588Y894554D01*
X48502Y894829D01*
D02*
G37*
G36*
X898578Y885289D02*
X887225D01*
Y871039D01*
X887637Y867907D01*
X888847Y864987D01*
X890770Y862481D01*
X893277Y860557D01*
X896196Y859348D01*
X898578Y859035D01*
Y885289D01*
D02*
G37*
G36*
X911432D02*
X900078D01*
Y859034D01*
X902461Y859348D01*
X905380Y860557D01*
X907887Y862481D01*
X909810Y864987D01*
X911020Y867907D01*
X911432Y871039D01*
Y885289D01*
D02*
G37*
G36*
X468838Y865967D02*
X466853D01*
X465019Y865207D01*
X463615Y863803D01*
X462855Y861969D01*
Y859984D01*
X463615Y858150D01*
X465019Y856746D01*
X466853Y855987D01*
X468838D01*
X470672Y856746D01*
X472076Y858150D01*
X472835Y859984D01*
Y861969D01*
X472076Y863803D01*
X470672Y865207D01*
X468838Y865967D01*
D02*
G37*
G36*
X962328Y870133D02*
X932328D01*
X929198Y869721D01*
X926282Y868512D01*
X923777Y866591D01*
X921855Y864086D01*
X920647Y861169D01*
X920235Y858039D01*
X920647Y854909D01*
X921855Y851992D01*
X923777Y849488D01*
X926282Y847566D01*
X929198Y846358D01*
X932328Y845946D01*
X962328D01*
X965459Y846358D01*
X968375Y847566D01*
X970880Y849488D01*
X972802Y851992D01*
X974010Y854909D01*
X974422Y858039D01*
X974010Y861169D01*
X972802Y864086D01*
X970880Y866591D01*
X968375Y868512D01*
X965459Y869721D01*
X962328Y870133D01*
D02*
G37*
G36*
X48502Y838629D02*
X46417Y838354D01*
X44473Y837549D01*
X42804Y836268D01*
X41523Y834600D01*
X40718Y832656D01*
X40443Y830570D01*
Y821570D01*
X40718Y819484D01*
X41523Y817541D01*
X42804Y815872D01*
X44473Y814591D01*
X46417Y813786D01*
X48502Y813511D01*
X50588Y813786D01*
X52532Y814591D01*
X54201Y815872D01*
X55482Y817541D01*
X56287Y819484D01*
X56561Y821570D01*
Y830570D01*
X56287Y832656D01*
X55482Y834600D01*
X54201Y836268D01*
X52532Y837549D01*
X50588Y838354D01*
X48502Y838629D01*
D02*
G37*
G36*
X26002Y827229D02*
X17002D01*
X14916Y826955D01*
X12973Y826150D01*
X11304Y824869D01*
X10023Y823200D01*
X9218Y821256D01*
X8943Y819170D01*
X9218Y817085D01*
X10023Y815141D01*
X11304Y813472D01*
X12973Y812191D01*
X14916Y811386D01*
X17002Y811112D01*
X26002D01*
X28088Y811386D01*
X30032Y812191D01*
X31701Y813472D01*
X32982Y815141D01*
X33787Y817085D01*
X34061Y819170D01*
X33787Y821256D01*
X32982Y823200D01*
X31701Y824869D01*
X30032Y826150D01*
X28088Y826955D01*
X26002Y827229D01*
D02*
G37*
G36*
X571848Y817777D02*
X569863D01*
X568029Y817017D01*
X566625Y815613D01*
X565866Y813779D01*
Y811794D01*
X566625Y809960D01*
X568029Y808557D01*
X569863Y807797D01*
X571848D01*
X573682Y808557D01*
X575086Y809960D01*
X575846Y811794D01*
Y813779D01*
X575086Y815613D01*
X573682Y817017D01*
X571848Y817777D01*
D02*
G37*
G36*
X660855Y817744D02*
X658870D01*
X657036Y816984D01*
X655632Y815580D01*
X654873Y813746D01*
Y811761D01*
X655632Y809927D01*
X657036Y808523D01*
X658870Y807764D01*
X660855D01*
X662689Y808523D01*
X664093Y809927D01*
X664852Y811761D01*
Y813746D01*
X664093Y815580D01*
X662689Y816984D01*
X660855Y817744D01*
D02*
G37*
G36*
X643589D02*
X641604D01*
X639770Y816984D01*
X638366Y815580D01*
X637606Y813746D01*
Y811761D01*
X638366Y809927D01*
X639770Y808523D01*
X641604Y807764D01*
X643589D01*
X645423Y808523D01*
X646827Y809927D01*
X647586Y811761D01*
Y813746D01*
X646827Y815580D01*
X645423Y816984D01*
X643589Y817744D01*
D02*
G37*
G36*
X627243D02*
X625257D01*
X623423Y816984D01*
X622020Y815580D01*
X621260Y813746D01*
Y811761D01*
X622020Y809927D01*
X623423Y808523D01*
X625257Y807764D01*
X627243D01*
X629077Y808523D01*
X630480Y809927D01*
X631240Y811761D01*
Y813746D01*
X630480Y815580D01*
X629077Y816984D01*
X627243Y817744D01*
D02*
G37*
G36*
X714266Y817740D02*
X712281D01*
X710447Y816980D01*
X709043Y815576D01*
X708283Y813743D01*
Y811757D01*
X709043Y809923D01*
X710447Y808520D01*
X712281Y807760D01*
X714266D01*
X716100Y808520D01*
X717504Y809923D01*
X718263Y811757D01*
Y813743D01*
X717504Y815576D01*
X716100Y816980D01*
X714266Y817740D01*
D02*
G37*
G36*
X116220Y807309D02*
X114235D01*
X112401Y806549D01*
X110997Y805145D01*
X110237Y803311D01*
Y801326D01*
X110997Y799492D01*
X112401Y798088D01*
X114235Y797329D01*
X116220D01*
X118054Y798088D01*
X119458Y799492D01*
X120217Y801326D01*
Y803311D01*
X119458Y805145D01*
X118054Y806549D01*
X116220Y807309D01*
D02*
G37*
G36*
X709242Y796254D02*
X707257D01*
X705423Y795494D01*
X704020Y794090D01*
X703260Y792256D01*
Y790271D01*
X704020Y788437D01*
X705423Y787033D01*
X707257Y786274D01*
X709242D01*
X711077Y787033D01*
X712480Y788437D01*
X713240Y790271D01*
Y792256D01*
X712480Y794090D01*
X711077Y795494D01*
X709242Y796254D01*
D02*
G37*
G36*
X667243D02*
X665257D01*
X663423Y795494D01*
X662020Y794090D01*
X661260Y792256D01*
Y790271D01*
X662020Y788437D01*
X663423Y787033D01*
X665257Y786274D01*
X667243D01*
X669077Y787033D01*
X670480Y788437D01*
X671240Y790271D01*
Y792256D01*
X670480Y794090D01*
X669077Y795494D01*
X667243Y796254D01*
D02*
G37*
G36*
X688243Y796174D02*
X686257D01*
X684423Y795414D01*
X683020Y794011D01*
X682260Y792177D01*
Y790191D01*
X683020Y788357D01*
X684423Y786954D01*
X686257Y786194D01*
X688243D01*
X690077Y786954D01*
X691480Y788357D01*
X692240Y790191D01*
Y792177D01*
X691480Y794011D01*
X690077Y795414D01*
X688243Y796174D01*
D02*
G37*
G36*
X643118D02*
X641132D01*
X639298Y795414D01*
X637895Y794011D01*
X637135Y792177D01*
Y790191D01*
X637895Y788357D01*
X639298Y786954D01*
X641132Y786194D01*
X643118D01*
X644952Y786954D01*
X646355Y788357D01*
X647115Y790191D01*
Y792177D01*
X646355Y794011D01*
X644952Y795414D01*
X643118Y796174D01*
D02*
G37*
G36*
X621817D02*
X619832D01*
X617998Y795414D01*
X616594Y794011D01*
X615835Y792177D01*
Y790191D01*
X616594Y788357D01*
X617998Y786954D01*
X619832Y786194D01*
X621817D01*
X623651Y786954D01*
X625055Y788357D01*
X625815Y790191D01*
Y792177D01*
X625055Y794011D01*
X623651Y795414D01*
X621817Y796174D01*
D02*
G37*
G36*
X598817D02*
X596832D01*
X594998Y795414D01*
X593594Y794011D01*
X592835Y792177D01*
Y790191D01*
X593594Y788357D01*
X594998Y786954D01*
X596832Y786194D01*
X598817D01*
X600651Y786954D01*
X602055Y788357D01*
X602814Y790191D01*
Y792177D01*
X602055Y794011D01*
X600651Y795414D01*
X598817Y796174D01*
D02*
G37*
G36*
X577817D02*
X575832D01*
X573998Y795414D01*
X572594Y794011D01*
X571834Y792177D01*
Y790191D01*
X572594Y788357D01*
X573998Y786954D01*
X575832Y786194D01*
X577817D01*
X579651Y786954D01*
X581055Y788357D01*
X581814Y790191D01*
Y792177D01*
X581055Y794011D01*
X579651Y795414D01*
X577817Y796174D01*
D02*
G37*
G36*
X139692Y789401D02*
X137707D01*
X135873Y788641D01*
X134469Y787237D01*
X133709Y785403D01*
Y783418D01*
X134469Y781584D01*
X135873Y780180D01*
X137707Y779421D01*
X139692D01*
X141526Y780180D01*
X142930Y781584D01*
X143689Y783418D01*
Y785403D01*
X142930Y787237D01*
X141526Y788641D01*
X139692Y789401D01*
D02*
G37*
G36*
X688243Y782490D02*
X686257D01*
X684423Y781730D01*
X683020Y780327D01*
X682260Y778493D01*
Y776507D01*
X683020Y774673D01*
X684423Y773270D01*
X686257Y772510D01*
X688243D01*
X690077Y773270D01*
X691480Y774673D01*
X692240Y776507D01*
Y778493D01*
X691480Y780327D01*
X690077Y781730D01*
X688243Y782490D01*
D02*
G37*
G36*
X604911D02*
X602926D01*
X601092Y781730D01*
X599688Y780327D01*
X598928Y778493D01*
Y776507D01*
X599688Y774673D01*
X601092Y773270D01*
X602926Y772510D01*
X604911D01*
X606745Y773270D01*
X608149Y774673D01*
X608908Y776507D01*
Y778493D01*
X608149Y780327D01*
X606745Y781730D01*
X604911Y782490D01*
D02*
G37*
G36*
X249261Y775811D02*
X247276D01*
X245442Y775051D01*
X244038Y773648D01*
X243279Y771814D01*
Y769828D01*
X244038Y767994D01*
X245442Y766591D01*
X247276Y765831D01*
X249261D01*
X251095Y766591D01*
X252499Y767994D01*
X253258Y769828D01*
Y771814D01*
X252499Y773648D01*
X251095Y775051D01*
X249261Y775811D01*
D02*
G37*
G36*
X709242Y773580D02*
X707257D01*
X705423Y772820D01*
X704020Y771416D01*
X703260Y769583D01*
Y767597D01*
X704020Y765763D01*
X705423Y764360D01*
X707257Y763600D01*
X709242D01*
X711077Y764360D01*
X712480Y765763D01*
X713240Y767597D01*
Y769583D01*
X712480Y771416D01*
X711077Y772820D01*
X709242Y773580D01*
D02*
G37*
G36*
X667243D02*
X665257D01*
X663423Y772820D01*
X662020Y771416D01*
X661260Y769583D01*
Y767597D01*
X662020Y765763D01*
X663423Y764360D01*
X665257Y763600D01*
X667243D01*
X669077Y764360D01*
X670480Y765763D01*
X671240Y767597D01*
Y769583D01*
X670480Y771416D01*
X669077Y772820D01*
X667243Y773580D01*
D02*
G37*
G36*
X643589D02*
X641604D01*
X639770Y772820D01*
X638366Y771416D01*
X637606Y769583D01*
Y767597D01*
X638366Y765763D01*
X639770Y764360D01*
X641604Y763600D01*
X643589D01*
X645423Y764360D01*
X646827Y765763D01*
X647586Y767597D01*
Y769583D01*
X646827Y771416D01*
X645423Y772820D01*
X643589Y773580D01*
D02*
G37*
G36*
X621817D02*
X619832D01*
X617998Y772820D01*
X616594Y771416D01*
X615835Y769583D01*
Y767597D01*
X616594Y765763D01*
X617998Y764360D01*
X619832Y763600D01*
X621817D01*
X623651Y764360D01*
X625055Y765763D01*
X625815Y767597D01*
Y769583D01*
X625055Y771416D01*
X623651Y772820D01*
X621817Y773580D01*
D02*
G37*
G36*
X206478Y765312D02*
X204493D01*
X202659Y764552D01*
X201255Y763148D01*
X200495Y761314D01*
Y759329D01*
X201255Y757495D01*
X202659Y756092D01*
X204493Y755332D01*
X206478D01*
X208312Y756092D01*
X209716Y757495D01*
X210476Y759329D01*
Y761314D01*
X209716Y763148D01*
X208312Y764552D01*
X206478Y765312D01*
D02*
G37*
G36*
X579684Y759778D02*
X577699D01*
X575865Y759019D01*
X574462Y757615D01*
X573702Y755781D01*
Y753796D01*
X574462Y751962D01*
X575865Y750558D01*
X577699Y749799D01*
X579684D01*
X581518Y750558D01*
X582922Y751962D01*
X583682Y753796D01*
Y755781D01*
X582922Y757615D01*
X581518Y759019D01*
X579684Y759778D01*
D02*
G37*
G36*
X709242Y759018D02*
X707257D01*
X705423Y758258D01*
X704020Y756854D01*
X703260Y755020D01*
Y753035D01*
X704020Y751201D01*
X705423Y749797D01*
X707257Y749038D01*
X709242D01*
X711077Y749797D01*
X712480Y751201D01*
X713240Y753035D01*
Y755020D01*
X712480Y756854D01*
X711077Y758258D01*
X709242Y759018D01*
D02*
G37*
G36*
X667243D02*
X665257D01*
X663423Y758258D01*
X662020Y756854D01*
X661260Y755020D01*
Y753035D01*
X662020Y751201D01*
X663423Y749797D01*
X665257Y749038D01*
X667243D01*
X669077Y749797D01*
X670480Y751201D01*
X671240Y753035D01*
Y755020D01*
X670480Y756854D01*
X669077Y758258D01*
X667243Y759018D01*
D02*
G37*
G36*
X643589D02*
X641604D01*
X639770Y758258D01*
X638366Y756854D01*
X637606Y755020D01*
Y753035D01*
X638366Y751201D01*
X639770Y749797D01*
X641604Y749038D01*
X643589D01*
X645423Y749797D01*
X646827Y751201D01*
X647586Y753035D01*
Y755020D01*
X646827Y756854D01*
X645423Y758258D01*
X643589Y759018D01*
D02*
G37*
G36*
X621817D02*
X619832D01*
X617998Y758258D01*
X616594Y756854D01*
X615835Y755020D01*
Y753035D01*
X616594Y751201D01*
X617998Y749797D01*
X619832Y749038D01*
X621817D01*
X623651Y749797D01*
X625055Y751201D01*
X625815Y753035D01*
Y755020D01*
X625055Y756854D01*
X623651Y758258D01*
X621817Y759018D01*
D02*
G37*
G36*
X598817D02*
X596832D01*
X594998Y758258D01*
X593594Y756854D01*
X592835Y755020D01*
Y753035D01*
X593594Y751201D01*
X594998Y749797D01*
X596832Y749038D01*
X598817D01*
X600651Y749797D01*
X602055Y751201D01*
X602814Y753035D01*
Y755020D01*
X602055Y756854D01*
X600651Y758258D01*
X598817Y759018D01*
D02*
G37*
G36*
X207195Y742822D02*
X204038D01*
X200989Y742005D01*
X198255Y740426D01*
X196022Y738194D01*
X194444Y735460D01*
X194211Y734590D01*
X191623D01*
X191390Y735460D01*
X189811Y738194D01*
X187579Y740426D01*
X184845Y742005D01*
X181795Y742822D01*
X178638D01*
X175589Y742005D01*
X172855Y740426D01*
X170622Y738194D01*
X169044Y735460D01*
X168811Y734590D01*
X166223D01*
X165990Y735460D01*
X164411Y738194D01*
X162179Y740426D01*
X159445Y742005D01*
X156395Y742822D01*
X153238D01*
X150189Y742005D01*
X147455Y740426D01*
X145222Y738194D01*
X143644Y735460D01*
X143411Y734590D01*
X140823D01*
X140590Y735460D01*
X139011Y738194D01*
X136779Y740426D01*
X134045Y742005D01*
X130995Y742822D01*
X127838D01*
X124789Y742005D01*
X122055Y740426D01*
X119822Y738194D01*
X118244Y735460D01*
X117427Y732410D01*
Y729253D01*
X118244Y726204D01*
X119822Y723470D01*
X122055Y721237D01*
X124789Y719659D01*
X127838Y718842D01*
X130995D01*
X134045Y719659D01*
X136779Y721237D01*
X139011Y723470D01*
X140590Y726204D01*
X140823Y727073D01*
X143411D01*
X143644Y726204D01*
X145222Y723470D01*
X147455Y721237D01*
X150189Y719659D01*
X153238Y718842D01*
X156395D01*
X159445Y719659D01*
X162179Y721237D01*
X164411Y723470D01*
X165990Y726204D01*
X166223Y727073D01*
X168811D01*
X169044Y726204D01*
X170622Y723470D01*
X172855Y721237D01*
X175589Y719659D01*
X178638Y718842D01*
X181795D01*
X184845Y719659D01*
X187579Y721237D01*
X189811Y723470D01*
X191390Y726204D01*
X191623Y727073D01*
X194211D01*
X194444Y726204D01*
X196022Y723470D01*
X198255Y721237D01*
X200989Y719659D01*
X204038Y718842D01*
X207195D01*
X210245Y719659D01*
X212979Y721237D01*
X215211Y723470D01*
X216790Y726204D01*
X217607Y729253D01*
Y732410D01*
X216790Y735460D01*
X215211Y738194D01*
X212979Y740426D01*
X210245Y742005D01*
X207195Y742822D01*
D02*
G37*
G36*
X376253Y730817D02*
X374267D01*
X372433Y730058D01*
X371030Y728654D01*
X370270Y726820D01*
Y724835D01*
X371030Y723001D01*
X372433Y721597D01*
X374267Y720837D01*
X376253D01*
X378087Y721597D01*
X379490Y723001D01*
X379837Y723838D01*
X382462Y723641D01*
X382906Y722567D01*
X384310Y721163D01*
X386144Y720404D01*
X388129D01*
X389963Y721163D01*
X391367Y722567D01*
X392127Y724401D01*
Y726386D01*
X391367Y728220D01*
X389963Y729624D01*
X388129Y730384D01*
X386144D01*
X384310Y729624D01*
X382906Y728220D01*
X382560Y727383D01*
X379935Y727580D01*
X379490Y728654D01*
X378087Y730058D01*
X376253Y730817D01*
D02*
G37*
G36*
X941460Y736240D02*
X938040D01*
X934736Y735355D01*
X931774Y733645D01*
X929355Y731226D01*
X927645Y728264D01*
X926760Y724960D01*
Y721540D01*
X927645Y718236D01*
X929355Y715274D01*
X931774Y712856D01*
X934736Y711145D01*
X938040Y710260D01*
X941460D01*
X944764Y711145D01*
X947726Y712856D01*
X950145Y715274D01*
X951855Y718236D01*
X952740Y721540D01*
Y724960D01*
X951855Y728264D01*
X950145Y731226D01*
X947726Y733645D01*
X944764Y735355D01*
X941460Y736240D01*
D02*
G37*
G36*
X745143Y719840D02*
X743157D01*
X741323Y719080D01*
X739920Y717677D01*
X739160Y715843D01*
Y713857D01*
X739920Y712023D01*
X741323Y710620D01*
X743157Y709860D01*
X745143D01*
X746977Y710620D01*
X748380Y712023D01*
X749140Y713857D01*
Y715843D01*
X748380Y717677D01*
X746977Y719080D01*
X745143Y719840D01*
D02*
G37*
G36*
X358277Y711088D02*
X356173D01*
X354141Y710543D01*
X352319Y709491D01*
X350831Y708003D01*
X349780Y706182D01*
X349235Y704149D01*
Y702046D01*
X349780Y700014D01*
X350831Y698192D01*
X352319Y696704D01*
X354141Y695652D01*
X356173Y695108D01*
X358277D01*
X360309Y695652D01*
X362131Y696704D01*
X363619Y698192D01*
X364670Y700014D01*
X365215Y702046D01*
Y704149D01*
X364670Y706182D01*
X363619Y708003D01*
X362131Y709491D01*
X360309Y710543D01*
X358277Y711088D01*
D02*
G37*
G36*
X338277D02*
X336173D01*
X334141Y710543D01*
X332319Y709491D01*
X330831Y708003D01*
X329780Y706182D01*
X329235Y704149D01*
Y702046D01*
X329780Y700014D01*
X330831Y698192D01*
X332319Y696704D01*
X334141Y695652D01*
X336173Y695108D01*
X338277D01*
X340309Y695652D01*
X342131Y696704D01*
X343619Y698192D01*
X344670Y700014D01*
X345215Y702046D01*
Y704149D01*
X344670Y706182D01*
X343619Y708003D01*
X342131Y709491D01*
X340309Y710543D01*
X338277Y711088D01*
D02*
G37*
G36*
X318277D02*
X316173D01*
X314141Y710543D01*
X312319Y709491D01*
X310832Y708003D01*
X309780Y706182D01*
X309235Y704149D01*
Y702046D01*
X309780Y700014D01*
X310832Y698192D01*
X312319Y696704D01*
X314141Y695652D01*
X316173Y695108D01*
X318277D01*
X320309Y695652D01*
X322131Y696704D01*
X323619Y698192D01*
X324670Y700014D01*
X325215Y702046D01*
Y704149D01*
X324670Y706182D01*
X323619Y708003D01*
X322131Y709491D01*
X320309Y710543D01*
X318277Y711088D01*
D02*
G37*
G36*
X508900Y693353D02*
X506915D01*
X505081Y692593D01*
X503678Y691189D01*
X502918Y689355D01*
Y687370D01*
X503678Y685536D01*
X505081Y684133D01*
X506915Y683373D01*
X508900D01*
X510734Y684133D01*
X512138Y685536D01*
X512898Y687370D01*
Y689355D01*
X512138Y691189D01*
X510734Y692593D01*
X508900Y693353D01*
D02*
G37*
G36*
X941461Y686250D02*
X940500D01*
Y674000D01*
X952750D01*
Y674961D01*
X951864Y678268D01*
X950153Y681232D01*
X947732Y683653D01*
X944768Y685364D01*
X941461Y686250D01*
D02*
G37*
G36*
X939000D02*
X938038D01*
X934732Y685364D01*
X931768Y683653D01*
X929347Y681232D01*
X927636Y678268D01*
X926750Y674961D01*
Y674000D01*
X939000D01*
Y686250D01*
D02*
G37*
G36*
X586519Y681056D02*
X584533D01*
X582699Y680296D01*
X581296Y678892D01*
X580536Y677058D01*
Y675073D01*
X581296Y673239D01*
X582699Y671835D01*
X584533Y671076D01*
X586519D01*
X588353Y671835D01*
X589756Y673239D01*
X590516Y675073D01*
Y677058D01*
X589756Y678892D01*
X588353Y680296D01*
X586519Y681056D01*
D02*
G37*
G36*
X952750Y672500D02*
X940500D01*
Y660250D01*
X941461D01*
X944768Y661136D01*
X947732Y662848D01*
X950153Y665268D01*
X951864Y668232D01*
X952750Y671539D01*
Y672500D01*
D02*
G37*
G36*
X939000D02*
X926750D01*
Y671539D01*
X927636Y668232D01*
X929347Y665268D01*
X931768Y662848D01*
X934732Y661136D01*
X938038Y660250D01*
X939000D01*
Y672500D01*
D02*
G37*
G36*
X358277Y670458D02*
X356173D01*
X354141Y669913D01*
X352319Y668861D01*
X350831Y667374D01*
X349780Y665552D01*
X349235Y663520D01*
Y661416D01*
X349780Y659383D01*
X350831Y657562D01*
X352319Y656074D01*
X354141Y655022D01*
X356173Y654478D01*
X358277D01*
X360309Y655022D01*
X362131Y656074D01*
X363619Y657562D01*
X364670Y659383D01*
X365215Y661416D01*
Y663520D01*
X364670Y665552D01*
X363619Y667374D01*
X362131Y668861D01*
X360309Y669913D01*
X358277Y670458D01*
D02*
G37*
G36*
X338277D02*
X336173D01*
X334141Y669913D01*
X332319Y668861D01*
X330831Y667374D01*
X329780Y665552D01*
X329235Y663520D01*
Y661416D01*
X329780Y659383D01*
X330831Y657562D01*
X332319Y656074D01*
X334141Y655022D01*
X336173Y654478D01*
X338277D01*
X340309Y655022D01*
X342131Y656074D01*
X343619Y657562D01*
X344670Y659383D01*
X345215Y661416D01*
Y663520D01*
X344670Y665552D01*
X343619Y667374D01*
X342131Y668861D01*
X340309Y669913D01*
X338277Y670458D01*
D02*
G37*
G36*
X318277D02*
X316173D01*
X314141Y669913D01*
X312319Y668861D01*
X310832Y667374D01*
X309780Y665552D01*
X309235Y663520D01*
Y661416D01*
X309780Y659383D01*
X310832Y657562D01*
X312319Y656074D01*
X314141Y655022D01*
X316173Y654478D01*
X318277D01*
X320309Y655022D01*
X322131Y656074D01*
X323619Y657562D01*
X324670Y659383D01*
X325215Y661416D01*
Y663520D01*
X324670Y665552D01*
X323619Y667374D01*
X322131Y668861D01*
X320309Y669913D01*
X318277Y670458D01*
D02*
G37*
G36*
X399840Y661892D02*
X397855D01*
X396021Y661133D01*
X394617Y659729D01*
X393857Y657895D01*
Y655910D01*
X394617Y654076D01*
X396021Y652672D01*
X397855Y651913D01*
X399840D01*
X401674Y652672D01*
X403078Y654076D01*
X403838Y655910D01*
Y657895D01*
X403078Y659729D01*
X401674Y661133D01*
X399840Y661892D01*
D02*
G37*
G36*
X649916Y660676D02*
X647931D01*
X646097Y659916D01*
X644693Y658512D01*
X643934Y656678D01*
Y654693D01*
X644693Y652859D01*
X646097Y651455D01*
X647931Y650696D01*
X649916D01*
X651750Y651455D01*
X653154Y652859D01*
X653914Y654693D01*
Y656678D01*
X653154Y658512D01*
X651750Y659916D01*
X649916Y660676D01*
D02*
G37*
G36*
X183156Y641990D02*
X181171D01*
X179337Y641230D01*
X178155Y640049D01*
X154418D01*
X153236Y641230D01*
X151402Y641990D01*
X149417D01*
X147583Y641230D01*
X146179Y639827D01*
X145419Y637993D01*
Y636007D01*
X146179Y634173D01*
X147583Y632770D01*
X149417Y632010D01*
X151402D01*
X153236Y632770D01*
X154418Y633951D01*
X169041D01*
X169568Y633402D01*
X170484Y631451D01*
X170012Y630313D01*
Y628328D01*
X170772Y626494D01*
X171659Y625607D01*
Y616472D01*
X171585Y616441D01*
X170182Y615037D01*
X169422Y613204D01*
Y611218D01*
X170182Y609384D01*
X171585Y607981D01*
X173419Y607221D01*
X175404D01*
X177239Y607981D01*
X178642Y609384D01*
X179402Y611218D01*
Y613204D01*
X178642Y615037D01*
X177756Y615924D01*
Y625060D01*
X177829Y625090D01*
X179233Y626494D01*
X179993Y628328D01*
Y629792D01*
X180496Y630739D01*
X181996Y632010D01*
X183156D01*
X184990Y632770D01*
X186394Y634173D01*
X187153Y636007D01*
Y637993D01*
X186394Y639827D01*
X184990Y641230D01*
X183156Y641990D01*
D02*
G37*
G36*
X613899Y649999D02*
X611913D01*
X610079Y649239D01*
X608676Y647835D01*
X607916Y646001D01*
Y644016D01*
X608676Y642182D01*
X610079Y640778D01*
X611913Y640019D01*
X613899D01*
X615733Y640778D01*
X617136Y642182D01*
X617896Y644016D01*
Y646001D01*
X617136Y647835D01*
X615733Y649239D01*
X613899Y649999D01*
D02*
G37*
G36*
X429107Y708248D02*
X427122D01*
X425288Y707488D01*
X423884Y706084D01*
X423125Y704250D01*
Y702265D01*
X423884Y700431D01*
X425195Y699120D01*
Y645713D01*
X425427Y644546D01*
X426088Y643557D01*
X428760Y640885D01*
Y639214D01*
X429520Y637380D01*
X430923Y635976D01*
X432757Y635216D01*
X434743D01*
X436577Y635976D01*
X437980Y637380D01*
X438740Y639214D01*
Y641199D01*
X437980Y643033D01*
X436577Y644437D01*
X434743Y645196D01*
X433071D01*
X431292Y646976D01*
Y699378D01*
X432345Y700431D01*
X433105Y702265D01*
Y704250D01*
X432345Y706084D01*
X430941Y707488D01*
X429107Y708248D01*
D02*
G37*
G36*
X376253Y644643D02*
X374267D01*
X372433Y643883D01*
X371030Y642479D01*
X370270Y640645D01*
Y638660D01*
X371030Y636826D01*
X372433Y635422D01*
X374267Y634663D01*
X376253D01*
X378087Y635422D01*
X379490Y636826D01*
X380250Y638660D01*
Y640645D01*
X379490Y642479D01*
X378087Y643883D01*
X376253Y644643D01*
D02*
G37*
G36*
X653302Y729917D02*
X535414D01*
X534247Y729685D01*
X533258Y729024D01*
X527158Y722924D01*
X527041Y722748D01*
X526846D01*
X525012Y721989D01*
X523609Y720585D01*
X522849Y718751D01*
Y716766D01*
X523609Y714932D01*
X525012Y713528D01*
X526846Y712768D01*
X528831D01*
X529808Y713173D01*
X531693Y711289D01*
X531288Y710312D01*
Y708327D01*
X532048Y706493D01*
X533451Y705089D01*
X535285Y704329D01*
X537271D01*
X537672Y704496D01*
X539586Y702582D01*
X539391Y702113D01*
Y700127D01*
X540151Y698293D01*
X541554Y696890D01*
X543388Y696130D01*
X545374D01*
X547097Y694138D01*
X547063Y694057D01*
Y692072D01*
X547823Y690238D01*
X549227Y688834D01*
X551061Y688074D01*
X553046D01*
X553812Y688392D01*
X554966Y687542D01*
X555886Y686573D01*
Y684879D01*
X556646Y683045D01*
X558049Y681642D01*
X559883Y680882D01*
X561868D01*
X563702Y681642D01*
X565106Y683045D01*
X566968Y682265D01*
X568802Y681505D01*
X570787D01*
X572621Y682265D01*
X574025Y683669D01*
X574785Y685503D01*
Y687174D01*
X577973Y690363D01*
X631148D01*
X657378Y664133D01*
Y617450D01*
X655068Y616493D01*
X637545Y634016D01*
X636556Y634677D01*
X635389Y634909D01*
X593156D01*
X591974Y636091D01*
X590140Y636851D01*
X588155D01*
X586321Y636091D01*
X584917Y634687D01*
X584157Y632853D01*
Y630868D01*
X584917Y629034D01*
X586321Y627630D01*
X588155Y626871D01*
X590140D01*
X591974Y627630D01*
X593156Y628812D01*
X634127D01*
X653394Y609544D01*
Y464023D01*
X602670Y413299D01*
X464653D01*
X463486Y413066D01*
X462497Y412406D01*
X442703Y392612D01*
X442043Y391623D01*
X441810Y390456D01*
Y375017D01*
X440629Y373835D01*
X439869Y372001D01*
Y370016D01*
X440629Y368182D01*
X442032Y366778D01*
X443866Y366019D01*
X445852D01*
X447686Y366778D01*
X449089Y368182D01*
X449849Y370016D01*
Y372001D01*
X449089Y373835D01*
X447908Y375017D01*
Y389193D01*
X465916Y407201D01*
X529984D01*
X531262Y404701D01*
X530748Y403990D01*
X530507D01*
X528673Y403230D01*
X527270Y401827D01*
X526510Y399993D01*
Y398007D01*
X527270Y396173D01*
X528673Y394770D01*
X530507Y394010D01*
X532510Y392507D01*
X532844Y391700D01*
X533270Y390673D01*
X534673Y389270D01*
X534854Y389195D01*
X536757Y387258D01*
Y385273D01*
X537517Y383439D01*
X537889Y383067D01*
X538779Y381728D01*
X537889Y379800D01*
X537789Y379700D01*
X537030Y377866D01*
Y375881D01*
X537789Y374047D01*
X539193Y372644D01*
X541027Y371884D01*
X543012D01*
X543757Y372192D01*
X545670Y370279D01*
X545575Y370049D01*
Y368064D01*
X546334Y366230D01*
X547738Y364826D01*
X549572Y364066D01*
X551557D01*
X552675Y364529D01*
X554494Y362662D01*
X554031Y361544D01*
Y359559D01*
X554791Y357725D01*
X556194Y356321D01*
X558028Y355562D01*
X560014D01*
X561715Y356266D01*
X562403Y356099D01*
X563568Y355632D01*
X564300Y354974D01*
X564352Y354721D01*
X564213Y354582D01*
X563453Y352748D01*
Y350763D01*
X564213Y348929D01*
X565617Y347525D01*
X567451Y346766D01*
X569436D01*
X571270Y347525D01*
X572164Y348419D01*
X572870Y348904D01*
X575245Y348605D01*
X575504Y348345D01*
X577338Y347586D01*
X579324D01*
X581158Y348345D01*
X582561Y349749D01*
X583321Y351583D01*
Y353254D01*
X596942Y366875D01*
X617770D01*
X618937Y367107D01*
X619925Y367768D01*
X697634Y445476D01*
X698295Y446466D01*
X698527Y447632D01*
Y684692D01*
X698295Y685859D01*
X697634Y686848D01*
X655458Y729024D01*
X654469Y729685D01*
X654275Y729723D01*
X653302Y729917D01*
D02*
G37*
G36*
X604911Y615579D02*
X602926D01*
X601092Y614820D01*
X599688Y613416D01*
X598928Y611582D01*
Y609597D01*
X599688Y607763D01*
X601092Y606359D01*
X602926Y605599D01*
X604911D01*
X606745Y606359D01*
X608149Y607763D01*
X608908Y609597D01*
Y611582D01*
X608149Y613416D01*
X606745Y614820D01*
X604911Y615579D01*
D02*
G37*
G36*
X32953Y615700D02*
X32250D01*
Y601700D01*
X46250D01*
Y602403D01*
X45683Y605252D01*
X44571Y607937D01*
X42957Y610353D01*
X40903Y612407D01*
X38487Y614021D01*
X35802Y615133D01*
X32953Y615700D01*
D02*
G37*
G36*
X83753D02*
X83050D01*
Y601700D01*
X97050D01*
Y602403D01*
X96483Y605252D01*
X95371Y607937D01*
X93757Y610353D01*
X91703Y612407D01*
X89287Y614021D01*
X86602Y615133D01*
X83753Y615700D01*
D02*
G37*
G36*
X30750D02*
X30047D01*
X27198Y615133D01*
X24513Y614021D01*
X22097Y612407D01*
X20043Y610353D01*
X18429Y607937D01*
X17317Y605252D01*
X16750Y602403D01*
Y601700D01*
X30750D01*
Y615700D01*
D02*
G37*
G36*
X81550D02*
X80847D01*
X77998Y615133D01*
X75313Y614021D01*
X72897Y612407D01*
X70843Y610353D01*
X69229Y607937D01*
X68117Y605252D01*
X67550Y602403D01*
Y601700D01*
X81550D01*
Y615700D01*
D02*
G37*
G36*
X709266Y631043D02*
X707281D01*
X705447Y630283D01*
X704043Y628880D01*
X703283Y627046D01*
Y625060D01*
X704043Y623226D01*
X705447Y621823D01*
X707281Y621063D01*
X708438D01*
X726460Y603041D01*
Y601807D01*
X727220Y599973D01*
X728623Y598570D01*
X730457Y597810D01*
X732443D01*
X734277Y598570D01*
X735680Y599973D01*
X736440Y601807D01*
Y603793D01*
X735680Y605627D01*
X734277Y607030D01*
X732443Y607790D01*
X730457D01*
X730370Y607754D01*
X713205Y624919D01*
X713263Y625060D01*
Y627046D01*
X712504Y628880D01*
X711100Y630283D01*
X709266Y631043D01*
D02*
G37*
G36*
X431192Y599641D02*
X429206D01*
X427372Y598881D01*
X425969Y597477D01*
X425209Y595643D01*
Y593658D01*
X425969Y591824D01*
X427372Y590420D01*
X429206Y589661D01*
X431192D01*
X433026Y590420D01*
X434429Y591824D01*
X435189Y593658D01*
Y595643D01*
X434429Y597477D01*
X433026Y598881D01*
X431192Y599641D01*
D02*
G37*
G36*
X97050Y600200D02*
X83050D01*
Y586200D01*
X83753D01*
X86602Y586767D01*
X89287Y587879D01*
X91703Y589493D01*
X93757Y591547D01*
X95371Y593963D01*
X96483Y596648D01*
X97050Y599497D01*
Y600200D01*
D02*
G37*
G36*
X81550D02*
X67550D01*
Y599497D01*
X68117Y596648D01*
X69229Y593963D01*
X70843Y591547D01*
X72897Y589493D01*
X75313Y587879D01*
X77998Y586767D01*
X80847Y586200D01*
X81550D01*
Y600200D01*
D02*
G37*
G36*
X46250D02*
X32250D01*
Y586200D01*
X32953D01*
X35802Y586767D01*
X38487Y587879D01*
X40903Y589493D01*
X42957Y591547D01*
X44571Y593963D01*
X45683Y596648D01*
X46250Y599497D01*
Y600200D01*
D02*
G37*
G36*
X30750D02*
X16750D01*
Y599497D01*
X17317Y596648D01*
X18429Y593963D01*
X20043Y591547D01*
X22097Y589493D01*
X24513Y587879D01*
X27198Y586767D01*
X30047Y586200D01*
X30750D01*
Y600200D01*
D02*
G37*
G36*
X301743Y589734D02*
X299757D01*
X297923Y588975D01*
X296520Y587571D01*
X295760Y585737D01*
Y583752D01*
X296520Y581918D01*
X297923Y580514D01*
X299757Y579754D01*
X301743D01*
X303577Y580514D01*
X304980Y581918D01*
X305740Y583752D01*
Y585737D01*
X304980Y587571D01*
X303577Y588975D01*
X301743Y589734D01*
D02*
G37*
G36*
X350969Y586752D02*
X348983D01*
X347150Y585993D01*
X345746Y584589D01*
X344986Y582755D01*
Y580770D01*
X345746Y578936D01*
X347150Y577532D01*
X348983Y576772D01*
X350969D01*
X352803Y577532D01*
X354206Y578936D01*
X354966Y580770D01*
Y582755D01*
X354206Y584589D01*
X352803Y585993D01*
X350969Y586752D01*
D02*
G37*
G36*
X967321Y634490D02*
X962679D01*
X958094Y633764D01*
X953680Y632329D01*
X949544Y630222D01*
X945789Y627494D01*
X942506Y624212D01*
X939778Y620456D01*
X937671Y616320D01*
X936236Y611906D01*
X935510Y607321D01*
Y602679D01*
X936236Y598094D01*
X937671Y593680D01*
X939778Y589544D01*
X942506Y585789D01*
X945789Y582506D01*
X949544Y579778D01*
X953680Y577671D01*
X958094Y576236D01*
X962679Y575510D01*
X967321D01*
X971906Y576236D01*
X976320Y577671D01*
X980456Y579778D01*
X984211Y582506D01*
X987494Y585789D01*
X990222Y589544D01*
X992329Y593680D01*
X993764Y598094D01*
X994490Y602679D01*
Y607321D01*
X993764Y611906D01*
X992329Y616320D01*
X990222Y620456D01*
X987494Y624212D01*
X984211Y627494D01*
X980456Y630222D01*
X976320Y632329D01*
X971906Y633764D01*
X967321Y634490D01*
D02*
G37*
G36*
X58643Y588790D02*
X55157D01*
X51790Y587888D01*
X48770Y586145D01*
X46305Y583680D01*
X44562Y580660D01*
X43660Y577293D01*
Y573807D01*
X44562Y570439D01*
X46305Y567420D01*
X48770Y564955D01*
X51790Y563212D01*
X55157Y562310D01*
X58643D01*
X62010Y563212D01*
X65030Y564955D01*
X67495Y567420D01*
X69238Y570439D01*
X70140Y573807D01*
Y577293D01*
X69238Y580660D01*
X67495Y583680D01*
X65030Y586145D01*
X62010Y587888D01*
X58643Y588790D01*
D02*
G37*
G36*
X289743Y565740D02*
X287757D01*
X285923Y564980D01*
X284520Y563577D01*
X283760Y561743D01*
Y559757D01*
X284520Y557923D01*
X285923Y556520D01*
X287757Y555760D01*
X289743D01*
X291577Y556520D01*
X292980Y557923D01*
X293740Y559757D01*
Y561743D01*
X292980Y563577D01*
X291577Y564980D01*
X289743Y565740D01*
D02*
G37*
G36*
X366551Y557129D02*
X364566D01*
X362732Y556369D01*
X361328Y554966D01*
X358487Y554640D01*
X358466Y554661D01*
X356632Y555421D01*
X354647D01*
X352813Y554661D01*
X351409Y553257D01*
X350649Y551423D01*
Y549752D01*
X330392Y529495D01*
X329731Y528506D01*
X329499Y527339D01*
Y256598D01*
X283478Y210576D01*
X282817Y209587D01*
X282585Y208421D01*
Y187956D01*
X281403Y186775D01*
X280644Y184941D01*
Y182955D01*
X281403Y181122D01*
X282807Y179718D01*
X284641Y178958D01*
X286626D01*
X288460Y179718D01*
X289864Y181122D01*
X290624Y182955D01*
Y184117D01*
X292311Y185617D01*
X292933Y185866D01*
X293088Y185802D01*
X295073D01*
X296907Y186562D01*
X298311Y187966D01*
X299071Y189799D01*
Y191354D01*
X300411Y192300D01*
X301381Y192673D01*
X303056Y191979D01*
X305041D01*
X306875Y192738D01*
X308279Y194142D01*
X309038Y195976D01*
Y197961D01*
X308279Y199795D01*
X307097Y200977D01*
Y206611D01*
X342386Y241900D01*
X344696Y240943D01*
Y179808D01*
X283478Y118590D01*
X282817Y117601D01*
X282585Y116435D01*
Y86588D01*
X281403Y85407D01*
X280935Y84276D01*
X278335Y84532D01*
X277953Y86452D01*
X276841Y89137D01*
X275227Y91553D01*
X273173Y93607D01*
X270757Y95221D01*
X268072Y96333D01*
X265223Y96900D01*
X264520D01*
Y82150D01*
Y67400D01*
X265223D01*
X268072Y67967D01*
X270757Y69079D01*
X273173Y70693D01*
X275227Y72747D01*
X276841Y75163D01*
X277953Y77848D01*
X278002Y78094D01*
X280898Y79886D01*
X281403Y79753D01*
X282807Y78350D01*
X284641Y77590D01*
X286626D01*
X288460Y78350D01*
X289864Y79753D01*
X290624Y81587D01*
Y82405D01*
X292796Y84120D01*
X292933Y84154D01*
X293088Y84090D01*
X295073D01*
X296907Y84850D01*
X298311Y86253D01*
X299071Y88087D01*
Y89965D01*
X299403Y90270D01*
X301060Y91253D01*
X301253Y91337D01*
X303056Y90590D01*
X305041D01*
X306875Y91350D01*
X308279Y92753D01*
X309038Y94587D01*
Y96573D01*
X308279Y98407D01*
X307097Y99588D01*
Y112365D01*
X360068Y165336D01*
X360728Y166325D01*
X360961Y167492D01*
Y440895D01*
X361231Y441206D01*
X363461Y442360D01*
X364394Y441973D01*
X366380D01*
X368214Y442733D01*
X369617Y444136D01*
X370377Y445970D01*
Y445973D01*
X453984D01*
Y445929D01*
X458957Y446321D01*
X463808Y447485D01*
X468417Y449394D01*
X472670Y452001D01*
X476464Y455241D01*
X476464Y455241D01*
X478201Y457039D01*
X488150Y466989D01*
X488219Y467092D01*
X491550Y469826D01*
X495459Y471915D01*
X499700Y473201D01*
X503988Y473624D01*
X504110Y473600D01*
X518885D01*
Y473577D01*
X522029Y473886D01*
X525053Y474803D01*
X527840Y476293D01*
X528459Y476801D01*
X530335Y478307D01*
X530336Y478307D01*
X530336Y478307D01*
X532354Y480938D01*
X533624Y484002D01*
X534056Y487290D01*
X534057Y487290D01*
X534551Y489585D01*
X535839Y490119D01*
X537242Y491522D01*
X538002Y493356D01*
Y495341D01*
X537242Y497175D01*
X535839Y498579D01*
X534005Y499339D01*
X532020D01*
X530186Y498579D01*
X529387Y497781D01*
X528589Y498579D01*
X526755Y499339D01*
X524770D01*
X522935Y498579D01*
X521532Y497175D01*
X520772Y495341D01*
Y493356D01*
X521532Y491522D01*
X522935Y490119D01*
X524232Y489582D01*
X524707Y487553D01*
X524686Y486945D01*
X523752Y484872D01*
X522317Y483771D01*
X520647Y483079D01*
X518854Y482843D01*
Y482830D01*
X504088D01*
Y482873D01*
X499115Y482482D01*
X494264Y481317D01*
X489655Y479408D01*
X485402Y476802D01*
X481608Y473562D01*
X481639Y473531D01*
X481639Y473531D01*
X469922Y461814D01*
X469853Y461710D01*
X466522Y458977D01*
X462613Y456888D01*
X458372Y455601D01*
X454084Y455179D01*
X453962Y455203D01*
X370377D01*
Y455205D01*
X369617Y457039D01*
X368214Y458443D01*
X366380Y459203D01*
X364394D01*
X363461Y458816D01*
X361231Y459970D01*
X360961Y460281D01*
Y511254D01*
X387343Y537636D01*
X389015D01*
X390849Y538396D01*
X392252Y539800D01*
X393012Y541634D01*
Y543619D01*
X392252Y545453D01*
X390849Y546856D01*
X389015Y547616D01*
X387029D01*
X385195Y546856D01*
X384293Y545954D01*
X382403Y547012D01*
X382096Y547293D01*
Y549169D01*
X381336Y551003D01*
X379933Y552406D01*
X378099Y553166D01*
X376113D01*
X374279Y552406D01*
X373049Y551175D01*
X372233Y551255D01*
X370549Y551917D01*
Y553132D01*
X369789Y554966D01*
X368385Y556369D01*
X366551Y557129D01*
D02*
G37*
G36*
X32953Y564900D02*
X32250D01*
Y550900D01*
X46250D01*
Y551603D01*
X45683Y554452D01*
X44571Y557137D01*
X42957Y559553D01*
X40903Y561607D01*
X38487Y563221D01*
X35802Y564333D01*
X32953Y564900D01*
D02*
G37*
G36*
X83753D02*
X83050D01*
Y550900D01*
X97050D01*
Y551603D01*
X96483Y554452D01*
X95371Y557137D01*
X93757Y559553D01*
X91703Y561607D01*
X89287Y563221D01*
X86602Y564333D01*
X83753Y564900D01*
D02*
G37*
G36*
X30750D02*
X30047D01*
X27198Y564333D01*
X24513Y563221D01*
X22097Y561607D01*
X20043Y559553D01*
X18429Y557137D01*
X17317Y554452D01*
X16750Y551603D01*
Y550900D01*
X30750D01*
Y564900D01*
D02*
G37*
G36*
X81550D02*
X80847D01*
X77998Y564333D01*
X75313Y563221D01*
X72897Y561607D01*
X70843Y559553D01*
X69229Y557137D01*
X68117Y554452D01*
X67550Y551603D01*
Y550900D01*
X81550D01*
Y564900D01*
D02*
G37*
G36*
X130999Y558775D02*
X129014D01*
X127180Y558016D01*
X125777Y556612D01*
X125017Y554778D01*
Y552793D01*
X125777Y550959D01*
X127180Y549555D01*
X129014Y548795D01*
X130999D01*
X132833Y549555D01*
X134237Y550959D01*
X134997Y552793D01*
Y554778D01*
X134237Y556612D01*
X132833Y558016D01*
X130999Y558775D01*
D02*
G37*
G36*
X787737Y549283D02*
X785752D01*
X783918Y548523D01*
X782514Y547119D01*
X781755Y545285D01*
Y543300D01*
X782514Y541466D01*
X783918Y540062D01*
X785752Y539303D01*
X787737D01*
X789571Y540062D01*
X790975Y541466D01*
X791735Y543300D01*
Y545285D01*
X790975Y547119D01*
X789571Y548523D01*
X787737Y549283D01*
D02*
G37*
G36*
X97050Y549400D02*
X83050D01*
Y535400D01*
X83753D01*
X86602Y535967D01*
X89287Y537079D01*
X91703Y538693D01*
X93757Y540747D01*
X95371Y543163D01*
X96483Y545848D01*
X97050Y548697D01*
Y549400D01*
D02*
G37*
G36*
X81550D02*
X67550D01*
Y548697D01*
X68117Y545848D01*
X69229Y543163D01*
X70843Y540747D01*
X72897Y538693D01*
X75313Y537079D01*
X77998Y535967D01*
X80847Y535400D01*
X81550D01*
Y549400D01*
D02*
G37*
G36*
X46250D02*
X32250D01*
Y535400D01*
X32953D01*
X35802Y535967D01*
X38487Y537079D01*
X40903Y538693D01*
X42957Y540747D01*
X44571Y543163D01*
X45683Y545848D01*
X46250Y548697D01*
Y549400D01*
D02*
G37*
G36*
X30750D02*
X16750D01*
Y548697D01*
X17317Y545848D01*
X18429Y543163D01*
X20043Y540747D01*
X22097Y538693D01*
X24513Y537079D01*
X27198Y535967D01*
X30047Y535400D01*
X30750D01*
Y549400D01*
D02*
G37*
G36*
X538387Y537434D02*
X536402D01*
X534568Y536674D01*
X533164Y535271D01*
X532405Y533437D01*
Y532487D01*
X524958D01*
X523776Y533669D01*
X521942Y534429D01*
X519957D01*
X518123Y533669D01*
X516719Y532266D01*
X515959Y530432D01*
Y528446D01*
X516719Y526612D01*
X517510Y525821D01*
X517445Y525496D01*
X516041Y524092D01*
X515282Y522258D01*
Y520273D01*
X516041Y518439D01*
X517445Y517035D01*
X519279Y516275D01*
X521264D01*
X523098Y517035D01*
X524280Y518217D01*
X531025D01*
X549173Y500069D01*
Y498398D01*
X549932Y496564D01*
X551336Y495160D01*
X553170Y494401D01*
X555155D01*
X556989Y495160D01*
X558880Y496050D01*
X560283Y494646D01*
X562117Y493886D01*
X564103D01*
X565937Y494646D01*
X567961Y495560D01*
X569165Y494609D01*
X569539Y494235D01*
X571373Y493475D01*
X573358D01*
X575192Y494235D01*
X576596Y495639D01*
X577356Y497472D01*
Y499458D01*
X576596Y501292D01*
X575192Y502695D01*
X573358Y503455D01*
X571373D01*
X571244Y503402D01*
X542385Y532262D01*
Y533437D01*
X541625Y535271D01*
X540221Y536674D01*
X538387Y537434D01*
D02*
G37*
G36*
X592440Y537463D02*
X590455D01*
X588621Y536703D01*
X587217Y535299D01*
X586457Y533465D01*
Y531480D01*
X587217Y529646D01*
X588621Y528242D01*
X590455Y527483D01*
X592440D01*
X594274Y528242D01*
X595678Y529646D01*
X596437Y531480D01*
Y533465D01*
X595678Y535299D01*
X594274Y536703D01*
X592440Y537463D01*
D02*
G37*
G36*
X452431D02*
X450446D01*
X448612Y536703D01*
X447209Y535299D01*
X446449Y533465D01*
Y531480D01*
X447209Y529646D01*
X448612Y528242D01*
X450446Y527483D01*
X452431D01*
X454265Y528242D01*
X455669Y529646D01*
X456429Y531480D01*
Y533465D01*
X455669Y535299D01*
X454265Y536703D01*
X452431Y537463D01*
D02*
G37*
G36*
X213573Y533643D02*
X211588D01*
X209754Y532883D01*
X208350Y531479D01*
X207590Y529645D01*
Y527660D01*
X207787Y527185D01*
X206225Y524685D01*
X167984D01*
X167312Y525357D01*
X165478Y526116D01*
X163493D01*
X161658Y525357D01*
X160255Y523953D01*
X159495Y522119D01*
Y521169D01*
X148489Y510162D01*
X147718Y509008D01*
X147447Y507646D01*
Y487446D01*
X146775Y486774D01*
X146015Y484940D01*
Y482955D01*
X146775Y481121D01*
X148179Y479717D01*
X150013Y478957D01*
X151998D01*
X153832Y479717D01*
X155235Y481121D01*
X155995Y482955D01*
Y484940D01*
X155235Y486774D01*
X154563Y487446D01*
Y506172D01*
X164527Y516136D01*
X165478D01*
X167312Y516896D01*
X167984Y517568D01*
X233510D01*
X248296Y502781D01*
Y501831D01*
X249056Y499997D01*
X250460Y498593D01*
X252294Y497834D01*
X254279D01*
X256113Y498593D01*
X257516Y499997D01*
X258276Y501831D01*
Y503816D01*
X257516Y505650D01*
X256113Y507054D01*
X254279Y507814D01*
X253328D01*
X237500Y523642D01*
X236345Y524414D01*
X234984Y524685D01*
X218936D01*
X217373Y527185D01*
X217570Y527660D01*
Y529645D01*
X216811Y531479D01*
X215407Y532883D01*
X213573Y533643D01*
D02*
G37*
G36*
X394920Y535511D02*
X392935D01*
X391101Y534752D01*
X389697Y533348D01*
X388938Y531514D01*
Y529529D01*
X389697Y527695D01*
X390511Y526881D01*
X389795Y524412D01*
X387945Y524188D01*
X387534Y524600D01*
X385700Y525360D01*
X383715D01*
X381881Y524600D01*
X380477Y523196D01*
X379717Y521362D01*
Y519377D01*
X380477Y517543D01*
X381881Y516139D01*
X383715Y515380D01*
X385700D01*
X387534Y516139D01*
X388206Y516811D01*
X400411D01*
Y513630D01*
X410911D01*
X412391Y513630D01*
X414891Y513630D01*
X425391D01*
X426811Y511718D01*
Y490802D01*
X426139Y490130D01*
X425380Y488296D01*
Y486310D01*
X426139Y484476D01*
X425317Y481925D01*
X424308Y481078D01*
X423363Y481081D01*
X421878Y481081D01*
X418364D01*
Y474331D01*
Y467581D01*
X421878D01*
X423363Y467581D01*
X425857Y467591D01*
X436353D01*
Y481071D01*
X433925D01*
Y483801D01*
X434600Y484476D01*
X435360Y486310D01*
Y488296D01*
X434600Y490130D01*
X433928Y490802D01*
Y516871D01*
X434600Y517543D01*
X435360Y519377D01*
Y521362D01*
X434600Y523196D01*
X433196Y524600D01*
X431362Y525360D01*
X429377D01*
X427891Y524744D01*
X426447Y525305D01*
X425391Y525984D01*
Y527110D01*
X414891D01*
X413411Y527110D01*
X410911Y527110D01*
X402735D01*
X401466Y527110D01*
X400541Y527182D01*
X399274Y528318D01*
X399063Y528623D01*
X398927Y529472D01*
X398918Y529648D01*
X398918Y530031D01*
Y531514D01*
X398158Y533348D01*
X396754Y534752D01*
X394920Y535511D01*
D02*
G37*
G36*
X759048Y527787D02*
X757063D01*
X755229Y527027D01*
X753825Y525624D01*
X753065Y523790D01*
Y521804D01*
X753825Y519970D01*
X755229Y518567D01*
X757063Y517807D01*
X759048D01*
X760882Y518567D01*
X762286Y519970D01*
X763045Y521804D01*
Y523790D01*
X762286Y525624D01*
X760882Y527027D01*
X759048Y527787D01*
D02*
G37*
G36*
X641063Y520481D02*
X639077D01*
X637243Y519722D01*
X635840Y518318D01*
X635080Y516484D01*
Y514499D01*
X635840Y512665D01*
X637243Y511261D01*
X639077Y510502D01*
X641063D01*
X642897Y511261D01*
X644300Y512665D01*
X645060Y514499D01*
Y516484D01*
X644300Y518318D01*
X642897Y519722D01*
X641063Y520481D01*
D02*
G37*
G36*
X416364Y481081D02*
X411364D01*
Y475331D01*
X416364D01*
Y481081D01*
D02*
G37*
G36*
Y473331D02*
X411364D01*
Y467581D01*
X416364D01*
Y473331D01*
D02*
G37*
G36*
X562677Y465484D02*
X560692D01*
X558858Y464724D01*
X558186Y464052D01*
X532152D01*
X531480Y464724D01*
X529646Y465484D01*
X527661D01*
X525827Y464724D01*
X524423Y463320D01*
X523663Y461486D01*
Y459501D01*
X524423Y457667D01*
X525095Y456995D01*
Y454055D01*
X521910D01*
Y443555D01*
X521910Y442075D01*
X521910Y439575D01*
Y429075D01*
X524217D01*
X524729Y426575D01*
X524420Y426265D01*
X523660Y424431D01*
Y422446D01*
X524420Y420612D01*
X525823Y419208D01*
X527657Y418449D01*
X529643D01*
X531477Y419208D01*
X532880Y420612D01*
X533640Y422446D01*
Y424431D01*
X532880Y426265D01*
X532571Y426575D01*
X533083Y429075D01*
X535390D01*
Y439575D01*
X535390Y441055D01*
X535390Y443555D01*
Y454055D01*
X532212D01*
Y456935D01*
X558126D01*
Y454106D01*
X554940D01*
Y443610D01*
X554930Y441116D01*
X554930Y439630D01*
Y436116D01*
X568430D01*
Y439630D01*
X568430Y441116D01*
X568420Y443610D01*
Y454106D01*
X565243D01*
Y456995D01*
X565915Y457667D01*
X566675Y459501D01*
Y461486D01*
X565915Y463320D01*
X564511Y464724D01*
X562677Y465484D01*
D02*
G37*
G36*
X73170Y477240D02*
X71330D01*
X69552Y476764D01*
X67958Y475843D01*
X66657Y474542D01*
X65736Y472948D01*
X65260Y471170D01*
Y469330D01*
X65736Y467552D01*
X66657Y465958D01*
X67958Y464657D01*
X69552Y463736D01*
X71330Y463260D01*
X73170D01*
X74948Y463736D01*
X76542Y464657D01*
X77843Y465958D01*
X78764Y467552D01*
X79240Y469330D01*
Y471170D01*
X78764Y472948D01*
X77843Y474542D01*
X76542Y475843D01*
X74948Y476764D01*
X73170Y477240D01*
D02*
G37*
G36*
X151998Y465855D02*
X150013D01*
X148179Y465096D01*
X146775Y463692D01*
X146015Y461858D01*
Y459873D01*
X146775Y458039D01*
X148179Y456635D01*
X150013Y455875D01*
X151998D01*
X153832Y456635D01*
X155236Y458039D01*
X155995Y459873D01*
Y461858D01*
X155236Y463692D01*
X153832Y465096D01*
X151998Y465855D01*
D02*
G37*
G36*
X285233Y465332D02*
X283248D01*
X281414Y464572D01*
X280010Y463168D01*
X279251Y461334D01*
Y459349D01*
X280010Y457515D01*
X281414Y456112D01*
X283248Y455352D01*
X285233D01*
X287067Y456112D01*
X288471Y457515D01*
X289231Y459349D01*
Y461334D01*
X288471Y463168D01*
X287067Y464572D01*
X285233Y465332D01*
D02*
G37*
G36*
X499743Y448740D02*
X497757D01*
X495923Y447980D01*
X494742Y446799D01*
X479100D01*
X477918Y447980D01*
X476084Y448740D01*
X474099D01*
X472265Y447980D01*
X470861Y446577D01*
X470102Y444743D01*
Y442757D01*
X470234Y442439D01*
X468494Y440106D01*
X467844D01*
X466010Y439347D01*
X464606Y437943D01*
X463847Y436109D01*
Y434124D01*
X464606Y432290D01*
X466010Y430886D01*
X467844Y430126D01*
X469840Y429087D01*
X469854Y427817D01*
Y427095D01*
X470613Y425261D01*
X472017Y423858D01*
X473851Y423098D01*
X475836D01*
X477670Y423858D01*
X478852Y425039D01*
X505838D01*
X507005Y425271D01*
X507994Y425932D01*
X510571Y428510D01*
X512243D01*
X514077Y429270D01*
X515480Y430673D01*
X516240Y432507D01*
Y434493D01*
X515480Y436327D01*
X514077Y437730D01*
X512243Y438490D01*
X510257D01*
X508423Y437730D01*
X508121Y437428D01*
X505223Y437891D01*
X503820Y439295D01*
X503359Y441837D01*
X503740Y442757D01*
Y444743D01*
X502980Y446577D01*
X501577Y447980D01*
X499743Y448740D01*
D02*
G37*
G36*
X568430Y434116D02*
X562680D01*
Y429116D01*
X568430D01*
Y434116D01*
D02*
G37*
G36*
X560680D02*
X554930D01*
Y429116D01*
X560680D01*
Y434116D01*
D02*
G37*
G36*
X263491Y435968D02*
X261506D01*
X259672Y435209D01*
X258269Y433805D01*
X257509Y431971D01*
Y429986D01*
X258269Y428152D01*
X259672Y426748D01*
X261506Y425988D01*
X263491D01*
X265326Y426748D01*
X266729Y428152D01*
X267489Y429986D01*
Y431971D01*
X266729Y433805D01*
X265326Y435209D01*
X263491Y435968D01*
D02*
G37*
G36*
X141995Y429578D02*
X139891D01*
X137859Y429033D01*
X136037Y427981D01*
X134550Y426494D01*
X133498Y424672D01*
X132953Y422640D01*
Y420536D01*
X133498Y418504D01*
X134550Y416682D01*
X136037Y415194D01*
X137859Y414142D01*
X139891Y413598D01*
X141995D01*
X144027Y414142D01*
X145849Y415194D01*
X147337Y416682D01*
X148389Y418504D01*
X148933Y420536D01*
Y422640D01*
X148389Y424672D01*
X147337Y426494D01*
X145849Y427981D01*
X144027Y429033D01*
X141995Y429578D01*
D02*
G37*
G36*
X829947Y403510D02*
X827961D01*
X826127Y402750D01*
X824724Y401346D01*
X823964Y399512D01*
Y397527D01*
X824724Y395693D01*
X826127Y394290D01*
X827961Y393530D01*
X829947D01*
X831780Y394290D01*
X833184Y395693D01*
X833944Y397527D01*
Y399512D01*
X833184Y401346D01*
X831780Y402750D01*
X829947Y403510D01*
D02*
G37*
G36*
X476071Y401691D02*
X474086D01*
X472252Y400931D01*
X470848Y399527D01*
X470088Y397693D01*
Y395708D01*
X470848Y393874D01*
X472252Y392470D01*
X474086Y391711D01*
X476071D01*
X477905Y392470D01*
X479309Y393874D01*
X480068Y395708D01*
Y397693D01*
X479309Y399527D01*
X477905Y400931D01*
X476071Y401691D01*
D02*
G37*
G36*
X263491Y397078D02*
X261506D01*
X259672Y396318D01*
X258269Y394914D01*
X257509Y393080D01*
Y391095D01*
X258269Y389261D01*
X259672Y387857D01*
X261506Y387098D01*
X263491D01*
X265326Y387857D01*
X266729Y389261D01*
X267489Y391095D01*
Y393080D01*
X266729Y394914D01*
X265326Y396318D01*
X263491Y397078D01*
D02*
G37*
G36*
X202882Y394698D02*
X200897D01*
X199063Y393938D01*
X197659Y392534D01*
X196900Y390700D01*
Y388715D01*
X197659Y386881D01*
X199063Y385477D01*
X200897Y384718D01*
X202882D01*
X204716Y385477D01*
X206120Y386881D01*
X206880Y388715D01*
Y390700D01*
X206120Y392534D01*
X204716Y393938D01*
X202882Y394698D01*
D02*
G37*
G36*
X182163D02*
X180178D01*
X178344Y393938D01*
X176940Y392534D01*
X176180Y390700D01*
Y388715D01*
X176940Y386881D01*
X178344Y385477D01*
X180178Y384718D01*
X182163D01*
X183997Y385477D01*
X185401Y386881D01*
X186160Y388715D01*
Y390700D01*
X185401Y392534D01*
X183997Y393938D01*
X182163Y394698D01*
D02*
G37*
G36*
X746613Y471310D02*
X744628D01*
X742794Y470550D01*
X741390Y469146D01*
X740630Y467312D01*
Y465327D01*
X741390Y463493D01*
X742372Y462511D01*
Y424060D01*
X742604Y422893D01*
X743265Y421904D01*
X793412Y371757D01*
Y370086D01*
X794171Y368252D01*
X795575Y366848D01*
X797409Y366089D01*
X799394D01*
X801228Y366848D01*
X802632Y368252D01*
X803392Y370086D01*
Y372071D01*
X802632Y373905D01*
X801228Y375309D01*
X799394Y376069D01*
X797723D01*
X748469Y425323D01*
Y462111D01*
X749851Y463493D01*
X750610Y465327D01*
Y467312D01*
X749851Y469146D01*
X748447Y470550D01*
X746613Y471310D01*
D02*
G37*
G36*
X63262Y364390D02*
X61238D01*
X59282Y363866D01*
X57528Y362854D01*
X56097Y361422D01*
X55084Y359668D01*
X54560Y357712D01*
Y355688D01*
X55084Y353732D01*
X56097Y351978D01*
X57528Y350546D01*
X59282Y349534D01*
X61238Y349010D01*
X63262D01*
X65218Y349534D01*
X66972Y350546D01*
X68404Y351978D01*
X69416Y353732D01*
X69940Y355688D01*
Y357712D01*
X69416Y359668D01*
X68404Y361422D01*
X66972Y362854D01*
X65218Y363866D01*
X63262Y364390D01*
D02*
G37*
G36*
X437993Y348990D02*
X436007D01*
X434173Y348230D01*
X432770Y346827D01*
X432010Y344993D01*
Y343007D01*
X432770Y341173D01*
X434173Y339770D01*
X436007Y339010D01*
X437993D01*
X439827Y339770D01*
X441230Y341173D01*
X441990Y343007D01*
Y344993D01*
X441230Y346827D01*
X439827Y348230D01*
X437993Y348990D01*
D02*
G37*
G36*
X790949Y348240D02*
X788964D01*
X787130Y347480D01*
X785726Y346077D01*
X784967Y344243D01*
Y342257D01*
X785726Y340423D01*
X787130Y339020D01*
X788964Y338260D01*
X790949D01*
X792783Y339020D01*
X794187Y340423D01*
X794947Y342257D01*
Y344243D01*
X794187Y346077D01*
X792783Y347480D01*
X790949Y348240D01*
D02*
G37*
G36*
X12464Y339000D02*
X12200D01*
Y332050D01*
X19150D01*
Y332314D01*
X18625Y334272D01*
X17612Y336028D01*
X16178Y337462D01*
X14422Y338475D01*
X12464Y339000D01*
D02*
G37*
G36*
X146140Y338990D02*
X130760D01*
Y323610D01*
X146140D01*
Y338990D01*
D02*
G37*
G36*
X19150Y330550D02*
X12200D01*
Y323600D01*
X12464D01*
X14422Y324125D01*
X16178Y325139D01*
X17612Y326572D01*
X18625Y328328D01*
X19150Y330286D01*
Y330550D01*
D02*
G37*
G36*
X622982Y324669D02*
X620997D01*
X619163Y323909D01*
X617759Y322506D01*
X617000Y320672D01*
Y318687D01*
X617759Y316852D01*
X619163Y315449D01*
X620997Y314689D01*
X622982D01*
X624816Y315449D01*
X626220Y316852D01*
X626979Y318687D01*
Y320672D01*
X626220Y322506D01*
X624816Y323909D01*
X622982Y324669D01*
D02*
G37*
G36*
X268297Y324571D02*
X266312D01*
X264478Y323811D01*
X263074Y322408D01*
X262315Y320574D01*
Y318589D01*
X263074Y316755D01*
X264478Y315351D01*
X266312Y314591D01*
X268297D01*
X270131Y315351D01*
X271535Y316755D01*
X272295Y318589D01*
Y320574D01*
X271535Y322408D01*
X270131Y323811D01*
X268297Y324571D01*
D02*
G37*
G36*
X572369Y324376D02*
X570384D01*
X568550Y323617D01*
X567146Y322213D01*
X566386Y320379D01*
Y318394D01*
X567146Y316560D01*
X568550Y315156D01*
X570384Y314396D01*
X572369D01*
X574203Y315156D01*
X575606Y316560D01*
X576366Y318394D01*
Y320379D01*
X575606Y322213D01*
X574203Y323617D01*
X572369Y324376D01*
D02*
G37*
G36*
X301065Y324376D02*
X299079D01*
X297245Y323616D01*
X295842Y322213D01*
X295082Y320379D01*
Y318393D01*
X295842Y316560D01*
X297245Y315156D01*
X299079Y314396D01*
X301065D01*
X302899Y315156D01*
X304302Y316560D01*
X305062Y318393D01*
Y320379D01*
X304302Y322213D01*
X302899Y323616D01*
X301065Y324376D01*
D02*
G37*
G36*
X213197Y324376D02*
X211212D01*
X209378Y323616D01*
X207975Y322213D01*
X207215Y320379D01*
Y318393D01*
X207975Y316559D01*
X209378Y315156D01*
X211212Y314396D01*
X213197D01*
X215032Y315156D01*
X216435Y316559D01*
X217195Y318393D01*
Y320379D01*
X216435Y322213D01*
X215032Y323616D01*
X213197Y324376D01*
D02*
G37*
G36*
X656335Y322914D02*
X654349D01*
X652515Y322154D01*
X651112Y320750D01*
X650352Y318916D01*
Y316931D01*
X651112Y315097D01*
X652515Y313693D01*
X654349Y312934D01*
X656335D01*
X658168Y313693D01*
X659572Y315097D01*
X660332Y316931D01*
Y318916D01*
X659572Y320750D01*
X658168Y322154D01*
X656335Y322914D01*
D02*
G37*
G36*
X821289Y316049D02*
X819304D01*
X817470Y315290D01*
X816066Y313886D01*
X815306Y312052D01*
Y310067D01*
X816066Y308233D01*
X817470Y306829D01*
X819304Y306069D01*
X821289D01*
X823123Y306829D01*
X824527Y308233D01*
X825286Y310067D01*
Y312052D01*
X824527Y313886D01*
X823123Y315290D01*
X821289Y316049D01*
D02*
G37*
G36*
X795289D02*
X793304D01*
X791470Y315290D01*
X790066Y313886D01*
X789306Y312052D01*
Y310067D01*
X790066Y308233D01*
X791470Y306829D01*
X793304Y306069D01*
X795289D01*
X797123Y306829D01*
X798527Y308233D01*
X799286Y310067D01*
Y312052D01*
X798527Y313886D01*
X797123Y315290D01*
X795289Y316049D01*
D02*
G37*
G36*
X438165Y312572D02*
X436180D01*
X434346Y311813D01*
X432942Y310409D01*
X432183Y308575D01*
Y306590D01*
X432942Y304756D01*
X434346Y303352D01*
X436180Y302593D01*
X438165D01*
X439999Y303352D01*
X441403Y304756D01*
X442163Y306590D01*
Y308575D01*
X441403Y310409D01*
X439999Y311813D01*
X438165Y312572D01*
D02*
G37*
G36*
X519242Y311605D02*
X517257D01*
X515423Y310845D01*
X514019Y309442D01*
X513260Y307608D01*
Y305622D01*
X514019Y303788D01*
X515423Y302385D01*
X517257Y301625D01*
X519242D01*
X521076Y302385D01*
X522480Y303788D01*
X523240Y305622D01*
Y307608D01*
X522480Y309442D01*
X521076Y310845D01*
X519242Y311605D01*
D02*
G37*
G36*
X464932D02*
X462947D01*
X461113Y310845D01*
X459709Y309442D01*
X458949Y307608D01*
Y305622D01*
X459709Y303788D01*
X461113Y302385D01*
X462947Y301625D01*
X464932D01*
X466766Y302385D01*
X468169Y303788D01*
X468929Y305622D01*
Y307608D01*
X468169Y309442D01*
X466766Y310845D01*
X464932Y311605D01*
D02*
G37*
G36*
X873360Y311486D02*
X871375D01*
X869541Y310726D01*
X868137Y309323D01*
X867378Y307489D01*
Y305503D01*
X868137Y303669D01*
X869541Y302266D01*
X871375Y301506D01*
X873360D01*
X875194Y302266D01*
X876598Y303669D01*
X877358Y305503D01*
Y307489D01*
X876598Y309323D01*
X875194Y310726D01*
X873360Y311486D01*
D02*
G37*
G36*
X395928Y296490D02*
X393943D01*
X392109Y295730D01*
X391166Y294788D01*
X389678Y294515D01*
X388190Y294788D01*
X387248Y295730D01*
X385414Y296490D01*
X383428D01*
X381594Y295730D01*
X380191Y294327D01*
X379431Y292493D01*
Y290507D01*
X380191Y288673D01*
X381594Y287270D01*
X383428Y286510D01*
X385414D01*
X387248Y287270D01*
X388190Y288212D01*
X389678Y288485D01*
X391166Y288212D01*
X392109Y287270D01*
X393943Y286510D01*
X395928D01*
X397762Y287270D01*
X399166Y288673D01*
X399926Y290507D01*
Y292493D01*
X399166Y294327D01*
X397762Y295730D01*
X395928Y296490D01*
D02*
G37*
G36*
X750046Y296285D02*
X748061D01*
X746227Y295525D01*
X745284Y294582D01*
X743796Y294310D01*
X742308Y294582D01*
X741366Y295525D01*
X739531Y296285D01*
X737546D01*
X735712Y295525D01*
X734309Y294121D01*
X733549Y292287D01*
Y290302D01*
X734309Y288468D01*
X735712Y287064D01*
X737546Y286305D01*
X739531D01*
X741366Y287064D01*
X742308Y288007D01*
X743796Y288280D01*
X745284Y288007D01*
X746227Y287064D01*
X748061Y286305D01*
X750046D01*
X751880Y287064D01*
X753284Y288468D01*
X754044Y290302D01*
Y292287D01*
X753284Y294121D01*
X751880Y295525D01*
X750046Y296285D01*
D02*
G37*
G36*
X32953Y298217D02*
X32250D01*
Y284217D01*
X46250D01*
Y284920D01*
X45683Y287770D01*
X44571Y290454D01*
X42957Y292870D01*
X40903Y294924D01*
X38487Y296538D01*
X35802Y297650D01*
X32953Y298217D01*
D02*
G37*
G36*
X83753D02*
X83050D01*
Y284217D01*
X97050D01*
Y284920D01*
X96483Y287770D01*
X95371Y290454D01*
X93757Y292870D01*
X91703Y294924D01*
X89287Y296538D01*
X86602Y297650D01*
X83753Y298217D01*
D02*
G37*
G36*
X30750D02*
X30047D01*
X27198Y297650D01*
X24513Y296538D01*
X22097Y294924D01*
X20043Y292870D01*
X18429Y290454D01*
X17317Y287770D01*
X16750Y284920D01*
Y284217D01*
X30750D01*
Y298217D01*
D02*
G37*
G36*
X81550D02*
X80847D01*
X77998Y297650D01*
X75313Y296538D01*
X72897Y294924D01*
X70843Y292870D01*
X69229Y290454D01*
X68117Y287770D01*
X67550Y284920D01*
Y284217D01*
X81550D01*
Y298217D01*
D02*
G37*
G36*
X568836Y283740D02*
X566851D01*
X565017Y282980D01*
X563613Y281577D01*
X562853Y279743D01*
Y277757D01*
X563613Y275923D01*
X565017Y274520D01*
X566851Y273760D01*
X568836D01*
X570670Y274520D01*
X572074Y275923D01*
X572833Y277757D01*
Y279743D01*
X572074Y281577D01*
X570670Y282980D01*
X568836Y283740D01*
D02*
G37*
G36*
X212993D02*
X211007D01*
X209173Y282980D01*
X207770Y281577D01*
X207010Y279743D01*
Y277757D01*
X207770Y275923D01*
X209173Y274520D01*
X211007Y273760D01*
X212993D01*
X214827Y274520D01*
X216230Y275923D01*
X216990Y277757D01*
Y279743D01*
X216230Y281577D01*
X214827Y282980D01*
X212993Y283740D01*
D02*
G37*
G36*
X97050Y282717D02*
X83050D01*
Y268717D01*
X83753D01*
X86602Y269284D01*
X89287Y270396D01*
X91703Y272010D01*
X93757Y274065D01*
X95371Y276480D01*
X96483Y279165D01*
X97050Y282014D01*
Y282717D01*
D02*
G37*
G36*
X81550D02*
X67550D01*
Y282014D01*
X68117Y279165D01*
X69229Y276480D01*
X70843Y274065D01*
X72897Y272010D01*
X75313Y270396D01*
X77998Y269284D01*
X80847Y268717D01*
X81550D01*
Y282717D01*
D02*
G37*
G36*
X46250D02*
X32250D01*
Y268717D01*
X32953D01*
X35802Y269284D01*
X38487Y270396D01*
X40903Y272010D01*
X42957Y274065D01*
X44571Y276480D01*
X45683Y279165D01*
X46250Y282014D01*
Y282717D01*
D02*
G37*
G36*
X30750D02*
X16750D01*
Y282014D01*
X17317Y279165D01*
X18429Y276480D01*
X20043Y274065D01*
X22097Y272010D01*
X24513Y270396D01*
X27198Y269284D01*
X30047Y268717D01*
X30750D01*
Y282717D01*
D02*
G37*
G36*
X964920Y281450D02*
X963080D01*
X961302Y280974D01*
X959708Y280053D01*
X958407Y278752D01*
X957486Y277158D01*
X957010Y275380D01*
Y273540D01*
X957486Y271762D01*
X958407Y270168D01*
X959708Y268867D01*
X961302Y267946D01*
X963080Y267470D01*
X964920D01*
X966698Y267946D01*
X968292Y268867D01*
X969593Y270168D01*
X970514Y271762D01*
X970990Y273540D01*
Y275380D01*
X970514Y277158D01*
X969593Y278752D01*
X968292Y280053D01*
X966698Y280974D01*
X964920Y281450D01*
D02*
G37*
G36*
X138991Y279240D02*
X137151D01*
X135373Y278764D01*
X133779Y277843D01*
X132478Y276542D01*
X131558Y274948D01*
X131081Y273170D01*
Y271330D01*
X131558Y269552D01*
X132478Y267958D01*
X133779Y266657D01*
X135373Y265736D01*
X137151Y265260D01*
X138991D01*
X140769Y265736D01*
X142363Y266657D01*
X143665Y267958D01*
X144585Y269552D01*
X145061Y271330D01*
Y273170D01*
X144585Y274948D01*
X143665Y276542D01*
X142363Y277843D01*
X140769Y278764D01*
X138991Y279240D01*
D02*
G37*
G36*
X58643Y271307D02*
X55157D01*
X51790Y270405D01*
X48770Y268662D01*
X46305Y266197D01*
X44562Y263178D01*
X43660Y259810D01*
Y256324D01*
X44562Y252957D01*
X46305Y249938D01*
X48770Y247472D01*
X51790Y245730D01*
X55157Y244827D01*
X58643D01*
X62010Y245730D01*
X65030Y247472D01*
X67495Y249938D01*
X69238Y252957D01*
X70140Y256324D01*
Y259810D01*
X69238Y263178D01*
X67495Y266197D01*
X65030Y268662D01*
X62010Y270405D01*
X58643Y271307D01*
D02*
G37*
G36*
X32953Y247417D02*
X32250D01*
Y233417D01*
X46250D01*
Y234120D01*
X45683Y236970D01*
X44571Y239654D01*
X42957Y242070D01*
X40903Y244124D01*
X38487Y245738D01*
X35802Y246850D01*
X32953Y247417D01*
D02*
G37*
G36*
X83753D02*
X83050D01*
Y233417D01*
X97050D01*
Y234120D01*
X96483Y236970D01*
X95371Y239654D01*
X93757Y242070D01*
X91703Y244124D01*
X89287Y245738D01*
X86602Y246850D01*
X83753Y247417D01*
D02*
G37*
G36*
X30750D02*
X30047D01*
X27198Y246850D01*
X24513Y245738D01*
X22097Y244124D01*
X20043Y242070D01*
X18429Y239654D01*
X17317Y236970D01*
X16750Y234120D01*
Y233417D01*
X30750D01*
Y247417D01*
D02*
G37*
G36*
X81550D02*
X80847D01*
X77998Y246850D01*
X75313Y245738D01*
X72897Y244124D01*
X70843Y242070D01*
X69229Y239654D01*
X68117Y236970D01*
X67550Y234120D01*
Y233417D01*
X81550D01*
Y247417D01*
D02*
G37*
G36*
X568836Y243251D02*
X566851D01*
X565017Y242491D01*
X563613Y241087D01*
X562853Y239253D01*
Y237268D01*
X563613Y235434D01*
X565017Y234030D01*
X566851Y233271D01*
X568836D01*
X570670Y234030D01*
X572074Y235434D01*
X572833Y237268D01*
Y239253D01*
X572074Y241087D01*
X570670Y242491D01*
X568836Y243251D01*
D02*
G37*
G36*
X212697Y243250D02*
X210712D01*
X208878Y242490D01*
X207474Y241087D01*
X206714Y239253D01*
Y237267D01*
X207474Y235433D01*
X208878Y234030D01*
X210712Y233270D01*
X212697D01*
X214531Y234030D01*
X215935Y235433D01*
X216694Y237267D01*
Y239253D01*
X215935Y241087D01*
X214531Y242490D01*
X212697Y243250D01*
D02*
G37*
G36*
X272913Y243160D02*
X270928D01*
X269093Y242400D01*
X267690Y240997D01*
X266930Y239163D01*
Y237178D01*
X267690Y235343D01*
X269093Y233940D01*
X270928Y233180D01*
X272913D01*
X274747Y233940D01*
X276150Y235343D01*
X276910Y237178D01*
Y239163D01*
X276150Y240997D01*
X274747Y242400D01*
X272913Y243160D01*
D02*
G37*
G36*
X627243Y243148D02*
X625257D01*
X623423Y242389D01*
X622020Y240985D01*
X621260Y239151D01*
Y237166D01*
X622020Y235332D01*
X623423Y233928D01*
X625257Y233168D01*
X627243D01*
X629077Y233928D01*
X630480Y235332D01*
X631240Y237166D01*
Y239151D01*
X630480Y240985D01*
X629077Y242389D01*
X627243Y243148D01*
D02*
G37*
G36*
X97050Y231917D02*
X83050D01*
Y217917D01*
X83753D01*
X86602Y218484D01*
X89287Y219596D01*
X91703Y221210D01*
X93757Y223265D01*
X95371Y225680D01*
X96483Y228365D01*
X97050Y231214D01*
Y231917D01*
D02*
G37*
G36*
X81550D02*
X67550D01*
Y231214D01*
X68117Y228365D01*
X69229Y225680D01*
X70843Y223265D01*
X72897Y221210D01*
X75313Y219596D01*
X77998Y218484D01*
X80847Y217917D01*
X81550D01*
Y231917D01*
D02*
G37*
G36*
X46250D02*
X32250D01*
Y217917D01*
X32953D01*
X35802Y218484D01*
X38487Y219596D01*
X40903Y221210D01*
X42957Y223265D01*
X44571Y225680D01*
X45683Y228365D01*
X46250Y231214D01*
Y231917D01*
D02*
G37*
G36*
X30750D02*
X16750D01*
Y231214D01*
X17317Y228365D01*
X18429Y225680D01*
X20043Y223265D01*
X22097Y221210D01*
X24513Y219596D01*
X27198Y218484D01*
X30047Y217917D01*
X30750D01*
Y231917D01*
D02*
G37*
G36*
X800642Y236955D02*
X797485D01*
X794435Y236138D01*
X791701Y234559D01*
X789469Y232327D01*
X787890Y229593D01*
X787073Y226543D01*
Y223386D01*
X787890Y220337D01*
X789469Y217603D01*
X791701Y215371D01*
X794435Y213792D01*
X797485Y212975D01*
X800642D01*
X803691Y213792D01*
X806425Y215371D01*
X808658Y217603D01*
X810236Y220337D01*
X811053Y223386D01*
Y226543D01*
X810236Y229593D01*
X808658Y232327D01*
X806425Y234559D01*
X803691Y236138D01*
X800642Y236955D01*
D02*
G37*
G36*
X394276Y170752D02*
X392291D01*
X390457Y169992D01*
X389053Y168589D01*
X388293Y166755D01*
Y164769D01*
X389053Y162936D01*
X390457Y161532D01*
X392291Y160772D01*
X394276D01*
X396110Y161532D01*
X397514Y162936D01*
X398273Y164769D01*
Y166755D01*
X397514Y168589D01*
X396110Y169992D01*
X394276Y170752D01*
D02*
G37*
G36*
X32953Y171150D02*
X32250D01*
Y157150D01*
X46250D01*
Y157853D01*
X45683Y160702D01*
X44571Y163387D01*
X42957Y165802D01*
X40903Y167857D01*
X38487Y169471D01*
X35802Y170583D01*
X32953Y171150D01*
D02*
G37*
G36*
X83753D02*
X83050D01*
Y157150D01*
X97050D01*
Y157853D01*
X96483Y160702D01*
X95371Y163387D01*
X93757Y165802D01*
X91703Y167857D01*
X89287Y169471D01*
X86602Y170583D01*
X83753Y171150D01*
D02*
G37*
G36*
X30750D02*
X30047D01*
X27198Y170583D01*
X24513Y169471D01*
X22097Y167857D01*
X20043Y165802D01*
X18429Y163387D01*
X17317Y160702D01*
X16750Y157853D01*
Y157150D01*
X30750D01*
Y171150D01*
D02*
G37*
G36*
X81550D02*
X80847D01*
X77998Y170583D01*
X75313Y169471D01*
X72897Y167857D01*
X70843Y165802D01*
X69229Y163387D01*
X68117Y160702D01*
X67550Y157853D01*
Y157150D01*
X81550D01*
Y171150D01*
D02*
G37*
G36*
X97050Y155650D02*
X83050D01*
Y141650D01*
X83753D01*
X86602Y142217D01*
X89287Y143329D01*
X91703Y144943D01*
X93757Y146997D01*
X95371Y149413D01*
X96483Y152098D01*
X97050Y154947D01*
Y155650D01*
D02*
G37*
G36*
X81550D02*
X67550D01*
Y154947D01*
X68117Y152098D01*
X69229Y149413D01*
X70843Y146997D01*
X72897Y144943D01*
X75313Y143329D01*
X77998Y142217D01*
X80847Y141650D01*
X81550D01*
Y155650D01*
D02*
G37*
G36*
X46250D02*
X32250D01*
Y141650D01*
X32953D01*
X35802Y142217D01*
X38487Y143329D01*
X40903Y144943D01*
X42957Y146997D01*
X44571Y149413D01*
X45683Y152098D01*
X46250Y154947D01*
Y155650D01*
D02*
G37*
G36*
X30750D02*
X16750D01*
Y154947D01*
X17317Y152098D01*
X18429Y149413D01*
X20043Y146997D01*
X22097Y144943D01*
X24513Y143329D01*
X27198Y142217D01*
X30047Y141650D01*
X30750D01*
Y155650D01*
D02*
G37*
G36*
X605287Y203660D02*
X603302D01*
X601468Y202901D01*
X600064Y201497D01*
X599304Y199663D01*
Y197678D01*
X600064Y195844D01*
X601195Y194713D01*
Y162300D01*
X576796Y137902D01*
X575197D01*
X573363Y137143D01*
X571960Y135739D01*
X571200Y133905D01*
Y131920D01*
X571960Y130086D01*
X573363Y128682D01*
X575197Y127922D01*
X577183D01*
X579017Y128682D01*
X580420Y130086D01*
X581180Y131920D01*
Y133519D01*
X606486Y158825D01*
X606486Y158825D01*
X607158Y159830D01*
X607394Y161017D01*
X607394Y161017D01*
Y194713D01*
X608525Y195844D01*
X609284Y197678D01*
Y199663D01*
X608525Y201497D01*
X607121Y202901D01*
X605287Y203660D01*
D02*
G37*
G36*
X58643Y144240D02*
X55157D01*
X51790Y143338D01*
X48770Y141595D01*
X46305Y139129D01*
X44562Y136110D01*
X43660Y132743D01*
Y129257D01*
X44562Y125890D01*
X46305Y122870D01*
X48770Y120405D01*
X51790Y118662D01*
X55157Y117760D01*
X58643D01*
X62010Y118662D01*
X65030Y120405D01*
X67495Y122870D01*
X69238Y125890D01*
X70140Y129257D01*
Y132743D01*
X69238Y136110D01*
X67495Y139129D01*
X65030Y141595D01*
X62010Y143338D01*
X58643Y144240D01*
D02*
G37*
G36*
X801010Y118750D02*
X799169D01*
X797391Y118274D01*
X795797Y117353D01*
X794782Y116338D01*
X521547D01*
X520532Y117353D01*
X518938Y118274D01*
X517160Y118750D01*
X515320D01*
X513542Y118274D01*
X511948Y117353D01*
X510647Y116052D01*
X509726Y114458D01*
X509250Y112680D01*
Y110840D01*
X509726Y109062D01*
X510647Y107468D01*
X511948Y106167D01*
X513542Y105246D01*
X515320Y104770D01*
X517160D01*
X518938Y105246D01*
X520532Y106167D01*
X521547Y107182D01*
X794782D01*
X795797Y106167D01*
X797391Y105246D01*
X799169Y104770D01*
X801010D01*
X802787Y105246D01*
X804381Y106167D01*
X805683Y107468D01*
X806603Y109062D01*
X807079Y110840D01*
Y112680D01*
X806603Y114458D01*
X805683Y116052D01*
X804381Y117353D01*
X802787Y118274D01*
X801010Y118750D01*
D02*
G37*
G36*
X32953Y120350D02*
X32250D01*
Y106350D01*
X46250D01*
Y107053D01*
X45683Y109902D01*
X44571Y112587D01*
X42957Y115002D01*
X40903Y117057D01*
X38487Y118671D01*
X35802Y119783D01*
X32953Y120350D01*
D02*
G37*
G36*
X83753D02*
X83050D01*
Y106350D01*
X97050D01*
Y107053D01*
X96483Y109902D01*
X95371Y112587D01*
X93757Y115002D01*
X91703Y117057D01*
X89287Y118671D01*
X86602Y119783D01*
X83753Y120350D01*
D02*
G37*
G36*
X30750D02*
X30047D01*
X27198Y119783D01*
X24513Y118671D01*
X22097Y117057D01*
X20043Y115002D01*
X18429Y112587D01*
X17317Y109902D01*
X16750Y107053D01*
Y106350D01*
X30750D01*
Y120350D01*
D02*
G37*
G36*
X81550D02*
X80847D01*
X77998Y119783D01*
X75313Y118671D01*
X72897Y117057D01*
X70843Y115002D01*
X69229Y112587D01*
X68117Y109902D01*
X67550Y107053D01*
Y106350D01*
X81550D01*
Y120350D01*
D02*
G37*
G36*
X873790Y119110D02*
X871949D01*
X870172Y118634D01*
X868578Y117714D01*
X867276Y116412D01*
X866356Y114818D01*
X865880Y113041D01*
Y111200D01*
X866356Y109422D01*
X867276Y107828D01*
X868578Y106527D01*
X870172Y105607D01*
X871949Y105130D01*
X873790D01*
X875568Y105607D01*
X877161Y106527D01*
X878463Y107828D01*
X879383Y109422D01*
X879859Y111200D01*
Y113041D01*
X879383Y114818D01*
X878463Y116412D01*
X877161Y117714D01*
X875568Y118634D01*
X873790Y119110D01*
D02*
G37*
G36*
X97050Y104850D02*
X83050D01*
Y90850D01*
X83753D01*
X86602Y91417D01*
X89287Y92529D01*
X91703Y94143D01*
X93757Y96197D01*
X95371Y98613D01*
X96483Y101298D01*
X97050Y104147D01*
Y104850D01*
D02*
G37*
G36*
X81550D02*
X67550D01*
Y104147D01*
X68117Y101298D01*
X69229Y98613D01*
X70843Y96197D01*
X72897Y94143D01*
X75313Y92529D01*
X77998Y91417D01*
X80847Y90850D01*
X81550D01*
Y104850D01*
D02*
G37*
G36*
X46250D02*
X32250D01*
Y90850D01*
X32953D01*
X35802Y91417D01*
X38487Y92529D01*
X40903Y94143D01*
X42957Y96197D01*
X44571Y98613D01*
X45683Y101298D01*
X46250Y104147D01*
Y104850D01*
D02*
G37*
G36*
X30750D02*
X16750D01*
Y104147D01*
X17317Y101298D01*
X18429Y98613D01*
X20043Y96197D01*
X22097Y94143D01*
X24513Y92529D01*
X27198Y91417D01*
X30047Y90850D01*
X30750D01*
Y104850D01*
D02*
G37*
G36*
X621363Y96900D02*
X620660D01*
Y82900D01*
X634660D01*
Y83603D01*
X634093Y86452D01*
X632981Y89137D01*
X631367Y91553D01*
X629313Y93607D01*
X626897Y95221D01*
X624212Y96333D01*
X621363Y96900D01*
D02*
G37*
G36*
X570563D02*
X569860D01*
Y82900D01*
X583860D01*
Y83603D01*
X583293Y86452D01*
X582181Y89137D01*
X580567Y91553D01*
X578513Y93607D01*
X576097Y95221D01*
X573412Y96333D01*
X570563Y96900D01*
D02*
G37*
G36*
X619160D02*
X618457D01*
X615608Y96333D01*
X612923Y95221D01*
X610508Y93607D01*
X608453Y91553D01*
X606839Y89137D01*
X605727Y86452D01*
X605160Y83603D01*
Y82900D01*
X619160D01*
Y96900D01*
D02*
G37*
G36*
X568360D02*
X567657D01*
X564808Y96333D01*
X562123Y95221D01*
X559707Y93607D01*
X557653Y91553D01*
X556039Y89137D01*
X554927Y86452D01*
X554360Y83603D01*
Y82900D01*
X568360D01*
Y96900D01*
D02*
G37*
G36*
X214423D02*
X213720D01*
Y82900D01*
X227720D01*
Y83603D01*
X227153Y86452D01*
X226041Y89137D01*
X224427Y91553D01*
X222373Y93607D01*
X219957Y95221D01*
X217272Y96333D01*
X214423Y96900D01*
D02*
G37*
G36*
X263020D02*
X262317D01*
X259468Y96333D01*
X256783Y95221D01*
X254368Y93607D01*
X252313Y91553D01*
X250699Y89137D01*
X249587Y86452D01*
X249020Y83603D01*
Y82900D01*
X263020D01*
Y96900D01*
D02*
G37*
G36*
X212220D02*
X211517D01*
X208668Y96333D01*
X205983Y95221D01*
X203568Y93607D01*
X201513Y91553D01*
X199899Y89137D01*
X198787Y86452D01*
X198220Y83603D01*
Y82900D01*
X212220D01*
Y96900D01*
D02*
G37*
G36*
X849738Y83438D02*
X847897D01*
X846119Y82961D01*
X844526Y82041D01*
X843224Y80739D01*
X842304Y79146D01*
X841827Y77368D01*
Y75527D01*
X842304Y73749D01*
X843224Y72156D01*
X844526Y70854D01*
X846119Y69934D01*
X847897Y69458D01*
X849738D01*
X851516Y69934D01*
X853109Y70854D01*
X854411Y72156D01*
X855331Y73749D01*
X855807Y75527D01*
Y77368D01*
X855331Y79146D01*
X854411Y80739D01*
X853109Y82041D01*
X851516Y82961D01*
X849738Y83438D01*
D02*
G37*
G36*
X745868D02*
X744027D01*
X742250Y82961D01*
X740656Y82041D01*
X739354Y80739D01*
X738434Y79146D01*
X737958Y77368D01*
Y75527D01*
X738434Y73749D01*
X739354Y72156D01*
X740656Y70854D01*
X742250Y69934D01*
X744027Y69458D01*
X745868D01*
X747646Y69934D01*
X749240Y70854D01*
X750541Y72156D01*
X751461Y73749D01*
X751937Y75527D01*
Y77368D01*
X751461Y79146D01*
X750541Y80739D01*
X749240Y82041D01*
X747646Y82961D01*
X745868Y83438D01*
D02*
G37*
G36*
X634660Y81400D02*
X620660D01*
Y67400D01*
X621363D01*
X624212Y67967D01*
X626897Y69079D01*
X629313Y70693D01*
X631367Y72747D01*
X632981Y75163D01*
X634093Y77848D01*
X634660Y80697D01*
Y81400D01*
D02*
G37*
G36*
X619160D02*
X605160D01*
Y80697D01*
X605727Y77848D01*
X606839Y75163D01*
X608453Y72747D01*
X610508Y70693D01*
X612923Y69079D01*
X615608Y67967D01*
X618457Y67400D01*
X619160D01*
Y81400D01*
D02*
G37*
G36*
X583860D02*
X569860D01*
Y67400D01*
X570563D01*
X573412Y67967D01*
X576097Y69079D01*
X578513Y70693D01*
X580567Y72747D01*
X582181Y75163D01*
X583293Y77848D01*
X583860Y80697D01*
Y81400D01*
D02*
G37*
G36*
X568360D02*
X554360D01*
Y80697D01*
X554927Y77848D01*
X556039Y75163D01*
X557653Y72747D01*
X559707Y70693D01*
X562123Y69079D01*
X564808Y67967D01*
X567657Y67400D01*
X568360D01*
Y81400D01*
D02*
G37*
G36*
X263020Y81400D02*
X249020D01*
Y80697D01*
X249587Y77848D01*
X250699Y75163D01*
X252313Y72747D01*
X254368Y70693D01*
X256783Y69079D01*
X259468Y67967D01*
X262317Y67400D01*
X263020D01*
Y81400D01*
D02*
G37*
G36*
X227720D02*
X213720D01*
Y67400D01*
X214423D01*
X217272Y67967D01*
X219957Y69079D01*
X222373Y70693D01*
X224427Y72747D01*
X226041Y75163D01*
X227153Y77848D01*
X227720Y80697D01*
Y81400D01*
D02*
G37*
G36*
X212220D02*
X198220D01*
Y80697D01*
X198787Y77848D01*
X199899Y75163D01*
X201513Y72747D01*
X203568Y70693D01*
X205983Y69079D01*
X208668Y67967D01*
X211517Y67400D01*
X212220D01*
Y81400D01*
D02*
G37*
G36*
X394276Y68702D02*
X392291D01*
X390457Y67942D01*
X389053Y66539D01*
X388293Y64705D01*
Y62719D01*
X389053Y60885D01*
X390457Y59482D01*
X392291Y58722D01*
X394276D01*
X396110Y59482D01*
X397514Y60885D01*
X398273Y62719D01*
Y64705D01*
X397514Y66539D01*
X396110Y67942D01*
X394276Y68702D01*
D02*
G37*
G36*
X596253Y69990D02*
X592767D01*
X589400Y69088D01*
X586381Y67345D01*
X583915Y64880D01*
X582172Y61860D01*
X581270Y58493D01*
Y55007D01*
X582172Y51640D01*
X583915Y48621D01*
X586381Y46155D01*
X589400Y44412D01*
X592767Y43510D01*
X596253D01*
X599621Y44412D01*
X602640Y46155D01*
X605105Y48621D01*
X606848Y51640D01*
X607750Y55007D01*
Y58493D01*
X606848Y61860D01*
X605105Y64880D01*
X602640Y67345D01*
X599621Y69088D01*
X596253Y69990D01*
D02*
G37*
G36*
X240113D02*
X236627D01*
X233260Y69088D01*
X230240Y67345D01*
X227775Y64880D01*
X226032Y61860D01*
X225130Y58493D01*
Y55007D01*
X226032Y51640D01*
X227775Y48621D01*
X230240Y46155D01*
X233260Y44412D01*
X236627Y43510D01*
X240113D01*
X243480Y44412D01*
X246500Y46155D01*
X248965Y48621D01*
X250708Y51640D01*
X251610Y55007D01*
Y58493D01*
X250708Y61860D01*
X248965Y64880D01*
X246500Y67345D01*
X243480Y69088D01*
X240113Y69990D01*
D02*
G37*
G36*
X621363Y46100D02*
X620660D01*
Y32100D01*
X634660D01*
Y32803D01*
X634093Y35652D01*
X632981Y38337D01*
X631367Y40753D01*
X629313Y42807D01*
X626897Y44421D01*
X624212Y45533D01*
X621363Y46100D01*
D02*
G37*
G36*
X570563D02*
X569860D01*
Y32100D01*
X583860D01*
Y32803D01*
X583293Y35652D01*
X582181Y38337D01*
X580567Y40753D01*
X578513Y42807D01*
X576097Y44421D01*
X573412Y45533D01*
X570563Y46100D01*
D02*
G37*
G36*
X619160D02*
X618457D01*
X615608Y45533D01*
X612923Y44421D01*
X610508Y42807D01*
X608453Y40753D01*
X606839Y38337D01*
X605727Y35652D01*
X605160Y32803D01*
Y32100D01*
X619160D01*
Y46100D01*
D02*
G37*
G36*
X568360D02*
X567657D01*
X564808Y45533D01*
X562123Y44421D01*
X559707Y42807D01*
X557653Y40753D01*
X556039Y38337D01*
X554927Y35652D01*
X554360Y32803D01*
Y32100D01*
X568360D01*
Y46100D01*
D02*
G37*
G36*
X265223D02*
X264520D01*
Y32100D01*
X278520D01*
Y32803D01*
X277953Y35652D01*
X276841Y38337D01*
X275227Y40753D01*
X273173Y42807D01*
X270757Y44421D01*
X268072Y45533D01*
X265223Y46100D01*
D02*
G37*
G36*
X214423D02*
X213720D01*
Y32100D01*
X227720D01*
Y32803D01*
X227153Y35652D01*
X226041Y38337D01*
X224427Y40753D01*
X222373Y42807D01*
X219957Y44421D01*
X217272Y45533D01*
X214423Y46100D01*
D02*
G37*
G36*
X263020D02*
X262317D01*
X259468Y45533D01*
X256783Y44421D01*
X254368Y42807D01*
X252313Y40753D01*
X250699Y38337D01*
X249587Y35652D01*
X249020Y32803D01*
Y32100D01*
X263020D01*
Y46100D01*
D02*
G37*
G36*
X212220D02*
X211517D01*
X208668Y45533D01*
X205983Y44421D01*
X203568Y42807D01*
X201513Y40753D01*
X199899Y38337D01*
X198787Y35652D01*
X198220Y32803D01*
Y32100D01*
X212220D01*
Y46100D01*
D02*
G37*
G36*
X801082Y27731D02*
X799097D01*
X797263Y26971D01*
X795859Y25567D01*
X795099Y23733D01*
Y21748D01*
X795859Y19914D01*
X797263Y18510D01*
X799097Y17751D01*
X801082D01*
X802916Y18510D01*
X804320Y19914D01*
X805079Y21748D01*
Y23733D01*
X804320Y25567D01*
X802916Y26971D01*
X801082Y27731D01*
D02*
G37*
G36*
X634660Y30600D02*
X620660D01*
Y16600D01*
X621363D01*
X624212Y17167D01*
X626897Y18279D01*
X629313Y19893D01*
X631367Y21947D01*
X632981Y24363D01*
X634093Y27048D01*
X634660Y29897D01*
Y30600D01*
D02*
G37*
G36*
X619160D02*
X605160D01*
Y29897D01*
X605727Y27048D01*
X606839Y24363D01*
X608453Y21947D01*
X610508Y19893D01*
X612923Y18279D01*
X615608Y17167D01*
X618457Y16600D01*
X619160D01*
Y30600D01*
D02*
G37*
G36*
X583860D02*
X569860D01*
Y16600D01*
X570563D01*
X573412Y17167D01*
X576097Y18279D01*
X578513Y19893D01*
X580567Y21947D01*
X582181Y24363D01*
X583293Y27048D01*
X583860Y29897D01*
Y30600D01*
D02*
G37*
G36*
X568360D02*
X554360D01*
Y29897D01*
X554927Y27048D01*
X556039Y24363D01*
X557653Y21947D01*
X559707Y19893D01*
X562123Y18279D01*
X564808Y17167D01*
X567657Y16600D01*
X568360D01*
Y30600D01*
D02*
G37*
G36*
X278520Y30600D02*
X264520D01*
Y16600D01*
X265223D01*
X268072Y17167D01*
X270757Y18279D01*
X273173Y19893D01*
X275227Y21947D01*
X276841Y24363D01*
X277953Y27048D01*
X278520Y29897D01*
Y30600D01*
D02*
G37*
G36*
X263020D02*
X249020D01*
Y29897D01*
X249587Y27048D01*
X250699Y24363D01*
X252313Y21947D01*
X254368Y19893D01*
X256783Y18279D01*
X259468Y17167D01*
X262317Y16600D01*
X263020D01*
Y30600D01*
D02*
G37*
G36*
X227720D02*
X213720D01*
Y16600D01*
X214423D01*
X217272Y17167D01*
X219957Y18279D01*
X222373Y19893D01*
X224427Y21947D01*
X226041Y24363D01*
X227153Y27048D01*
X227720Y29897D01*
Y30600D01*
D02*
G37*
G36*
X212220D02*
X198220D01*
Y29897D01*
X198787Y27048D01*
X199899Y24363D01*
X201513Y21947D01*
X203568Y19893D01*
X205983Y18279D01*
X208668Y17167D01*
X211517Y16600D01*
X212220D01*
Y30600D01*
D02*
G37*
G36*
X967321Y64490D02*
X962679D01*
X958094Y63764D01*
X953680Y62329D01*
X949544Y60222D01*
X945789Y57494D01*
X942506Y54211D01*
X939778Y50456D01*
X937671Y46320D01*
X936236Y41906D01*
X935510Y37321D01*
Y32679D01*
X936236Y28094D01*
X937671Y23680D01*
X939778Y19544D01*
X942506Y15789D01*
X945789Y12506D01*
X949544Y9778D01*
X953680Y7671D01*
X958094Y6236D01*
X962679Y5510D01*
X967321D01*
X971906Y6236D01*
X976320Y7671D01*
X980456Y9778D01*
X984211Y12506D01*
X987494Y15789D01*
X990222Y19544D01*
X992329Y23680D01*
X993764Y28094D01*
X994490Y32679D01*
Y37321D01*
X993764Y41906D01*
X992329Y46320D01*
X990222Y50456D01*
X987494Y54211D01*
X984211Y57494D01*
X980456Y60222D01*
X976320Y62329D01*
X971906Y63764D01*
X967321Y64490D01*
D02*
G37*
G36*
X37321D02*
X32679D01*
X28094Y63764D01*
X23680Y62329D01*
X19544Y60222D01*
X15789Y57494D01*
X12506Y54211D01*
X9778Y50456D01*
X7671Y46320D01*
X6236Y41906D01*
X5510Y37321D01*
Y32679D01*
X6236Y28094D01*
X7671Y23680D01*
X9778Y19544D01*
X12506Y15789D01*
X15789Y12506D01*
X19544Y9778D01*
X23680Y7671D01*
X28094Y6236D01*
X32679Y5510D01*
X37321D01*
X41906Y6236D01*
X46320Y7671D01*
X50456Y9778D01*
X54211Y12506D01*
X57494Y15789D01*
X60222Y19544D01*
X62329Y23680D01*
X63764Y28094D01*
X64490Y32679D01*
Y37321D01*
X63764Y41906D01*
X62329Y46320D01*
X60222Y50456D01*
X57494Y54211D01*
X54211Y57494D01*
X50456Y60222D01*
X46320Y62329D01*
X41906Y63764D01*
X37321Y64490D01*
D02*
G37*
%LPD*%
D15*
X444859Y390456D02*
X464653Y410250D01*
X444859Y371009D02*
Y390456D01*
X464653Y410250D02*
X603933D01*
X475092Y443750D02*
X498750D01*
X468837Y435116D02*
X468862Y435090D01*
X500967D01*
X500993Y435065D01*
X505838Y428088D02*
X511250Y433500D01*
X474844Y428088D02*
X505838D01*
X353186Y515438D02*
X377772Y540025D01*
X332548Y527339D02*
X355639Y550431D01*
X332548Y255335D02*
Y527339D01*
X357912Y167492D02*
Y512516D01*
X353186Y173936D02*
Y515438D01*
X342554Y246380D02*
Y521049D01*
X365458Y543953D01*
X357912Y512516D02*
X388022Y542626D01*
X337611Y250042D02*
Y524192D01*
X347744Y518814D02*
X377106Y548176D01*
X347744Y178545D02*
Y518814D01*
X337611Y524192D02*
X365559Y552139D01*
X537395Y532444D02*
X537891D01*
X571870Y498465D01*
X572366D01*
X563110Y498876D02*
Y499304D01*
X532975Y529439D02*
X563110Y499304D01*
X520949Y529439D02*
X532975D01*
X532288Y521265D02*
X554163Y499391D01*
X520272Y521265D02*
X532288D01*
X595679Y369924D02*
X617770D01*
X578331Y352576D02*
X595679Y369924D01*
X617770D02*
X695478Y447632D01*
X568443Y351756D02*
X590583Y373895D01*
X616662D02*
X691237Y448470D01*
X590583Y373895D02*
X616662D01*
X568715Y360681D02*
X586185Y378150D01*
X615820D02*
X687750Y450081D01*
X586185Y378150D02*
X615820D01*
X614329Y382122D02*
X684074Y451867D01*
X559021Y360552D02*
X580591Y382122D01*
X614329D01*
X603933Y410250D02*
X656443Y462760D01*
Y610807D01*
X538796Y406296D02*
X605569D01*
X660426Y461154D01*
Y665395D01*
X664500Y460325D02*
Y667675D01*
X606585Y402410D02*
X664500Y460325D01*
X546410Y402410D02*
X606585D01*
X554094Y398613D02*
X608181D01*
X668574Y459006D01*
Y670310D01*
X559519Y394373D02*
X609138D01*
X672616Y457851D02*
Y672633D01*
X609138Y394373D02*
X672616Y457851D01*
X611410Y390664D02*
X676658Y455912D01*
X563757Y390664D02*
X611410D01*
X676658Y455912D02*
Y674439D01*
X680239Y453413D02*
Y676536D01*
X568022Y386513D02*
X613339D01*
X680239Y453413D01*
X684074Y451867D02*
Y678377D01*
X687750Y450081D02*
Y680378D01*
X691237Y448470D02*
Y682912D01*
X550565Y369056D02*
X568022Y386513D01*
X551399Y378307D02*
X563757Y390664D01*
X542020Y376874D02*
X559519Y394373D01*
X541747Y386266D02*
X554094Y398613D01*
X537500Y393500D02*
X546410Y402410D01*
X531500Y399000D02*
X538796Y406296D01*
X695478Y447632D02*
Y684692D01*
X653302Y726868D02*
X695478Y684692D01*
X632410Y693411D02*
X660426Y665395D01*
X635389Y631861D02*
X656443Y610807D01*
X634699Y697476D02*
X664500Y667675D01*
X640294Y704955D02*
X672616Y672633D01*
X637756Y701128D02*
X668574Y670310D01*
X576711Y693411D02*
X632410D01*
X651094Y723056D02*
X691237Y682912D01*
X648539Y719590D02*
X687750Y680378D01*
X646414Y716037D02*
X684074Y678377D01*
X644219Y712556D02*
X680239Y676536D01*
X642187Y708911D02*
X676658Y674439D01*
X535414Y726868D02*
X653302D01*
X541527Y723056D02*
X651094D01*
X546548Y719590D02*
X648539D01*
X550811Y716037D02*
X646414D01*
X555817Y712556D02*
X644219D01*
X559988Y708911D02*
X642187D01*
X563944Y704955D02*
X640294D01*
X567933Y701128D02*
X637756D01*
X572480Y697476D02*
X634699D01*
X529314Y720768D02*
X535414Y726868D01*
X536518Y718046D02*
X541527Y723056D01*
X536278Y709319D02*
X546548Y719590D01*
X544813Y710038D02*
X550811Y716037D01*
X544381Y701120D02*
X555817Y712556D01*
X553108Y702031D02*
X559988Y708911D01*
X552053Y693064D02*
X563944Y704955D01*
X561451Y694647D02*
X567933Y701128D01*
X560876Y685872D02*
X572480Y697476D01*
X569795Y686495D02*
X576711Y693411D01*
X589147Y631861D02*
X635389D01*
X285634Y116435D02*
X347744Y178545D01*
X285634Y82580D02*
Y116435D01*
X304048Y95580D02*
Y113628D01*
X357912Y167492D01*
X294081Y89080D02*
Y114831D01*
X353186Y173936D01*
X174412Y612211D02*
X174707Y612506D01*
X150409Y637000D02*
X182163D01*
X174707Y629025D02*
X175002Y629320D01*
X174707Y612506D02*
Y629025D01*
X294081Y190792D02*
Y206512D01*
X337611Y250042D01*
X304048Y196969D02*
Y207874D01*
X342554Y246380D01*
X285634Y183948D02*
Y208421D01*
X332548Y255335D01*
X745421Y466120D02*
X745620Y466320D01*
X745421Y424060D02*
Y466120D01*
Y424060D02*
X798402Y371079D01*
X527839Y718841D02*
X529314Y720316D01*
X527839Y717758D02*
Y718841D01*
X529314Y720316D02*
Y720768D01*
X428244Y645713D02*
Y703272D01*
Y645713D02*
X433750Y640206D01*
X708273Y625539D02*
X731012Y602800D01*
X708273Y625539D02*
Y626053D01*
X731012Y602800D02*
X731450D01*
D77*
X939750Y673250D02*
D03*
Y723250D02*
D03*
D79*
X452276Y967962D02*
D03*
X539276D02*
D03*
D88*
X604294Y161017D02*
Y198670D01*
X576190Y132912D02*
X604294Y161017D01*
D89*
X453962Y452373D02*
G03*
X471923Y459813I0J25400D01*
G01*
X518885Y476429D02*
G03*
X528265Y480314I0J13264D01*
G01*
X453984Y448803D02*
G03*
X474432Y457272I0J28918D01*
G01*
X504088Y480000D02*
G03*
X483640Y471530I0J-28918D01*
G01*
X504110Y476429D02*
G03*
X486149Y468990I0J-25400D01*
G01*
X528296Y480346D02*
G03*
X531172Y487290I-6944J6944D01*
G01*
X518854Y480000D02*
G03*
X525762Y482862I0J9770D01*
G01*
D02*
G03*
X527602Y487303I-4441J4441D01*
G01*
X365387Y454213D02*
X366586D01*
X368425Y452373D01*
Y448803D02*
X453984D01*
X366586Y446963D02*
X368425Y448803D01*
Y452373D02*
X453962D01*
X365387Y446963D02*
X366586D01*
X528265Y480314D02*
X528296Y480346D01*
X471923Y459813D02*
X483640Y471530D01*
X504110Y476429D02*
X518885D01*
X504088Y480000D02*
X518854D01*
X474432Y457272D02*
X486149Y468990D01*
X533012Y493150D02*
Y494349D01*
X531172Y491311D02*
X533012Y493150D01*
X531172Y487290D02*
Y491311D01*
X527602Y487303D02*
Y491311D01*
X525762Y493150D02*
X527602Y491311D01*
X525762Y493150D02*
Y494349D01*
D91*
X528650Y435065D02*
D03*
Y448065D02*
D03*
X561680Y448116D02*
D03*
Y435116D02*
D03*
D123*
X406401Y520370D02*
D03*
X419401D02*
D03*
X430364Y474331D02*
D03*
X417364D02*
D03*
D140*
X516240Y111760D02*
X800089D01*
D141*
X417064Y474031D02*
X417364Y474331D01*
X406641Y474031D02*
X417064D01*
X417364Y462489D02*
Y474331D01*
X561680Y435116D02*
X573787D01*
X528653Y460494D02*
X561685D01*
X561680Y448116D02*
X561685Y448121D01*
Y460494D01*
X528650Y448065D02*
X528653Y448068D01*
Y460494D01*
X561680Y424349D02*
Y435116D01*
X528650Y423439D02*
Y435065D01*
X384707Y520370D02*
X406401D01*
X419401D02*
X430370D01*
X430367Y474334D02*
Y487300D01*
X430370Y487303D01*
X430364Y474331D02*
X430367Y474334D01*
X430370Y487303D02*
Y520370D01*
X430199Y474167D02*
X430364Y474331D01*
X334400Y834000D02*
X334483Y834083D01*
Y898194D01*
X282727Y949950D02*
X334483Y898194D01*
X151005Y483947D02*
Y507646D01*
X164485Y521126D02*
X234984D01*
X151005Y507646D02*
X164485Y521126D01*
X234984Y521126D02*
X253286Y502824D01*
X140933Y838207D02*
Y901806D01*
X189077Y949950D01*
X282727D01*
D146*
X138450Y331300D02*
D03*
D147*
X11450D02*
D03*
X62250Y356700D02*
D03*
D148*
X515776Y967962D02*
D03*
X475776D02*
D03*
X495776D02*
D03*
X140943Y421588D02*
D03*
X317225Y703098D02*
D03*
X337225D02*
D03*
X357225D02*
D03*
Y662468D02*
D03*
X337225D02*
D03*
X317225D02*
D03*
X21502Y760551D02*
D03*
D149*
X393000Y978750D02*
D03*
X418400D02*
D03*
X342200D02*
D03*
X367600D02*
D03*
X154817Y730832D02*
D03*
X129417D02*
D03*
X205617D02*
D03*
X180217D02*
D03*
X799063Y224965D02*
D03*
D150*
X82300Y550150D02*
D03*
X31500D02*
D03*
Y600950D02*
D03*
X82300D02*
D03*
X569110Y82150D02*
D03*
Y31350D02*
D03*
X619910D02*
D03*
Y82150D02*
D03*
X212970D02*
D03*
Y31350D02*
D03*
X263770D02*
D03*
Y82150D02*
D03*
X82300Y156400D02*
D03*
X31500D02*
D03*
Y105600D02*
D03*
X82300D02*
D03*
Y283467D02*
D03*
X31500D02*
D03*
Y232667D02*
D03*
X82300D02*
D03*
D151*
X56900Y575550D02*
D03*
X594510Y56750D02*
D03*
X238370D02*
D03*
X56900Y131000D02*
D03*
Y258067D02*
D03*
D152*
X21502Y889170D02*
D03*
Y819170D02*
D03*
D153*
X48502Y826070D02*
D03*
Y882270D02*
D03*
D154*
X965000Y605000D02*
D03*
X35000Y965000D02*
D03*
X750000D02*
D03*
X35000Y35000D02*
D03*
X965000D02*
D03*
D155*
X947328Y858039D02*
D03*
Y921039D02*
D03*
D156*
X899329Y886039D02*
D03*
D157*
X101750Y377500D02*
D03*
X604294Y198670D02*
D03*
X576190Y132912D02*
D03*
X828954Y398520D02*
D03*
X475078Y396701D02*
D03*
X288750Y560750D02*
D03*
X430199Y594651D02*
D03*
X399110D02*
D03*
X365387Y446963D02*
D03*
Y454213D02*
D03*
X393927Y530521D02*
D03*
X683164Y912172D02*
D03*
X700500D02*
D03*
X727750D02*
D03*
X752500D02*
D03*
X774250D02*
D03*
X765250Y923250D02*
D03*
X689412D02*
D03*
X714497D02*
D03*
X739747D02*
D03*
X689686Y901255D02*
D03*
X766122D02*
D03*
X714553D02*
D03*
X739747D02*
D03*
X603918Y777500D02*
D03*
X642596Y754028D02*
D03*
Y768590D02*
D03*
X578692Y754789D02*
D03*
X597825Y754028D02*
D03*
X620825D02*
D03*
Y768590D02*
D03*
X626250Y812754D02*
D03*
X642596D02*
D03*
X570856Y812787D02*
D03*
X576824Y791184D02*
D03*
X597825D02*
D03*
X620825D02*
D03*
X642125D02*
D03*
X539679Y926455D02*
D03*
X449573Y926455D02*
D03*
X737726Y859466D02*
D03*
X713273Y812750D02*
D03*
X659863Y812754D02*
D03*
X708250Y754028D02*
D03*
X666250D02*
D03*
X687250Y777500D02*
D03*
X666250Y768590D02*
D03*
X708250D02*
D03*
Y791264D02*
D03*
X666250D02*
D03*
X687250Y791184D02*
D03*
X408345Y905977D02*
D03*
X406641Y474031D02*
D03*
X417364Y462489D02*
D03*
X573787Y435116D02*
D03*
X498750Y443750D02*
D03*
X475092D02*
D03*
X468837Y435116D02*
D03*
X500993Y435065D02*
D03*
X511250Y433500D02*
D03*
X474844Y428088D02*
D03*
X561685Y460494D02*
D03*
X528653D02*
D03*
X384707Y520370D02*
D03*
X388022Y542626D02*
D03*
X377772Y540025D02*
D03*
X355639Y550431D02*
D03*
X377106Y548176D02*
D03*
X365559Y552139D02*
D03*
X365458Y543953D02*
D03*
X640070Y515491D02*
D03*
X430370Y487303D02*
D03*
X456301Y513237D02*
D03*
X586743Y510960D02*
D03*
X475092Y527851D02*
D03*
X451439Y532473D02*
D03*
X533012Y494349D02*
D03*
X525762D02*
D03*
X528650Y423439D02*
D03*
X561680Y424349D02*
D03*
X572366Y498465D02*
D03*
X563110Y498876D02*
D03*
X537395Y532444D02*
D03*
X554163Y499391D02*
D03*
X520272Y521265D02*
D03*
X520949Y529439D02*
D03*
X648924Y655686D02*
D03*
X643750Y636500D02*
D03*
X585526Y676066D02*
D03*
X589147Y631861D02*
D03*
X595931Y645189D02*
D03*
X612906Y645009D02*
D03*
X428115Y703258D02*
D03*
X387137Y725394D02*
D03*
X430370Y520370D02*
D03*
X191562Y267188D02*
D03*
X176454Y286817D02*
D03*
X158820Y433088D02*
D03*
X393283Y63712D02*
D03*
X800000Y59250D02*
D03*
X150409Y637000D02*
D03*
X174412Y612211D02*
D03*
X349976Y581762D02*
D03*
X294081Y190792D02*
D03*
X304048Y196969D02*
D03*
X285634Y183948D02*
D03*
Y82580D02*
D03*
X294081Y89080D02*
D03*
X740539Y381437D02*
D03*
X334400Y834000D02*
D03*
X379773Y916806D02*
D03*
X883567Y359536D02*
D03*
X745620Y466320D02*
D03*
X720368Y559843D02*
D03*
X774570Y522613D02*
D03*
X758055Y522797D02*
D03*
X326740Y299614D02*
D03*
X527839Y717758D02*
D03*
X536518Y718046D02*
D03*
X536278Y709319D02*
D03*
X544813Y710038D02*
D03*
X544381Y701120D02*
D03*
X553108Y702031D02*
D03*
X552053Y693064D02*
D03*
X561451Y694647D02*
D03*
X560876Y685872D02*
D03*
X569795Y686495D02*
D03*
X578331Y352576D02*
D03*
X568443Y351756D02*
D03*
X559021Y360552D02*
D03*
X568715Y360681D02*
D03*
X559249Y369422D02*
D03*
X550565Y369056D02*
D03*
X551399Y378307D02*
D03*
X542020Y376874D02*
D03*
X541747Y386266D02*
D03*
X655342Y317924D02*
D03*
X621990Y319679D02*
D03*
X571376Y319386D02*
D03*
X300072Y319386D02*
D03*
X267305Y319581D02*
D03*
X212205Y319386D02*
D03*
X179931Y248876D02*
D03*
X217581Y434588D02*
D03*
X206581D02*
D03*
X195581D02*
D03*
X217581Y445588D02*
D03*
X206581D02*
D03*
X195581D02*
D03*
X217581Y456588D02*
D03*
X206581D02*
D03*
X195581D02*
D03*
X240874Y258067D02*
D03*
X597013Y257948D02*
D03*
X500993Y369646D02*
D03*
Y358646D02*
D03*
Y347646D02*
D03*
X489993Y369646D02*
D03*
Y358646D02*
D03*
Y347646D02*
D03*
X478993Y369646D02*
D03*
Y358646D02*
D03*
Y347646D02*
D03*
X855111Y369527D02*
D03*
Y358527D02*
D03*
Y347527D02*
D03*
X844111Y369527D02*
D03*
Y358527D02*
D03*
Y347527D02*
D03*
X833111Y369527D02*
D03*
Y358527D02*
D03*
Y347527D02*
D03*
X493745Y626000D02*
D03*
X504745D02*
D03*
X515745D02*
D03*
X526745D02*
D03*
X537745D02*
D03*
X548745D02*
D03*
X493745Y615000D02*
D03*
X504745D02*
D03*
X515745D02*
D03*
X526745D02*
D03*
X537745D02*
D03*
X548745D02*
D03*
X493745Y604000D02*
D03*
X504745D02*
D03*
X515745D02*
D03*
X526745D02*
D03*
X537745D02*
D03*
X548745D02*
D03*
X493745Y593000D02*
D03*
X504745D02*
D03*
X515745D02*
D03*
X526745D02*
D03*
X537745D02*
D03*
X548745D02*
D03*
X493745Y582000D02*
D03*
X504745D02*
D03*
X515745D02*
D03*
X526745D02*
D03*
X537745D02*
D03*
X548745D02*
D03*
X493745Y571000D02*
D03*
X504745D02*
D03*
X515745D02*
D03*
X526745D02*
D03*
X537745D02*
D03*
X548745D02*
D03*
X798402Y371079D02*
D03*
X451099Y380586D02*
D03*
X255891Y307682D02*
D03*
X830766Y290610D02*
D03*
X567420Y527473D02*
D03*
X532592Y291554D02*
D03*
X536778Y249450D02*
D03*
X212000Y278750D02*
D03*
X271920Y238170D02*
D03*
X769000Y33250D02*
D03*
X762500Y44500D02*
D03*
X762401Y53721D02*
D03*
X830766Y49547D02*
D03*
X762401Y70875D02*
D03*
X497281Y92175D02*
D03*
X633467Y226757D02*
D03*
X304048Y95580D02*
D03*
X393283Y165762D02*
D03*
X277325Y226750D02*
D03*
X646750Y249000D02*
D03*
X626250Y238158D02*
D03*
X293920Y248876D02*
D03*
X413768Y184524D02*
D03*
X447000Y209262D02*
D03*
X304048Y76077D02*
D03*
X413768Y74062D02*
D03*
Y83080D02*
D03*
X938750Y285750D02*
D03*
X674510Y22740D02*
D03*
X915007D02*
D03*
X947000Y167013D02*
D03*
X927250D02*
D03*
X908750Y167125D02*
D03*
X964250Y167013D02*
D03*
X463939Y306615D02*
D03*
X437173Y307582D02*
D03*
X800089Y22741D02*
D03*
X518250Y306615D02*
D03*
X633467Y307462D02*
D03*
X611953Y307582D02*
D03*
X582013Y307204D02*
D03*
X277451Y307572D02*
D03*
X225874Y307323D02*
D03*
X690000Y299250D02*
D03*
X363840Y301924D02*
D03*
X384421Y291500D02*
D03*
X394936D02*
D03*
X415396Y301924D02*
D03*
X386421Y381556D02*
D03*
X300750Y584744D02*
D03*
X503248Y290729D02*
D03*
X437000Y344000D02*
D03*
X375260Y725827D02*
D03*
X298382Y680771D02*
D03*
Y640206D02*
D03*
X467845Y860977D02*
D03*
X248269Y770821D02*
D03*
X175002Y629320D02*
D03*
X181263Y379892D02*
D03*
X201682Y379628D02*
D03*
X304048Y177469D02*
D03*
X191515Y255317D02*
D03*
X547825Y255105D02*
D03*
X444859Y371009D02*
D03*
X537500Y393500D02*
D03*
X531500Y399000D02*
D03*
X878000Y334000D02*
D03*
X525750Y334500D02*
D03*
X708273Y626053D02*
D03*
X603918Y610589D02*
D03*
X284241Y460342D02*
D03*
X130007Y553785D02*
D03*
X437036Y536211D02*
D03*
X427155Y536211D02*
D03*
X449751Y59612D02*
D03*
X437051Y187462D02*
D03*
X314703Y599343D02*
D03*
X236580Y528653D02*
D03*
X285927Y406455D02*
D03*
X282917Y441560D02*
D03*
Y420323D02*
D03*
X273712Y492250D02*
D03*
X262499Y430978D02*
D03*
Y392088D02*
D03*
X253286Y502824D02*
D03*
X224580Y528653D02*
D03*
X176580D02*
D03*
X188580D02*
D03*
X181170Y389708D02*
D03*
X201890D02*
D03*
X136281Y532262D02*
D03*
X200580Y528653D02*
D03*
X212580D02*
D03*
X164485Y521126D02*
D03*
X151005Y460865D02*
D03*
X151005Y483947D02*
D03*
X138927Y388958D02*
D03*
Y400951D02*
D03*
X136334Y510544D02*
D03*
X130877Y454029D02*
D03*
X130550Y473587D02*
D03*
X124533Y496455D02*
D03*
X112495Y497391D02*
D03*
X632363Y610185D02*
D03*
X717959Y301805D02*
D03*
X567843Y278750D02*
D03*
X476165Y291500D02*
D03*
X450671Y290729D02*
D03*
X601420Y675470D02*
D03*
X611470D02*
D03*
X507908Y688363D02*
D03*
X433750Y640206D02*
D03*
X611288Y536211D02*
D03*
X447750Y640500D02*
D03*
X182163Y637000D02*
D03*
X789957Y343250D02*
D03*
X621470Y536211D02*
D03*
X738539Y291295D02*
D03*
X749054D02*
D03*
X324058Y860806D02*
D03*
X189077Y949950D02*
D03*
X216900Y936620D02*
D03*
X248407Y936620D02*
D03*
X254002Y893476D02*
D03*
X264002Y884920D02*
D03*
X282727Y949950D02*
D03*
X306097Y936620D02*
D03*
X313568Y881138D02*
D03*
X103706Y707533D02*
D03*
X115227Y802319D02*
D03*
X130933Y818795D02*
D03*
X138699Y784411D02*
D03*
X167409Y672840D02*
D03*
X185647Y824920D02*
D03*
X205485Y760322D02*
D03*
X225863Y770878D02*
D03*
X229002Y811276D02*
D03*
X267502Y824920D02*
D03*
X279355Y770878D02*
D03*
X313502Y813564D02*
D03*
X67058Y841170D02*
D03*
X74726Y874000D02*
D03*
Y887450D02*
D03*
X78197Y842471D02*
D03*
X103673Y934946D02*
D03*
X113204Y874921D02*
D03*
X123308Y839170D02*
D03*
X140933Y838207D02*
D03*
X155659Y904411D02*
D03*
X165977Y936620D02*
D03*
X184897Y889920D02*
D03*
X185647Y842421D02*
D03*
Y869920D02*
D03*
X302189Y976984D02*
D03*
X169611D02*
D03*
X259007Y959950D02*
D03*
X567843Y238261D02*
D03*
X804361Y341027D02*
D03*
X794296Y311059D02*
D03*
X803861Y382027D02*
D03*
X820296Y311059D02*
D03*
X775935Y356027D02*
D03*
X857366Y290610D02*
D03*
X872368Y306496D02*
D03*
X769514Y301805D02*
D03*
X804789Y290610D02*
D03*
X786745Y544293D02*
D03*
X227587Y959950D02*
D03*
X375260Y639653D02*
D03*
X583790Y226757D02*
D03*
X547701Y267069D02*
D03*
X731450Y676066D02*
D03*
X744150Y714850D02*
D03*
X731450Y602800D02*
D03*
X421818Y356146D02*
D03*
X450243Y341146D02*
D03*
X413783Y175454D02*
D03*
X211704Y238260D02*
D03*
X227651Y226876D02*
D03*
X393848Y634250D02*
D03*
X398848Y656902D02*
D03*
X435231Y675470D02*
D03*
X445496D02*
D03*
X517911Y708245D02*
D03*
X606442Y685896D02*
D03*
X591447Y532473D02*
D03*
D158*
X964000Y194710D02*
D03*
Y274460D02*
D03*
X640254Y875460D02*
D03*
X524537Y773963D02*
D03*
X574824Y967045D02*
D03*
X664236D02*
D03*
X733500Y875500D02*
D03*
X713273Y726795D02*
D03*
X50875Y507521D02*
D03*
X72250Y470250D02*
D03*
X138071Y272250D02*
D03*
X516240Y111760D02*
D03*
X872869Y112120D02*
D03*
X800089Y111760D02*
D03*
X907267Y947899D02*
D03*
X863700D02*
D03*
Y866598D02*
D03*
Y912950D02*
D03*
X827495Y175000D02*
D03*
X905250Y52875D02*
D03*
X850021Y151000D02*
D03*
X827000D02*
D03*
X848818Y76448D02*
D03*
X744948D02*
D03*
X692448Y55709D02*
D03*
M02*
