M48
;Layer_Color=9474304
;FILE_FORMAT=4:4
METRIC,LZ
;TYPE=PLATED
T1F00S00C0.3000
T2F00S00C0.5000
T5F00S00C0.6000
T6F00S00C0.7000
T7F00S00C0.8000
T8F00S00C1.0000
T10F00S00C1.2000
T11F00S00C1.5000
T12F00S00C1.7000
T13F00S00C3.3000
%
T01
X00267759Y00082577
X00275467Y00089077
X00281923Y00095365
X00282628Y00076077
X00371853Y00063712
X00392363Y00074062
Y00084562
X00449751Y00059612
X00497281Y00092175
X0067451Y0002274
X00769Y0003325
X007625Y000445
X00762401Y00053721
Y00070875
X00799663Y00066375
Y00053721
X00800089Y00022741
X00830766Y00049547
X00915007Y0002274
X0090875Y00167125
X0092725Y00167013
X00947
X0096425
X0093875Y0028575
X00857366Y0029061
X00830766
X00804789
X00794296Y00311059
X00820296
X00804361Y00341027
X00789957Y0034325
X00775935Y00356027
X00798402Y00371079
X00803861Y00382027
X00828954Y0039852
X00833111Y00369527
Y00358527
X00844111
X00855111
Y00369527
X00844111
Y00347527
X00855111
X00833111
X00878Y00334
X00883567Y00359536
X00872368Y00306496
X00769514Y00301805
X00749054Y00291295
X00738539
X00717959Y00301805
X0069Y0029925
X00655499Y00318516
X00740539Y00381437
X00752Y004685
X00589955Y00472124
X0059503Y00477477
X00584169Y00466574
X0058878Y00508194
X00463901Y00469001
X00457328Y00474551
X00450876Y00480066
X00412901Y00515491
X00386421Y00381556
X00421818Y00356146
X00437Y00344
X00450243Y00341146
X00444859Y00371009
X00451099Y00380586
X00478993Y00369646
Y00358646
X00489993
X00500993
Y00369646
X00489993
Y00347646
X00500993
X00478993
X00475078Y00396701
X005315Y00399
X005375Y003935
X00543281Y00383422
X00543307Y00376146
X00550665Y00375957
Y00368601
X00559245
Y00361146
X0056742
X00567434Y00353736
X00567843Y00346027
X00571264Y00318618
X00582013Y00307204
X00611953Y00307582
X0062147Y003185
X00633467Y00307462
X0064675Y00249
X0062625Y00238158
X00633467Y00226757
X0058379
X00567843Y00238261
X00547825Y00255105
X00547701Y00267069
X00536778Y0024945
X00532592Y00291554
X0051825Y00306615
X00503248Y00290729
X00476165Y002915
X00450671Y00290729
X00463939Y00306615
X00437173Y00307582
X00415396Y00301924
X00394936Y002915
X00384421
X0036384Y00301924
X00328Y0029975
X0029975Y003185
X00267
X00277451Y00307572
X0027192Y0023817
X00277325Y0022675
X0029392Y00248876
X0029737Y00190469
X00304048Y00196969
Y00177469
X00289965Y00183969
X00393283Y00165762
X00413783Y00175454
X00413768Y00184524
X00437051Y00187462
X00447Y00209262
X00567843Y0027875
X00597013Y00257948
X0052575Y003345
X00255891Y00307682
X00225874Y00307323
X00212248Y003185
X00212Y0027875
X00191562Y00267188
X00191515Y00255317
X00191456Y00248355
X00211704Y0023826
X00227651Y00226876
X00240874Y00258067
X00176454Y00286817
X0018843Y00443327
X00211858Y00457695
X00208848Y00471562
Y00492799
X00210172Y00511582
X0018843Y00482218
X00143512Y00485828
X00132512
Y00496828
X00143512
Y00507828
X00132512
X00121512
Y00496828
Y00485828
X00089416Y00482562
X00076936Y00512105
X00056808Y00505269
X00011057Y00518028
X00043729Y00443327
X00064858Y00440197
Y00452191
X00107101Y00440947
X00107194Y00431132
X00127613Y00430868
X00127821Y00440947
X00021731Y00415767
X00021638Y00538447
X00038426Y00548631
X00050464Y00547695
X00062264Y00561784
X00062212Y00583502
X00055938Y00605025
X00090416Y00572366
X00102511Y00579892
X00114511
X00126511
X00138511
X00150511
X00162511
X00179217Y00554063
X00199643Y00543489
X00174412Y00612211
X00175002Y0062932
X00182163Y00637
X00150409
X00167409Y0067284
X00103706Y00707533
X00115227Y00802319
X00130933Y00818795
X00123308Y0083917
X00140933Y00838207
X00185647Y00842421
Y0082492
Y0086992
X00184897Y0088992
X00155659Y00904411
X00113204Y00874921
X00074726Y00874
Y0088745
X00078197Y00842471
X00067058Y0084117
X00138699Y00784411
X00205485Y00760322
X00225863Y00770878
X00248269Y00770821
X00229002Y00811276
X00254002Y00893476
X00076936Y00535187
X00056481Y00524826
X0030075Y00584744
X00314703Y00599343
X00349976Y00581762
X00394769Y00584972
X00384707Y0059515
X00393848Y0063425
X0037526Y00639653
X00398848Y00656902
X0043375Y00640206
X0044775Y006405
X00445496Y0067547
X00435231
X00428244Y00703272
X00387266Y00725408
X0037526Y00725827
X0030694Y00737686
X00279355Y00770878
X00267502Y0082492
X00313502Y00813564
X003344Y00834
X00324058Y00860806
X00313568Y00881138
X00264002Y0088492
X003905Y0086725
X00451539Y00834561
X00541039
X00618226Y00867216
X00654699Y0081275
X00648924Y00655686
X00631536Y0063408
X00632363Y00610185
X00603918Y00610589
X00595872Y006405
X00611318Y00643166
X0061147Y0067547
X0060142
X00606442Y00685896
X00586Y00694627
X00560959Y00693847
X00560848Y00685851
X00568483
X00552703Y00693847
X00552616Y00701184
X00544897Y00701502
Y00709627
X00536697Y00709803
X00536567Y00717521
X00528833Y00717243
X00517911Y00708245
X00507908Y00688363
X00504745Y00626
X00493745
Y00615
X00504745
X00515745
Y00626
X00526745
X00537745
X00548745
Y00615
X00537745
X00526745
Y00604
X00515745
X00504745
X00493745
Y00593
X00504745
X00515745
X00526745
X00537745
Y00604
X00548745
Y00593
Y00582
X00537745
X00526745
X00515745
X00504745
X00493745
Y00571
X00504745
X00515745
X00526745
X00537745
X00548745
X00537889Y00534251
X00533569Y00527968
X00529204Y00520926
X0051342
X0050893Y00526968
X0050461Y00533251
X00472867Y00526363
X00453035Y00524065
X00437036Y00536211
X00427155Y00536211
X00396264Y00539335
X003889Y00539396
X00381564Y00539335
X00374006
X00366642
X00359342
X00462896Y00542598
X00444904Y00563159
X0056742Y00527473
X00591447Y00532473
X00611288Y00536211
X0062147
X0064007Y0051907
X00298382Y00640206
Y00680771
X0066125Y00754028
Y0076859
Y00791264
X0068225Y00791184
Y007775
X0070325Y0076859
Y00754028
Y00791264
X00708273Y0081275
X0074415Y0071485
X0073145Y00676066
X00708273Y00626053
X0073145Y006028
X00721316Y00555679
X0075685Y005221
X007735
X00786745Y00544293
X004355Y0092675
X00306097Y0093662
X00282727Y0094995
X00259007Y0095995
X00302189Y00976984
X00227587Y0095995
X002169Y0093662
X00248407Y0093662
X00189077Y0094995
X00165977Y0093662
X00169611Y00976984
X00103673Y00934946
T02
X0051624Y0011176
X00692448Y00055709
X00744948Y00076448
X00800089Y0011176
X00874737
X00848818Y00076448
X0090525Y00052875
X00850021Y00151
X00827
X00827495Y00175
X00964Y0019471
Y0027446
X006038Y0091295
X007285Y008755
X008637Y00866598
Y0091295
X0068225Y00708644
X008637Y00947899
X00907267
T05
X00021502Y00760551
T06
X00477539Y00796811
X00497539
X00517539
T07
X00317225Y00662468
X00337225
X00357225
Y00703098
X00337225
X00317225
T08
X00799063Y00224965
X00257925Y00725086
Y00750486
X00205617Y00730832
X00180217
X00154817
X00129417
X0075551Y00912979
T10
X0093975Y0067325
Y0072325
T11
X0053451Y00173185
X0017837Y001733
X00210915Y00383222
X00084115
X00249421Y005685
T12
X0050911Y00147785
Y00198585
X0055991
Y00147785
X0020377Y001479
X0015297
Y001987
X0020377
X00185515Y00357822
X00236315
Y00408622
X00185515
X00109515
Y00357822
X00058715
Y00408622
X00224021Y005431
Y005939
X00274821
Y005431
T13
X00035Y00035
X00965
Y00605
X0075Y00965
X00035
M30
